<?xml version="1.0" encoding="utf-8"?>
<!DOCTYPE score-partwise  PUBLIC "-//Recordare//DTD MusicXML 3.0 Partwise//EN" "http://www.musicxml.org/dtds/partwise.dtd">
<score-partwise version="3.0">
  <work>
    <work-title>Morgengruss</work-title>
  </work>
  <movement-title>Morgengruss</movement-title>
  <identification>
    <creator type="composer">Felix Mendelssohn</creator>
    <creator type="lyricist">Heine</creator>
    <encoding>
      <encoding-date>2018-03-06</encoding-date>
      <software>music21 v.5.0.4a2</software>
    </encoding>
    <miscellaneous>
      <miscellaneous-field name="number">No. 2</miscellaneous-field>
      <miscellaneous-field name="opusNumber">Op. 47</miscellaneous-field>
      <miscellaneous-field name="parentTitle">no_parentTitle_info</miscellaneous-field>
    </miscellaneous>
  </identification>
  <defaults>
    <scaling>
      <millimeters>7</millimeters>
      <tenths>40</tenths>
    </scaling>
  </defaults>
  <part-list>
    <score-part id="P1">
      <part-name />
    </score-part>
  </part-list>
  <!--=========================== Part 1 ===========================-->
  <part id="P1">
    <!--========================= Measure 1 ==========================-->
    <measure number="1">
      <attributes>
        <divisions>10080</divisions>
        <key>
          <fifths>2</fifths>
        </key>
        <time>
          <beats>9</beats>
          <beat-type>8</beat-type>
        </time>
        <clef>
          <sign>G</sign>
          <line>2</line>
        </clef>
      </attributes>
      <note>
        <rest />
        <duration>15120</duration>
        <type>quarter</type>
        <dot />
      </note>
      <note>
        <rest />
        <duration>15120</duration>
        <type>quarter</type>
        <dot />
      </note>
      <note>
        <pitch>
          <step>D</step>
          <octave>4</octave>
        </pitch>
        <duration>5040</duration>
        <type>eighth</type>
        <beam number="1">begin</beam>
        <lyric name="1" number="1">
          <syllabic>begin</syllabic>
          <text>Ue</text>
        </lyric>
      </note>
      <note>
        <pitch>
          <step>F</step>
          <alter>1</alter>
          <octave>4</octave>
        </pitch>
        <duration>5040</duration>
        <type>eighth</type>
        <beam number="1">continue</beam>
        <lyric name="1" number="1">
          <syllabic>end</syllabic>
          <text>ber</text>
        </lyric>
      </note>
      <note>
        <pitch>
          <step>A</step>
          <octave>4</octave>
        </pitch>
        <duration>5040</duration>
        <type>eighth</type>
        <beam number="1">end</beam>
        <lyric name="1" number="1">
          <syllabic>single</syllabic>
          <text>die</text>
        </lyric>
      </note>
    </measure>
    <!--========================= Measure 2 ==========================-->
    <measure number="2">
      <note>
        <pitch>
          <step>B</step>
          <octave>4</octave>
        </pitch>
        <duration>15120</duration>
        <type>quarter</type>
        <dot />
        <lyric name="1" number="1">
          <syllabic>begin</syllabic>
          <text>Ber</text>
        </lyric>
      </note>
      <note>
        <pitch>
          <step>A</step>
          <octave>4</octave>
        </pitch>
        <duration>15120</duration>
        <type>quarter</type>
        <dot />
        <lyric name="1" number="1">
          <syllabic>end</syllabic>
          <text>ge</text>
        </lyric>
      </note>
      <note>
        <pitch>
          <step>D</step>
          <octave>5</octave>
        </pitch>
        <duration>5040</duration>
        <type>eighth</type>
        <beam number="1">begin</beam>
        <lyric name="1" number="1">
          <syllabic>single</syllabic>
          <text>steigt</text>
        </lyric>
      </note>
      <note>
        <pitch>
          <step>A</step>
          <octave>4</octave>
        </pitch>
        <duration>5040</duration>
        <type>eighth</type>
        <beam number="1">continue</beam>
        <lyric name="1" number="1">
          <syllabic>single</syllabic>
          <text>schon</text>
        </lyric>
      </note>
      <note>
        <pitch>
          <step>F</step>
          <alter>1</alter>
          <octave>4</octave>
        </pitch>
        <duration>5040</duration>
        <type>eighth</type>
        <beam number="1">end</beam>
        <lyric name="1" number="1">
          <syllabic>single</syllabic>
          <text>die</text>
        </lyric>
      </note>
    </measure>
    <!--========================= Measure 3 ==========================-->
    <measure number="3">
      <note>
        <pitch>
          <step>G</step>
          <octave>4</octave>
        </pitch>
        <duration>15120</duration>
        <type>quarter</type>
        <dot />
        <lyric name="1" number="1">
          <syllabic>begin</syllabic>
          <text>Son</text>
        </lyric>
      </note>
      <note>
        <pitch>
          <step>F</step>
          <alter>1</alter>
          <octave>4</octave>
        </pitch>
        <duration>10080</duration>
        <type>quarter</type>
        <lyric name="1" number="1">
          <syllabic>end</syllabic>
          <text>ne,</text>
        </lyric>
      </note>
      <note>
        <pitch>
          <step>F</step>
          <alter>1</alter>
          <octave>4</octave>
        </pitch>
        <duration>5040</duration>
        <type>eighth</type>
        <lyric name="1" number="1">
          <syllabic>single</syllabic>
          <text>die</text>
        </lyric>
      </note>
      <note>
        <pitch>
          <step>A</step>
          <octave>4</octave>
        </pitch>
        <duration>5040</duration>
        <type>eighth</type>
        <beam number="1">begin</beam>
        <lyric name="1" number="1">
          <syllabic>begin</syllabic>
          <text>Läm</text>
        </lyric>
      </note>
      <note>
        <pitch>
          <step>F</step>
          <alter>1</alter>
          <octave>4</octave>
        </pitch>
        <duration>5040</duration>
        <type>eighth</type>
        <beam number="1">continue</beam>
        <lyric name="1" number="1">
          <syllabic>single</syllabic>
          <text />
        </lyric>
      </note>
      <note>
        <pitch>
          <step>E</step>
          <octave>4</octave>
        </pitch>
        <duration>5040</duration>
        <type>eighth</type>
        <beam number="1">end</beam>
        <lyric name="1" number="1">
          <syllabic>middle</syllabic>
          <text>mer</text>
        </lyric>
      </note>
    </measure>
    <!--========================= Measure 4 ==========================-->
    <measure number="4">
      <note>
        <pitch>
          <step>D</step>
          <octave>4</octave>
        </pitch>
        <duration>15120</duration>
        <type>quarter</type>
        <dot />
        <lyric name="1" number="1">
          <syllabic>middle</syllabic>
          <text>heer</text>
        </lyric>
      </note>
      <note>
        <pitch>
          <step>D</step>
          <octave>4</octave>
        </pitch>
        <duration>15120</duration>
        <type>quarter</type>
        <dot />
        <lyric name="1" number="1">
          <syllabic>end</syllabic>
          <text>de</text>
        </lyric>
      </note>
      <note>
        <pitch>
          <step>D</step>
          <octave>4</octave>
        </pitch>
        <duration>5040</duration>
        <type>eighth</type>
        <beam number="1">begin</beam>
        <lyric name="1" number="1">
          <syllabic>begin</syllabic>
          <text>läu</text>
        </lyric>
      </note>
      <note>
        <pitch>
          <step>D</step>
          <octave>4</octave>
        </pitch>
        <duration>5040</duration>
        <type>eighth</type>
        <beam number="1">continue</beam>
        <lyric name="1" number="1">
          <syllabic>end</syllabic>
          <text>tet</text>
        </lyric>
      </note>
      <note>
        <pitch>
          <step>E</step>
          <octave>4</octave>
        </pitch>
        <duration>5040</duration>
        <type>eighth</type>
        <beam number="1">end</beam>
        <lyric name="1" number="1">
          <syllabic>single</syllabic>
          <text>von</text>
        </lyric>
      </note>
    </measure>
    <!--========================= Measure 5 ==========================-->
    <measure number="5">
      <note>
        <pitch>
          <step>F</step>
          <alter>1</alter>
          <octave>4</octave>
        </pitch>
        <duration>15120</duration>
        <type>quarter</type>
        <dot />
        <lyric name="1" number="1">
          <syllabic>single</syllabic>
          <text>ferm:</text>
        </lyric>
      </note>
      <note>
        <rest />
        <duration>10080</duration>
        <type>quarter</type>
      </note>
      <note>
        <pitch>
          <step>D</step>
          <octave>4</octave>
        </pitch>
        <duration>5040</duration>
        <type>eighth</type>
        <lyric name="1" number="1">
          <syllabic>single</syllabic>
          <text>Mein</text>
        </lyric>
      </note>
      <note>
        <pitch>
          <step>F</step>
          <alter>1</alter>
          <octave>4</octave>
        </pitch>
        <duration>5040</duration>
        <type>eighth</type>
        <beam number="1">begin</beam>
        <lyric name="1" number="1">
          <syllabic>begin</syllabic>
          <text>Lieb</text>
        </lyric>
      </note>
      <note>
        <pitch>
          <step>A</step>
          <octave>4</octave>
        </pitch>
        <duration>5040</duration>
        <type>eighth</type>
        <beam number="1">continue</beam>
        <lyric name="1" number="1">
          <syllabic>end</syllabic>
          <text>chen,</text>
        </lyric>
      </note>
      <note>
        <pitch>
          <step>D</step>
          <octave>5</octave>
        </pitch>
        <duration>5040</duration>
        <type>eighth</type>
        <beam number="1">end</beam>
        <lyric name="1" number="1">
          <syllabic>single</syllabic>
          <text>mein</text>
        </lyric>
      </note>
    </measure>
    <!--========================= Measure 6 ==========================-->
    <measure number="6">
      <note>
        <pitch>
          <step>D</step>
          <octave>5</octave>
        </pitch>
        <duration>15120</duration>
        <tie type="start" />
        <type>quarter</type>
        <dot />
        <notations>
          <tied type="start" />
        </notations>
        <lyric name="1" number="1">
          <syllabic>single</syllabic>
          <text>Lamm,</text>
        </lyric>
      </note>
      <note>
        <pitch>
          <step>D</step>
          <octave>5</octave>
        </pitch>
        <duration>5040</duration>
        <tie type="stop" />
        <type>eighth</type>
        <beam number="1">begin</beam>
        <notations>
          <tied type="stop" />
        </notations>
        <lyric name="1" number="1">
          <syllabic>single</syllabic>
          <text />
        </lyric>
      </note>
      <note>
        <pitch>
          <step>C</step>
          <alter>1</alter>
          <octave>5</octave>
        </pitch>
        <duration>5040</duration>
        <type>eighth</type>
        <beam number="1">continue</beam>
        <lyric name="1" number="1">
          <syllabic>begin</syllabic>
          <text>mei</text>
        </lyric>
      </note>
      <note>
        <pitch>
          <step>B</step>
          <octave>4</octave>
        </pitch>
        <duration>5040</duration>
        <type>eighth</type>
        <beam number="1">end</beam>
        <lyric name="1" number="1">
          <syllabic>end</syllabic>
          <text>ne</text>
        </lyric>
      </note>
      <note>
        <pitch>
          <step>B</step>
          <octave>4</octave>
        </pitch>
        <duration>5040</duration>
        <type>eighth</type>
        <beam number="1">begin</beam>
        <lyric name="1" number="1">
          <syllabic>begin</syllabic>
          <text>Son</text>
        </lyric>
      </note>
      <note>
        <pitch>
          <step>A</step>
          <octave>4</octave>
        </pitch>
        <duration>5040</duration>
        <type>eighth</type>
        <beam number="1">continue</beam>
        <lyric name="1" number="1">
          <syllabic>end</syllabic>
          <text>ne</text>
        </lyric>
      </note>
      <note>
        <pitch>
          <step>G</step>
          <alter>1</alter>
          <octave>4</octave>
        </pitch>
        <duration>5040</duration>
        <type>eighth</type>
        <accidental>sharp</accidental>
        <beam number="1">end</beam>
        <lyric name="1" number="1">
          <syllabic>single</syllabic>
          <text>und</text>
        </lyric>
      </note>
    </measure>
    <!--========================= Measure 7 ==========================-->
    <measure number="7">
      <note>
        <pitch>
          <step>D</step>
          <octave>5</octave>
        </pitch>
        <duration>15120</duration>
        <tie type="start" />
        <type>quarter</type>
        <dot />
        <notations>
          <tied type="start" />
        </notations>
        <lyric name="1" number="1">
          <syllabic>begin</syllabic>
          <text>Won</text>
        </lyric>
      </note>
      <note>
        <pitch>
          <step>D</step>
          <octave>5</octave>
        </pitch>
        <duration>5040</duration>
        <tie type="stop" />
        <type>eighth</type>
        <beam number="1">begin</beam>
        <notations>
          <tied type="stop" />
        </notations>
        <lyric name="1" number="1">
          <syllabic>single</syllabic>
          <text />
        </lyric>
      </note>
      <note>
        <pitch>
          <step>C</step>
          <alter>1</alter>
          <octave>5</octave>
        </pitch>
        <duration>5040</duration>
        <type>eighth</type>
        <beam number="1">continue</beam>
        <lyric name="1" number="1">
          <syllabic>end</syllabic>
          <text>ne,</text>
        </lyric>
      </note>
      <note>
        <pitch>
          <step>B</step>
          <octave>4</octave>
        </pitch>
        <duration>5040</duration>
        <type>eighth</type>
        <beam number="1">end</beam>
        <lyric name="1" number="1">
          <syllabic>single</syllabic>
          <text>noch</text>
        </lyric>
      </note>
      <note>
        <pitch>
          <step>E</step>
          <octave>5</octave>
        </pitch>
        <duration>10080</duration>
        <type>quarter</type>
        <lyric name="1" number="1">
          <syllabic>begin</syllabic>
          <text>ein</text>
        </lyric>
      </note>
      <note>
        <pitch>
          <step>C</step>
          <alter>1</alter>
          <octave>5</octave>
        </pitch>
        <duration>5040</duration>
        <type>eighth</type>
        <lyric name="1" number="1">
          <syllabic>end</syllabic>
          <text>mal</text>
        </lyric>
      </note>
    </measure>
    <!--========================= Measure 8 ==========================-->
    <measure number="8">
      <note>
        <pitch>
          <step>A</step>
          <octave>4</octave>
        </pitch>
        <duration>15120</duration>
        <tie type="start" />
        <type>quarter</type>
        <dot />
        <notations>
          <tied type="start" />
        </notations>
        <lyric name="1" number="1">
          <syllabic>single</syllabic>
          <text>säh'</text>
        </lyric>
      </note>
      <note>
        <pitch>
          <step>A</step>
          <octave>4</octave>
        </pitch>
        <duration>5040</duration>
        <tie type="stop" />
        <type>eighth</type>
        <beam number="1">begin</beam>
        <notations>
          <tied type="stop" />
        </notations>
        <lyric name="1" number="1">
          <syllabic>single</syllabic>
          <text />
        </lyric>
      </note>
      <note>
        <pitch>
          <step>G</step>
          <alter>1</alter>
          <octave>4</octave>
        </pitch>
        <duration>5040</duration>
        <type>eighth</type>
        <accidental>sharp</accidental>
        <beam number="1">continue</beam>
        <lyric name="1" number="1">
          <syllabic>single</syllabic>
          <text>ich</text>
        </lyric>
      </note>
      <note>
        <pitch>
          <step>A</step>
          <octave>4</octave>
        </pitch>
        <duration>5040</duration>
        <type>eighth</type>
        <beam number="1">end</beam>
        <lyric name="1" number="1">
          <syllabic>single</syllabic>
          <text>dich</text>
        </lyric>
      </note>
      <note>
        <pitch>
          <step>C</step>
          <alter>1</alter>
          <octave>5</octave>
        </pitch>
        <duration>10080</duration>
        <type>quarter</type>
        <lyric name="1" number="1">
          <syllabic>single</syllabic>
          <text>gar</text>
        </lyric>
      </note>
      <note>
        <pitch>
          <step>B</step>
          <octave>4</octave>
        </pitch>
        <duration>5040</duration>
        <type>eighth</type>
        <lyric name="1" number="1">
          <syllabic>single</syllabic>
          <text>zu</text>
        </lyric>
      </note>
    </measure>
    <!--========================= Measure 9 ==========================-->
    <measure number="9">
      <note>
        <pitch>
          <step>A</step>
          <octave>4</octave>
        </pitch>
        <duration>15120</duration>
        <type>quarter</type>
        <dot />
        <lyric name="1" number="1">
          <syllabic>single</syllabic>
          <text>gern,</text>
        </lyric>
      </note>
      <note>
        <rest />
        <duration>10080</duration>
        <type>quarter</type>
      </note>
      <note>
        <pitch>
          <step>A</step>
          <octave>4</octave>
        </pitch>
        <duration>5040</duration>
        <type>eighth</type>
        <lyric name="1" number="1">
          <syllabic>single</syllabic>
          <text>noch</text>
        </lyric>
      </note>
      <note>
        <pitch>
          <step>E</step>
          <octave>5</octave>
        </pitch>
        <duration>10080</duration>
        <type>quarter</type>
        <lyric name="1" number="1">
          <syllabic>begin</syllabic>
          <text>ein</text>
        </lyric>
      </note>
      <note>
        <pitch>
          <step>C</step>
          <alter>1</alter>
          <octave>5</octave>
        </pitch>
        <duration>5040</duration>
        <type>eighth</type>
        <lyric name="1" number="1">
          <syllabic>end</syllabic>
          <text>mal</text>
        </lyric>
      </note>
    </measure>
    <!--========================= Measure 10 =========================-->
    <measure number="10">
      <note>
        <pitch>
          <step>A</step>
          <octave>4</octave>
        </pitch>
        <duration>15120</duration>
        <tie type="start" />
        <type>quarter</type>
        <dot />
        <notations>
          <tied type="start" />
        </notations>
        <lyric name="1" number="1">
          <syllabic>single</syllabic>
          <text>säh'</text>
        </lyric>
      </note>
      <note>
        <pitch>
          <step>A</step>
          <octave>4</octave>
        </pitch>
        <duration>5040</duration>
        <tie type="stop" />
        <type>eighth</type>
        <beam number="1">begin</beam>
        <notations>
          <tied type="stop" />
        </notations>
        <lyric name="1" number="1">
          <syllabic>single</syllabic>
          <text />
        </lyric>
      </note>
      <note>
        <pitch>
          <step>G</step>
          <alter>1</alter>
          <octave>4</octave>
        </pitch>
        <duration>5040</duration>
        <type>eighth</type>
        <accidental>sharp</accidental>
        <beam number="1">continue</beam>
        <lyric name="1" number="1">
          <syllabic>single</syllabic>
          <text>ich</text>
        </lyric>
      </note>
      <note>
        <pitch>
          <step>A</step>
          <octave>4</octave>
        </pitch>
        <duration>5040</duration>
        <type>eighth</type>
        <beam number="1">end</beam>
        <lyric name="1" number="1">
          <syllabic>single</syllabic>
          <text>dich</text>
        </lyric>
      </note>
      <note>
        <pitch>
          <step>C</step>
          <alter>1</alter>
          <octave>5</octave>
        </pitch>
        <duration>10080</duration>
        <type>quarter</type>
        <lyric name="1" number="1">
          <syllabic>single</syllabic>
          <text>gar</text>
        </lyric>
      </note>
      <note>
        <pitch>
          <step>B</step>
          <octave>4</octave>
        </pitch>
        <duration>5040</duration>
        <type>eighth</type>
        <lyric name="1" number="1">
          <syllabic>single</syllabic>
          <text>zu</text>
        </lyric>
      </note>
    </measure>
    <!--========================= Measure 11 =========================-->
    <measure number="11">
      <note>
        <pitch>
          <step>A</step>
          <octave>4</octave>
        </pitch>
        <duration>30240</duration>
        <type>half</type>
        <dot />
        <lyric name="1" number="1">
          <syllabic>single</syllabic>
          <text>gern!</text>
        </lyric>
      </note>
      <note>
        <rest />
        <duration>10080</duration>
        <type>quarter</type>
      </note>
      <note>
        <rest />
        <duration>5040</duration>
        <type>eighth</type>
      </note>
    </measure>
    <!--========================= Measure 12 =========================-->
    <measure number="12">
      <note>
        <rest />
        <duration>15120</duration>
        <type>quarter</type>
        <dot />
      </note>
      <note>
        <rest />
        <duration>15120</duration>
        <type>quarter</type>
        <dot />
      </note>
      <note>
        <rest />
        <duration>15120</duration>
        <type>quarter</type>
        <dot />
      </note>
    </measure>
    <!--========================= Measure 13 =========================-->
    <measure number="13">
      <note>
        <rest />
        <duration>15120</duration>
        <type>quarter</type>
        <dot />
      </note>
      <note>
        <rest />
        <duration>10080</duration>
        <type>quarter</type>
      </note>
      <note>
        <pitch>
          <step>E</step>
          <octave>4</octave>
        </pitch>
        <duration>5040</duration>
        <type>eighth</type>
        <lyric name="1" number="1">
          <syllabic>single</syllabic>
          <text>Ich</text>
        </lyric>
      </note>
      <note>
        <pitch>
          <step>E</step>
          <octave>4</octave>
        </pitch>
        <duration>5040</duration>
        <type>eighth</type>
        <beam number="1">begin</beam>
        <lyric name="1" number="1">
          <syllabic>begin</syllabic>
          <text>schau</text>
        </lyric>
      </note>
      <note>
        <pitch>
          <step>A</step>
          <octave>4</octave>
        </pitch>
        <duration>5040</duration>
        <type>eighth</type>
        <beam number="1">continue</beam>
        <lyric name="1" number="1">
          <syllabic>end</syllabic>
          <text>e</text>
        </lyric>
      </note>
      <note>
        <pitch>
          <step>C</step>
          <alter>1</alter>
          <octave>5</octave>
        </pitch>
        <duration>5040</duration>
        <type>eighth</type>
        <beam number="1">end</beam>
        <lyric name="1" number="1">
          <syllabic>begin</syllabic>
          <text>hin</text>
        </lyric>
      </note>
    </measure>
    <!--========================= Measure 14 =========================-->
    <measure number="14">
      <note>
        <pitch>
          <step>E</step>
          <octave>5</octave>
        </pitch>
        <duration>30240</duration>
        <tie type="start" />
        <type>half</type>
        <dot />
        <notations>
          <tied type="start" />
        </notations>
        <lyric name="1" number="1">
          <syllabic>end</syllabic>
          <text>auf</text>
        </lyric>
      </note>
      <note>
        <pitch>
          <step>E</step>
          <octave>5</octave>
        </pitch>
        <duration>15120</duration>
        <tie type="stop" />
        <type>quarter</type>
        <dot />
        <notations>
          <tied type="stop" />
        </notations>
        <lyric name="1" number="1">
          <syllabic>single</syllabic>
          <text />
        </lyric>
      </note>
    </measure>
    <!--========================= Measure 15 =========================-->
    <measure number="15">
      <note>
        <rest />
        <duration>15120</duration>
        <type>quarter</type>
        <dot />
      </note>
      <note>
        <rest />
        <duration>10080</duration>
        <type>quarter</type>
      </note>
      <note>
        <pitch>
          <step>E</step>
          <octave>4</octave>
        </pitch>
        <duration>5040</duration>
        <type>eighth</type>
        <lyric name="1" number="1">
          <syllabic>single</syllabic>
          <text>mit</text>
        </lyric>
      </note>
      <note>
        <pitch>
          <step>E</step>
          <octave>4</octave>
        </pitch>
        <duration>5040</duration>
        <type>eighth</type>
        <beam number="1">begin</beam>
        <lyric name="1" number="1">
          <syllabic>begin</syllabic>
          <text>spä</text>
        </lyric>
      </note>
      <note>
        <pitch>
          <step>A</step>
          <octave>4</octave>
        </pitch>
        <duration>5040</duration>
        <type>eighth</type>
        <beam number="1">continue</beam>
        <lyric name="1" number="1">
          <syllabic>middle</syllabic>
          <text>hen</text>
        </lyric>
      </note>
      <note>
        <pitch>
          <step>C</step>
          <alter>0</alter>
          <octave>5</octave>
        </pitch>
        <duration>5040</duration>
        <type>eighth</type>
        <accidental>natural</accidental>
        <beam number="1">end</beam>
        <lyric name="1" number="1">
          <syllabic>end</syllabic>
          <text>der</text>
        </lyric>
      </note>
    </measure>
    <!--========================= Measure 16 =========================-->
    <measure number="16">
      <note>
        <pitch>
          <step>E</step>
          <octave>5</octave>
        </pitch>
        <duration>30240</duration>
        <type>half</type>
        <dot />
        <lyric name="1" number="1">
          <syllabic>begin</syllabic>
          <text>Mie</text>
        </lyric>
      </note>
      <note>
        <pitch>
          <step>C</step>
          <alter>0</alter>
          <octave>5</octave>
        </pitch>
        <duration>15120</duration>
        <type>quarter</type>
        <dot />
        <accidental>natural</accidental>
        <lyric name="1" number="1">
          <syllabic>end</syllabic>
          <text>ne,</text>
        </lyric>
      </note>
    </measure>
    <!--========================= Measure 17 =========================-->
    <measure number="17">
      <note>
        <rest />
        <duration>15120</duration>
        <type>quarter</type>
        <dot />
      </note>
      <note>
        <rest />
        <duration>10080</duration>
        <type>quarter</type>
      </note>
      <note>
        <pitch>
          <step>C</step>
          <alter>0</alter>
          <octave>5</octave>
        </pitch>
        <duration>5040</duration>
        <type>eighth</type>
        <accidental>natural</accidental>
        <lyric name="1" number="1">
          <syllabic>single</syllabic>
          <text>leb'</text>
        </lyric>
      </note>
      <note>
        <pitch>
          <step>B</step>
          <octave>4</octave>
        </pitch>
        <duration>10080</duration>
        <type>quarter</type>
        <lyric name="1" number="1">
          <syllabic>single</syllabic>
          <text>wohl,</text>
        </lyric>
      </note>
      <note>
        <pitch>
          <step>A</step>
          <octave>4</octave>
        </pitch>
        <duration>5040</duration>
        <type>eighth</type>
        <lyric name="1" number="1">
          <syllabic>single</syllabic>
          <text>mein</text>
        </lyric>
      </note>
    </measure>
    <!--========================= Measure 18 =========================-->
    <measure number="18">
      <note>
        <pitch>
          <step>G</step>
          <octave>4</octave>
        </pitch>
        <duration>15120</duration>
        <type>quarter</type>
        <dot />
        <lyric name="1" number="1">
          <syllabic>single</syllabic>
          <text>Kind,</text>
        </lyric>
      </note>
      <note>
        <rest />
        <duration>10080</duration>
        <type>quarter</type>
      </note>
      <note>
        <pitch>
          <step>C</step>
          <alter>0</alter>
          <octave>5</octave>
        </pitch>
        <duration>5040</duration>
        <type>eighth</type>
        <accidental>natural</accidental>
        <lyric name="1" number="1">
          <syllabic>single</syllabic>
          <text>ich</text>
        </lyric>
      </note>
      <note>
        <pitch>
          <step>B</step>
          <octave>4</octave>
        </pitch>
        <duration>5040</duration>
        <type>eighth</type>
        <beam number="1">begin</beam>
        <lyric name="1" number="1">
          <syllabic>begin</syllabic>
          <text>wan</text>
        </lyric>
      </note>
      <note>
        <pitch>
          <step>B</step>
          <octave>4</octave>
        </pitch>
        <duration>5040</duration>
        <type>eighth</type>
        <beam number="1">continue</beam>
        <lyric name="1" number="1">
          <syllabic>end</syllabic>
          <text>dre</text>
        </lyric>
      </note>
      <note>
        <pitch>
          <step>A</step>
          <octave>4</octave>
        </pitch>
        <duration>5040</duration>
        <type>eighth</type>
        <beam number="1">end</beam>
        <lyric name="1" number="1">
          <syllabic>single</syllabic>
          <text>von</text>
        </lyric>
      </note>
    </measure>
    <!--========================= Measure 19 =========================-->
    <measure number="19">
      <note>
        <pitch>
          <step>G</step>
          <octave>4</octave>
        </pitch>
        <duration>15120</duration>
        <type>quarter</type>
        <dot />
        <lyric name="1" number="1">
          <syllabic>single</syllabic>
          <text>hier!</text>
        </lyric>
      </note>
      <note>
        <rest />
        <duration>10080</duration>
        <type>quarter</type>
      </note>
      <note>
        <pitch>
          <step>B</step>
          <octave>4</octave>
        </pitch>
        <duration>5040</duration>
        <type>eighth</type>
        <lyric name="1" number="1">
          <syllabic>single</syllabic>
          <text>leb'</text>
        </lyric>
      </note>
      <note>
        <pitch>
          <step>D</step>
          <octave>5</octave>
        </pitch>
        <duration>10080</duration>
        <type>quarter</type>
        <lyric name="1" number="1">
          <syllabic>single</syllabic>
          <text>wohl,</text>
        </lyric>
      </note>
      <note>
        <pitch>
          <step>C</step>
          <alter>0</alter>
          <octave>5</octave>
        </pitch>
        <duration>5040</duration>
        <type>eighth</type>
        <accidental>natural</accidental>
        <lyric name="1" number="1">
          <syllabic>single</syllabic>
          <text>mein</text>
        </lyric>
      </note>
    </measure>
    <!--========================= Measure 20 =========================-->
    <measure number="20">
      <note>
        <pitch>
          <step>B</step>
          <octave>4</octave>
        </pitch>
        <duration>15120</duration>
        <type>quarter</type>
        <dot />
        <lyric name="1" number="1">
          <syllabic>single</syllabic>
          <text>Kind,</text>
        </lyric>
      </note>
      <note>
        <rest />
        <duration>10080</duration>
        <type>quarter</type>
      </note>
      <note>
        <pitch>
          <step>B</step>
          <octave>4</octave>
        </pitch>
        <duration>5040</duration>
        <type>eighth</type>
        <lyric name="1" number="1">
          <syllabic>single</syllabic>
          <text>leb'</text>
        </lyric>
      </note>
      <note>
        <pitch>
          <step>E</step>
          <octave>5</octave>
        </pitch>
        <duration>10080</duration>
        <type>quarter</type>
        <lyric name="1" number="1">
          <syllabic>single</syllabic>
          <text>wohl,</text>
        </lyric>
      </note>
      <note>
        <pitch>
          <step>D</step>
          <octave>5</octave>
        </pitch>
        <duration>5040</duration>
        <type>eighth</type>
        <lyric name="1" number="1">
          <syllabic>single</syllabic>
          <text>mein</text>
        </lyric>
      </note>
    </measure>
    <!--========================= Measure 21 =========================-->
    <measure number="21">
      <note>
        <pitch>
          <step>C</step>
          <alter>1</alter>
          <octave>5</octave>
        </pitch>
        <duration>15120</duration>
        <type>quarter</type>
        <dot />
        <lyric name="1" number="1">
          <syllabic>single</syllabic>
          <text>Kind,</text>
        </lyric>
      </note>
      <note>
        <rest />
        <duration>10080</duration>
        <type>quarter</type>
      </note>
      <note>
        <pitch>
          <step>C</step>
          <alter>1</alter>
          <octave>5</octave>
        </pitch>
        <duration>5040</duration>
        <type>eighth</type>
        <lyric name="1" number="1">
          <syllabic>single</syllabic>
          <text>ich</text>
        </lyric>
      </note>
      <note>
        <pitch>
          <step>E</step>
          <octave>5</octave>
        </pitch>
        <duration>5040</duration>
        <type>eighth</type>
        <beam number="1">begin</beam>
        <lyric name="1" number="1">
          <syllabic>begin</syllabic>
          <text>wan</text>
        </lyric>
      </note>
      <note>
        <pitch>
          <step>E</step>
          <octave>5</octave>
        </pitch>
        <duration>5040</duration>
        <type>eighth</type>
        <beam number="1">continue</beam>
        <lyric name="1" number="1">
          <syllabic>end</syllabic>
          <text>dre</text>
        </lyric>
      </note>
      <note>
        <pitch>
          <step>D</step>
          <octave>5</octave>
        </pitch>
        <duration>5040</duration>
        <type>eighth</type>
        <beam number="1">end</beam>
        <lyric name="1" number="1">
          <syllabic>single</syllabic>
          <text>von</text>
        </lyric>
      </note>
    </measure>
    <!--========================= Measure 22 =========================-->
    <measure number="22">
      <note>
        <pitch>
          <step>C</step>
          <alter>1</alter>
          <octave>5</octave>
        </pitch>
        <duration>15120</duration>
        <type>quarter</type>
        <dot />
        <lyric name="1" number="1">
          <syllabic>single</syllabic>
          <text>hier!</text>
        </lyric>
      </note>
      <note>
        <rest />
        <duration>10080</duration>
        <type>quarter</type>
      </note>
      <note>
        <pitch>
          <step>C</step>
          <alter>1</alter>
          <octave>5</octave>
        </pitch>
        <duration>5040</duration>
        <type>eighth</type>
        <lyric name="1" number="1">
          <syllabic>single</syllabic>
          <text>leb'</text>
        </lyric>
      </note>
      <note>
        <pitch>
          <step>E</step>
          <octave>5</octave>
        </pitch>
        <duration>10080</duration>
        <type>quarter</type>
        <lyric name="1" number="1">
          <syllabic>single</syllabic>
          <text>wohl,</text>
        </lyric>
      </note>
      <note>
        <pitch>
          <step>C</step>
          <alter>1</alter>
          <octave>5</octave>
        </pitch>
        <duration>5040</duration>
        <type>eighth</type>
        <lyric name="1" number="1">
          <syllabic>single</syllabic>
          <text>mein</text>
        </lyric>
      </note>
    </measure>
    <!--========================= Measure 23 =========================-->
    <measure number="23">
      <note>
        <pitch>
          <step>A</step>
          <octave>4</octave>
        </pitch>
        <duration>15120</duration>
        <tie type="start" />
        <type>quarter</type>
        <dot />
        <notations>
          <tied type="start" />
        </notations>
        <lyric name="1" number="1">
          <syllabic>single</syllabic>
          <text>Kind!</text>
        </lyric>
      </note>
      <note>
        <pitch>
          <step>A</step>
          <octave>4</octave>
        </pitch>
        <duration>10080</duration>
        <tie type="stop" />
        <type>quarter</type>
        <notations>
          <tied type="stop" />
        </notations>
        <lyric name="1" number="1">
          <syllabic>single</syllabic>
          <text />
        </lyric>
      </note>
      <note>
        <pitch>
          <step>A</step>
          <octave>4</octave>
        </pitch>
        <duration>5040</duration>
        <type>eighth</type>
        <lyric name="1" number="1">
          <syllabic>begin</syllabic>
          <text>Ver</text>
        </lyric>
      </note>
      <note>
        <pitch>
          <step>D</step>
          <octave>4</octave>
        </pitch>
        <duration>5040</duration>
        <type>eighth</type>
        <beam number="1">begin</beam>
        <lyric name="1" number="1">
          <syllabic>middle</syllabic>
          <text>ge</text>
        </lyric>
      </note>
      <note>
        <pitch>
          <step>F</step>
          <alter>1</alter>
          <octave>4</octave>
        </pitch>
        <duration>5040</duration>
        <type>eighth</type>
        <beam number="1">continue</beam>
        <lyric name="1" number="1">
          <syllabic>end</syllabic>
          <text>bens,</text>
        </lyric>
      </note>
      <note>
        <pitch>
          <step>A</step>
          <octave>4</octave>
        </pitch>
        <duration>5040</duration>
        <type>eighth</type>
        <beam number="1">end</beam>
        <lyric name="1" number="1">
          <syllabic>single</syllabic>
          <text>es</text>
        </lyric>
      </note>
    </measure>
    <!--========================= Measure 24 =========================-->
    <measure number="24">
      <note>
        <pitch>
          <step>B</step>
          <octave>4</octave>
        </pitch>
        <duration>15120</duration>
        <type>quarter</type>
        <dot />
        <lyric name="1" number="1">
          <syllabic>single</syllabic>
          <text>regt</text>
        </lyric>
      </note>
      <note>
        <pitch>
          <step>A</step>
          <octave>4</octave>
        </pitch>
        <duration>15120</duration>
        <type>quarter</type>
        <dot />
        <lyric name="1" number="1">
          <syllabic>single</syllabic>
          <text>sich</text>
        </lyric>
      </note>
      <note>
        <pitch>
          <step>D</step>
          <octave>5</octave>
        </pitch>
        <duration>5040</duration>
        <type>eighth</type>
        <beam number="1">begin</beam>
        <lyric name="1" number="1">
          <syllabic>begin</syllabic>
          <text>kei</text>
        </lyric>
      </note>
      <note>
        <pitch>
          <step>A</step>
          <octave>4</octave>
        </pitch>
        <duration>5040</duration>
        <type>eighth</type>
        <beam number="1">continue</beam>
        <lyric name="1" number="1">
          <syllabic>end</syllabic>
          <text>ne</text>
        </lyric>
      </note>
      <note>
        <pitch>
          <step>F</step>
          <alter>1</alter>
          <octave>4</octave>
        </pitch>
        <duration>5040</duration>
        <type>eighth</type>
        <beam number="1">end</beam>
        <lyric name="1" number="1">
          <syllabic>begin</syllabic>
          <text>Gar</text>
        </lyric>
      </note>
    </measure>
    <!--========================= Measure 25 =========================-->
    <measure number="25">
      <note>
        <pitch>
          <step>G</step>
          <octave>4</octave>
        </pitch>
        <duration>15120</duration>
        <type>quarter</type>
        <dot />
        <lyric name="1" number="1">
          <syllabic>middle</syllabic>
          <text>di</text>
        </lyric>
      </note>
      <note>
        <pitch>
          <step>F</step>
          <alter>1</alter>
          <octave>4</octave>
        </pitch>
        <duration>15120</duration>
        <type>quarter</type>
        <dot />
        <lyric name="1" number="1">
          <syllabic>end</syllabic>
          <text>ne,</text>
        </lyric>
      </note>
      <note>
        <rest />
        <duration>15120</duration>
        <type>quarter</type>
        <dot />
      </note>
    </measure>
    <!--========================= Measure 26 =========================-->
    <measure number="26">
      <note>
        <rest />
        <duration>15120</duration>
        <type>quarter</type>
        <dot />
      </note>
      <note>
        <rest />
        <duration>10080</duration>
        <type>quarter</type>
      </note>
      <note>
        <pitch>
          <step>F</step>
          <alter>1</alter>
          <octave>4</octave>
        </pitch>
        <duration>5040</duration>
        <type>eighth</type>
        <lyric name="1" number="1">
          <syllabic>single</syllabic>
          <text>sie</text>
        </lyric>
      </note>
      <note>
        <pitch>
          <step>A</step>
          <octave>4</octave>
        </pitch>
        <duration>5040</duration>
        <type>eighth</type>
        <beam number="1">begin</beam>
        <lyric name="1" number="1">
          <syllabic>single</syllabic>
          <text>liegt</text>
        </lyric>
      </note>
      <note>
        <pitch>
          <step>F</step>
          <alter>1</alter>
          <octave>4</octave>
        </pitch>
        <duration>5040</duration>
        <type>eighth</type>
        <beam number="1">continue</beam>
        <lyric name="1" number="1">
          <syllabic>single</syllabic>
          <text>noch</text>
        </lyric>
      </note>
      <note>
        <pitch>
          <step>E</step>
          <octave>4</octave>
        </pitch>
        <duration>5040</duration>
        <type>eighth</type>
        <beam number="1">end</beam>
        <lyric name="1" number="1">
          <syllabic>single</syllabic>
          <text>und</text>
        </lyric>
      </note>
    </measure>
    <!--========================= Measure 27 =========================-->
    <measure number="27">
      <note>
        <pitch>
          <step>D</step>
          <octave>4</octave>
        </pitch>
        <duration>15120</duration>
        <tie type="start" />
        <type>quarter</type>
        <dot />
        <notations>
          <tied type="start" />
        </notations>
        <lyric name="1" number="1">
          <syllabic>single</syllabic>
          <text>schläft,</text>
        </lyric>
      </note>
      <note>
        <pitch>
          <step>D</step>
          <octave>4</octave>
        </pitch>
        <duration>10080</duration>
        <tie type="stop" />
        <type>quarter</type>
        <notations>
          <tied type="stop" />
        </notations>
        <lyric name="1" number="1">
          <syllabic>single</syllabic>
          <text />
        </lyric>
      </note>
      <note>
        <pitch>
          <step>D</step>
          <octave>4</octave>
        </pitch>
        <duration>5040</duration>
        <type>eighth</type>
        <lyric name="1" number="1">
          <syllabic>single</syllabic>
          <text>und</text>
        </lyric>
      </note>
      <note>
        <pitch>
          <step>D</step>
          <octave>4</octave>
        </pitch>
        <duration>10080</duration>
        <type>quarter</type>
        <lyric name="1" number="1">
          <syllabic>single</syllabic>
          <text>träumt</text>
        </lyric>
      </note>
      <note>
        <pitch>
          <step>E</step>
          <octave>4</octave>
        </pitch>
        <duration>5040</duration>
        <type>eighth</type>
        <lyric name="1" number="1">
          <syllabic>single</syllabic>
          <text>von</text>
        </lyric>
      </note>
    </measure>
    <!--========================= Measure 28 =========================-->
    <measure number="28">
      <note>
        <pitch>
          <step>F</step>
          <alter>1</alter>
          <octave>4</octave>
        </pitch>
        <duration>15120</duration>
        <type>quarter</type>
        <dot />
        <lyric name="1" number="1">
          <syllabic>single</syllabic>
          <text>mir,</text>
        </lyric>
      </note>
      <note>
        <rest />
        <duration>10080</duration>
        <type>quarter</type>
      </note>
      <note>
        <pitch>
          <step>F</step>
          <alter>1</alter>
          <octave>4</octave>
        </pitch>
        <duration>5040</duration>
        <type>eighth</type>
        <lyric name="1" number="1">
          <syllabic>single</syllabic>
          <text>und</text>
        </lyric>
      </note>
      <note>
        <pitch>
          <step>G</step>
          <octave>4</octave>
        </pitch>
        <duration>10080</duration>
        <type>quarter</type>
        <lyric name="1" number="1">
          <syllabic>single</syllabic>
          <text>träumt</text>
        </lyric>
      </note>
      <note>
        <pitch>
          <step>A</step>
          <octave>4</octave>
        </pitch>
        <duration>5040</duration>
        <type>eighth</type>
        <lyric name="1" number="1">
          <syllabic>single</syllabic>
          <text>von</text>
        </lyric>
      </note>
    </measure>
    <!--========================= Measure 29 =========================-->
    <measure number="29">
      <note>
        <pitch>
          <step>B</step>
          <octave>4</octave>
        </pitch>
        <duration>15120</duration>
        <type>quarter</type>
        <dot />
        <lyric name="1" number="1">
          <syllabic>single</syllabic>
          <text>mir,</text>
        </lyric>
      </note>
      <note>
        <rest />
        <duration>10080</duration>
        <type>quarter</type>
      </note>
      <note>
        <pitch>
          <step>D</step>
          <octave>5</octave>
        </pitch>
        <duration>5040</duration>
        <type>eighth</type>
        <lyric name="1" number="1">
          <syllabic>single</syllabic>
          <text>sie</text>
        </lyric>
      </note>
      <note>
        <pitch>
          <step>D</step>
          <octave>5</octave>
        </pitch>
        <duration>5040</duration>
        <type>eighth</type>
        <beam number="1">begin</beam>
        <lyric name="1" number="1">
          <syllabic>single</syllabic>
          <text>liegt</text>
        </lyric>
      </note>
      <note>
        <pitch>
          <step>C</step>
          <alter>1</alter>
          <octave>5</octave>
        </pitch>
        <duration>5040</duration>
        <type>eighth</type>
        <beam number="1">continue</beam>
        <lyric name="1" number="1">
          <syllabic>single</syllabic>
          <text>noch</text>
        </lyric>
      </note>
      <note>
        <pitch>
          <step>B</step>
          <octave>4</octave>
        </pitch>
        <duration>5040</duration>
        <type>eighth</type>
        <beam number="1">end</beam>
        <lyric name="1" number="1">
          <syllabic>single</syllabic>
          <text>und</text>
        </lyric>
      </note>
    </measure>
    <!--========================= Measure 30 =========================-->
    <measure number="30">
      <note>
        <pitch>
          <step>A</step>
          <octave>4</octave>
        </pitch>
        <duration>10080</duration>
        <type>quarter</type>
        <lyric name="1" number="1">
          <syllabic>single</syllabic>
          <text>schläft,</text>
        </lyric>
      </note>
      <note>
        <pitch>
          <step>B</step>
          <octave>4</octave>
        </pitch>
        <duration>5040</duration>
        <type>eighth</type>
        <lyric name="1" number="1">
          <syllabic>single</syllabic>
          <text>und</text>
        </lyric>
      </note>
      <note>
        <pitch>
          <step>A</step>
          <octave>4</octave>
        </pitch>
        <duration>10080</duration>
        <type>quarter</type>
        <lyric name="1" number="1">
          <syllabic>single</syllabic>
          <text>träumt</text>
        </lyric>
      </note>
      <note>
        <pitch>
          <step>B</step>
          <octave>4</octave>
        </pitch>
        <duration>5040</duration>
        <type>eighth</type>
        <lyric name="1" number="1">
          <syllabic>single</syllabic>
          <text />
        </lyric>
      </note>
      <note>
        <pitch>
          <step>A</step>
          <octave>4</octave>
        </pitch>
        <duration>10080</duration>
        <type>quarter</type>
        <lyric name="1" number="1">
          <syllabic>single</syllabic>
          <text>von</text>
        </lyric>
      </note>
      <note>
        <pitch>
          <step>C</step>
          <alter>1</alter>
          <octave>5</octave>
        </pitch>
        <duration>5040</duration>
        <type>eighth</type>
        <lyric name="1" number="1">
          <syllabic>single</syllabic>
          <text />
        </lyric>
      </note>
    </measure>
    <!--========================= Measure 31 =========================-->
    <measure number="31">
      <note>
        <pitch>
          <step>E</step>
          <octave>5</octave>
        </pitch>
        <duration>15120</duration>
        <tie type="start" />
        <type>quarter</type>
        <dot />
        <notations>
          <tied type="start" />
        </notations>
        <lyric name="1" number="1">
          <syllabic>single</syllabic>
          <text>mir,</text>
        </lyric>
      </note>
      <note>
        <pitch>
          <step>E</step>
          <octave>5</octave>
        </pitch>
        <duration>10080</duration>
        <tie type="stop" />
        <type>quarter</type>
        <notations>
          <tied type="stop" />
        </notations>
        <lyric name="1" number="1">
          <syllabic>single</syllabic>
          <text />
        </lyric>
      </note>
      <note>
        <pitch>
          <step>D</step>
          <octave>5</octave>
        </pitch>
        <duration>5040</duration>
        <type>eighth</type>
        <lyric name="1" number="1">
          <syllabic>single</syllabic>
          <text>sie</text>
        </lyric>
      </note>
      <note>
        <pitch>
          <step>D</step>
          <octave>5</octave>
        </pitch>
        <duration>5040</duration>
        <type>eighth</type>
        <beam number="1">begin</beam>
        <lyric name="1" number="1">
          <syllabic>single</syllabic>
          <text>liegt</text>
        </lyric>
      </note>
      <note>
        <pitch>
          <step>C</step>
          <alter>1</alter>
          <octave>5</octave>
        </pitch>
        <duration>5040</duration>
        <type>eighth</type>
        <beam number="1">continue</beam>
        <lyric name="1" number="1">
          <syllabic>single</syllabic>
          <text>noch</text>
        </lyric>
      </note>
      <note>
        <pitch>
          <step>B</step>
          <octave>4</octave>
        </pitch>
        <duration>5040</duration>
        <type>eighth</type>
        <beam number="1">end</beam>
        <lyric name="1" number="1">
          <syllabic>single</syllabic>
          <text>und</text>
        </lyric>
      </note>
    </measure>
    <!--========================= Measure 32 =========================-->
    <measure number="32">
      <note>
        <pitch>
          <step>A</step>
          <octave>4</octave>
        </pitch>
        <duration>10080</duration>
        <type>quarter</type>
        <lyric name="1" number="1">
          <syllabic>single</syllabic>
          <text>schläft,</text>
        </lyric>
      </note>
      <note>
        <pitch>
          <step>B</step>
          <octave>4</octave>
        </pitch>
        <duration>5040</duration>
        <type>eighth</type>
        <lyric name="1" number="1">
          <syllabic>single</syllabic>
          <text>und</text>
        </lyric>
      </note>
      <note>
        <pitch>
          <step>A</step>
          <octave>4</octave>
        </pitch>
        <duration>10080</duration>
        <type>quarter</type>
        <lyric name="1" number="1">
          <syllabic>single</syllabic>
          <text>träumt</text>
        </lyric>
      </note>
      <note>
        <pitch>
          <step>C</step>
          <alter>1</alter>
          <octave>5</octave>
        </pitch>
        <duration>5040</duration>
        <type>eighth</type>
        <lyric name="1" number="1">
          <syllabic>single</syllabic>
          <text />
        </lyric>
      </note>
      <note>
        <pitch>
          <step>E</step>
          <octave>5</octave>
        </pitch>
        <duration>10080</duration>
        <type>quarter</type>
        <lyric name="1" number="1">
          <syllabic>single</syllabic>
          <text />
        </lyric>
      </note>
      <note>
        <pitch>
          <step>D</step>
          <octave>5</octave>
        </pitch>
        <duration>5040</duration>
        <type>eighth</type>
        <lyric name="1" number="1">
          <syllabic>single</syllabic>
          <text>von</text>
        </lyric>
      </note>
    </measure>
    <!--========================= Measure 33 =========================-->
    <measure number="33">
      <note>
        <pitch>
          <step>D</step>
          <octave>5</octave>
        </pitch>
        <duration>15120</duration>
        <type>quarter</type>
        <dot />
        <lyric name="1" number="1">
          <syllabic>single</syllabic>
          <text>mir,</text>
        </lyric>
      </note>
      <note>
        <rest />
        <duration>15120</duration>
        <type>quarter</type>
        <dot />
      </note>
      <note>
        <rest />
        <duration>15120</duration>
        <type>quarter</type>
        <dot />
      </note>
    </measure>
    <!--========================= Measure 34 =========================-->
    <measure number="34">
      <note>
        <rest />
        <duration>15120</duration>
        <type>quarter</type>
        <dot />
      </note>
      <note>
        <rest />
        <duration>10080</duration>
        <type>quarter</type>
      </note>
      <note>
        <pitch>
          <step>A</step>
          <octave>4</octave>
        </pitch>
        <duration>5040</duration>
        <type>eighth</type>
        <lyric name="1" number="1">
          <syllabic>single</syllabic>
          <text>sie</text>
        </lyric>
      </note>
      <note>
        <pitch>
          <step>D</step>
          <octave>5</octave>
        </pitch>
        <duration>5040</duration>
        <type>eighth</type>
        <beam number="1">begin</beam>
        <lyric name="1" number="1">
          <syllabic>single</syllabic>
          <text>liegt</text>
        </lyric>
      </note>
      <note>
        <pitch>
          <step>A</step>
          <octave>4</octave>
        </pitch>
        <duration>5040</duration>
        <type>eighth</type>
        <beam number="1">continue</beam>
        <lyric name="1" number="1">
          <syllabic>single</syllabic>
          <text>noch</text>
        </lyric>
      </note>
      <note>
        <pitch>
          <step>F</step>
          <alter>1</alter>
          <octave>4</octave>
        </pitch>
        <duration>5040</duration>
        <type>eighth</type>
        <beam number="1">end</beam>
        <lyric name="1" number="1">
          <syllabic>single</syllabic>
          <text>und</text>
        </lyric>
      </note>
    </measure>
    <!--========================= Measure 35 =========================-->
    <measure number="35">
      <note>
        <pitch>
          <step>A</step>
          <octave>4</octave>
        </pitch>
        <duration>15120</duration>
        <tie type="start" />
        <type>quarter</type>
        <dot />
        <notations>
          <tied type="start" />
        </notations>
        <lyric name="1" number="1">
          <syllabic>single</syllabic>
          <text>schläft,</text>
        </lyric>
      </note>
      <note>
        <pitch>
          <step>A</step>
          <octave>4</octave>
        </pitch>
        <duration>5040</duration>
        <tie type="stop" />
        <type>eighth</type>
        <notations>
          <tied type="stop" />
        </notations>
        <lyric name="1" number="1">
          <syllabic>single</syllabic>
          <text />
        </lyric>
      </note>
      <note>
        <rest />
        <duration>5040</duration>
        <type>eighth</type>
      </note>
      <note>
        <pitch>
          <step>F</step>
          <alter>1</alter>
          <octave>4</octave>
        </pitch>
        <duration>5040</duration>
        <type>eighth</type>
        <lyric name="1" number="1">
          <syllabic>single</syllabic>
          <text>und</text>
        </lyric>
      </note>
      <note>
        <pitch>
          <step>A</step>
          <octave>4</octave>
        </pitch>
        <duration>5040</duration>
        <type>eighth</type>
        <beam number="1">begin</beam>
        <lyric name="1" number="1">
          <syllabic>single</syllabic>
          <text>träumt</text>
        </lyric>
      </note>
      <note>
        <pitch>
          <step>F</step>
          <alter>1</alter>
          <octave>4</octave>
        </pitch>
        <duration>5040</duration>
        <type>eighth</type>
        <beam number="1">continue</beam>
        <lyric name="1" number="1">
          <syllabic>single</syllabic>
          <text />
        </lyric>
      </note>
      <note>
        <pitch>
          <step>E</step>
          <octave>4</octave>
        </pitch>
        <duration>5040</duration>
        <type>eighth</type>
        <beam number="1">end</beam>
        <lyric name="1" number="1">
          <syllabic>single</syllabic>
          <text>von</text>
        </lyric>
      </note>
    </measure>
    <!--========================= Measure 36 =========================-->
    <measure number="36">
      <note>
        <pitch>
          <step>D</step>
          <octave>4</octave>
        </pitch>
        <duration>30240</duration>
        <type>half</type>
        <dot />
        <lyric name="1" number="1">
          <syllabic>single</syllabic>
          <text>mir.</text>
        </lyric>
      </note>
      <note>
        <rest />
        <duration>10080</duration>
        <type>quarter</type>
      </note>
      <note>
        <rest />
        <duration>5040</duration>
        <type>eighth</type>
      </note>
    </measure>
  </part>
</score-partwise>
