<?xml version="1.0" encoding="utf-8"?>
<!DOCTYPE score-partwise  PUBLIC "-//Recordare//DTD MusicXML 3.0 Partwise//EN" "http://www.musicxml.org/dtds/partwise.dtd">
<score-partwise version="3.0">
  <work>
    <work-title>Einsamkeit (Urspruengliche Fassung)</work-title>
  </work>
  <movement-title>Einsamkeit (Urspruengliche Fassung)</movement-title>
  <identification>
    <creator type="composer">Franz Schubert</creator>
    <creator type="lyricist">Wilhelm Müller</creator>
    <encoding>
      <encoding-date>2018-03-06</encoding-date>
      <software>music21 v.5.0.4a2</software>
    </encoding>
    <miscellaneous>
      <miscellaneous-field name="number">No. 12a</miscellaneous-field>
      <miscellaneous-field name="opusNumber">Opus 89</miscellaneous-field>
      <miscellaneous-field name="parentTitle">Winterreise</miscellaneous-field>
    </miscellaneous>
  </identification>
  <defaults>
    <scaling>
      <millimeters>7</millimeters>
      <tenths>40</tenths>
    </scaling>
  </defaults>
  <part-list>
    <score-part id="P1">
      <part-name />
    </score-part>
  </part-list>
  <!--=========================== Part 1 ===========================-->
  <part id="P1">
    <!--========================= Measure 1 ==========================-->
    <measure number="1">
      <attributes>
        <divisions>10080</divisions>
        <key>
          <fifths>-1</fifths>
        </key>
        <time>
          <beats>2</beats>
          <beat-type>4</beat-type>
        </time>
        <clef>
          <sign>G</sign>
          <line>2</line>
        </clef>
      </attributes>
      <note>
        <rest />
        <duration>10080</duration>
        <type>quarter</type>
      </note>
      <note>
        <rest />
        <duration>5040</duration>
        <type>eighth</type>
      </note>
      <note>
        <pitch>
          <step>A</step>
          <octave>4</octave>
        </pitch>
        <duration>5040</duration>
        <type>eighth</type>
        <lyric name="1" number="1">
          <syllabic>single</syllabic>
          <text>Wie</text>
        </lyric>
      </note>
    </measure>
    <!--========================= Measure 2 ==========================-->
    <measure number="2">
      <note>
        <pitch>
          <step>A</step>
          <octave>4</octave>
        </pitch>
        <duration>7560</duration>
        <type>eighth</type>
        <dot />
        <beam number="1">begin</beam>
        <lyric name="1" number="1">
          <syllabic>begin</syllabic>
          <text>ei</text>
        </lyric>
      </note>
      <note>
        <pitch>
          <step>B</step>
          <alter>-1</alter>
          <octave>4</octave>
        </pitch>
        <duration>2520</duration>
        <type>16th</type>
        <beam number="1">end</beam>
        <beam number="2">backward hook</beam>
        <lyric name="1" number="1">
          <syllabic>end</syllabic>
          <text>ne</text>
        </lyric>
      </note>
      <note>
        <pitch>
          <step>A</step>
          <octave>4</octave>
        </pitch>
        <duration>2520</duration>
        <type>16th</type>
        <beam number="1">begin</beam>
        <beam number="2">begin</beam>
        <lyric name="1" number="1">
          <syllabic>begin</syllabic>
          <text>trü</text>
        </lyric>
      </note>
      <note>
        <pitch>
          <step>B</step>
          <alter>-1</alter>
          <octave>4</octave>
        </pitch>
        <duration>2520</duration>
        <type>16th</type>
        <beam number="1">continue</beam>
        <beam number="2">end</beam>
        <lyric name="1" number="1">
          <syllabic>single</syllabic>
          <text />
        </lyric>
      </note>
      <note>
        <pitch>
          <step>A</step>
          <octave>4</octave>
        </pitch>
        <duration>2520</duration>
        <type>16th</type>
        <beam number="1">continue</beam>
        <beam number="2">begin</beam>
        <lyric name="1" number="1">
          <syllabic>end</syllabic>
          <text>be</text>
        </lyric>
      </note>
      <note>
        <pitch>
          <step>D</step>
          <octave>5</octave>
        </pitch>
        <duration>2520</duration>
        <type>16th</type>
        <beam number="1">end</beam>
        <beam number="2">end</beam>
        <lyric name="1" number="1">
          <syllabic>single</syllabic>
          <text />
        </lyric>
      </note>
    </measure>
    <!--========================= Measure 3 ==========================-->
    <measure number="3">
      <note>
        <pitch>
          <step>E</step>
          <octave>5</octave>
        </pitch>
        <duration>10080</duration>
        <type>quarter</type>
        <lyric name="1" number="1">
          <syllabic>begin</syllabic>
          <text>Wol</text>
        </lyric>
      </note>
      <note>
        <pitch>
          <step>D</step>
          <octave>5</octave>
        </pitch>
        <duration>5040</duration>
        <type>eighth</type>
        <beam number="1">begin</beam>
        <lyric name="1" number="1">
          <syllabic>end</syllabic>
          <text>ke</text>
        </lyric>
      </note>
      <note>
        <pitch>
          <step>D</step>
          <octave>5</octave>
        </pitch>
        <duration>5040</duration>
        <type>eighth</type>
        <beam number="1">end</beam>
        <lyric name="1" number="1">
          <syllabic>single</syllabic>
          <text>durch</text>
        </lyric>
      </note>
    </measure>
    <!--========================= Measure 4 ==========================-->
    <measure number="4">
      <note>
        <pitch>
          <step>D</step>
          <octave>5</octave>
        </pitch>
        <duration>2520</duration>
        <type>16th</type>
        <beam number="1">begin</beam>
        <beam number="2">begin</beam>
        <lyric name="1" number="1">
          <syllabic>begin</syllabic>
          <text>heit'</text>
        </lyric>
      </note>
      <note>
        <pitch>
          <step>A</step>
          <octave>4</octave>
        </pitch>
        <duration>2520</duration>
        <type>16th</type>
        <beam number="1">continue</beam>
        <beam number="2">end</beam>
        <lyric name="1" number="1">
          <syllabic>single</syllabic>
          <text />
        </lyric>
      </note>
      <note>
        <pitch>
          <step>A</step>
          <octave>4</octave>
        </pitch>
        <duration>5040</duration>
        <type>eighth</type>
        <beam number="1">end</beam>
        <lyric name="1" number="1">
          <syllabic>end</syllabic>
          <text>re</text>
        </lyric>
      </note>
      <note>
        <pitch>
          <step>A</step>
          <octave>4</octave>
        </pitch>
        <duration>2520</duration>
        <type>16th</type>
        <beam number="1">begin</beam>
        <beam number="2">begin</beam>
        <lyric name="1" number="1">
          <syllabic>begin</syllabic>
          <text>Lüf</text>
        </lyric>
      </note>
      <note>
        <pitch>
          <step>B</step>
          <alter>-1</alter>
          <octave>4</octave>
        </pitch>
        <duration>2520</duration>
        <type>16th</type>
        <beam number="1">continue</beam>
        <beam number="2">end</beam>
        <lyric name="1" number="1">
          <syllabic>single</syllabic>
          <text />
        </lyric>
      </note>
      <note>
        <pitch>
          <step>G</step>
          <octave>4</octave>
        </pitch>
        <duration>2520</duration>
        <type>16th</type>
        <beam number="1">continue</beam>
        <beam number="2">begin</beam>
        <lyric name="1" number="1">
          <syllabic>end</syllabic>
          <text>te</text>
        </lyric>
      </note>
      <note>
        <pitch>
          <step>E</step>
          <octave>4</octave>
        </pitch>
        <duration>2520</duration>
        <type>16th</type>
        <beam number="1">end</beam>
        <beam number="2">end</beam>
        <lyric name="1" number="1">
          <syllabic>single</syllabic>
          <text />
        </lyric>
      </note>
    </measure>
    <!--========================= Measure 5 ==========================-->
    <measure number="5">
      <note>
        <pitch>
          <step>A</step>
          <octave>4</octave>
        </pitch>
        <duration>10080</duration>
        <type>quarter</type>
        <lyric name="1" number="1">
          <syllabic>single</syllabic>
          <text>geht,</text>
        </lyric>
      </note>
      <note>
        <rest />
        <duration>5040</duration>
        <type>eighth</type>
      </note>
      <note>
        <pitch>
          <step>A</step>
          <octave>4</octave>
        </pitch>
        <duration>5040</duration>
        <type>eighth</type>
        <lyric name="1" number="1">
          <syllabic>single</syllabic>
          <text>wenn</text>
        </lyric>
      </note>
    </measure>
    <!--========================= Measure 6 ==========================-->
    <measure number="6">
      <note>
        <pitch>
          <step>A</step>
          <octave>4</octave>
        </pitch>
        <duration>7560</duration>
        <type>eighth</type>
        <dot />
        <beam number="1">begin</beam>
        <lyric name="1" number="1">
          <syllabic>single</syllabic>
          <text>in</text>
        </lyric>
      </note>
      <note>
        <pitch>
          <step>B</step>
          <alter>-1</alter>
          <octave>4</octave>
        </pitch>
        <duration>2520</duration>
        <type>16th</type>
        <beam number="1">end</beam>
        <beam number="2">backward hook</beam>
        <lyric name="1" number="1">
          <syllabic>single</syllabic>
          <text>der</text>
        </lyric>
      </note>
      <note>
        <pitch>
          <step>A</step>
          <octave>4</octave>
        </pitch>
        <duration>2520</duration>
        <type>16th</type>
        <beam number="1">begin</beam>
        <beam number="2">begin</beam>
        <lyric name="1" number="1">
          <syllabic>begin</syllabic>
          <text>Tan</text>
        </lyric>
      </note>
      <note>
        <pitch>
          <step>B</step>
          <alter>-1</alter>
          <octave>4</octave>
        </pitch>
        <duration>2520</duration>
        <type>16th</type>
        <beam number="1">continue</beam>
        <beam number="2">end</beam>
        <lyric name="1" number="1">
          <syllabic>single</syllabic>
          <text />
        </lyric>
      </note>
      <note>
        <pitch>
          <step>A</step>
          <octave>4</octave>
        </pitch>
        <duration>2520</duration>
        <type>16th</type>
        <beam number="1">continue</beam>
        <beam number="2">begin</beam>
        <lyric name="1" number="1">
          <syllabic>end</syllabic>
          <text>nen</text>
        </lyric>
      </note>
      <note>
        <pitch>
          <step>D</step>
          <octave>5</octave>
        </pitch>
        <duration>2520</duration>
        <type>16th</type>
        <beam number="1">end</beam>
        <beam number="2">end</beam>
        <lyric name="1" number="1">
          <syllabic>single</syllabic>
          <text />
        </lyric>
      </note>
    </measure>
    <!--========================= Measure 7 ==========================-->
    <measure number="7">
      <note>
        <pitch>
          <step>E</step>
          <octave>5</octave>
        </pitch>
        <duration>10080</duration>
        <type>quarter</type>
        <lyric name="1" number="1">
          <syllabic>begin</syllabic>
          <text>Wip</text>
        </lyric>
      </note>
      <note>
        <pitch>
          <step>D</step>
          <octave>5</octave>
        </pitch>
        <duration>5040</duration>
        <type>eighth</type>
        <beam number="1">begin</beam>
        <lyric name="1" number="1">
          <syllabic>end</syllabic>
          <text>fel</text>
        </lyric>
      </note>
      <note>
        <pitch>
          <step>D</step>
          <octave>5</octave>
        </pitch>
        <duration>5040</duration>
        <type>eighth</type>
        <beam number="1">end</beam>
        <lyric name="1" number="1">
          <syllabic>single</syllabic>
          <text>ein</text>
        </lyric>
      </note>
    </measure>
    <!--========================= Measure 8 ==========================-->
    <measure number="8">
      <note>
        <pitch>
          <step>D</step>
          <octave>5</octave>
        </pitch>
        <duration>2520</duration>
        <type>16th</type>
        <beam number="1">begin</beam>
        <beam number="2">begin</beam>
        <lyric name="1" number="1">
          <syllabic>begin</syllabic>
          <text>mat</text>
        </lyric>
      </note>
      <note>
        <pitch>
          <step>A</step>
          <octave>4</octave>
        </pitch>
        <duration>2520</duration>
        <type>16th</type>
        <beam number="1">continue</beam>
        <beam number="2">end</beam>
        <lyric name="1" number="1">
          <syllabic>single</syllabic>
          <text />
        </lyric>
      </note>
      <note>
        <pitch>
          <step>A</step>
          <octave>4</octave>
        </pitch>
        <duration>5040</duration>
        <type>eighth</type>
        <beam number="1">end</beam>
        <lyric name="1" number="1">
          <syllabic>end</syllabic>
          <text>tes</text>
        </lyric>
      </note>
      <note>
        <pitch>
          <step>A</step>
          <octave>4</octave>
        </pitch>
        <duration>2520</duration>
        <type>16th</type>
        <beam number="1">begin</beam>
        <beam number="2">begin</beam>
        <lyric name="1" number="1">
          <syllabic>begin</syllabic>
          <text>Lüft</text>
        </lyric>
      </note>
      <note>
        <pitch>
          <step>B</step>
          <alter>-1</alter>
          <octave>4</octave>
        </pitch>
        <duration>2520</duration>
        <type>16th</type>
        <beam number="1">continue</beam>
        <beam number="2">end</beam>
        <lyric name="1" number="1">
          <syllabic>single</syllabic>
          <text />
        </lyric>
      </note>
      <note>
        <pitch>
          <step>G</step>
          <octave>4</octave>
        </pitch>
        <duration>2520</duration>
        <type>16th</type>
        <beam number="1">continue</beam>
        <beam number="2">begin</beam>
        <lyric name="1" number="1">
          <syllabic>end</syllabic>
          <text>chen</text>
        </lyric>
      </note>
      <note>
        <pitch>
          <step>E</step>
          <octave>4</octave>
        </pitch>
        <duration>2520</duration>
        <type>16th</type>
        <beam number="1">end</beam>
        <beam number="2">end</beam>
        <lyric name="1" number="1">
          <syllabic>single</syllabic>
          <text />
        </lyric>
      </note>
    </measure>
    <!--========================= Measure 9 ==========================-->
    <measure number="9">
      <note>
        <pitch>
          <step>A</step>
          <octave>4</octave>
        </pitch>
        <duration>10080</duration>
        <type>quarter</type>
        <lyric name="1" number="1">
          <syllabic>single</syllabic>
          <text>weht:</text>
        </lyric>
      </note>
      <note>
        <rest />
        <duration>5040</duration>
        <type>eighth</type>
      </note>
      <note>
        <pitch>
          <step>A</step>
          <octave>4</octave>
        </pitch>
        <duration>5040</duration>
        <type>eighth</type>
        <lyric name="1" number="1">
          <syllabic>single</syllabic>
          <text>so</text>
        </lyric>
      </note>
    </measure>
    <!--========================= Measure 10 =========================-->
    <measure number="10">
      <note>
        <pitch>
          <step>A</step>
          <octave>4</octave>
        </pitch>
        <duration>7560</duration>
        <type>eighth</type>
        <dot />
        <beam number="1">begin</beam>
        <lyric name="1" number="1">
          <syllabic>single</syllabic>
          <text>zieh'</text>
        </lyric>
      </note>
      <note>
        <pitch>
          <step>E</step>
          <octave>4</octave>
        </pitch>
        <duration>2520</duration>
        <type>16th</type>
        <beam number="1">end</beam>
        <beam number="2">backward hook</beam>
        <lyric name="1" number="1">
          <syllabic>single</syllabic>
          <text>ich</text>
        </lyric>
      </note>
      <note>
        <pitch>
          <step>A</step>
          <octave>4</octave>
        </pitch>
        <duration>2520</duration>
        <type>16th</type>
        <beam number="1">begin</beam>
        <beam number="2">begin</beam>
        <lyric name="1" number="1">
          <syllabic>begin</syllabic>
          <text>mei</text>
        </lyric>
      </note>
      <note>
        <pitch>
          <step>C</step>
          <alter>1</alter>
          <octave>5</octave>
        </pitch>
        <duration>2520</duration>
        <type>16th</type>
        <accidental>sharp</accidental>
        <beam number="1">continue</beam>
        <beam number="2">end</beam>
        <lyric name="1" number="1">
          <syllabic>single</syllabic>
          <text />
        </lyric>
      </note>
      <note>
        <pitch>
          <step>E</step>
          <octave>5</octave>
        </pitch>
        <duration>2520</duration>
        <type>16th</type>
        <beam number="1">continue</beam>
        <beam number="2">begin</beam>
        <lyric name="1" number="1">
          <syllabic>end</syllabic>
          <text>ne</text>
        </lyric>
      </note>
      <note>
        <pitch>
          <step>G</step>
          <octave>5</octave>
        </pitch>
        <duration>2520</duration>
        <type>16th</type>
        <beam number="1">end</beam>
        <beam number="2">end</beam>
        <lyric name="1" number="1">
          <syllabic>single</syllabic>
          <text />
        </lyric>
      </note>
    </measure>
    <!--========================= Measure 11 =========================-->
    <measure number="11">
      <note>
        <pitch>
          <step>F</step>
          <octave>5</octave>
        </pitch>
        <duration>7560</duration>
        <type>eighth</type>
        <dot />
        <beam number="1">begin</beam>
        <lyric name="1" number="1">
          <syllabic>begin</syllabic>
          <text>Stra</text>
        </lyric>
      </note>
      <note>
        <pitch>
          <step>E</step>
          <octave>5</octave>
        </pitch>
        <duration>2520</duration>
        <type>16th</type>
        <beam number="1">end</beam>
        <beam number="2">backward hook</beam>
        <lyric name="1" number="1">
          <syllabic>single</syllabic>
          <text />
        </lyric>
      </note>
      <note>
        <pitch>
          <step>D</step>
          <octave>5</octave>
        </pitch>
        <duration>5040</duration>
        <type>eighth</type>
        <beam number="1">begin</beam>
        <lyric name="1" number="1">
          <syllabic>end</syllabic>
          <text>sse</text>
        </lyric>
      </note>
      <note>
        <pitch>
          <step>C</step>
          <alter>1</alter>
          <octave>5</octave>
        </pitch>
        <duration>2520</duration>
        <type>16th</type>
        <accidental>sharp</accidental>
        <beam number="1">continue</beam>
        <beam number="2">begin</beam>
        <lyric name="1" number="1">
          <syllabic>begin</syllabic>
          <text>da</text>
        </lyric>
      </note>
      <note>
        <pitch>
          <step>D</step>
          <octave>5</octave>
        </pitch>
        <duration>2520</duration>
        <type>16th</type>
        <beam number="1">end</beam>
        <beam number="2">end</beam>
        <lyric name="1" number="1">
          <syllabic>single</syllabic>
          <text />
        </lyric>
      </note>
    </measure>
    <!--========================= Measure 12 =========================-->
    <measure number="12">
      <note>
        <pitch>
          <step>B</step>
          <alter>-1</alter>
          <octave>4</octave>
        </pitch>
        <duration>5040</duration>
        <type>eighth</type>
        <beam number="1">begin</beam>
        <lyric name="1" number="1">
          <syllabic>end</syllabic>
          <text>hin</text>
        </lyric>
      </note>
      <note>
        <pitch>
          <step>A</step>
          <octave>4</octave>
        </pitch>
        <duration>2520</duration>
        <type>16th</type>
        <beam number="1">continue</beam>
        <beam number="2">begin</beam>
        <lyric name="1" number="1">
          <syllabic>single</syllabic>
          <text>mit</text>
        </lyric>
      </note>
      <note>
        <pitch>
          <step>B</step>
          <alter>-1</alter>
          <octave>4</octave>
        </pitch>
        <duration>2520</duration>
        <type>16th</type>
        <beam number="1">end</beam>
        <beam number="2">end</beam>
        <lyric name="1" number="1">
          <syllabic>single</syllabic>
          <text />
        </lyric>
      </note>
      <note>
        <pitch>
          <step>G</step>
          <octave>4</octave>
        </pitch>
        <duration>5040</duration>
        <type>eighth</type>
        <beam number="1">begin</beam>
        <lyric name="1" number="1">
          <syllabic>begin</syllabic>
          <text>trä</text>
        </lyric>
      </note>
      <note>
        <pitch>
          <step>G</step>
          <alter>1</alter>
          <octave>4</octave>
        </pitch>
        <duration>5040</duration>
        <type>eighth</type>
        <accidental>sharp</accidental>
        <beam number="1">end</beam>
        <lyric name="1" number="1">
          <syllabic>end</syllabic>
          <text>gem</text>
        </lyric>
      </note>
    </measure>
    <!--========================= Measure 13 =========================-->
    <measure number="13">
      <note>
        <pitch>
          <step>A</step>
          <octave>4</octave>
        </pitch>
        <duration>10080</duration>
        <type>quarter</type>
        <lyric name="1" number="1">
          <syllabic>single</syllabic>
          <text>Fuss,</text>
        </lyric>
      </note>
      <note>
        <rest />
        <duration>5040</duration>
        <type>eighth</type>
      </note>
      <note>
        <pitch>
          <step>A</step>
          <octave>4</octave>
        </pitch>
        <duration>2520</duration>
        <type>16th</type>
        <beam number="1">begin</beam>
        <beam number="2">begin</beam>
        <lyric name="1" number="1">
          <syllabic>single</syllabic>
          <text>durch</text>
        </lyric>
      </note>
      <note>
        <pitch>
          <step>B</step>
          <alter>-1</alter>
          <octave>4</octave>
        </pitch>
        <duration>2520</duration>
        <type>16th</type>
        <beam number="1">end</beam>
        <beam number="2">end</beam>
        <lyric name="1" number="1">
          <syllabic>single</syllabic>
          <text />
        </lyric>
      </note>
    </measure>
    <!--========================= Measure 14 =========================-->
    <measure number="14">
      <note>
        <pitch>
          <step>A</step>
          <octave>4</octave>
        </pitch>
        <duration>7560</duration>
        <type>eighth</type>
        <dot />
        <beam number="1">begin</beam>
        <lyric name="1" number="1">
          <syllabic>begin</syllabic>
          <text>hel</text>
        </lyric>
      </note>
      <note>
        <pitch>
          <step>E</step>
          <octave>4</octave>
        </pitch>
        <duration>2520</duration>
        <type>16th</type>
        <beam number="1">end</beam>
        <beam number="2">backward hook</beam>
        <lyric name="1" number="1">
          <syllabic>end</syllabic>
          <text>les,</text>
        </lyric>
      </note>
      <note>
        <pitch>
          <step>A</step>
          <octave>4</octave>
        </pitch>
        <duration>2520</duration>
        <type>16th</type>
        <beam number="1">begin</beam>
        <beam number="2">begin</beam>
        <lyric name="1" number="1">
          <syllabic>begin</syllabic>
          <text>fro</text>
        </lyric>
      </note>
      <note>
        <pitch>
          <step>C</step>
          <alter>1</alter>
          <octave>5</octave>
        </pitch>
        <duration>2520</duration>
        <type>16th</type>
        <accidental>sharp</accidental>
        <beam number="1">continue</beam>
        <beam number="2">end</beam>
        <lyric name="1" number="1">
          <syllabic>single</syllabic>
          <text />
        </lyric>
      </note>
      <note>
        <pitch>
          <step>E</step>
          <octave>5</octave>
        </pitch>
        <duration>2520</duration>
        <type>16th</type>
        <beam number="1">continue</beam>
        <beam number="2">begin</beam>
        <lyric name="1" number="1">
          <syllabic>end</syllabic>
          <text>hes</text>
        </lyric>
      </note>
      <note>
        <pitch>
          <step>G</step>
          <octave>5</octave>
        </pitch>
        <duration>2520</duration>
        <type>16th</type>
        <beam number="1">end</beam>
        <beam number="2">end</beam>
        <lyric name="1" number="1">
          <syllabic>single</syllabic>
          <text />
        </lyric>
      </note>
    </measure>
    <!--========================= Measure 15 =========================-->
    <measure number="15">
      <note>
        <pitch>
          <step>F</step>
          <octave>5</octave>
        </pitch>
        <duration>7560</duration>
        <type>eighth</type>
        <dot />
        <beam number="1">begin</beam>
        <lyric name="1" number="1">
          <syllabic>begin</syllabic>
          <text>Le</text>
        </lyric>
      </note>
      <note>
        <pitch>
          <step>E</step>
          <octave>5</octave>
        </pitch>
        <duration>2520</duration>
        <type>16th</type>
        <beam number="1">end</beam>
        <beam number="2">backward hook</beam>
        <lyric name="1" number="1">
          <syllabic>single</syllabic>
          <text />
        </lyric>
      </note>
      <note>
        <pitch>
          <step>D</step>
          <octave>5</octave>
        </pitch>
        <duration>5040</duration>
        <type>eighth</type>
        <beam number="1">begin</beam>
        <lyric name="1" number="1">
          <syllabic>end</syllabic>
          <text>ben</text>
        </lyric>
      </note>
      <note>
        <pitch>
          <step>C</step>
          <alter>1</alter>
          <octave>5</octave>
        </pitch>
        <duration>2520</duration>
        <type>16th</type>
        <accidental>sharp</accidental>
        <beam number="1">continue</beam>
        <beam number="2">begin</beam>
        <lyric name="1" number="1">
          <syllabic>begin</syllabic>
          <text>ein</text>
        </lyric>
      </note>
      <note>
        <pitch>
          <step>D</step>
          <octave>5</octave>
        </pitch>
        <duration>2520</duration>
        <type>16th</type>
        <beam number="1">end</beam>
        <beam number="2">end</beam>
        <lyric name="1" number="1">
          <syllabic>single</syllabic>
          <text />
        </lyric>
      </note>
    </measure>
    <!--========================= Measure 16 =========================-->
    <measure number="16">
      <note>
        <pitch>
          <step>B</step>
          <alter>-1</alter>
          <octave>4</octave>
        </pitch>
        <duration>5040</duration>
        <type>eighth</type>
        <beam number="1">begin</beam>
        <lyric name="1" number="1">
          <syllabic>end</syllabic>
          <text>sam</text>
        </lyric>
      </note>
      <note>
        <pitch>
          <step>A</step>
          <octave>4</octave>
        </pitch>
        <duration>2520</duration>
        <type>16th</type>
        <beam number="1">continue</beam>
        <beam number="2">begin</beam>
        <lyric name="1" number="1">
          <syllabic>single</syllabic>
          <text>und</text>
        </lyric>
      </note>
      <note>
        <pitch>
          <step>B</step>
          <alter>-1</alter>
          <octave>4</octave>
        </pitch>
        <duration>2520</duration>
        <type>16th</type>
        <beam number="1">end</beam>
        <beam number="2">end</beam>
        <lyric name="1" number="1">
          <syllabic>single</syllabic>
          <text />
        </lyric>
      </note>
      <note>
        <pitch>
          <step>G</step>
          <octave>4</octave>
        </pitch>
        <duration>5040</duration>
        <type>eighth</type>
        <beam number="1">begin</beam>
        <lyric name="1" number="1">
          <syllabic>begin</syllabic>
          <text>oh</text>
        </lyric>
      </note>
      <note>
        <pitch>
          <step>G</step>
          <alter>1</alter>
          <octave>4</octave>
        </pitch>
        <duration>5040</duration>
        <type>eighth</type>
        <accidental>sharp</accidental>
        <beam number="1">end</beam>
        <lyric name="1" number="1">
          <syllabic>end</syllabic>
          <text>ne</text>
        </lyric>
      </note>
    </measure>
    <!--========================= Measure 17 =========================-->
    <measure number="17">
      <note>
        <pitch>
          <step>A</step>
          <octave>4</octave>
        </pitch>
        <duration>10080</duration>
        <type>quarter</type>
        <lyric name="1" number="1">
          <syllabic>single</syllabic>
          <text>Gruss.</text>
        </lyric>
      </note>
      <note>
        <rest />
        <duration>10080</duration>
        <type>quarter</type>
      </note>
    </measure>
    <!--========================= Measure 18 =========================-->
    <measure number="18">
      <note>
        <rest />
        <duration>10080</duration>
        <type>quarter</type>
      </note>
      <note>
        <rest />
        <duration>5040</duration>
        <type>eighth</type>
      </note>
      <note>
        <pitch>
          <step>C</step>
          <alter>1</alter>
          <octave>5</octave>
        </pitch>
        <duration>5040</duration>
        <type>eighth</type>
        <accidental>sharp</accidental>
        <lyric name="1" number="1">
          <syllabic>single</syllabic>
          <text>Ach,</text>
        </lyric>
      </note>
    </measure>
    <!--========================= Measure 19 =========================-->
    <measure number="19">
      <note>
        <pitch>
          <step>D</step>
          <octave>5</octave>
        </pitch>
        <duration>7560</duration>
        <type>eighth</type>
        <dot />
        <beam number="1">begin</beam>
        <lyric name="1" number="1">
          <syllabic>single</syllabic>
          <text>dass</text>
        </lyric>
      </note>
      <note>
        <pitch>
          <step>D</step>
          <octave>5</octave>
        </pitch>
        <duration>2520</duration>
        <type>16th</type>
        <beam number="1">end</beam>
        <beam number="2">backward hook</beam>
        <lyric name="1" number="1">
          <syllabic>single</syllabic>
          <text>die</text>
        </lyric>
      </note>
      <note>
        <pitch>
          <step>D</step>
          <octave>5</octave>
        </pitch>
        <duration>5040</duration>
        <type>eighth</type>
        <beam number="1">begin</beam>
        <lyric name="1" number="1">
          <syllabic>single</syllabic>
          <text>Luft</text>
        </lyric>
      </note>
      <note>
        <pitch>
          <step>E</step>
          <octave>5</octave>
        </pitch>
        <duration>2520</duration>
        <type>16th</type>
        <beam number="1">continue</beam>
        <beam number="2">begin</beam>
        <lyric name="1" number="1">
          <syllabic>single</syllabic>
          <text>so</text>
        </lyric>
      </note>
      <note>
        <pitch>
          <step>D</step>
          <octave>5</octave>
        </pitch>
        <duration>2520</duration>
        <type>16th</type>
        <beam number="1">end</beam>
        <beam number="2">end</beam>
        <lyric name="1" number="1">
          <syllabic>single</syllabic>
          <text />
        </lyric>
      </note>
    </measure>
    <!--========================= Measure 20 =========================-->
    <measure number="20">
      <note>
        <pitch>
          <step>D</step>
          <octave>5</octave>
        </pitch>
        <duration>2520</duration>
        <type>16th</type>
        <beam number="1">begin</beam>
        <beam number="2">begin</beam>
        <lyric name="1" number="1">
          <syllabic>begin</syllabic>
          <text>ru</text>
        </lyric>
      </note>
      <note>
        <pitch>
          <step>C</step>
          <octave>5</octave>
        </pitch>
        <duration>2520</duration>
        <type>16th</type>
        <beam number="1">continue</beam>
        <beam number="2">end</beam>
        <lyric name="1" number="1">
          <syllabic>single</syllabic>
          <text />
        </lyric>
      </note>
      <note>
        <pitch>
          <step>C</step>
          <octave>5</octave>
        </pitch>
        <duration>5040</duration>
        <type>eighth</type>
        <beam number="1">end</beam>
        <lyric name="1" number="1">
          <syllabic>end</syllabic>
          <text>hig!</text>
        </lyric>
      </note>
      <note>
        <rest />
        <duration>5040</duration>
        <type>eighth</type>
      </note>
      <note>
        <pitch>
          <step>C</step>
          <octave>5</octave>
        </pitch>
        <duration>5040</duration>
        <type>eighth</type>
        <lyric name="1" number="1">
          <syllabic>single</syllabic>
          <text>ach,</text>
        </lyric>
      </note>
    </measure>
    <!--========================= Measure 21 =========================-->
    <measure number="21">
      <note>
        <pitch>
          <step>D</step>
          <octave>5</octave>
        </pitch>
        <duration>7560</duration>
        <type>eighth</type>
        <dot />
        <beam number="1">begin</beam>
        <lyric name="1" number="1">
          <syllabic>single</syllabic>
          <text>dass</text>
        </lyric>
      </note>
      <note>
        <pitch>
          <step>D</step>
          <octave>5</octave>
        </pitch>
        <duration>2520</duration>
        <type>16th</type>
        <beam number="1">end</beam>
        <beam number="2">backward hook</beam>
        <lyric name="1" number="1">
          <syllabic>single</syllabic>
          <text>die</text>
        </lyric>
      </note>
      <note>
        <pitch>
          <step>D</step>
          <octave>5</octave>
        </pitch>
        <duration>5040</duration>
        <type>eighth</type>
        <beam number="1">begin</beam>
        <lyric name="1" number="1">
          <syllabic>single</syllabic>
          <text>Welt</text>
        </lyric>
      </note>
      <note>
        <pitch>
          <step>E</step>
          <octave>5</octave>
        </pitch>
        <duration>2520</duration>
        <type>16th</type>
        <beam number="1">continue</beam>
        <beam number="2">begin</beam>
        <lyric name="1" number="1">
          <syllabic>single</syllabic>
          <text>so</text>
        </lyric>
      </note>
      <note>
        <pitch>
          <step>D</step>
          <octave>5</octave>
        </pitch>
        <duration>2520</duration>
        <type>16th</type>
        <beam number="1">end</beam>
        <beam number="2">end</beam>
        <lyric name="1" number="1">
          <syllabic>single</syllabic>
          <text />
        </lyric>
      </note>
    </measure>
    <!--========================= Measure 22 =========================-->
    <measure number="22">
      <note>
        <pitch>
          <step>D</step>
          <octave>5</octave>
        </pitch>
        <duration>5040</duration>
        <type>eighth</type>
        <beam number="1">begin</beam>
        <lyric name="1" number="1">
          <syllabic>single</syllabic>
          <text>licht!</text>
        </lyric>
      </note>
      <note>
        <pitch>
          <step>C</step>
          <octave>5</octave>
        </pitch>
        <duration>5040</duration>
        <type>eighth</type>
        <beam number="1">end</beam>
        <lyric name="1" number="1">
          <syllabic>single</syllabic>
          <text />
        </lyric>
      </note>
      <note>
        <rest />
        <duration>10080</duration>
        <type>quarter</type>
      </note>
    </measure>
    <!--========================= Measure 23 =========================-->
    <measure number="23">
      <note>
        <rest />
        <duration>10080</duration>
        <type>quarter</type>
      </note>
      <note>
        <rest />
        <duration>5040</duration>
        <type>eighth</type>
      </note>
      <note>
        <pitch>
          <step>C</step>
          <alter>1</alter>
          <octave>5</octave>
        </pitch>
        <duration>5040</duration>
        <type>eighth</type>
        <accidental>sharp</accidental>
        <lyric name="1" number="1">
          <syllabic>single</syllabic>
          <text>Als</text>
        </lyric>
      </note>
    </measure>
    <!--========================= Measure 24 =========================-->
    <measure number="24">
      <note>
        <pitch>
          <step>D</step>
          <octave>5</octave>
        </pitch>
        <duration>5040</duration>
        <type>eighth</type>
        <beam number="1">begin</beam>
        <lyric name="1" number="1">
          <syllabic>single</syllabic>
          <text>noch</text>
        </lyric>
      </note>
      <note>
        <pitch>
          <step>F</step>
          <octave>5</octave>
        </pitch>
        <duration>5040</duration>
        <type>eighth</type>
        <beam number="1">end</beam>
        <lyric name="1" number="1">
          <syllabic>single</syllabic>
          <text>die</text>
        </lyric>
      </note>
      <note>
        <pitch>
          <step>G</step>
          <alter>-1</alter>
          <octave>5</octave>
        </pitch>
        <duration>7560</duration>
        <type>eighth</type>
        <dot />
        <accidental>flat</accidental>
        <beam number="1">begin</beam>
        <lyric name="1" number="1">
          <syllabic>begin</syllabic>
          <text>Stür</text>
        </lyric>
      </note>
      <note>
        <pitch>
          <step>G</step>
          <alter>-1</alter>
          <octave>5</octave>
        </pitch>
        <duration>2520</duration>
        <type>16th</type>
        <beam number="1">end</beam>
        <beam number="2">backward hook</beam>
        <lyric name="1" number="1">
          <syllabic>end</syllabic>
          <text>me</text>
        </lyric>
      </note>
    </measure>
    <!--========================= Measure 25 =========================-->
    <measure number="25">
      <note>
        <pitch>
          <step>F</step>
          <octave>5</octave>
        </pitch>
        <duration>5040</duration>
        <type>eighth</type>
        <beam number="1">begin</beam>
        <lyric name="1" number="1">
          <syllabic>begin</syllabic>
          <text>tob</text>
        </lyric>
      </note>
      <note>
        <pitch>
          <step>D</step>
          <octave>5</octave>
        </pitch>
        <duration>5040</duration>
        <type>eighth</type>
        <beam number="1">end</beam>
        <lyric name="1" number="1">
          <syllabic>end</syllabic>
          <text>ten.</text>
        </lyric>
      </note>
      <note>
        <rest />
        <duration>10080</duration>
        <type>quarter</type>
      </note>
    </measure>
    <!--========================= Measure 26 =========================-->
    <measure number="26">
      <note>
        <rest />
        <duration>10080</duration>
        <type>quarter</type>
      </note>
      <note>
        <rest />
        <duration>5040</duration>
        <type>eighth</type>
      </note>
      <note>
        <pitch>
          <step>D</step>
          <octave>5</octave>
        </pitch>
        <duration>5040</duration>
        <type>eighth</type>
        <lyric name="1" number="1">
          <syllabic>single</syllabic>
          <text>war</text>
        </lyric>
      </note>
    </measure>
    <!--========================= Measure 27 =========================-->
    <measure number="27">
      <note>
        <pitch>
          <step>E</step>
          <alter>-1</alter>
          <octave>5</octave>
        </pitch>
        <duration>7560</duration>
        <type>eighth</type>
        <dot />
        <accidental>flat</accidental>
        <beam number="1">begin</beam>
        <lyric name="1" number="1">
          <syllabic>single</syllabic>
          <text>ich</text>
        </lyric>
      </note>
      <note>
        <pitch>
          <step>B</step>
          <alter>-1</alter>
          <octave>4</octave>
        </pitch>
        <duration>2520</duration>
        <type>16th</type>
        <beam number="1">end</beam>
        <beam number="2">backward hook</beam>
        <lyric name="1" number="1">
          <syllabic>single</syllabic>
          <text>so</text>
        </lyric>
      </note>
      <note>
        <pitch>
          <step>E</step>
          <alter>-1</alter>
          <octave>5</octave>
        </pitch>
        <duration>5040</duration>
        <type>eighth</type>
        <beam number="1">begin</beam>
        <lyric name="1" number="1">
          <syllabic>begin</syllabic>
          <text>e</text>
        </lyric>
      </note>
      <note>
        <pitch>
          <step>D</step>
          <octave>5</octave>
        </pitch>
        <duration>5040</duration>
        <type>eighth</type>
        <beam number="1">end</beam>
        <lyric name="1" number="1">
          <syllabic>end</syllabic>
          <text>lend,</text>
        </lyric>
      </note>
    </measure>
    <!--========================= Measure 28 =========================-->
    <measure number="28">
      <note>
        <rest />
        <duration>7560</duration>
        <type>eighth</type>
        <dot />
      </note>
      <note>
        <pitch>
          <step>D</step>
          <octave>5</octave>
        </pitch>
        <duration>2520</duration>
        <type>16th</type>
        <lyric name="1" number="1">
          <syllabic>single</syllabic>
          <text>so</text>
        </lyric>
      </note>
      <note>
        <pitch>
          <step>F</step>
          <octave>5</octave>
        </pitch>
        <duration>5040</duration>
        <type>eighth</type>
        <beam number="1">begin</beam>
        <lyric name="1" number="1">
          <syllabic>begin</syllabic>
          <text>e</text>
        </lyric>
      </note>
      <note>
        <pitch>
          <step>C</step>
          <alter>1</alter>
          <octave>5</octave>
        </pitch>
        <duration>5040</duration>
        <type>eighth</type>
        <accidental>sharp</accidental>
        <beam number="1">end</beam>
        <lyric name="1" number="1">
          <syllabic>end</syllabic>
          <text>lend</text>
        </lyric>
      </note>
    </measure>
    <!--========================= Measure 29 =========================-->
    <measure number="29">
      <note>
        <pitch>
          <step>D</step>
          <octave>5</octave>
        </pitch>
        <duration>10080</duration>
        <type>quarter</type>
        <lyric name="1" number="1">
          <syllabic>single</syllabic>
          <text>nicht.</text>
        </lyric>
      </note>
      <note>
        <rest />
        <duration>10080</duration>
        <type>quarter</type>
      </note>
    </measure>
    <!--========================= Measure 30 =========================-->
    <measure number="30">
      <note>
        <rest />
        <duration>10080</duration>
        <type>quarter</type>
      </note>
      <note>
        <rest />
        <duration>5040</duration>
        <type>eighth</type>
      </note>
      <note>
        <pitch>
          <step>D</step>
          <octave>5</octave>
        </pitch>
        <duration>5040</duration>
        <type>eighth</type>
        <lyric name="1" number="1">
          <syllabic>single</syllabic>
          <text>Ach,</text>
        </lyric>
      </note>
    </measure>
    <!--========================= Measure 31 =========================-->
    <measure number="31">
      <note>
        <pitch>
          <step>C</step>
          <octave>5</octave>
        </pitch>
        <duration>7560</duration>
        <type>eighth</type>
        <dot />
        <beam number="1">begin</beam>
        <lyric name="1" number="1">
          <syllabic>single</syllabic>
          <text>dass</text>
        </lyric>
      </note>
      <note>
        <pitch>
          <step>C</step>
          <octave>5</octave>
        </pitch>
        <duration>2520</duration>
        <type>16th</type>
        <beam number="1">end</beam>
        <beam number="2">backward hook</beam>
        <lyric name="1" number="1">
          <syllabic>single</syllabic>
          <text>die</text>
        </lyric>
      </note>
      <note>
        <pitch>
          <step>C</step>
          <octave>5</octave>
        </pitch>
        <duration>5040</duration>
        <type>eighth</type>
        <beam number="1">begin</beam>
        <lyric name="1" number="1">
          <syllabic>single</syllabic>
          <text>Luft</text>
        </lyric>
      </note>
      <note>
        <pitch>
          <step>D</step>
          <octave>5</octave>
        </pitch>
        <duration>2520</duration>
        <type>16th</type>
        <beam number="1">continue</beam>
        <beam number="2">begin</beam>
        <lyric name="1" number="1">
          <syllabic>single</syllabic>
          <text>so</text>
        </lyric>
      </note>
      <note>
        <pitch>
          <step>C</step>
          <octave>5</octave>
        </pitch>
        <duration>2520</duration>
        <type>16th</type>
        <beam number="1">end</beam>
        <beam number="2">end</beam>
        <lyric name="1" number="1">
          <syllabic>single</syllabic>
          <text />
        </lyric>
      </note>
    </measure>
    <!--========================= Measure 32 =========================-->
    <measure number="32">
      <note>
        <pitch>
          <step>C</step>
          <octave>5</octave>
        </pitch>
        <duration>2520</duration>
        <type>16th</type>
        <beam number="1">begin</beam>
        <beam number="2">begin</beam>
        <lyric name="1" number="1">
          <syllabic>begin</syllabic>
          <text>ru</text>
        </lyric>
      </note>
      <note>
        <pitch>
          <step>B</step>
          <alter>-1</alter>
          <octave>4</octave>
        </pitch>
        <duration>2520</duration>
        <type>16th</type>
        <beam number="1">continue</beam>
        <beam number="2">end</beam>
        <lyric name="1" number="1">
          <syllabic>single</syllabic>
          <text />
        </lyric>
      </note>
      <note>
        <pitch>
          <step>B</step>
          <alter>-1</alter>
          <octave>4</octave>
        </pitch>
        <duration>5040</duration>
        <type>eighth</type>
        <beam number="1">end</beam>
        <lyric name="1" number="1">
          <syllabic>end</syllabic>
          <text>hig!</text>
        </lyric>
      </note>
      <note>
        <rest />
        <duration>5040</duration>
        <type>eighth</type>
      </note>
      <note>
        <pitch>
          <step>D</step>
          <octave>5</octave>
        </pitch>
        <duration>5040</duration>
        <type>eighth</type>
        <lyric name="1" number="1">
          <syllabic>single</syllabic>
          <text>ach,</text>
        </lyric>
      </note>
    </measure>
    <!--========================= Measure 33 =========================-->
    <measure number="33">
      <note>
        <pitch>
          <step>D</step>
          <octave>5</octave>
        </pitch>
        <duration>7560</duration>
        <type>eighth</type>
        <dot />
        <beam number="1">begin</beam>
        <lyric name="1" number="1">
          <syllabic>single</syllabic>
          <text>dass</text>
        </lyric>
      </note>
      <note>
        <pitch>
          <step>D</step>
          <octave>5</octave>
        </pitch>
        <duration>2520</duration>
        <type>16th</type>
        <beam number="1">end</beam>
        <beam number="2">backward hook</beam>
        <lyric name="1" number="1">
          <syllabic>single</syllabic>
          <text>die</text>
        </lyric>
      </note>
      <note>
        <pitch>
          <step>D</step>
          <octave>5</octave>
        </pitch>
        <duration>5040</duration>
        <type>eighth</type>
        <beam number="1">begin</beam>
        <lyric name="1" number="1">
          <syllabic>single</syllabic>
          <text>Welt</text>
        </lyric>
      </note>
      <note>
        <pitch>
          <step>E</step>
          <alter>0</alter>
          <octave>5</octave>
        </pitch>
        <duration>2520</duration>
        <type>16th</type>
        <accidental>natural</accidental>
        <beam number="1">continue</beam>
        <beam number="2">begin</beam>
        <lyric name="1" number="1">
          <syllabic>single</syllabic>
          <text>so</text>
        </lyric>
      </note>
      <note>
        <pitch>
          <step>D</step>
          <octave>5</octave>
        </pitch>
        <duration>2520</duration>
        <type>16th</type>
        <beam number="1">end</beam>
        <beam number="2">end</beam>
        <lyric name="1" number="1">
          <syllabic>single</syllabic>
          <text />
        </lyric>
      </note>
    </measure>
    <!--========================= Measure 34 =========================-->
    <measure number="34">
      <note>
        <pitch>
          <step>D</step>
          <octave>5</octave>
        </pitch>
        <duration>5040</duration>
        <type>eighth</type>
        <beam number="1">begin</beam>
        <lyric name="1" number="1">
          <syllabic>single</syllabic>
          <text>licht!</text>
        </lyric>
      </note>
      <note>
        <pitch>
          <step>C</step>
          <octave>5</octave>
        </pitch>
        <duration>5040</duration>
        <type>eighth</type>
        <beam number="1">end</beam>
        <lyric name="1" number="1">
          <syllabic>single</syllabic>
          <text />
        </lyric>
      </note>
      <note>
        <rest />
        <duration>10080</duration>
        <type>quarter</type>
      </note>
    </measure>
    <!--========================= Measure 35 =========================-->
    <measure number="35">
      <note>
        <rest />
        <duration>10080</duration>
        <type>quarter</type>
      </note>
      <note>
        <rest />
        <duration>5040</duration>
        <type>eighth</type>
      </note>
      <note>
        <pitch>
          <step>C</step>
          <alter>1</alter>
          <octave>5</octave>
        </pitch>
        <duration>5040</duration>
        <type>eighth</type>
        <accidental>sharp</accidental>
        <lyric name="1" number="1">
          <syllabic>single</syllabic>
          <text>Als</text>
        </lyric>
      </note>
    </measure>
    <!--========================= Measure 36 =========================-->
    <measure number="36">
      <note>
        <pitch>
          <step>D</step>
          <octave>5</octave>
        </pitch>
        <duration>5040</duration>
        <type>eighth</type>
        <beam number="1">begin</beam>
        <lyric name="1" number="1">
          <syllabic>single</syllabic>
          <text>noch</text>
        </lyric>
      </note>
      <note>
        <pitch>
          <step>F</step>
          <octave>5</octave>
        </pitch>
        <duration>5040</duration>
        <type>eighth</type>
        <beam number="1">end</beam>
        <lyric name="1" number="1">
          <syllabic>single</syllabic>
          <text>die</text>
        </lyric>
      </note>
      <note>
        <pitch>
          <step>G</step>
          <alter>-1</alter>
          <octave>5</octave>
        </pitch>
        <duration>7560</duration>
        <type>eighth</type>
        <dot />
        <accidental>flat</accidental>
        <beam number="1">begin</beam>
        <lyric name="1" number="1">
          <syllabic>begin</syllabic>
          <text>Stür</text>
        </lyric>
      </note>
      <note>
        <pitch>
          <step>G</step>
          <alter>-1</alter>
          <octave>5</octave>
        </pitch>
        <duration>2520</duration>
        <type>16th</type>
        <beam number="1">end</beam>
        <beam number="2">backward hook</beam>
        <lyric name="1" number="1">
          <syllabic>end</syllabic>
          <text>me</text>
        </lyric>
      </note>
    </measure>
    <!--========================= Measure 37 =========================-->
    <measure number="37">
      <note>
        <pitch>
          <step>F</step>
          <octave>5</octave>
        </pitch>
        <duration>5040</duration>
        <type>eighth</type>
        <beam number="1">begin</beam>
        <lyric name="1" number="1">
          <syllabic>begin</syllabic>
          <text>tob</text>
        </lyric>
      </note>
      <note>
        <pitch>
          <step>D</step>
          <octave>5</octave>
        </pitch>
        <duration>5040</duration>
        <type>eighth</type>
        <beam number="1">end</beam>
        <lyric name="1" number="1">
          <syllabic>end</syllabic>
          <text>ten,</text>
        </lyric>
      </note>
      <note>
        <rest />
        <duration>10080</duration>
        <type>quarter</type>
      </note>
    </measure>
    <!--========================= Measure 38 =========================-->
    <measure number="38">
      <note>
        <rest />
        <duration>10080</duration>
        <type>quarter</type>
      </note>
      <note>
        <rest />
        <duration>5040</duration>
        <type>eighth</type>
      </note>
      <note>
        <pitch>
          <step>D</step>
          <octave>5</octave>
        </pitch>
        <duration>5040</duration>
        <type>eighth</type>
        <lyric name="1" number="1">
          <syllabic>single</syllabic>
          <text>war</text>
        </lyric>
      </note>
    </measure>
    <!--========================= Measure 39 =========================-->
    <measure number="39">
      <note>
        <pitch>
          <step>E</step>
          <alter>-1</alter>
          <octave>5</octave>
        </pitch>
        <duration>7560</duration>
        <type>eighth</type>
        <dot />
        <accidental>flat</accidental>
        <beam number="1">begin</beam>
        <lyric name="1" number="1">
          <syllabic>single</syllabic>
          <text>ich</text>
        </lyric>
      </note>
      <note>
        <pitch>
          <step>B</step>
          <alter>-1</alter>
          <octave>4</octave>
        </pitch>
        <duration>2520</duration>
        <type>16th</type>
        <beam number="1">end</beam>
        <beam number="2">backward hook</beam>
        <lyric name="1" number="1">
          <syllabic>single</syllabic>
          <text>so</text>
        </lyric>
      </note>
      <note>
        <pitch>
          <step>E</step>
          <alter>-1</alter>
          <octave>5</octave>
        </pitch>
        <duration>5040</duration>
        <type>eighth</type>
        <beam number="1">begin</beam>
        <lyric name="1" number="1">
          <syllabic>begin</syllabic>
          <text>e</text>
        </lyric>
      </note>
      <note>
        <pitch>
          <step>D</step>
          <octave>5</octave>
        </pitch>
        <duration>5040</duration>
        <type>eighth</type>
        <beam number="1">end</beam>
        <lyric name="1" number="1">
          <syllabic>end</syllabic>
          <text>lend,</text>
        </lyric>
      </note>
    </measure>
    <!--========================= Measure 40 =========================-->
    <measure number="40">
      <note>
        <rest />
        <duration>7560</duration>
        <type>eighth</type>
        <dot />
      </note>
      <note>
        <pitch>
          <step>D</step>
          <octave>5</octave>
        </pitch>
        <duration>2520</duration>
        <type>16th</type>
        <lyric name="1" number="1">
          <syllabic>single</syllabic>
          <text>so</text>
        </lyric>
      </note>
      <note>
        <pitch>
          <step>F</step>
          <octave>5</octave>
        </pitch>
        <duration>5040</duration>
        <type>eighth</type>
        <beam number="1">begin</beam>
        <lyric name="1" number="1">
          <syllabic>begin</syllabic>
          <text>e</text>
        </lyric>
      </note>
      <note>
        <pitch>
          <step>C</step>
          <alter>1</alter>
          <octave>5</octave>
        </pitch>
        <duration>5040</duration>
        <type>eighth</type>
        <accidental>sharp</accidental>
        <beam number="1">end</beam>
        <lyric name="1" number="1">
          <syllabic>end</syllabic>
          <text>lend</text>
        </lyric>
      </note>
    </measure>
    <!--========================= Measure 41 =========================-->
    <measure number="41">
      <note>
        <pitch>
          <step>D</step>
          <octave>5</octave>
        </pitch>
        <duration>10080</duration>
        <type>quarter</type>
        <lyric name="1" number="1">
          <syllabic>single</syllabic>
          <text>nicht.</text>
        </lyric>
      </note>
      <note>
        <rest />
        <duration>10080</duration>
        <type>quarter</type>
      </note>
    </measure>
  </part>
</score-partwise>
