<?xml version="1.0" encoding="utf-8"?>
<!DOCTYPE score-partwise  PUBLIC "-//Recordare//DTD MusicXML 3.0 Partwise//EN" "http://www.musicxml.org/dtds/partwise.dtd">
<score-partwise version="3.0">
  <work>
    <work-title>Nos Souvenirs</work-title>
  </work>
  <movement-title>Nos Souvenirs</movement-title>
  <identification>
    <creator type="composer">Ernest Chausson</creator>
    <creator type="lyricist">Maurice Bouchor</creator>
    <encoding>
      <encoding-date>2018-03-09</encoding-date>
      <software>music21 v.5.0.4a2</software>
    </encoding>
    <miscellaneous>
      <miscellaneous-field name="number">No. 4</miscellaneous-field>
      <miscellaneous-field name="opusNumber">Op. 8</miscellaneous-field>
      <miscellaneous-field name="parentTitle">no_parentTitle_info</miscellaneous-field>
    </miscellaneous>
  </identification>
  <defaults>
    <scaling>
      <millimeters>7</millimeters>
      <tenths>40</tenths>
    </scaling>
  </defaults>
  <part-list>
    <score-part id="P1">
      <part-name />
    </score-part>
  </part-list>
  <!--=========================== Part 1 ===========================-->
  <part id="P1">
    <!--========================= Measure 1 ==========================-->
    <measure number="1">
      <attributes>
        <divisions>10080</divisions>
        <key>
          <fifths>2</fifths>
        </key>
        <time>
          <beats>2</beats>
          <beat-type>4</beat-type>
        </time>
      </attributes>
      <note>
        <rest />
        <duration>5040</duration>
        <type>eighth</type>
      </note>
      <note>
        <pitch>
          <step>D</step>
          <octave>4</octave>
        </pitch>
        <duration>5040</duration>
        <type>eighth</type>
        <lyric name="1" number="1">
          <syllabic>single</syllabic>
          <text>Nos</text>
        </lyric>
      </note>
      <note>
        <pitch>
          <step>D</step>
          <octave>4</octave>
        </pitch>
        <duration>5040</duration>
        <type>eighth</type>
        <beam number="1">begin</beam>
        <lyric name="1" number="1">
          <syllabic>begin</syllabic>
          <text>sou</text>
        </lyric>
      </note>
      <note>
        <pitch>
          <step>D</step>
          <octave>4</octave>
        </pitch>
        <duration>5040</duration>
        <type>eighth</type>
        <beam number="1">end</beam>
        <lyric name="1" number="1">
          <syllabic>middle</syllabic>
          <text>ve</text>
        </lyric>
      </note>
    </measure>
    <!--========================= Measure 2 ==========================-->
    <measure number="2">
      <note>
        <pitch>
          <step>E</step>
          <octave>4</octave>
        </pitch>
        <duration>20160</duration>
        <type>half</type>
        <lyric name="1" number="1">
          <syllabic>end</syllabic>
          <text>nirs,</text>
        </lyric>
      </note>
    </measure>
    <!--========================= Measure 3 ==========================-->
    <measure number="3">
      <note>
        <pitch>
          <step>G</step>
          <octave>4</octave>
        </pitch>
        <duration>10080</duration>
        <type>quarter</type>
        <lyric name="1" number="1">
          <syllabic>begin</syllabic>
          <text>tou</text>
        </lyric>
      </note>
      <note>
        <pitch>
          <step>G</step>
          <octave>4</octave>
        </pitch>
        <duration>5040</duration>
        <type>eighth</type>
        <beam number="1">begin</beam>
        <lyric name="1" number="1">
          <syllabic>end</syllabic>
          <text>tes</text>
        </lyric>
      </note>
      <note>
        <pitch>
          <step>G</step>
          <octave>4</octave>
        </pitch>
        <duration>5040</duration>
        <type>eighth</type>
        <beam number="1">end</beam>
        <lyric name="1" number="1">
          <syllabic>single</syllabic>
          <text>ces</text>
        </lyric>
      </note>
    </measure>
    <!--========================= Measure 4 ==========================-->
    <measure number="4">
      <note>
        <pitch>
          <step>F</step>
          <alter>1</alter>
          <octave>4</octave>
        </pitch>
        <duration>5040</duration>
        <type>eighth</type>
        <beam number="1">begin</beam>
        <lyric name="1" number="1">
          <syllabic>begin</syllabic>
          <text>cho</text>
        </lyric>
      </note>
      <note>
        <pitch>
          <step>F</step>
          <alter>1</alter>
          <octave>4</octave>
        </pitch>
        <duration>5040</duration>
        <type>eighth</type>
        <beam number="1">end</beam>
        <lyric name="1" number="1">
          <syllabic>end</syllabic>
          <text>ses</text>
        </lyric>
      </note>
      <note>
        <pitch>
          <step>F</step>
          <alter>1</alter>
          <octave>4</octave>
        </pitch>
        <duration>3360</duration>
        <type>eighth</type>
        <time-modification>
          <actual-notes>3</actual-notes>
          <normal-notes>2</normal-notes>
          <normal-type>eighth</normal-type>
        </time-modification>
        <beam number="1">begin</beam>
        <notations>
          <tuplet bracket="yes" number="1" placement="above" type="start">
            <tuplet-actual>
              <tuplet-number>3</tuplet-number>
              <tuplet-type>eighth</tuplet-type>
            </tuplet-actual>
            <tuplet-normal>
              <tuplet-number>2</tuplet-number>
              <tuplet-type>eighth</tuplet-type>
            </tuplet-normal>
          </tuplet>
        </notations>
        <lyric name="1" number="1">
          <syllabic>single</syllabic>
          <text>Q'uà</text>
        </lyric>
      </note>
      <note>
        <pitch>
          <step>G</step>
          <alter>1</alter>
          <octave>4</octave>
        </pitch>
        <duration>3360</duration>
        <type>eighth</type>
        <accidental>sharp</accidental>
        <time-modification>
          <actual-notes>3</actual-notes>
          <normal-notes>2</normal-notes>
          <normal-type>eighth</normal-type>
        </time-modification>
        <beam number="1">continue</beam>
        <lyric name="1" number="1">
          <syllabic>single</syllabic>
          <text>tous</text>
        </lyric>
      </note>
      <note>
        <pitch>
          <step>A</step>
          <octave>4</octave>
        </pitch>
        <duration>3360</duration>
        <type>eighth</type>
        <time-modification>
          <actual-notes>3</actual-notes>
          <normal-notes>2</normal-notes>
          <normal-type>eighth</normal-type>
        </time-modification>
        <beam number="1">end</beam>
        <notations>
          <tuplet number="1" type="stop" />
        </notations>
        <lyric name="1" number="1">
          <syllabic>single</syllabic>
          <text>les</text>
        </lyric>
      </note>
    </measure>
    <!--========================= Measure 5 ==========================-->
    <measure number="5">
      <note>
        <pitch>
          <step>G</step>
          <alter>1</alter>
          <octave>4</octave>
        </pitch>
        <duration>5040</duration>
        <type>eighth</type>
        <accidental>sharp</accidental>
        <beam number="1">begin</beam>
        <lyric name="1" number="1">
          <syllabic>single</syllabic>
          <text>vents</text>
        </lyric>
      </note>
      <note>
        <pitch>
          <step>E</step>
          <octave>4</octave>
        </pitch>
        <duration>5040</duration>
        <type>eighth</type>
        <beam number="1">end</beam>
        <lyric name="1" number="1">
          <syllabic>single</syllabic>
          <text>nous</text>
        </lyric>
      </note>
      <note>
        <pitch>
          <step>D</step>
          <alter>1</alter>
          <octave>4</octave>
        </pitch>
        <duration>5040</duration>
        <type>eighth</type>
        <accidental>sharp</accidental>
        <beam number="1">begin</beam>
        <lyric name="1" number="1">
          <syllabic>begin</syllabic>
          <text>ef</text>
        </lyric>
      </note>
      <note>
        <pitch>
          <step>C</step>
          <alter>1</alter>
          <octave>4</octave>
        </pitch>
        <duration>5040</duration>
        <type>eighth</type>
        <beam number="1">end</beam>
        <lyric name="1" number="1">
          <syllabic>middle</syllabic>
          <text>feuil</text>
        </lyric>
      </note>
    </measure>
    <!--========================= Measure 6 ==========================-->
    <measure number="6">
      <note>
        <pitch>
          <step>C</step>
          <alter>1</alter>
          <octave>4</octave>
        </pitch>
        <duration>20160</duration>
        <type>half</type>
        <lyric name="1" number="1">
          <syllabic>end</syllabic>
          <text>lons</text>
        </lyric>
      </note>
    </measure>
    <!--========================= Measure 7 ==========================-->
    <measure number="7">
      <note>
        <pitch>
          <step>A</step>
          <octave>4</octave>
        </pitch>
        <duration>5040</duration>
        <type>eighth</type>
        <beam number="1">begin</beam>
        <lyric name="1" number="1">
          <syllabic>begin</syllabic>
          <text>Com</text>
        </lyric>
      </note>
      <note>
        <pitch>
          <step>A</step>
          <octave>4</octave>
        </pitch>
        <duration>5040</duration>
        <type>eighth</type>
        <beam number="1">end</beam>
        <lyric name="1" number="1">
          <syllabic>end</syllabic>
          <text>me</text>
        </lyric>
      </note>
      <note>
        <pitch>
          <step>A</step>
          <octave>4</octave>
        </pitch>
        <duration>5040</duration>
        <type>eighth</type>
        <beam number="1">begin</beam>
        <lyric name="1" number="1">
          <syllabic>single</syllabic>
          <text>les</text>
        </lyric>
      </note>
      <note>
        <pitch>
          <step>A</step>
          <octave>4</octave>
        </pitch>
        <duration>5040</duration>
        <type>eighth</type>
        <beam number="1">end</beam>
        <lyric name="1" number="1">
          <syllabic>begin</syllabic>
          <text>pé</text>
        </lyric>
      </note>
    </measure>
    <!--========================= Measure 8 ==========================-->
    <measure number="8">
      <note>
        <pitch>
          <step>B</step>
          <octave>4</octave>
        </pitch>
        <duration>10080</duration>
        <type>quarter</type>
        <lyric name="1" number="1">
          <syllabic>middle</syllabic>
          <text>ta</text>
        </lyric>
      </note>
      <note>
        <pitch>
          <step>B</step>
          <octave>4</octave>
        </pitch>
        <duration>5040</duration>
        <type>eighth</type>
        <beam number="1">begin</beam>
        <lyric name="1" number="1">
          <syllabic>end</syllabic>
          <text>les</text>
        </lyric>
      </note>
      <note>
        <pitch>
          <step>B</step>
          <octave>4</octave>
        </pitch>
        <duration>5040</duration>
        <type>eighth</type>
        <beam number="1">end</beam>
        <lyric name="1" number="1">
          <syllabic>single</syllabic>
          <text>des</text>
        </lyric>
      </note>
    </measure>
    <!--========================= Measure 9 ==========================-->
    <measure number="9">
      <note>
        <pitch>
          <step>C</step>
          <alter>1</alter>
          <octave>5</octave>
        </pitch>
        <duration>15120</duration>
        <type>quarter</type>
        <dot />
        <lyric name="1" number="1">
          <syllabic>begin</syllabic>
          <text>ro</text>
        </lyric>
      </note>
      <note>
        <pitch>
          <step>C</step>
          <alter>1</alter>
          <octave>5</octave>
        </pitch>
        <duration>5040</duration>
        <type>eighth</type>
        <lyric name="1" number="1">
          <syllabic>end</syllabic>
          <text>ses</text>
        </lyric>
      </note>
    </measure>
    <!--========================= Measure 10 =========================-->
    <measure number="10">
      <note>
        <rest />
        <duration>5040</duration>
        <type>eighth</type>
      </note>
      <note>
        <pitch>
          <step>D</step>
          <octave>5</octave>
        </pitch>
        <duration>10080</duration>
        <type>quarter</type>
        <lyric name="1" number="1">
          <syllabic>single</syllabic>
          <text>Où</text>
        </lyric>
      </note>
      <note>
        <pitch>
          <step>D</step>
          <octave>5</octave>
        </pitch>
        <duration>5040</duration>
        <type>eighth</type>
        <lyric name="1" number="1">
          <syllabic>single</syllabic>
          <text>des</text>
        </lyric>
      </note>
    </measure>
    <!--========================= Measure 11 =========================-->
    <measure number="11">
      <note>
        <pitch>
          <step>C</step>
          <alter>1</alter>
          <octave>5</octave>
        </pitch>
        <duration>5040</duration>
        <type>eighth</type>
        <beam number="1">begin</beam>
        <lyric name="1" number="1">
          <syllabic>begin</syllabic>
          <text>ai</text>
        </lyric>
      </note>
      <note>
        <pitch>
          <step>G</step>
          <alter>1</alter>
          <octave>4</octave>
        </pitch>
        <duration>5040</duration>
        <type>eighth</type>
        <accidental>sharp</accidental>
        <beam number="1">end</beam>
        <lyric name="1" number="1">
          <syllabic>end</syllabic>
          <text>les</text>
        </lyric>
      </note>
      <note>
        <pitch>
          <step>G</step>
          <alter>1</alter>
          <octave>4</octave>
        </pitch>
        <duration>3360</duration>
        <type>eighth</type>
        <time-modification>
          <actual-notes>3</actual-notes>
          <normal-notes>2</normal-notes>
          <normal-type>eighth</normal-type>
        </time-modification>
        <beam number="1">begin</beam>
        <notations>
          <tuplet bracket="yes" number="1" placement="above" type="start">
            <tuplet-actual>
              <tuplet-number>3</tuplet-number>
              <tuplet-type>eighth</tuplet-type>
            </tuplet-actual>
            <tuplet-normal>
              <tuplet-number>2</tuplet-number>
              <tuplet-type>eighth</tuplet-type>
            </tuplet-normal>
          </tuplet>
        </notations>
        <lyric name="1" number="1">
          <syllabic>single</syllabic>
          <text>de</text>
        </lyric>
      </note>
      <note>
        <pitch>
          <step>G</step>
          <alter>1</alter>
          <octave>4</octave>
        </pitch>
        <duration>3360</duration>
        <type>eighth</type>
        <time-modification>
          <actual-notes>3</actual-notes>
          <normal-notes>2</normal-notes>
          <normal-type>eighth</normal-type>
        </time-modification>
        <beam number="1">continue</beam>
        <lyric name="1" number="1">
          <syllabic>begin</syllabic>
          <text>pa</text>
        </lyric>
      </note>
      <note>
        <pitch>
          <step>G</step>
          <alter>1</alter>
          <octave>4</octave>
        </pitch>
        <duration>3360</duration>
        <type>eighth</type>
        <time-modification>
          <actual-notes>3</actual-notes>
          <normal-notes>2</normal-notes>
          <normal-type>eighth</normal-type>
        </time-modification>
        <beam number="1">end</beam>
        <notations>
          <tuplet number="1" type="stop" />
        </notations>
        <lyric name="1" number="1">
          <syllabic>middle</syllabic>
          <text>pil</text>
        </lyric>
      </note>
    </measure>
    <!--========================= Measure 12 =========================-->
    <measure number="12">
      <note>
        <pitch>
          <step>G</step>
          <alter>1</alter>
          <octave>4</octave>
        </pitch>
        <duration>20160</duration>
        <type>half</type>
        <accidental>sharp</accidental>
        <lyric name="1" number="1">
          <syllabic>end</syllabic>
          <text>lons,</text>
        </lyric>
      </note>
    </measure>
    <!--========================= Measure 13 =========================-->
    <measure number="13">
      <note>
        <rest />
        <duration>5040</duration>
        <type>eighth</type>
      </note>
      <note>
        <pitch>
          <step>G</step>
          <alter>0</alter>
          <octave>4</octave>
        </pitch>
        <duration>5040</duration>
        <type>eighth</type>
        <accidental>natural</accidental>
        <lyric name="1" number="1">
          <syllabic>single</syllabic>
          <text>Ont</text>
        </lyric>
      </note>
      <note>
        <pitch>
          <step>G</step>
          <octave>4</octave>
        </pitch>
        <duration>5040</duration>
        <type>eighth</type>
        <beam number="1">begin</beam>
        <lyric name="1" number="1">
          <syllabic>begin</syllabic>
          <text>d'u</text>
        </lyric>
      </note>
      <note>
        <pitch>
          <step>B</step>
          <octave>4</octave>
        </pitch>
        <duration>5040</duration>
        <type>eighth</type>
        <beam number="1">end</beam>
        <lyric name="1" number="1">
          <syllabic>end</syllabic>
          <text>ne</text>
        </lyric>
      </note>
    </measure>
    <!--========================= Measure 14 =========================-->
    <measure number="14">
      <note>
        <pitch>
          <step>A</step>
          <alter>1</alter>
          <octave>4</octave>
        </pitch>
        <duration>5040</duration>
        <type>eighth</type>
        <accidental>sharp</accidental>
        <beam number="1">begin</beam>
        <lyric name="1" number="1">
          <syllabic>single</syllabic>
          <text>joie</text>
        </lyric>
      </note>
      <note>
        <pitch>
          <step>G</step>
          <alter>1</alter>
          <octave>4</octave>
        </pitch>
        <duration>5040</duration>
        <type>eighth</type>
        <accidental>sharp</accidental>
        <beam number="1">end</beam>
        <lyric name="1" number="1">
          <syllabic>begin</syllabic>
          <text>é</text>
        </lyric>
      </note>
      <note>
        <pitch>
          <step>F</step>
          <alter>1</alter>
          <octave>4</octave>
        </pitch>
        <duration>5040</duration>
        <type>eighth</type>
        <beam number="1">begin</beam>
        <lyric name="1" number="1">
          <syllabic>middle</syllabic>
          <text>va</text>
        </lyric>
      </note>
      <note>
        <pitch>
          <step>E</step>
          <octave>4</octave>
        </pitch>
        <duration>5040</duration>
        <type>eighth</type>
        <beam number="1">end</beam>
        <lyric name="1" number="1">
          <syllabic>middle</syllabic>
          <text>nou</text>
        </lyric>
      </note>
    </measure>
    <!--========================= Measure 15 =========================-->
    <measure number="15">
      <note>
        <pitch>
          <step>G</step>
          <alter>1</alter>
          <octave>4</octave>
        </pitch>
        <duration>15120</duration>
        <type>quarter</type>
        <dot />
        <accidental>sharp</accidental>
        <lyric name="1" number="1">
          <syllabic>end</syllabic>
          <text>ie</text>
        </lyric>
      </note>
      <note>
        <pitch>
          <step>D</step>
          <alter>1</alter>
          <octave>4</octave>
        </pitch>
        <duration>5040</duration>
        <type>eighth</type>
        <accidental>sharp</accidental>
        <lyric name="1" number="1">
          <syllabic>begin</syllabic>
          <text>Gar</text>
        </lyric>
      </note>
    </measure>
    <!--========================= Measure 16 =========================-->
    <measure number="16">
      <note>
        <pitch>
          <step>F</step>
          <alter>1</alter>
          <octave>4</octave>
        </pitch>
        <duration>20160</duration>
        <type>half</type>
        <lyric name="1" number="1">
          <syllabic>end</syllabic>
          <text>dé</text>
        </lyric>
      </note>
    </measure>
    <!--========================= Measure 17 =========================-->
    <measure number="17">
      <note>
        <pitch>
          <step>E</step>
          <octave>4</octave>
        </pitch>
        <duration>3360</duration>
        <type>eighth</type>
        <time-modification>
          <actual-notes>3</actual-notes>
          <normal-notes>2</normal-notes>
          <normal-type>eighth</normal-type>
        </time-modification>
        <beam number="1">begin</beam>
        <notations>
          <tuplet bracket="yes" number="1" placement="above" type="start">
            <tuplet-actual>
              <tuplet-number>3</tuplet-number>
              <tuplet-type>eighth</tuplet-type>
            </tuplet-actual>
            <tuplet-normal>
              <tuplet-number>2</tuplet-number>
              <tuplet-type>eighth</tuplet-type>
            </tuplet-normal>
          </tuplet>
        </notations>
        <lyric name="1" number="1">
          <syllabic>single</syllabic>
          <text>tout</text>
        </lyric>
      </note>
      <note>
        <pitch>
          <step>E</step>
          <octave>4</octave>
        </pitch>
        <duration>3360</duration>
        <type>eighth</type>
        <time-modification>
          <actual-notes>3</actual-notes>
          <normal-notes>2</normal-notes>
          <normal-type>eighth</normal-type>
        </time-modification>
        <beam number="1">continue</beam>
        <lyric name="1" number="1">
          <syllabic>single</syllabic>
          <text>le</text>
        </lyric>
      </note>
      <note>
        <pitch>
          <step>E</step>
          <octave>4</octave>
        </pitch>
        <duration>3360</duration>
        <type>eighth</type>
        <time-modification>
          <actual-notes>3</actual-notes>
          <normal-notes>2</normal-notes>
          <normal-type>eighth</normal-type>
        </time-modification>
        <beam number="1">end</beam>
        <notations>
          <tuplet number="1" type="stop" />
        </notations>
        <lyric name="1" number="1">
          <syllabic>begin</syllabic>
          <text>par</text>
        </lyric>
      </note>
      <note>
        <pitch>
          <step>F</step>
          <alter>1</alter>
          <octave>4</octave>
        </pitch>
        <duration>5040</duration>
        <type>eighth</type>
        <beam number="1">begin</beam>
        <lyric name="1" number="1">
          <syllabic>end</syllabic>
          <text>fum</text>
        </lyric>
      </note>
      <note>
        <pitch>
          <step>G</step>
          <alter>0</alter>
          <octave>4</octave>
        </pitch>
        <duration>5040</duration>
        <type>eighth</type>
        <accidental>natural</accidental>
        <beam number="1">end</beam>
        <lyric name="1" number="1">
          <syllabic>begin</syllabic>
          <text>se</text>
        </lyric>
      </note>
    </measure>
    <!--========================= Measure 18 =========================-->
    <measure number="18">
      <note>
        <pitch>
          <step>D</step>
          <octave>5</octave>
        </pitch>
        <duration>20160</duration>
        <tie type="start" />
        <type>half</type>
        <notations>
          <tied type="start" />
        </notations>
        <lyric name="1" number="1">
          <syllabic>end</syllabic>
          <text>cret</text>
        </lyric>
      </note>
    </measure>
    <!--========================= Measure 19 =========================-->
    <measure number="19">
      <note>
        <pitch>
          <step>D</step>
          <octave>5</octave>
        </pitch>
        <duration>10080</duration>
        <tie type="stop" />
        <type>quarter</type>
        <notations>
          <tied type="stop" />
        </notations>
        <lyric name="1" number="1">
          <syllabic>single</syllabic>
          <text />
        </lyric>
      </note>
      <note>
        <rest />
        <duration>10080</duration>
        <type>quarter</type>
      </note>
    </measure>
    <!--========================= Measure 20 =========================-->
    <measure number="20">
      <note>
        <pitch>
          <step>C</step>
          <alter>1</alter>
          <octave>5</octave>
        </pitch>
        <duration>5040</duration>
        <type>eighth</type>
        <beam number="1">begin</beam>
        <lyric name="1" number="1">
          <syllabic>single</syllabic>
          <text>Et</text>
        </lyric>
      </note>
      <note>
        <pitch>
          <step>C</step>
          <alter>1</alter>
          <octave>5</octave>
        </pitch>
        <duration>5040</duration>
        <type>eighth</type>
        <beam number="1">end</beam>
        <lyric name="1" number="1">
          <syllabic>single</syllabic>
          <text>c'est</text>
        </lyric>
      </note>
      <note>
        <pitch>
          <step>C</step>
          <alter>1</alter>
          <octave>5</octave>
        </pitch>
        <duration>5040</duration>
        <type>eighth</type>
        <beam number="1">begin</beam>
        <lyric name="1" number="1">
          <syllabic>begin</syllabic>
          <text>u</text>
        </lyric>
      </note>
      <note>
        <pitch>
          <step>C</step>
          <alter>1</alter>
          <octave>5</octave>
        </pitch>
        <duration>5040</duration>
        <type>eighth</type>
        <beam number="1">end</beam>
        <lyric name="1" number="1">
          <syllabic>end</syllabic>
          <text>ne</text>
        </lyric>
      </note>
    </measure>
    <!--========================= Measure 21 =========================-->
    <measure number="21">
      <note>
        <pitch>
          <step>B</step>
          <octave>4</octave>
        </pitch>
        <duration>10080</duration>
        <type>quarter</type>
        <lyric name="1" number="1">
          <syllabic>single</syllabic>
          <text>chose</text>
        </lyric>
      </note>
      <note>
        <pitch>
          <step>B</step>
          <octave>4</octave>
        </pitch>
        <duration>5040</duration>
        <type>eighth</type>
        <beam number="1">begin</beam>
        <lyric name="1" number="1">
          <syllabic>begin</syllabic>
          <text>i</text>
        </lyric>
      </note>
      <note>
        <pitch>
          <step>B</step>
          <octave>4</octave>
        </pitch>
        <duration>5040</duration>
        <type>eighth</type>
        <beam number="1">end</beam>
        <lyric name="1" number="1">
          <syllabic>middle</syllabic>
          <text>nou</text>
        </lyric>
      </note>
    </measure>
    <!--========================= Measure 22 =========================-->
    <measure number="22">
      <note>
        <pitch>
          <step>A</step>
          <octave>4</octave>
        </pitch>
        <duration>20160</duration>
        <type>half</type>
        <lyric name="1" number="1">
          <syllabic>end</syllabic>
          <text>ïe</text>
        </lyric>
      </note>
    </measure>
    <!--========================= Measure 23 =========================-->
    <measure number="23">
      <note>
        <pitch>
          <step>G</step>
          <octave>4</octave>
        </pitch>
        <duration>5040</duration>
        <type>eighth</type>
        <beam number="1">begin</beam>
        <lyric name="1" number="1">
          <syllabic>begin</syllabic>
          <text>Co</text>
        </lyric>
      </note>
      <note>
        <pitch>
          <step>G</step>
          <octave>4</octave>
        </pitch>
        <duration>5040</duration>
        <type>eighth</type>
        <beam number="1">end</beam>
        <lyric name="1" number="1">
          <syllabic>end</syllabic>
          <text>me</text>
        </lyric>
      </note>
      <note>
        <pitch>
          <step>G</step>
          <octave>4</octave>
        </pitch>
        <duration>5040</duration>
        <type>eighth</type>
        <beam number="1">begin</beam>
        <lyric name="1" number="1">
          <syllabic>single</syllabic>
          <text>le</text>
        </lyric>
      </note>
      <note>
        <pitch>
          <step>G</step>
          <octave>4</octave>
        </pitch>
        <duration>5040</duration>
        <type>eighth</type>
        <beam number="1">end</beam>
        <lyric name="1" number="1">
          <syllabic>begin</syllabic>
          <text>pas</text>
        </lyric>
      </note>
    </measure>
    <!--========================= Measure 24 =========================-->
    <measure number="24">
      <note>
        <pitch>
          <step>F</step>
          <alter>1</alter>
          <octave>4</octave>
        </pitch>
        <duration>20160</duration>
        <tie type="start" />
        <type>half</type>
        <notations>
          <tied type="start" />
        </notations>
        <lyric name="1" number="1">
          <syllabic>end</syllabic>
          <text>sé</text>
        </lyric>
      </note>
    </measure>
    <!--========================= Measure 25 =========================-->
    <measure number="25">
      <note>
        <pitch>
          <step>F</step>
          <alter>1</alter>
          <octave>4</octave>
        </pitch>
        <duration>5040</duration>
        <tie type="stop" />
        <type>eighth</type>
        <notations>
          <tied type="stop" />
        </notations>
        <lyric name="1" number="1">
          <syllabic>single</syllabic>
          <text />
        </lyric>
      </note>
      <note>
        <pitch>
          <step>C</step>
          <alter>1</alter>
          <octave>4</octave>
        </pitch>
        <duration>10080</duration>
        <type>quarter</type>
        <lyric name="1" number="1">
          <syllabic>begin</syllabic>
          <text>re</text>
        </lyric>
      </note>
      <note>
        <pitch>
          <step>D</step>
          <octave>4</octave>
        </pitch>
        <duration>5040</duration>
        <type>eighth</type>
        <lyric name="1" number="1">
          <syllabic>middle</syllabic>
          <text>pa</text>
        </lyric>
      </note>
    </measure>
    <!--========================= Measure 26 =========================-->
    <measure number="26">
      <note>
        <pitch>
          <step>D</step>
          <octave>4</octave>
        </pitch>
        <duration>20160</duration>
        <type>half</type>
        <lyric name="1" number="1">
          <syllabic>end</syllabic>
          <text>rait.</text>
        </lyric>
      </note>
    </measure>
    <!--========================= Measure 27 =========================-->
    <measure number="27">
      <note>
        <rest />
        <duration>5040</duration>
        <type>eighth</type>
      </note>
      <note>
        <pitch>
          <step>D</step>
          <octave>4</octave>
        </pitch>
        <duration>5040</duration>
        <type>eighth</type>
        <lyric name="1" number="1">
          <syllabic>single</syllabic>
          <text>A</text>
        </lyric>
      </note>
      <note>
        <pitch>
          <step>D</step>
          <octave>4</octave>
        </pitch>
        <duration>5040</duration>
        <type>eighth</type>
        <beam number="1">begin</beam>
        <lyric name="1" number="1">
          <syllabic>single</syllabic>
          <text>de</text>
        </lyric>
      </note>
      <note>
        <pitch>
          <step>D</step>
          <octave>4</octave>
        </pitch>
        <duration>5040</duration>
        <type>eighth</type>
        <beam number="1">end</beam>
        <lyric name="1" number="1">
          <syllabic>begin</syllabic>
          <text>cer</text>
        </lyric>
      </note>
    </measure>
    <!--========================= Measure 28 =========================-->
    <measure number="28">
      <note>
        <pitch>
          <step>E</step>
          <octave>4</octave>
        </pitch>
        <duration>5040</duration>
        <type>eighth</type>
        <beam number="1">begin</beam>
        <lyric name="1" number="1">
          <syllabic>end</syllabic>
          <text>tains</text>
        </lyric>
      </note>
      <note>
        <pitch>
          <step>E</step>
          <octave>4</octave>
        </pitch>
        <duration>5040</duration>
        <type>eighth</type>
        <beam number="1">end</beam>
        <lyric name="1" number="1">
          <syllabic>begin</syllabic>
          <text>mo</text>
        </lyric>
      </note>
      <note>
        <pitch>
          <step>E</step>
          <octave>4</octave>
        </pitch>
        <duration>10080</duration>
        <type>quarter</type>
        <lyric name="1" number="1">
          <syllabic>end</syllabic>
          <text>ments</text>
        </lyric>
      </note>
    </measure>
    <!--========================= Measure 29 =========================-->
    <measure number="29">
      <note>
        <rest />
        <duration>10080</duration>
        <type>quarter</type>
      </note>
      <note>
        <pitch>
          <step>E</step>
          <octave>4</octave>
        </pitch>
        <duration>10080</duration>
        <type>quarter</type>
        <lyric name="1" number="1">
          <syllabic>single</syllabic>
          <text>il</text>
        </lyric>
      </note>
    </measure>
    <!--========================= Measure 30 =========================-->
    <measure number="30">
      <note>
        <pitch>
          <step>F</step>
          <alter>1</alter>
          <octave>4</octave>
        </pitch>
        <duration>5040</duration>
        <type>eighth</type>
        <beam number="1">begin</beam>
        <lyric name="1" number="1">
          <syllabic>begin</syllabic>
          <text>sem</text>
        </lyric>
      </note>
      <note>
        <pitch>
          <step>F</step>
          <alter>1</alter>
          <octave>4</octave>
        </pitch>
        <duration>5040</duration>
        <type>eighth</type>
        <beam number="1">end</beam>
        <lyric name="1" number="1">
          <syllabic>end</syllabic>
          <text>ble</text>
        </lyric>
      </note>
      <note>
        <pitch>
          <step>G</step>
          <alter>1</alter>
          <octave>4</octave>
        </pitch>
        <duration>5040</duration>
        <type>eighth</type>
        <accidental>sharp</accidental>
        <beam number="1">begin</beam>
        <lyric name="1" number="1">
          <syllabic>single</syllabic>
          <text>que</text>
        </lyric>
      </note>
      <note>
        <pitch>
          <step>A</step>
          <octave>4</octave>
        </pitch>
        <duration>5040</duration>
        <type>eighth</type>
        <beam number="1">end</beam>
        <lyric name="1" number="1">
          <syllabic>single</syllabic>
          <text>le</text>
        </lyric>
      </note>
    </measure>
    <!--========================= Measure 31 =========================-->
    <measure number="31">
      <note>
        <pitch>
          <step>G</step>
          <alter>1</alter>
          <octave>4</octave>
        </pitch>
        <duration>15120</duration>
        <type>quarter</type>
        <dot />
        <accidental>sharp</accidental>
        <lyric name="1" number="1">
          <syllabic>begin</syllabic>
          <text>rê</text>
        </lyric>
      </note>
      <note>
        <pitch>
          <step>E</step>
          <octave>4</octave>
        </pitch>
        <duration>5040</duration>
        <type>eighth</type>
        <lyric name="1" number="1">
          <syllabic>end</syllabic>
          <text>ve</text>
        </lyric>
      </note>
    </measure>
    <!--========================= Measure 32 =========================-->
    <measure number="32">
      <note>
        <pitch>
          <step>E</step>
          <octave>4</octave>
        </pitch>
        <duration>10080</duration>
        <type>quarter</type>
        <lyric name="1" number="1">
          <syllabic>begin</syllabic>
          <text>du</text>
        </lyric>
      </note>
      <note>
        <pitch>
          <step>D</step>
          <alter>1</alter>
          <octave>4</octave>
        </pitch>
        <duration>5040</duration>
        <type>eighth</type>
        <accidental>sharp</accidental>
        <beam number="1">begin</beam>
        <lyric name="1" number="1">
          <syllabic>end</syllabic>
          <text>re</text>
        </lyric>
      </note>
      <note>
        <pitch>
          <step>C</step>
          <alter>1</alter>
          <octave>5</octave>
        </pitch>
        <duration>5040</duration>
        <type>eighth</type>
        <beam number="1">end</beam>
        <lyric name="1" number="1">
          <syllabic>begin</syllabic>
          <text>tou</text>
        </lyric>
      </note>
    </measure>
    <!--========================= Measure 33 =========================-->
    <measure number="33">
      <note>
        <pitch>
          <step>C</step>
          <alter>1</alter>
          <octave>4</octave>
        </pitch>
        <duration>20160</duration>
        <type>half</type>
        <lyric name="1" number="1">
          <syllabic>end</syllabic>
          <text>jours</text>
        </lyric>
      </note>
    </measure>
    <!--========================= Measure 34 =========================-->
    <measure number="34">
      <note>
        <rest />
        <duration>5040</duration>
        <type>eighth</type>
      </note>
      <note>
        <pitch>
          <step>A</step>
          <octave>4</octave>
        </pitch>
        <duration>5040</duration>
        <type>eighth</type>
        <lyric name="1" number="1">
          <syllabic>single</syllabic>
          <text>Et</text>
        </lyric>
      </note>
      <note>
        <pitch>
          <step>A</step>
          <octave>4</octave>
        </pitch>
        <duration>5040</duration>
        <type>eighth</type>
        <beam number="1">begin</beam>
        <lyric name="1" number="1">
          <syllabic>single</syllabic>
          <text>que</text>
        </lyric>
      </note>
      <note>
        <pitch>
          <step>A</step>
          <octave>4</octave>
        </pitch>
        <duration>5040</duration>
        <type>eighth</type>
        <beam number="1">end</beam>
        <lyric name="1" number="1">
          <syllabic>single</syllabic>
          <text>l'on</text>
        </lyric>
      </note>
    </measure>
    <!--========================= Measure 35 =========================-->
    <measure number="35">
      <note>
        <pitch>
          <step>B</step>
          <octave>4</octave>
        </pitch>
        <duration>7560</duration>
        <type>eighth</type>
        <dot />
        <beam number="1">begin</beam>
        <lyric name="1" number="1">
          <syllabic>single</syllabic>
          <text>soit</text>
        </lyric>
      </note>
      <note>
        <pitch>
          <step>B</step>
          <octave>4</octave>
        </pitch>
        <duration>2520</duration>
        <type>16th</type>
        <beam number="1">end</beam>
        <beam number="2">backward hook</beam>
        <lyric name="1" number="1">
          <syllabic>begin</syllabic>
          <text>en</text>
        </lyric>
      </note>
      <note>
        <pitch>
          <step>B</step>
          <octave>4</octave>
        </pitch>
        <duration>5040</duration>
        <type>eighth</type>
        <beam number="1">begin</beam>
        <lyric name="1" number="1">
          <syllabic>end</syllabic>
          <text>core</text>
        </lyric>
      </note>
      <note>
        <pitch>
          <step>B</step>
          <octave>4</octave>
        </pitch>
        <duration>5040</duration>
        <type>eighth</type>
        <beam number="1">end</beam>
        <lyric name="1" number="1">
          <syllabic>begin</syllabic>
          <text>en</text>
        </lyric>
      </note>
    </measure>
    <!--========================= Measure 36 =========================-->
    <measure number="36">
      <note>
        <pitch>
          <step>C</step>
          <alter>1</alter>
          <octave>5</octave>
        </pitch>
        <duration>15120</duration>
        <type>quarter</type>
        <dot />
        <lyric name="1" number="1">
          <syllabic>middle</syllabic>
          <text>sem</text>
        </lyric>
      </note>
      <note>
        <pitch>
          <step>G</step>
          <alter>1</alter>
          <octave>4</octave>
        </pitch>
        <duration>5040</duration>
        <type>eighth</type>
        <accidental>sharp</accidental>
        <lyric name="1" number="1">
          <syllabic>end</syllabic>
          <text>ble</text>
        </lyric>
      </note>
    </measure>
    <!--========================= Measure 37 =========================-->
    <measure number="37">
      <note>
        <rest />
        <duration>5040</duration>
        <type>eighth</type>
      </note>
      <note>
        <pitch>
          <step>D</step>
          <octave>5</octave>
        </pitch>
        <duration>10080</duration>
        <type>quarter</type>
        <lyric name="1" number="1">
          <syllabic>single</syllabic>
          <text>Comme</text>
        </lyric>
      </note>
      <note>
        <pitch>
          <step>D</step>
          <octave>5</octave>
        </pitch>
        <duration>5040</duration>
        <type>eighth</type>
        <lyric name="1" number="1">
          <syllabic>single</syllabic>
          <text>au</text>
        </lyric>
      </note>
    </measure>
    <!--========================= Measure 38 =========================-->
    <measure number="38">
      <note>
        <pitch>
          <step>C</step>
          <alter>1</alter>
          <octave>5</octave>
        </pitch>
        <duration>10080</duration>
        <type>quarter</type>
        <lyric name="1" number="1">
          <syllabic>single</syllabic>
          <text>temps</text>
        </lyric>
      </note>
      <note>
        <pitch>
          <step>G</step>
          <alter>1</alter>
          <octave>4</octave>
        </pitch>
        <duration>5040</duration>
        <type>eighth</type>
        <accidental>sharp</accidental>
        <beam number="1">begin</beam>
        <lyric name="1" number="1">
          <syllabic>single</syllabic>
          <text>des</text>
        </lyric>
      </note>
      <note>
        <pitch>
          <step>G</step>
          <alter>1</alter>
          <octave>4</octave>
        </pitch>
        <duration>5040</duration>
        <type>eighth</type>
        <beam number="1">end</beam>
        <lyric name="1" number="1">
          <syllabic>begin</syllabic>
          <text>dé</text>
        </lyric>
      </note>
    </measure>
    <!--========================= Measure 39 =========================-->
    <measure number="39">
      <note>
        <pitch>
          <step>G</step>
          <alter>1</alter>
          <octave>4</octave>
        </pitch>
        <duration>10080</duration>
        <type>quarter</type>
        <accidental>sharp</accidental>
        <lyric name="1" number="1">
          <syllabic>end</syllabic>
          <text>funts</text>
        </lyric>
      </note>
      <note>
        <pitch>
          <step>G</step>
          <alter>1</alter>
          <octave>4</octave>
        </pitch>
        <duration>10080</duration>
        <type>quarter</type>
        <lyric name="1" number="1">
          <syllabic>begin</syllabic>
          <text>a</text>
        </lyric>
      </note>
    </measure>
    <!--========================= Measure 40 =========================-->
    <measure number="40">
      <note>
        <pitch>
          <step>B</step>
          <octave>4</octave>
        </pitch>
        <duration>20160</duration>
        <tie type="start" />
        <type>half</type>
        <notations>
          <tied type="start" />
        </notations>
        <lyric name="1" number="1">
          <syllabic>end</syllabic>
          <text>mours</text>
        </lyric>
      </note>
    </measure>
    <!--========================= Measure 41 =========================-->
    <measure number="41">
      <note>
        <pitch>
          <step>B</step>
          <octave>4</octave>
        </pitch>
        <duration>10080</duration>
        <tie type="stop" />
        <tie type="start" />
        <type>quarter</type>
        <notations>
          <tied type="stop" />
          <tied type="start" />
        </notations>
        <lyric name="1" number="1">
          <syllabic>single</syllabic>
          <text />
        </lyric>
      </note>
      <note>
        <pitch>
          <step>B</step>
          <octave>4</octave>
        </pitch>
        <duration>5040</duration>
        <tie type="stop" />
        <type>eighth</type>
        <notations>
          <tied type="stop" />
        </notations>
        <lyric name="1" number="1">
          <syllabic>single</syllabic>
          <text />
        </lyric>
      </note>
      <note>
        <rest />
        <duration>5040</duration>
        <type>eighth</type>
      </note>
    </measure>
    <!--========================= Measure 42 =========================-->
    <measure number="42">
      <note>
        <rest />
        <duration>10080</duration>
        <type>quarter</type>
      </note>
      <note>
        <rest />
        <duration>5040</duration>
        <type>eighth</type>
      </note>
      <note>
        <pitch>
          <step>D</step>
          <octave>4</octave>
        </pitch>
        <duration>5040</duration>
        <type>eighth</type>
        <lyric name="1" number="1">
          <syllabic>begin</syllabic>
          <text>Pen</text>
        </lyric>
      </note>
    </measure>
    <!--========================= Measure 43 =========================-->
    <measure number="43">
      <note>
        <pitch>
          <step>E</step>
          <alter>-1</alter>
          <octave>4</octave>
        </pitch>
        <duration>5040</duration>
        <type>eighth</type>
        <accidental>flat</accidental>
        <beam number="1">begin</beam>
        <lyric name="1" number="1">
          <syllabic>end</syllabic>
          <text>dant</text>
        </lyric>
      </note>
      <note>
        <pitch>
          <step>E</step>
          <alter>-1</alter>
          <octave>4</octave>
        </pitch>
        <duration>2520</duration>
        <type>16th</type>
        <beam number="1">continue</beam>
        <beam number="2">begin</beam>
        <lyric name="1" number="1">
          <syllabic>single</syllabic>
          <text>qu'à</text>
        </lyric>
      </note>
      <note>
        <pitch>
          <step>E</step>
          <alter>-1</alter>
          <octave>4</octave>
        </pitch>
        <duration>2520</duration>
        <type>16th</type>
        <beam number="1">end</beam>
        <beam number="2">end</beam>
        <lyric name="1" number="1">
          <syllabic>begin</syllabic>
          <text>de</text>
        </lyric>
      </note>
      <note>
        <pitch>
          <step>G</step>
          <octave>4</octave>
        </pitch>
        <duration>3360</duration>
        <type>eighth</type>
        <time-modification>
          <actual-notes>3</actual-notes>
          <normal-notes>2</normal-notes>
          <normal-type>eighth</normal-type>
        </time-modification>
        <beam number="1">begin</beam>
        <notations>
          <tuplet bracket="yes" number="1" placement="above" type="start">
            <tuplet-actual>
              <tuplet-number>3</tuplet-number>
              <tuplet-type>eighth</tuplet-type>
            </tuplet-actual>
            <tuplet-normal>
              <tuplet-number>2</tuplet-number>
              <tuplet-type>eighth</tuplet-type>
            </tuplet-normal>
          </tuplet>
        </notations>
        <lyric name="1" number="1">
          <syllabic>end</syllabic>
          <text>me</text>
        </lyric>
      </note>
      <note>
        <pitch>
          <step>G</step>
          <octave>4</octave>
        </pitch>
        <duration>3360</duration>
        <type>eighth</type>
        <time-modification>
          <actual-notes>3</actual-notes>
          <normal-notes>2</normal-notes>
          <normal-type>eighth</normal-type>
        </time-modification>
        <beam number="1">continue</beam>
        <lyric name="1" number="1">
          <syllabic>single</syllabic>
          <text>l'on</text>
        </lyric>
      </note>
      <note>
        <pitch>
          <step>G</step>
          <octave>4</octave>
        </pitch>
        <duration>3360</duration>
        <type>eighth</type>
        <time-modification>
          <actual-notes>3</actual-notes>
          <normal-notes>2</normal-notes>
          <normal-type>eighth</normal-type>
        </time-modification>
        <beam number="1">end</beam>
        <notations>
          <tuplet number="1" type="stop" />
        </notations>
        <lyric name="1" number="1">
          <syllabic>begin</syllabic>
          <text>som</text>
        </lyric>
      </note>
    </measure>
    <!--========================= Measure 44 =========================-->
    <measure number="44">
      <note>
        <pitch>
          <step>A</step>
          <octave>4</octave>
        </pitch>
        <duration>10080</duration>
        <type>quarter</type>
        <lyric name="1" number="1">
          <syllabic>middle</syllabic>
          <text>meil</text>
        </lyric>
      </note>
      <note>
        <pitch>
          <step>A</step>
          <octave>4</octave>
        </pitch>
        <duration>2520</duration>
        <type>16th</type>
        <lyric name="1" number="1">
          <syllabic>end</syllabic>
          <text>le</text>
        </lyric>
      </note>
      <note>
        <rest />
        <duration>2520</duration>
        <type>16th</type>
      </note>
      <note>
        <pitch>
          <step>A</step>
          <octave>4</octave>
        </pitch>
        <duration>5040</duration>
        <type>eighth</type>
        <lyric name="1" number="1">
          <syllabic>begin</syllabic>
          <text>Ber</text>
        </lyric>
      </note>
    </measure>
    <!--========================= Measure 45 =========================-->
    <measure number="45">
      <note>
        <pitch>
          <step>A</step>
          <octave>4</octave>
        </pitch>
        <duration>5040</duration>
        <type>eighth</type>
        <beam number="1">begin</beam>
        <lyric name="1" number="1">
          <syllabic>end</syllabic>
          <text>cé</text>
        </lyric>
      </note>
      <note>
        <pitch>
          <step>G</step>
          <octave>4</octave>
        </pitch>
        <duration>2520</duration>
        <type>16th</type>
        <beam number="1">continue</beam>
        <beam number="2">begin</beam>
        <lyric name="1" number="1">
          <syllabic>single</syllabic>
          <text>par</text>
        </lyric>
      </note>
      <note>
        <pitch>
          <step>G</step>
          <octave>4</octave>
        </pitch>
        <duration>2520</duration>
        <type>16th</type>
        <beam number="1">end</beam>
        <beam number="2">end</beam>
        <lyric name="1" number="1">
          <syllabic>single</syllabic>
          <text>la</text>
        </lyric>
      </note>
      <note>
        <pitch>
          <step>G</step>
          <octave>4</octave>
        </pitch>
        <duration>3360</duration>
        <type>eighth</type>
        <time-modification>
          <actual-notes>3</actual-notes>
          <normal-notes>2</normal-notes>
          <normal-type>eighth</normal-type>
        </time-modification>
        <beam number="1">begin</beam>
        <notations>
          <tuplet bracket="yes" number="1" placement="above" type="start">
            <tuplet-actual>
              <tuplet-number>3</tuplet-number>
              <tuplet-type>eighth</tuplet-type>
            </tuplet-actual>
            <tuplet-normal>
              <tuplet-number>2</tuplet-number>
              <tuplet-type>eighth</tuplet-type>
            </tuplet-normal>
          </tuplet>
        </notations>
        <lyric name="1" number="1">
          <syllabic>begin</syllabic>
          <text>va</text>
        </lyric>
      </note>
      <note>
        <pitch>
          <step>A</step>
          <octave>4</octave>
        </pitch>
        <duration>3360</duration>
        <type>eighth</type>
        <time-modification>
          <actual-notes>3</actual-notes>
          <normal-notes>2</normal-notes>
          <normal-type>eighth</normal-type>
        </time-modification>
        <beam number="1">continue</beam>
        <lyric name="1" number="1">
          <syllabic>end</syllabic>
          <text>gue</text>
        </lyric>
      </note>
      <note>
        <pitch>
          <step>B</step>
          <alter>-1</alter>
          <octave>4</octave>
        </pitch>
        <duration>3360</duration>
        <type>eighth</type>
        <accidental>flat</accidental>
        <time-modification>
          <actual-notes>3</actual-notes>
          <normal-notes>2</normal-notes>
          <normal-type>eighth</normal-type>
        </time-modification>
        <beam number="1">end</beam>
        <notations>
          <tuplet number="1" type="stop" />
        </notations>
        <lyric name="1" number="1">
          <syllabic>begin</syllabic>
          <text>chan</text>
        </lyric>
      </note>
    </measure>
    <!--========================= Measure 46 =========================-->
    <measure number="46">
      <note>
        <pitch>
          <step>B</step>
          <alter>0</alter>
          <octave>4</octave>
        </pitch>
        <duration>3360</duration>
        <type>eighth</type>
        <accidental>natural</accidental>
        <time-modification>
          <actual-notes>3</actual-notes>
          <normal-notes>2</normal-notes>
          <normal-type>eighth</normal-type>
        </time-modification>
        <beam number="1">begin</beam>
        <notations>
          <tuplet bracket="yes" number="1" placement="above" type="start">
            <tuplet-actual>
              <tuplet-number>3</tuplet-number>
              <tuplet-type>eighth</tuplet-type>
            </tuplet-actual>
            <tuplet-normal>
              <tuplet-number>2</tuplet-number>
              <tuplet-type>eighth</tuplet-type>
            </tuplet-normal>
          </tuplet>
        </notations>
        <lyric name="1" number="1">
          <syllabic>end</syllabic>
          <text>son</text>
        </lyric>
      </note>
      <note>
        <pitch>
          <step>G</step>
          <octave>4</octave>
        </pitch>
        <duration>3360</duration>
        <type>eighth</type>
        <time-modification>
          <actual-notes>3</actual-notes>
          <normal-notes>2</normal-notes>
          <normal-type>eighth</normal-type>
        </time-modification>
        <beam number="1">continue</beam>
        <lyric name="1" number="1">
          <syllabic>begin</syllabic>
          <text>D'u</text>
        </lyric>
      </note>
      <note>
        <pitch>
          <step>F</step>
          <alter>1</alter>
          <octave>4</octave>
        </pitch>
        <duration>3360</duration>
        <type>eighth</type>
        <time-modification>
          <actual-notes>3</actual-notes>
          <normal-notes>2</normal-notes>
          <normal-type>eighth</normal-type>
        </time-modification>
        <beam number="1">end</beam>
        <notations>
          <tuplet number="1" type="stop" />
        </notations>
        <lyric name="1" number="1">
          <syllabic>end</syllabic>
          <text>ne</text>
        </lyric>
      </note>
      <note>
        <pitch>
          <step>E</step>
          <alter>1</alter>
          <octave>4</octave>
        </pitch>
        <duration>6720</duration>
        <type>quarter</type>
        <accidental>sharp</accidental>
        <time-modification>
          <actual-notes>3</actual-notes>
          <normal-notes>2</normal-notes>
          <normal-type>quarter</normal-type>
        </time-modification>
        <notations>
          <tuplet bracket="yes" number="1" placement="above" type="start">
            <tuplet-actual>
              <tuplet-number>3</tuplet-number>
              <tuplet-type>quarter</tuplet-type>
            </tuplet-actual>
            <tuplet-normal>
              <tuplet-number>2</tuplet-number>
              <tuplet-type>quarter</tuplet-type>
            </tuplet-normal>
          </tuplet>
        </notations>
        <lyric name="1" number="1">
          <syllabic>single</syllabic>
          <text>voix</text>
        </lyric>
      </note>
      <note>
        <pitch>
          <step>E</step>
          <alter>1</alter>
          <octave>4</octave>
        </pitch>
        <duration>3360</duration>
        <type>eighth</type>
        <time-modification>
          <actual-notes>3</actual-notes>
          <normal-notes>2</normal-notes>
          <normal-type>eighth</normal-type>
        </time-modification>
        <notations>
          <tuplet number="1" type="stop" />
        </notations>
        <lyric name="1" number="1">
          <syllabic>single</syllabic>
          <text>qui</text>
        </lyric>
      </note>
    </measure>
    <!--========================= Measure 47 =========================-->
    <measure number="47">
      <note>
        <pitch>
          <step>F</step>
          <alter>1</alter>
          <octave>4</octave>
        </pitch>
        <duration>3360</duration>
        <type>eighth</type>
        <time-modification>
          <actual-notes>3</actual-notes>
          <normal-notes>2</normal-notes>
          <normal-type>eighth</normal-type>
        </time-modification>
        <beam number="1">begin</beam>
        <notations>
          <tuplet bracket="yes" number="1" placement="above" type="start">
            <tuplet-actual>
              <tuplet-number>3</tuplet-number>
              <tuplet-type>eighth</tuplet-type>
            </tuplet-actual>
            <tuplet-normal>
              <tuplet-number>2</tuplet-number>
              <tuplet-type>eighth</tuplet-type>
            </tuplet-normal>
          </tuplet>
        </notations>
        <lyric name="1" number="1">
          <syllabic>begin</syllabic>
          <text>char</text>
        </lyric>
      </note>
      <note>
        <pitch>
          <step>G</step>
          <octave>4</octave>
        </pitch>
        <duration>3360</duration>
        <type>eighth</type>
        <time-modification>
          <actual-notes>3</actual-notes>
          <normal-notes>2</normal-notes>
          <normal-type>eighth</normal-type>
        </time-modification>
        <beam number="1">continue</beam>
        <lyric name="1" number="1">
          <syllabic>end</syllabic>
          <text>me</text>
        </lyric>
      </note>
      <note>
        <pitch>
          <step>A</step>
          <octave>4</octave>
        </pitch>
        <duration>3360</duration>
        <type>eighth</type>
        <time-modification>
          <actual-notes>3</actual-notes>
          <normal-notes>2</normal-notes>
          <normal-type>eighth</normal-type>
        </time-modification>
        <beam number="1">end</beam>
        <notations>
          <tuplet number="1" type="stop" />
        </notations>
        <lyric name="1" number="1">
          <syllabic>begin</syllabic>
          <text>l'o</text>
        </lyric>
      </note>
      <note>
        <pitch>
          <step>A</step>
          <octave>4</octave>
        </pitch>
        <duration>10080</duration>
        <type>quarter</type>
        <lyric name="1" number="1">
          <syllabic>middle</syllabic>
          <text>reil</text>
        </lyric>
      </note>
    </measure>
    <!--========================= Measure 48 =========================-->
    <measure number="48">
      <note>
        <pitch>
          <step>A</step>
          <octave>4</octave>
        </pitch>
        <duration>5040</duration>
        <type>eighth</type>
        <lyric name="1" number="1">
          <syllabic>end</syllabic>
          <text>le,</text>
        </lyric>
      </note>
      <note>
        <rest />
        <duration>5040</duration>
        <type>eighth</type>
      </note>
      <note>
        <pitch>
          <step>A</step>
          <octave>4</octave>
        </pitch>
        <duration>5040</duration>
        <type>eighth</type>
        <beam number="1">begin</beam>
        <lyric name="1" number="1">
          <syllabic>single</syllabic>
          <text>Sur</text>
        </lyric>
      </note>
      <note>
        <pitch>
          <step>A</step>
          <octave>4</octave>
        </pitch>
        <duration>5040</duration>
        <type>eighth</type>
        <beam number="1">end</beam>
        <lyric name="1" number="1">
          <syllabic>single</syllabic>
          <text>les</text>
        </lyric>
      </note>
    </measure>
    <!--========================= Measure 49 =========================-->
    <measure number="49">
      <note>
        <pitch>
          <step>B</step>
          <alter>-1</alter>
          <octave>4</octave>
        </pitch>
        <duration>10080</duration>
        <type>quarter</type>
        <accidental>flat</accidental>
        <lyric name="1" number="1">
          <syllabic>begin</syllabic>
          <text>lè</text>
        </lyric>
      </note>
      <note>
        <pitch>
          <step>D</step>
          <octave>4</octave>
        </pitch>
        <duration>5040</duration>
        <type>eighth</type>
        <beam number="1">begin</beam>
        <lyric name="1" number="1">
          <syllabic>end</syllabic>
          <text>vres</text>
        </lyric>
      </note>
      <note>
        <pitch>
          <step>D</step>
          <octave>4</octave>
        </pitch>
        <duration>5040</duration>
        <type>eighth</type>
        <beam number="1">end</beam>
        <lyric name="1" number="1">
          <syllabic>begin</syllabic>
          <text>vol</text>
        </lyric>
      </note>
    </measure>
    <!--========================= Measure 50 =========================-->
    <measure number="50">
      <note>
        <pitch>
          <step>F</step>
          <alter>0</alter>
          <octave>4</octave>
        </pitch>
        <duration>10080</duration>
        <type>quarter</type>
        <accidental>natural</accidental>
        <lyric name="1" number="1">
          <syllabic>end</syllabic>
          <text>tige</text>
        </lyric>
      </note>
      <note>
        <pitch>
          <step>F</step>
          <alter>0</alter>
          <octave>4</octave>
        </pitch>
        <duration>10080</duration>
        <type>quarter</type>
        <accidental>natural</accidental>
        <lyric name="1" number="1">
          <syllabic>single</syllabic>
          <text>un</text>
        </lyric>
      </note>
    </measure>
    <!--========================= Measure 51 =========================-->
    <measure number="51">
      <note>
        <pitch>
          <step>F</step>
          <alter>1</alter>
          <octave>4</octave>
        </pitch>
        <duration>20160</duration>
        <type>half</type>
        <accidental>sharp</accidental>
        <lyric name="1" number="1">
          <syllabic>single</syllabic>
          <text>nom</text>
        </lyric>
      </note>
    </measure>
    <!--========================= Measure 52 =========================-->
    <measure number="52">
      <note>
        <rest />
        <duration>10080</duration>
        <type>quarter</type>
      </note>
      <note>
        <pitch>
          <step>F</step>
          <alter>1</alter>
          <octave>4</octave>
        </pitch>
        <duration>5040</duration>
        <type>eighth</type>
        <beam number="1">begin</beam>
        <lyric name="1" number="1">
          <syllabic>single</syllabic>
          <text>Et</text>
        </lyric>
      </note>
      <note>
        <pitch>
          <step>F</step>
          <alter>1</alter>
          <octave>4</octave>
        </pitch>
        <duration>5040</duration>
        <type>eighth</type>
        <beam number="1">end</beam>
        <lyric name="1" number="1">
          <syllabic>single</syllabic>
          <text>cette</text>
        </lyric>
      </note>
    </measure>
    <!--========================= Measure 53 =========================-->
    <measure number="53">
      <note>
        <pitch>
          <step>G</step>
          <octave>4</octave>
        </pitch>
        <duration>20160</duration>
        <type>half</type>
        <lyric name="1" number="1">
          <syllabic>single</syllabic>
          <text>heure</text>
        </lyric>
      </note>
    </measure>
    <!--========================= Measure 54 =========================-->
    <measure number="54">
      <note>
        <pitch>
          <step>A</step>
          <octave>4</octave>
        </pitch>
        <duration>5040</duration>
        <type>eighth</type>
        <beam number="1">begin</beam>
        <lyric name="1" number="1">
          <syllabic>single</syllabic>
          <text>où</text>
        </lyric>
      </note>
      <note>
        <pitch>
          <step>A</step>
          <octave>4</octave>
        </pitch>
        <duration>5040</duration>
        <type>eighth</type>
        <beam number="1">end</beam>
        <lyric name="1" number="1">
          <syllabic>single</syllabic>
          <text>l'on</text>
        </lyric>
      </note>
      <note>
        <pitch>
          <step>G</step>
          <octave>4</octave>
        </pitch>
        <duration>5040</duration>
        <type>eighth</type>
        <beam number="1">begin</beam>
        <lyric name="1" number="1">
          <syllabic>single</syllabic>
          <text>se</text>
        </lyric>
      </note>
      <note>
        <pitch>
          <step>G</step>
          <octave>4</octave>
        </pitch>
        <duration>5040</duration>
        <type>eighth</type>
        <beam number="1">end</beam>
        <lyric name="1" number="1">
          <syllabic>begin</syllabic>
          <text>rap</text>
        </lyric>
      </note>
    </measure>
    <!--========================= Measure 55 =========================-->
    <measure number="55">
      <note>
        <pitch>
          <step>F</step>
          <alter>1</alter>
          <octave>4</octave>
        </pitch>
        <duration>10080</duration>
        <type>quarter</type>
        <lyric name="1" number="1">
          <syllabic>middle</syllabic>
          <text>pel</text>
        </lyric>
      </note>
      <note>
        <pitch>
          <step>F</step>
          <alter>1</alter>
          <octave>4</octave>
        </pitch>
        <duration>5040</duration>
        <type>eighth</type>
        <beam number="1">begin</beam>
        <lyric name="1" number="1">
          <syllabic>end</syllabic>
          <text>le</text>
        </lyric>
      </note>
      <note>
        <pitch>
          <step>B</step>
          <octave>4</octave>
        </pitch>
        <duration>5040</duration>
        <type>eighth</type>
        <beam number="1">end</beam>
        <lyric name="1" number="1">
          <syllabic>single</syllabic>
          <text>Son</text>
        </lyric>
      </note>
    </measure>
    <!--========================= Measure 56 =========================-->
    <measure number="56">
      <note>
        <pitch>
          <step>B</step>
          <octave>4</octave>
        </pitch>
        <duration>10080</duration>
        <type>quarter</type>
        <lyric name="1" number="1">
          <syllabic>single</syllabic>
          <text>coeur</text>
        </lyric>
      </note>
      <note>
        <pitch>
          <step>C</step>
          <alter>1</alter>
          <octave>5</octave>
        </pitch>
        <duration>5040</duration>
        <type>eighth</type>
        <beam number="1">begin</beam>
        <lyric name="1" number="1">
          <syllabic>begin</syllabic>
          <text>fol</text>
        </lyric>
      </note>
      <note>
        <pitch>
          <step>D</step>
          <octave>5</octave>
        </pitch>
        <duration>5040</duration>
        <type>eighth</type>
        <beam number="1">end</beam>
        <lyric name="1" number="1">
          <syllabic>middle</syllabic>
          <text>le</text>
        </lyric>
      </note>
    </measure>
    <!--========================= Measure 57 =========================-->
    <measure number="57">
      <note>
        <pitch>
          <step>D</step>
          <octave>5</octave>
        </pitch>
        <duration>6720</duration>
        <type>quarter</type>
        <time-modification>
          <actual-notes>3</actual-notes>
          <normal-notes>2</normal-notes>
          <normal-type>quarter</normal-type>
        </time-modification>
        <notations>
          <tuplet bracket="yes" number="1" placement="above" type="start">
            <tuplet-actual>
              <tuplet-number>3</tuplet-number>
              <tuplet-type>quarter</tuplet-type>
            </tuplet-actual>
            <tuplet-normal>
              <tuplet-number>2</tuplet-number>
              <tuplet-type>quarter</tuplet-type>
            </tuplet-normal>
          </tuplet>
        </notations>
        <lyric name="1" number="1">
          <syllabic>end</syllabic>
          <text>ment</text>
        </lyric>
      </note>
      <note>
        <pitch>
          <step>C</step>
          <alter>1</alter>
          <octave>5</octave>
        </pitch>
        <duration>6720</duration>
        <type>quarter</type>
        <time-modification>
          <actual-notes>3</actual-notes>
          <normal-notes>2</normal-notes>
          <normal-type>quarter</normal-type>
        </time-modification>
        <lyric name="1" number="1">
          <syllabic>begin</syllabic>
          <text>dé</text>
        </lyric>
      </note>
      <note>
        <pitch>
          <step>B</step>
          <octave>4</octave>
        </pitch>
        <duration>6720</duration>
        <type>quarter</type>
        <time-modification>
          <actual-notes>3</actual-notes>
          <normal-notes>2</normal-notes>
          <normal-type>quarter</normal-type>
        </time-modification>
        <notations>
          <tuplet number="1" type="stop" />
        </notations>
        <lyric name="1" number="1">
          <syllabic>middle</syllabic>
          <text>pen</text>
        </lyric>
      </note>
    </measure>
    <!--========================= Measure 58 =========================-->
    <measure number="58">
      <note>
        <pitch>
          <step>G</step>
          <octave>4</octave>
        </pitch>
        <duration>20160</duration>
        <tie type="start" />
        <type>half</type>
        <notations>
          <tied type="start" />
        </notations>
        <lyric name="1" number="1">
          <syllabic>end</syllabic>
          <text>sé</text>
        </lyric>
      </note>
    </measure>
    <!--========================= Measure 59 =========================-->
    <measure number="59">
      <note>
        <pitch>
          <step>G</step>
          <octave>4</octave>
        </pitch>
        <duration>5040</duration>
        <tie type="stop" />
        <type>eighth</type>
        <beam number="1">begin</beam>
        <notations>
          <tied type="stop" />
        </notations>
        <lyric name="1" number="1">
          <syllabic>single</syllabic>
          <text />
        </lyric>
      </note>
      <note>
        <pitch>
          <step>E</step>
          <octave>4</octave>
        </pitch>
        <duration>5040</duration>
        <type>eighth</type>
        <beam number="1">end</beam>
        <lyric name="1" number="1">
          <syllabic>single</syllabic>
          <text>Est</text>
        </lyric>
      </note>
      <note>
        <pitch>
          <step>F</step>
          <alter>1</alter>
          <octave>4</octave>
        </pitch>
        <duration>5040</duration>
        <type>eighth</type>
        <beam number="1">begin</beam>
        <lyric name="1" number="1">
          <syllabic>single</syllabic>
          <text>comme</text>
        </lyric>
      </note>
      <note>
        <pitch>
          <step>G</step>
          <octave>4</octave>
        </pitch>
        <duration>5040</duration>
        <type>eighth</type>
        <beam number="1">end</beam>
        <lyric name="1" number="1">
          <syllabic>single</syllabic>
          <text>un</text>
        </lyric>
      </note>
    </measure>
    <!--========================= Measure 60 =========================-->
    <measure number="60">
      <note>
        <pitch>
          <step>G</step>
          <alter>1</alter>
          <octave>4</octave>
        </pitch>
        <duration>5040</duration>
        <type>eighth</type>
        <accidental>sharp</accidental>
        <beam number="1">begin</beam>
        <lyric name="1" number="1">
          <syllabic>begin</syllabic>
          <text>fris</text>
        </lyric>
      </note>
      <note>
        <pitch>
          <step>G</step>
          <alter>1</alter>
          <octave>4</octave>
        </pitch>
        <duration>5040</duration>
        <type>eighth</type>
        <beam number="1">end</beam>
        <lyric name="1" number="1">
          <syllabic>middle</syllabic>
          <text>son</text>
        </lyric>
      </note>
      <note>
        <pitch>
          <step>A</step>
          <octave>4</octave>
        </pitch>
        <duration>5040</duration>
        <type>eighth</type>
        <beam number="1">begin</beam>
        <lyric name="1" number="1">
          <syllabic>middle</syllabic>
          <text>ne</text>
        </lyric>
      </note>
      <note>
        <pitch>
          <step>B</step>
          <octave>4</octave>
        </pitch>
        <duration>5040</duration>
        <type>eighth</type>
        <beam number="1">end</beam>
        <lyric name="1" number="1">
          <syllabic>end</syllabic>
          <text>ment</text>
        </lyric>
      </note>
    </measure>
    <!--========================= Measure 61 =========================-->
    <measure number="61">
      <note>
        <pitch>
          <step>C</step>
          <alter>1</alter>
          <octave>5</octave>
        </pitch>
        <duration>20160</duration>
        <tie type="start" />
        <type>half</type>
        <notations>
          <tied type="start" />
        </notations>
        <lyric name="1" number="1">
          <syllabic>begin</syllabic>
          <text>d'ai</text>
        </lyric>
      </note>
    </measure>
    <!--========================= Measure 62 =========================-->
    <measure number="62">
      <note>
        <pitch>
          <step>C</step>
          <alter>1</alter>
          <octave>5</octave>
        </pitch>
        <duration>5040</duration>
        <tie type="stop" />
        <type>eighth</type>
        <beam number="1">begin</beam>
        <notations>
          <tied type="stop" />
        </notations>
        <lyric name="1" number="1">
          <syllabic>single</syllabic>
          <text>_</text>
        </lyric>
      </note>
      <note>
        <pitch>
          <step>B</step>
          <octave>4</octave>
        </pitch>
        <duration>5040</duration>
        <type>eighth</type>
        <beam number="1">end</beam>
        <lyric name="1" number="1">
          <syllabic>end</syllabic>
          <text>le</text>
        </lyric>
      </note>
      <note>
        <pitch>
          <step>B</step>
          <octave>4</octave>
        </pitch>
        <duration>5040</duration>
        <type>eighth</type>
        <beam number="1">begin</beam>
        <lyric name="1" number="1">
          <syllabic>single</syllabic>
          <text>Qui</text>
        </lyric>
      </note>
      <note>
        <pitch>
          <step>B</step>
          <octave>4</octave>
        </pitch>
        <duration>5040</duration>
        <type>eighth</type>
        <beam number="1">end</beam>
        <lyric name="1" number="1">
          <syllabic>single</syllabic>
          <text>s'en</text>
        </lyric>
      </note>
    </measure>
    <!--========================= Measure 63 =========================-->
    <measure number="63">
      <note>
        <pitch>
          <step>A</step>
          <octave>4</octave>
        </pitch>
        <duration>10080</duration>
        <type>quarter</type>
        <lyric name="1" number="1">
          <syllabic>single</syllabic>
          <text>vient</text>
        </lyric>
      </note>
      <note>
        <pitch>
          <step>G</step>
          <octave>4</octave>
        </pitch>
        <duration>5040</duration>
        <type>eighth</type>
        <beam number="1">begin</beam>
        <lyric name="1" number="1">
          <syllabic>single</syllabic>
          <text>du</text>
        </lyric>
      </note>
      <note>
        <pitch>
          <step>G</step>
          <octave>4</octave>
        </pitch>
        <duration>5040</duration>
        <type>eighth</type>
        <beam number="1">end</beam>
        <lyric name="1" number="1">
          <syllabic>begin</syllabic>
          <text>joy</text>
        </lyric>
      </note>
    </measure>
    <!--========================= Measure 64 =========================-->
    <measure number="64">
      <note>
        <pitch>
          <step>F</step>
          <alter>1</alter>
          <octave>4</octave>
        </pitch>
        <duration>5040</duration>
        <type>eighth</type>
        <beam number="1">begin</beam>
        <lyric name="1" number="1">
          <syllabic>end</syllabic>
          <text>eux</text>
        </lyric>
      </note>
      <note>
        <pitch>
          <step>F</step>
          <alter>1</alter>
          <octave>4</octave>
        </pitch>
        <duration>5040</duration>
        <type>eighth</type>
        <beam number="1">end</beam>
        <lyric name="1" number="1">
          <syllabic>begin</syllabic>
          <text>pas</text>
        </lyric>
      </note>
      <note>
        <pitch>
          <step>F</step>
          <alter>1</alter>
          <octave>4</octave>
        </pitch>
        <duration>10080</duration>
        <tie type="start" />
        <type>quarter</type>
        <notations>
          <tied type="start" />
        </notations>
        <lyric name="1" number="1">
          <syllabic>end</syllabic>
          <text>sé.</text>
        </lyric>
      </note>
    </measure>
    <!--========================= Measure 65 =========================-->
    <measure number="65">
      <note>
        <pitch>
          <step>F</step>
          <alter>1</alter>
          <octave>4</octave>
        </pitch>
        <duration>20160</duration>
        <tie type="stop" />
        <tie type="start" />
        <type>half</type>
        <notations>
          <tied type="stop" />
          <tied type="start" />
        </notations>
        <lyric name="1" number="1">
          <syllabic>single</syllabic>
          <text />
        </lyric>
      </note>
    </measure>
    <!--========================= Measure 66 =========================-->
    <measure number="66">
      <note>
        <pitch>
          <step>F</step>
          <alter>1</alter>
          <octave>4</octave>
        </pitch>
        <duration>10080</duration>
        <tie type="stop" />
        <type>quarter</type>
        <notations>
          <tied type="stop" />
        </notations>
        <lyric name="1" number="1">
          <syllabic>single</syllabic>
          <text />
        </lyric>
      </note>
      <note>
        <rest />
        <duration>10080</duration>
        <type>quarter</type>
      </note>
    </measure>
  </part>
</score-partwise>
