<?xml version="1.0" encoding="UTF-8"?>
<!DOCTYPE score-partwise PUBLIC "-//Recordare//DTD MusicXML 2.0 Partwise//EN" "http://www.musicxml.org/dtds/partwise.dtd">
<!-- INFO key="COM" value="Felix Mendelssohn" -->
<!-- INFO key="CNT" value="Deutsch" -->
<!-- INFO key="TXO" value="Deutsch" -->
<!-- INFO key="OTL" value="Gruss" -->
<!-- INFO key="LYR" value="Heine" -->
<!-- INFO key="OPS" value="Op. 19" -->
<!-- INFO key="ONM" value="No. 5" -->
<!-- INFO key="ENC" value="Daniel Alt & Leigh VanHandel" -->
<!-- INFO key="YOR" value="Sa2mmtliche Lieder fu2r eine Singstimme" -->
<!-- INFO key="YOR" value="Neu revidirt von Dr. L. Benda, Ausgabe fu2r mittlere Stimme" -->
<!-- INFO key="YOR" value="Braunschweig. Henry Litolff's Verlag. Boston and New York: Arthur P. Schmidt." -->
<!-- INFO key="ODT" value="1832/" -->
<score-partwise version="2.0">
	<part-list>
		<score-part id="P1">
			<part-name></part-name>
		</score-part>
	</part-list>

	<part id="P1">
		<measure number="1">
			<attributes>
				<divisions>2</divisions>
			</attributes>
			<attributes>
				<clef>
					<sign>G</sign>
					<line>2</line>
				</clef>
			</attributes>
			<attributes>
				<key>
					<fifths>0</fifths>
				</key>
			</attributes>
			<attributes>
				<time>
					<beats>2</beats>
					<beat-type>4</beat-type>
				</time>
			</attributes>
			<note>
				<rest/>
				<duration>4</duration>
				<voice>1</voice>
				<type>half</type>
			</note>
		</measure>
		<measure number="2">
			<note>
				<rest/>
				<duration>4</duration>
				<voice>1</voice>
				<type>half</type>
			</note>
		</measure>
		<measure number="3">
			<note>
				<rest/>
				<duration>4</duration>
				<voice>1</voice>
				<type>half</type>
			</note>
		</measure>
		<measure number="4">
			<note>
				<rest/>
				<duration>4</duration>
				<voice>1</voice>
				<type>half</type>
			</note>
		</measure>
		<measure number="5">
			<note>
				<pitch>
					<step>G</step>
					<octave>4</octave>
				</pitch>
				<duration>1</duration>
				<voice>1</voice>
				<type>eighth</type>
				<lyric number="1" name="verse">
					<syllabic>single</syllabic>
					<text>{Lei-</text>
				</lyric>
			</note>
			<note>
				<pitch>
					<step>E</step>
					<octave>4</octave>
				</pitch>
				<duration>1</duration>
				<voice>1</voice>
				<type>eighth</type>
				<lyric number="1" name="verse">
					<syllabic>single</syllabic>
					<text>-se</text>
				</lyric>
			</note>
			<note>
				<pitch>
					<step>G</step>
					<octave>4</octave>
				</pitch>
				<duration>1</duration>
				<voice>1</voice>
				<type>eighth</type>
				<lyric number="1" name="verse">
					<syllabic>single</syllabic>
					<text>zieht</text>
				</lyric>
			</note>
			<note>
				<pitch>
					<step>E</step>
					<octave>4</octave>
				</pitch>
				<duration>1</duration>
				<voice>1</voice>
				<type>eighth</type>
				<lyric number="1" name="verse">
					<syllabic>single</syllabic>
					<text>durch</text>
				</lyric>
			</note>
		</measure>
		<measure number="6">
			<note>
				<pitch>
					<step>F</step>
					<octave>4</octave>
				</pitch>
				<duration>1</duration>
				<voice>1</voice>
				<type>eighth</type>
				<lyric number="1" name="verse">
					<syllabic>single</syllabic>
					<text>mein</text>
				</lyric>
			</note>
			<note>
				<pitch>
					<step>G</step>
					<octave>4</octave>
				</pitch>
				<duration>1</duration>
				<voice>1</voice>
				<type>eighth</type>
				<lyric number="1" name="verse">
					<syllabic>single</syllabic>
					<text>Ge-</text>
				</lyric>
			</note>
			<note>
				<pitch>
					<step>A</step>
					<octave>4</octave>
				</pitch>
				<duration>2</duration>
				<voice>1</voice>
				<type>quarter</type>
				<lyric number="1" name="verse">
					<syllabic>single</syllabic>
					<text>-mu2th}</text>
				</lyric>
			</note>
		</measure>
		<measure number="7">
			<note>
				<pitch>
					<step>C</step>
					<octave>5</octave>
				</pitch>
				<duration>1</duration>
				<voice>1</voice>
				<type>eighth</type>
				<lyric number="1" name="verse">
					<syllabic>single</syllabic>
					<text>{lieb-</text>
				</lyric>
			</note>
			<note>
				<pitch>
					<step>B</step>
					<octave>4</octave>
				</pitch>
				<duration>1</duration>
				<voice>1</voice>
				<type>eighth</type>
				<lyric number="1" name="verse">
					<syllabic>single</syllabic>
					<text>-li-</text>
				</lyric>
			</note>
			<note>
				<pitch>
					<step>C</step>
					<octave>5</octave>
				</pitch>
				<duration>1</duration>
				<voice>1</voice>
				<type>eighth</type>
				<lyric number="1" name="verse">
					<syllabic>single</syllabic>
					<text>-ches</text>
				</lyric>
			</note>
			<note>
				<pitch>
					<step>A</step>
					<octave>4</octave>
				</pitch>
				<duration>1</duration>
				<voice>1</voice>
				<type>eighth</type>
				<lyric number="1" name="verse">
					<syllabic>single</syllabic>
					<text>Ge-</text>
				</lyric>
			</note>
		</measure>
		<measure number="8">
			<note>
				<pitch>
					<step>G</step>
					<octave>4</octave>
				</pitch>
				<duration>2</duration>
				<voice>1</voice>
				<type>quarter</type>
				<lyric number="1" name="verse">
					<syllabic>single</syllabic>
					<text>-la2u-</text>
				</lyric>
			</note>
			<note>
				<pitch>
					<step>E</step>
					<octave>4</octave>
				</pitch>
				<duration>1</duration>
				<voice>1</voice>
				<type>eighth</type>
				<lyric number="1" name="verse">
					<syllabic>single</syllabic>
					<text>-te;}</text>
				</lyric>
			</note>
			<note>
				<rest/>
				<duration>1</duration>
				<voice>1</voice>
				<type>eighth</type>
			</note>
		</measure>
		<measure number="9">
			<note>
				<pitch>
					<step>A</step>
					<octave>4</octave>
				</pitch>
				<duration>1</duration>
				<voice>1</voice>
				<type>eighth</type>
				<lyric number="1" name="verse">
					<syllabic>single</syllabic>
					<text>{klin-</text>
				</lyric>
			</note>
			<note>
				<pitch>
					<step>E</step>
					<octave>4</octave>
				</pitch>
				<duration>1</duration>
				<voice>1</voice>
				<type>eighth</type>
				<lyric number="1" name="verse">
					<syllabic>single</syllabic>
					<text>-ge,</text>
				</lyric>
			</note>
			<note>
				<pitch>
					<step>D</step>
					<alter>-1</alter>
					<octave>4</octave>
				</pitch>
				<duration>1</duration>
				<voice>1</voice>
				<type>eighth</type>
				<accidental>flat</accidental>
				<lyric number="1" name="verse">
					<syllabic>single</syllabic>
					<text>klei-</text>
				</lyric>
			</note>
			<note>
				<pitch>
					<step>E</step>
					<octave>4</octave>
				</pitch>
				<duration>1</duration>
				<voice>1</voice>
				<type>eighth</type>
				<lyric number="1" name="verse">
					<syllabic>single</syllabic>
					<text>-nes</text>
				</lyric>
			</note>
		</measure>
		<measure number="10">
			<note>
				<pitch>
					<step>A</step>
					<octave>4</octave>
				</pitch>
				<duration>1</duration>
				<voice>1</voice>
				<type>eighth</type>
				<lyric number="1" name="verse">
					<syllabic>single</syllabic>
					<text>Fru2h-</text>
				</lyric>
			</note>
			<note>
				<pitch>
					<step>E</step>
					<octave>4</octave>
				</pitch>
				<duration>1</duration>
				<voice>1</voice>
				<type>eighth</type>
				<lyric number="1" name="verse">
					<syllabic>single</syllabic>
					<text>-lings-</text>
				</lyric>
			</note>
			<note>
				<pitch>
					<step>F</step>
					<octave>4</octave>
				</pitch>
				<duration>2</duration>
				<voice>1</voice>
				<type>quarter</type>
				<lyric number="1" name="verse">
					<syllabic>single</syllabic>
					<text>-lied,}</text>
				</lyric>
			</note>
		</measure>
		<measure number="11">
			<note>
				<pitch>
					<step>G</step>
					<octave>4</octave>
				</pitch>
				<duration>1</duration>
				<voice>1</voice>
				<type>eighth</type>
				<lyric number="1" name="verse">
					<syllabic>single</syllabic>
					<text>{kling'</text>
				</lyric>
			</note>
			<note>
				<pitch>
					<step>A</step>
					<octave>4</octave>
				</pitch>
				<duration>1</duration>
				<voice>1</voice>
				<type>eighth</type>
				<lyric number="1" name="verse">
					<syllabic>single</syllabic>
					<text>hin-</text>
				</lyric>
			</note>
			<note>
				<pitch>
					<step>B</step>
					<octave>4</octave>
				</pitch>
				<duration>1</duration>
				<voice>1</voice>
				<type>eighth</type>
				<lyric number="1" name="verse">
					<syllabic>single</syllabic>
					<text>-aus</text>
				</lyric>
			</note>
			<note>
				<pitch>
					<step>C</step>
					<octave>5</octave>
				</pitch>
				<duration>1</duration>
				<voice>1</voice>
				<type>eighth</type>
				<lyric number="1" name="verse">
					<syllabic>single</syllabic>
					<text>in's</text>
				</lyric>
			</note>
		</measure>
		<measure number="12">
			<note>
				<pitch>
					<step>E</step>
					<octave>5</octave>
				</pitch>
				<duration>2</duration>
				<voice>1</voice>
				<type>quarter</type>
				<lyric number="1" name="verse">
					<syllabic>single</syllabic>
					<text>Wei-</text>
				</lyric>
			</note>
			<note>
				<pitch>
					<step>D</step>
					<octave>5</octave>
				</pitch>
				<duration>2</duration>
				<voice>1</voice>
				<type>quarter</type>
				<lyric number="1" name="verse">
					<syllabic>single</syllabic>
					<text>|</text>
				</lyric>
			</note>
		</measure>
		<measure number="13">
			<note>
				<pitch>
					<step>C</step>
					<octave>5</octave>
				</pitch>
				<duration>2</duration>
				<voice>1</voice>
				<type>quarter</type>
				<lyric number="1" name="verse">
					<syllabic>single</syllabic>
					<text>-te.}</text>
				</lyric>
			</note>
			<note>
				<rest/>
				<duration>2</duration>
				<voice>1</voice>
				<type>quarter</type>
			</note>
		</measure>
	</part>
</score-partwise>
