<?xml version="1.0" encoding="UTF-8"?>
<!DOCTYPE score-partwise PUBLIC "-//Recordare//DTD MusicXML 2.0 Partwise//EN" "http://www.musicxml.org/dtds/partwise.dtd">
<!-- GCOMMENT value="COM: Schubert, Franz" -->
<!-- INFO key="CNT" value="Deutscher" -->
<!-- INFO key="TXO" value="Deutsch" -->
<!-- INFO key="LYR" value="Friedrich Ru2ckert" -->
<!-- INFO key="OTL" value=""Greisengesang"" -->
<!-- INFO key="OPS" value="Op. 60" -->
<!-- INFO key="ONM" value="No. 1" -->
<!-- INFO key="ODT" value="1823/" -->
<!-- GCOMMENT value="NB: Vocal melody only encoded." -->
<!-- GCOMMENT value="NB: Original key" -->
<score-partwise version="2.0">
	<part-list>
		<score-part id="P1">
			<part-name></part-name>
		</score-part>
	</part-list>

	<part id="P1">
		<measure number="1">
			<attributes>
				<divisions>4</divisions>
			</attributes>
			<attributes>
				<clef>
					<sign>G</sign>
					<line>2</line>
				</clef>
			</attributes>
			<attributes>
				<key>
					<fifths>2</fifths>
				</key>
			</attributes>
			<attributes>
				<time>
					<beats>4</beats>
					<beat-type>4</beat-type>
				</time>
			</attributes>
			<note>
				<rest/>
				<duration>8</duration>
				<voice>1</voice>
				<type>half</type>
			</note>
			<note>
				<rest/>
				<duration>4</duration>
				<voice>1</voice>
				<type>quarter</type>
			</note>
			<note>
				<pitch>
					<step>F</step>
					<alter>1</alter>
					<octave>4</octave>
				</pitch>
				<duration>4</duration>
				<voice>1</voice>
				<type>quarter</type>
				<lyric number="1" name="verse">
					<syllabic>single</syllabic>
					<text>{Der</text>
				</lyric>
			</note>
		</measure>
		<measure number="2">
			<note>
				<pitch>
					<step>B</step>
					<octave>4</octave>
				</pitch>
				<duration>6</duration>
				<voice>1</voice>
				<type>quarter</type>
				<dot/>
				<lyric number="1" name="verse">
					<syllabic>single</syllabic>
					<text>Frost</text>
				</lyric>
			</note>
			<note>
				<pitch>
					<step>B</step>
					<octave>4</octave>
				</pitch>
				<duration>2</duration>
				<voice>1</voice>
				<type>eighth</type>
				<lyric number="1" name="verse">
					<syllabic>single</syllabic>
					<text>hat</text>
				</lyric>
			</note>
			<note>
				<pitch>
					<step>A</step>
					<octave>4</octave>
				</pitch>
				<duration>4</duration>
				<voice>1</voice>
				<type>quarter</type>
				<lyric number="1" name="verse">
					<syllabic>single</syllabic>
					<text>mir</text>
				</lyric>
			</note>
			<note>
				<pitch>
					<step>F</step>
					<alter>1</alter>
					<octave>4</octave>
				</pitch>
				<duration>4</duration>
				<voice>1</voice>
				<type>quarter</type>
				<lyric number="1" name="verse">
					<syllabic>single</syllabic>
					<text>be-</text>
				</lyric>
			</note>
		</measure>
		<measure number="3">
			<note>
				<pitch>
					<step>G</step>
					<octave>4</octave>
				</pitch>
				<duration>8</duration>
				<voice>1</voice>
				<type>half</type>
				<lyric number="1" name="verse">
					<syllabic>single</syllabic>
					<text>-rei-</text>
				</lyric>
			</note>
			<note>
				<pitch>
					<step>D</step>
					<octave>4</octave>
				</pitch>
				<duration>4</duration>
				<voice>1</voice>
				<type>quarter</type>
				<lyric number="1" name="verse">
					<syllabic>single</syllabic>
					<text>-fet</text>
				</lyric>
			</note>
			<note>
				<pitch>
					<step>D</step>
					<octave>4</octave>
				</pitch>
				<duration>2</duration>
				<voice>1</voice>
				<type>eighth</type>
				<lyric number="1" name="verse">
					<syllabic>single</syllabic>
					<text>des</text>
				</lyric>
			</note>
			<note>
				<pitch>
					<step>E</step>
					<octave>4</octave>
				</pitch>
				<duration>2</duration>
				<voice>1</voice>
				<type>eighth</type>
				<lyric number="1" name="verse">
					<syllabic>single</syllabic>
					<text>|</text>
				</lyric>
			</note>
		</measure>
		<measure number="4">
			<note>
				<pitch>
					<step>F</step>
					<alter>1</alter>
					<octave>4</octave>
				</pitch>
				<duration>8</duration>
				<voice>1</voice>
				<type>half</type>
				<lyric number="1" name="verse">
					<syllabic>single</syllabic>
					<text>Hau-</text>
				</lyric>
			</note>
			<note>
				<pitch>
					<step>E</step>
					<octave>4</octave>
				</pitch>
				<duration>8</duration>
				<voice>1</voice>
				<type>half</type>
				<lyric number="1" name="verse">
					<syllabic>single</syllabic>
					<text>-ses</text>
				</lyric>
			</note>
		</measure>
		<measure number="5">
			<note>
				<pitch>
					<step>D</step>
					<octave>4</octave>
				</pitch>
				<duration>8</duration>
				<voice>1</voice>
				<type>half</type>
				<lyric number="1" name="verse">
					<syllabic>single</syllabic>
					<text>Dach;}</text>
				</lyric>
			</note>
			<note>
				<rest/>
				<duration>4</duration>
				<voice>1</voice>
				<type>quarter</type>
			</note>
			<note>
				<pitch>
					<step>F</step>
					<alter>1</alter>
					<octave>4</octave>
				</pitch>
				<duration>4</duration>
				<voice>1</voice>
				<type>quarter</type>
				<lyric number="1" name="verse">
					<syllabic>single</syllabic>
					<text>{doch</text>
				</lyric>
			</note>
		</measure>
		<measure number="6">
			<note>
				<pitch>
					<step>B</step>
					<octave>4</octave>
				</pitch>
				<duration>6</duration>
				<voice>1</voice>
				<type>quarter</type>
				<dot/>
				<lyric number="1" name="verse">
					<syllabic>single</syllabic>
					<text>warm</text>
				</lyric>
			</note>
			<note>
				<pitch>
					<step>B</step>
					<octave>4</octave>
				</pitch>
				<duration>2</duration>
				<voice>1</voice>
				<type>eighth</type>
				<lyric number="1" name="verse">
					<syllabic>single</syllabic>
					<text>ist</text>
				</lyric>
			</note>
			<note>
				<pitch>
					<step>A</step>
					<alter>1</alter>
					<octave>4</octave>
				</pitch>
				<duration>4</duration>
				<voice>1</voice>
				<type>quarter</type>
				<accidental>sharp</accidental>
				<lyric number="1" name="verse">
					<syllabic>single</syllabic>
					<text>mir's</text>
				</lyric>
			</note>
			<note>
				<pitch>
					<step>G</step>
					<alter>1</alter>
					<octave>4</octave>
				</pitch>
				<duration>4</duration>
				<voice>1</voice>
				<type>quarter</type>
				<accidental>sharp</accidental>
				<lyric number="1" name="verse">
					<syllabic>single</syllabic>
					<text>ge-</text>
				</lyric>
			</note>
		</measure>
		<measure number="7">
			<note>
				<pitch>
					<step>F</step>
					<alter>1</alter>
					<octave>4</octave>
				</pitch>
				<duration>4</duration>
				<voice>1</voice>
				<type>quarter</type>
				<lyric number="1" name="verse">
					<syllabic>single</syllabic>
					<text>-blie-</text>
				</lyric>
			</note>
			<note>
				<pitch>
					<step>G</step>
					<alter>1</alter>
					<octave>4</octave>
				</pitch>
				<duration>2</duration>
				<voice>1</voice>
				<type>eighth</type>
				<accidental>sharp</accidental>
				<lyric number="1" name="verse">
					<syllabic>single</syllabic>
					<text>|</text>
				</lyric>
			</note>
			<note>
				<pitch>
					<step>A</step>
					<alter>1</alter>
					<octave>4</octave>
				</pitch>
				<duration>2</duration>
				<voice>1</voice>
				<type>eighth</type>
				<accidental>sharp</accidental>
				<lyric number="1" name="verse">
					<syllabic>single</syllabic>
					<text>|</text>
				</lyric>
			</note>
			<note>
				<pitch>
					<step>B</step>
					<octave>4</octave>
				</pitch>
				<duration>4</duration>
				<voice>1</voice>
				<type>quarter</type>
				<lyric number="1" name="verse">
					<syllabic>single</syllabic>
					<text>-ben</text>
				</lyric>
			</note>
			<note>
				<pitch>
					<step>C</step>
					<alter>1</alter>
					<octave>5</octave>
				</pitch>
				<duration>4</duration>
				<voice>1</voice>
				<type>quarter</type>
				<lyric number="1" name="verse">
					<syllabic>single</syllabic>
					<text>im</text>
				</lyric>
			</note>
		</measure>
		<measure number="8">
			<note>
				<pitch>
					<step>D</step>
					<alter>1</alter>
					<octave>5</octave>
				</pitch>
				<duration>12</duration>
				<voice>1</voice>
				<type>half</type>
				<dot/>
				<accidental>sharp</accidental>
				<lyric number="1" name="verse">
					<syllabic>single</syllabic>
					<text>Wohn-</text>
				</lyric>
			</note>
			<note>
				<pitch>
					<step>C</step>
					<alter>1</alter>
					<octave>5</octave>
				</pitch>
				<duration>4</duration>
				<voice>1</voice>
				<type>quarter</type>
				<lyric number="1" name="verse">
					<syllabic>single</syllabic>
					<text>-ge-</text>
				</lyric>
			</note>
		</measure>
		<measure number="9">
			<note>
				<pitch>
					<step>B</step>
					<octave>4</octave>
				</pitch>
				<duration>12</duration>
				<voice>1</voice>
				<type>half</type>
				<dot/>
				<lyric number="1" name="verse">
					<syllabic>single</syllabic>
					<text>-mach.}</text>
				</lyric>
			</note>
			<note>
				<pitch>
					<step>F</step>
					<alter>1</alter>
					<octave>4</octave>
				</pitch>
				<duration>4</duration>
				<voice>1</voice>
				<type>quarter</type>
				<lyric number="1" name="verse">
					<syllabic>single</syllabic>
					<text>{Der</text>
				</lyric>
			</note>
		</measure>
		<measure number="10">
			<note>
				<pitch>
					<step>B</step>
					<octave>4</octave>
				</pitch>
				<duration>6</duration>
				<voice>1</voice>
				<type>quarter</type>
				<dot/>
				<lyric number="1" name="verse">
					<syllabic>single</syllabic>
					<text>Win-</text>
				</lyric>
			</note>
			<note>
				<pitch>
					<step>B</step>
					<octave>4</octave>
				</pitch>
				<duration>2</duration>
				<voice>1</voice>
				<type>eighth</type>
				<lyric number="1" name="verse">
					<syllabic>single</syllabic>
					<text>-ter</text>
				</lyric>
			</note>
			<note>
				<pitch>
					<step>A</step>
					<octave>4</octave>
				</pitch>
				<duration>4</duration>
				<voice>1</voice>
				<type>quarter</type>
				<lyric number="1" name="verse">
					<syllabic>single</syllabic>
					<text>hat</text>
				</lyric>
			</note>
			<note>
				<pitch>
					<step>F</step>
					<alter>1</alter>
					<octave>4</octave>
				</pitch>
				<duration>4</duration>
				<voice>1</voice>
				<type>quarter</type>
				<lyric number="1" name="verse">
					<syllabic>single</syllabic>
					<text>die</text>
				</lyric>
			</note>
		</measure>
		<measure number="11">
			<note>
				<pitch>
					<step>G</step>
					<octave>4</octave>
				</pitch>
				<duration>8</duration>
				<voice>1</voice>
				<type>half</type>
				<lyric number="1" name="verse">
					<syllabic>single</syllabic>
					<text>Schei-</text>
				</lyric>
			</note>
			<note>
				<pitch>
					<step>D</step>
					<octave>4</octave>
				</pitch>
				<duration>4</duration>
				<voice>1</voice>
				<type>quarter</type>
				<lyric number="1" name="verse">
					<syllabic>single</syllabic>
					<text>-tel</text>
				</lyric>
			</note>
			<note>
				<pitch>
					<step>D</step>
					<octave>4</octave>
				</pitch>
				<duration>2</duration>
				<voice>1</voice>
				<type>eighth</type>
				<lyric number="1" name="verse">
					<syllabic>single</syllabic>
					<text>mir</text>
				</lyric>
			</note>
			<note>
				<pitch>
					<step>E</step>
					<octave>4</octave>
				</pitch>
				<duration>2</duration>
				<voice>1</voice>
				<type>eighth</type>
				<lyric number="1" name="verse">
					<syllabic>single</syllabic>
					<text>|</text>
				</lyric>
			</note>
		</measure>
		<measure number="12">
			<note>
				<pitch>
					<step>F</step>
					<alter>1</alter>
					<octave>4</octave>
				</pitch>
				<duration>8</duration>
				<voice>1</voice>
				<type>half</type>
				<lyric number="1" name="verse">
					<syllabic>single</syllabic>
					<text>weiss</text>
				</lyric>
			</note>
			<note>
				<pitch>
					<step>E</step>
					<octave>4</octave>
				</pitch>
				<duration>8</duration>
				<voice>1</voice>
				<type>half</type>
				<lyric number="1" name="verse">
					<syllabic>single</syllabic>
					<text>ge-</text>
				</lyric>
			</note>
		</measure>
		<measure number="13">
			<note>
				<pitch>
					<step>D</step>
					<octave>4</octave>
				</pitch>
				<duration>8</duration>
				<voice>1</voice>
				<type>half</type>
				<lyric number="1" name="verse">
					<syllabic>single</syllabic>
					<text>-deckt;}</text>
				</lyric>
			</note>
			<note>
				<rest/>
				<duration>4</duration>
				<voice>1</voice>
				<type>quarter</type>
			</note>
			<note>
				<pitch>
					<step>F</step>
					<alter>1</alter>
					<octave>4</octave>
				</pitch>
				<duration>4</duration>
				<voice>1</voice>
				<type>quarter</type>
				<lyric number="1" name="verse">
					<syllabic>single</syllabic>
					<text>{doch</text>
				</lyric>
			</note>
		</measure>
		<measure number="14">
			<note>
				<pitch>
					<step>B</step>
					<octave>4</octave>
				</pitch>
				<duration>6</duration>
				<voice>1</voice>
				<type>quarter</type>
				<dot/>
				<lyric number="1" name="verse">
					<syllabic>single</syllabic>
					<text>fliesst</text>
				</lyric>
			</note>
			<note>
				<pitch>
					<step>B</step>
					<octave>4</octave>
				</pitch>
				<duration>2</duration>
				<voice>1</voice>
				<type>eighth</type>
				<lyric number="1" name="verse">
					<syllabic>single</syllabic>
					<text>das</text>
				</lyric>
			</note>
			<note>
				<pitch>
					<step>A</step>
					<alter>1</alter>
					<octave>4</octave>
				</pitch>
				<duration>4</duration>
				<voice>1</voice>
				<type>quarter</type>
				<accidental>sharp</accidental>
				<lyric number="1" name="verse">
					<syllabic>single</syllabic>
					<text>Blut,</text>
				</lyric>
			</note>
			<note>
				<pitch>
					<step>G</step>
					<alter>1</alter>
					<octave>4</octave>
				</pitch>
				<duration>4</duration>
				<voice>1</voice>
				<type>quarter</type>
				<accidental>sharp</accidental>
				<lyric number="1" name="verse">
					<syllabic>single</syllabic>
					<text>das</text>
				</lyric>
			</note>
		</measure>
		<measure number="15">
			<note>
				<pitch>
					<step>F</step>
					<alter>1</alter>
					<octave>4</octave>
				</pitch>
				<duration>4</duration>
				<voice>1</voice>
				<type>quarter</type>
				<lyric number="1" name="verse">
					<syllabic>single</syllabic>
					<text>ro-</text>
				</lyric>
			</note>
			<note>
				<pitch>
					<step>G</step>
					<alter>1</alter>
					<octave>4</octave>
				</pitch>
				<duration>2</duration>
				<voice>1</voice>
				<type>eighth</type>
				<accidental>sharp</accidental>
				<lyric number="1" name="verse">
					<syllabic>single</syllabic>
					<text>|</text>
				</lyric>
			</note>
			<note>
				<pitch>
					<step>A</step>
					<alter>1</alter>
					<octave>4</octave>
				</pitch>
				<duration>2</duration>
				<voice>1</voice>
				<type>eighth</type>
				<accidental>sharp</accidental>
				<lyric number="1" name="verse">
					<syllabic>single</syllabic>
					<text>|</text>
				</lyric>
			</note>
			<note>
				<pitch>
					<step>B</step>
					<octave>4</octave>
				</pitch>
				<duration>4</duration>
				<voice>1</voice>
				<type>quarter</type>
				<lyric number="1" name="verse">
					<syllabic>single</syllabic>
					<text>-te,</text>
				</lyric>
			</note>
			<note>
				<pitch>
					<step>C</step>
					<alter>1</alter>
					<octave>5</octave>
				</pitch>
				<duration>4</duration>
				<voice>1</voice>
				<type>quarter</type>
				<lyric number="1" name="verse">
					<syllabic>single</syllabic>
					<text>durch's</text>
				</lyric>
			</note>
		</measure>
		<measure number="16">
			<note>
				<pitch>
					<step>D</step>
					<alter>1</alter>
					<octave>5</octave>
				</pitch>
				<duration>12</duration>
				<voice>1</voice>
				<type>half</type>
				<dot/>
				<accidental>sharp</accidental>
				<lyric number="1" name="verse">
					<syllabic>single</syllabic>
					<text>Herz-</text>
				</lyric>
			</note>
			<note>
				<pitch>
					<step>C</step>
					<alter>1</alter>
					<octave>5</octave>
				</pitch>
				<duration>4</duration>
				<voice>1</voice>
				<type>quarter</type>
				<lyric number="1" name="verse">
					<syllabic>single</syllabic>
					<text>-ge-</text>
				</lyric>
			</note>
		</measure>
		<measure number="17">
			<note>
				<pitch>
					<step>B</step>
					<octave>4</octave>
				</pitch>
				<duration>12</duration>
				<voice>1</voice>
				<type>half</type>
				<dot/>
				<lyric number="1" name="verse">
					<syllabic>single</syllabic>
					<text>-mach.}</text>
				</lyric>
			</note>
			<note>
				<pitch>
					<step>B</step>
					<octave>4</octave>
				</pitch>
				<duration>2</duration>
				<voice>1</voice>
				<type>eighth</type>
				<lyric number="1" name="verse">
					<syllabic>single</syllabic>
					<text>{Der</text>
				</lyric>
			</note>
			<note>
				<pitch>
					<step>D</step>
					<octave>5</octave>
				</pitch>
				<duration>2</duration>
				<voice>1</voice>
				<type>eighth</type>
				<accidental>natural</accidental>
				<lyric number="1" name="verse">
					<syllabic>single</syllabic>
					<text>|</text>
				</lyric>
			</note>
		</measure>
		<measure number="18">
			<note>
				<pitch>
					<step>C</step>
					<alter>1</alter>
					<octave>5</octave>
				</pitch>
				<duration>4</duration>
				<voice>1</voice>
				<type>quarter</type>
				<lyric number="1" name="verse">
					<syllabic>single</syllabic>
					<text>Ju-</text>
				</lyric>
			</note>
			<note>
				<pitch>
					<step>F</step>
					<alter>1</alter>
					<octave>4</octave>
				</pitch>
				<duration>4</duration>
				<voice>1</voice>
				<type>quarter</type>
				<lyric number="1" name="verse">
					<syllabic>single</syllabic>
					<text>-gend-</text>
				</lyric>
			</note>
			<note>
				<pitch>
					<step>F</step>
					<alter>1</alter>
					<octave>4</octave>
				</pitch>
				<duration>4</duration>
				<voice>1</voice>
				<type>quarter</type>
				<lyric number="1" name="verse">
					<syllabic>single</syllabic>
					<text>-flor</text>
				</lyric>
			</note>
			<note>
				<pitch>
					<step>G</step>
					<octave>4</octave>
				</pitch>
				<duration>2</duration>
				<voice>1</voice>
				<type>eighth</type>
				<lyric number="1" name="verse">
					<syllabic>single</syllabic>
					<text>der</text>
				</lyric>
			</note>
			<note>
				<pitch>
					<step>B</step>
					<octave>4</octave>
				</pitch>
				<duration>2</duration>
				<voice>1</voice>
				<type>eighth</type>
				<lyric number="1" name="verse">
					<syllabic>single</syllabic>
					<text>|</text>
				</lyric>
			</note>
		</measure>
		<measure number="19">
			<note>
				<pitch>
					<step>A</step>
					<octave>4</octave>
				</pitch>
				<duration>8</duration>
				<voice>1</voice>
				<type>half</type>
				<lyric number="1" name="verse">
					<syllabic>single</syllabic>
					<text>Wan-</text>
				</lyric>
			</note>
			<note>
				<pitch>
					<step>D</step>
					<octave>4</octave>
				</pitch>
				<duration>4</duration>
				<voice>1</voice>
				<type>quarter</type>
				<lyric number="1" name="verse">
					<syllabic>single</syllabic>
					<text>-gen,}</text>
				</lyric>
			</note>
			<note>
				<pitch>
					<step>B</step>
					<octave>4</octave>
				</pitch>
				<duration>2</duration>
				<voice>1</voice>
				<type>eighth</type>
				<lyric number="1" name="verse">
					<syllabic>single</syllabic>
					<text>{die</text>
				</lyric>
			</note>
			<note>
				<pitch>
					<step>D</step>
					<octave>5</octave>
				</pitch>
				<duration>2</duration>
				<voice>1</voice>
				<type>eighth</type>
				<lyric number="1" name="verse">
					<syllabic>single</syllabic>
					<text>|</text>
				</lyric>
			</note>
		</measure>
		<measure number="20">
			<note>
				<pitch>
					<step>C</step>
					<alter>1</alter>
					<octave>5</octave>
				</pitch>
				<duration>4</duration>
				<voice>1</voice>
				<type>quarter</type>
				<lyric number="1" name="verse">
					<syllabic>single</syllabic>
					<text>Ro-</text>
				</lyric>
			</note>
			<note>
				<pitch>
					<step>F</step>
					<alter>1</alter>
					<octave>4</octave>
				</pitch>
				<duration>4</duration>
				<voice>1</voice>
				<type>quarter</type>
				<lyric number="1" name="verse">
					<syllabic>single</syllabic>
					<text>-sen</text>
				</lyric>
			</note>
			<note>
				<pitch>
					<step>F</step>
					<alter>1</alter>
					<octave>4</octave>
				</pitch>
				<duration>4</duration>
				<voice>1</voice>
				<type>quarter</type>
				<lyric number="1" name="verse">
					<syllabic>single</syllabic>
					<text>sind</text>
				</lyric>
			</note>
			<note>
				<pitch>
					<step>G</step>
					<octave>4</octave>
				</pitch>
				<duration>2</duration>
				<voice>1</voice>
				<type>eighth</type>
				<lyric number="1" name="verse">
					<syllabic>single</syllabic>
					<text>ge-</text>
				</lyric>
			</note>
			<note>
				<pitch>
					<step>B</step>
					<octave>4</octave>
				</pitch>
				<duration>2</duration>
				<voice>1</voice>
				<type>eighth</type>
				<lyric number="1" name="verse">
					<syllabic>single</syllabic>
					<text>|</text>
				</lyric>
			</note>
		</measure>
		<measure number="21">
			<note>
				<pitch>
					<step>A</step>
					<octave>4</octave>
				</pitch>
				<duration>8</duration>
				<voice>1</voice>
				<type>half</type>
				<lyric number="1" name="verse">
					<syllabic>single</syllabic>
					<text>-gan-</text>
				</lyric>
			</note>
			<note>
				<pitch>
					<step>D</step>
					<octave>4</octave>
				</pitch>
				<duration>4</duration>
				<voice>1</voice>
				<type>quarter</type>
				<lyric number="1" name="verse">
					<syllabic>single</syllabic>
					<text>-gen,}</text>
				</lyric>
			</note>
			<note>
				<pitch>
					<step>E</step>
					<octave>4</octave>
				</pitch>
				<duration>3</duration>
				<voice>1</voice>
				<type>eighth</type>
				<dot/>
				<lyric number="1" name="verse">
					<syllabic>single</syllabic>
					<text>{all'</text>
				</lyric>
			</note>
			<note>
				<pitch>
					<step>G</step>
					<octave>4</octave>
				</pitch>
				<duration>1</duration>
				<voice>1</voice>
				<type>16th</type>
				<lyric number="1" name="verse">
					<syllabic>single</syllabic>
					<text>ge-</text>
				</lyric>
			</note>
		</measure>
		<measure number="22">
			<note>
				<pitch>
					<step>F</step>
					<alter>1</alter>
					<octave>4</octave>
				</pitch>
				<duration>4</duration>
				<voice>1</voice>
				<type>quarter</type>
				<lyric number="1" name="verse">
					<syllabic>single</syllabic>
					<text>-gan-</text>
				</lyric>
			</note>
			<note>
				<pitch>
					<step>E</step>
					<octave>4</octave>
				</pitch>
				<duration>3</duration>
				<voice>1</voice>
				<type>eighth</type>
				<dot/>
				<lyric number="1" name="verse">
					<syllabic>single</syllabic>
					<text>-gen</text>
				</lyric>
			</note>
			<note>
				<pitch>
					<step>D</step>
					<octave>4</octave>
				</pitch>
				<duration>1</duration>
				<voice>1</voice>
				<type>16th</type>
				<lyric number="1" name="verse">
					<syllabic>single</syllabic>
					<text>ein-</text>
				</lyric>
			</note>
			<note>
				<pitch>
					<step>C</step>
					<alter>1</alter>
					<octave>4</octave>
				</pitch>
				<duration>4</duration>
				<voice>1</voice>
				<type>quarter</type>
				<lyric number="1" name="verse">
					<syllabic>single</syllabic>
					<text>-an-</text>
				</lyric>
			</note>
			<note>
				<pitch>
					<step>B</step>
					<octave>3</octave>
				</pitch>
				<duration>4</duration>
				<voice>1</voice>
				<type>quarter</type>
				<lyric number="1" name="verse">
					<syllabic>single</syllabic>
					<text>-der</text>
				</lyric>
			</note>
		</measure>
		<measure number="23">
			<note>
				<pitch>
					<step>F</step>
					<alter>1</alter>
					<octave>4</octave>
				</pitch>
				<duration>16</duration>
				<voice>1</voice>
				<type>whole</type>
				<lyric number="1" name="verse">
					<syllabic>single</syllabic>
					<text>nach.}</text>
				</lyric>
			</note>
		</measure>
		<measure number="24">
			<note>
				<rest/>
				<duration>16</duration>
				<voice>1</voice>
				<type>whole</type>
			</note>
		</measure>
		<measure number="25">
			<note>
				<rest/>
				<duration>16</duration>
				<voice>1</voice>
				<type>whole</type>
			</note>
		</measure>
		<measure number="26">
			<note>
				<pitch>
					<step>G</step>
					<octave>4</octave>
				</pitch>
				<duration>16</duration>
				<voice>1</voice>
				<type>whole</type>
				<lyric number="1" name="verse">
					<syllabic>single</syllabic>
					<text>{Wo</text>
				</lyric>
			</note>
		</measure>
		<measure number="27">
			<note>
				<pitch>
					<step>G</step>
					<alter>1</alter>
					<octave>4</octave>
				</pitch>
				<duration>6</duration>
				<voice>1</voice>
				<type>quarter</type>
				<dot/>
				<accidental>sharp</accidental>
				<lyric number="1" name="verse">
					<syllabic>single</syllabic>
					<text>sind</text>
				</lyric>
			</note>
			<note>
				<pitch>
					<step>G</step>
					<alter>1</alter>
					<octave>4</octave>
				</pitch>
				<duration>2</duration>
				<voice>1</voice>
				<type>eighth</type>
				<lyric number="1" name="verse">
					<syllabic>single</syllabic>
					<text>sie</text>
				</lyric>
			</note>
			<note>
				<pitch>
					<step>A</step>
					<octave>4</octave>
				</pitch>
				<duration>6</duration>
				<voice>1</voice>
				<type>quarter</type>
				<dot/>
				<lyric number="1" name="verse">
					<syllabic>single</syllabic>
					<text>hin-</text>
				</lyric>
			</note>
			<note>
				<pitch>
					<step>A</step>
					<octave>4</octave>
				</pitch>
				<duration>2</duration>
				<voice>1</voice>
				<type>eighth</type>
				<lyric number="1" name="verse">
					<syllabic>single</syllabic>
					<text>-ge-</text>
				</lyric>
			</note>
		</measure>
		<measure number="28">
			<note>
				<grace slash="yes"/>
				<pitch>
					<step>B</step>
					<octave>4</octave>
				</pitch>
				<voice>1</voice>
				<type>eighth</type>
				<lyric number="1" name="verse">
					<syllabic>single</syllabic>
					<text>-gan-</text>
				</lyric>
			</note>
			<note>
				<pitch>
					<step>A</step>
					<alter>1</alter>
					<octave>4</octave>
				</pitch>
				<duration>8</duration>
				<voice>1</voice>
				<type>half</type>
				<accidental>sharp</accidental>
				<lyric number="1" name="verse">
					<syllabic>single</syllabic>
					<text>|</text>
				</lyric>
			</note>
			<note>
				<pitch>
					<step>A</step>
					<alter>1</alter>
					<octave>4</octave>
				</pitch>
				<duration>8</duration>
				<voice>1</voice>
				<type>half</type>
				<lyric number="1" name="verse">
					<syllabic>single</syllabic>
					<text>-gen?}</text>
				</lyric>
			</note>
		</measure>
		<measure number="29">
			<note>
				<rest/>
				<duration>8</duration>
				<voice>1</voice>
				<type>half</type>
			</note>
			<note>
				<rest/>
				<duration>4</duration>
				<voice>1</voice>
				<type>quarter</type>
			</note>
			<note>
				<pitch>
					<step>F</step>
					<alter>1</alter>
					<octave>4</octave>
				</pitch>
				<duration>4</duration>
				<voice>1</voice>
				<type>quarter</type>
				<lyric number="1" name="verse">
					<syllabic>single</syllabic>
					<text>{In's</text>
				</lyric>
			</note>
		</measure>
		<measure number="30">
			<note>
				<pitch>
					<step>B</step>
					<octave>4</octave>
				</pitch>
				<duration>16</duration>
				<voice>1</voice>
				<type>whole</type>
				<lyric number="1" name="verse">
					<syllabic>single</syllabic>
					<text>Herz</text>
				</lyric>
			</note>
		</measure>
		<measure number="31">
			<note>
				<pitch>
					<step>F</step>
					<alter>1</alter>
					<octave>4</octave>
				</pitch>
				<duration>16</duration>
				<voice>1</voice>
				<type>whole</type>
				<lyric number="1" name="verse">
					<syllabic>single</syllabic>
					<text>hin-</text>
				</lyric>
			</note>
		</measure>
		<measure number="32">
			<note>
				<pitch>
					<step>D</step>
					<alter>1</alter>
					<octave>4</octave>
				</pitch>
				<duration>12</duration>
				<voice>1</voice>
				<type>half</type>
				<dot/>
				<accidental>sharp</accidental>
				<lyric number="1" name="verse">
					<syllabic>single</syllabic>
					<text>-ab.}</text>
				</lyric>
			</note>
			<note>
				<rest/>
				<duration>4</duration>
				<voice>1</voice>
				<type>quarter</type>
			</note>
		</measure>
		<measure number="33">
			<note>
				<rest/>
				<duration>4</duration>
				<voice>1</voice>
				<type>quarter</type>
			</note>
			<note>
				<pitch>
					<step>D</step>
					<alter>1</alter>
					<octave>4</octave>
				</pitch>
				<duration>4</duration>
				<voice>1</voice>
				<type>quarter</type>
				<accidental>sharp</accidental>
				<lyric number="1" name="verse">
					<syllabic>single</syllabic>
					<text>{Da</text>
				</lyric>
			</note>
			<note>
				<pitch>
					<step>D</step>
					<alter>1</alter>
					<octave>4</octave>
				</pitch>
				<duration>8</duration>
				<tie type="start"/>
				<voice>1</voice>
				<type>half</type>
				<notations>
					<tied type="start"/>
				</notations>
				<lyric number="1" name="verse">
					<syllabic>single</syllabic>
					<text>blu2hn</text>
				</lyric>
			</note>
		</measure>
		<measure number="34">
			<note>
				<pitch>
					<step>D</step>
					<alter>1</alter>
					<octave>4</octave>
				</pitch>
				<duration>4</duration>
				<tie type="stop"/>
				<voice>1</voice>
				<type>quarter</type>
				<accidental>sharp</accidental>
				<notations>
					<tied type="stop"/>
				</notations>
				<lyric number="1" name="verse">
					<syllabic>single</syllabic>
					<text>|</text>
				</lyric>
			</note>
			<note>
				<pitch>
					<step>G</step>
					<alter>1</alter>
					<octave>4</octave>
				</pitch>
				<duration>4</duration>
				<voice>1</voice>
				<type>quarter</type>
				<accidental>sharp</accidental>
				<lyric number="1" name="verse">
					<syllabic>single</syllabic>
					<text>sie</text>
				</lyric>
			</note>
			<note>
				<pitch>
					<step>A</step>
					<alter>1</alter>
					<octave>4</octave>
				</pitch>
				<duration>4</duration>
				<voice>1</voice>
				<type>quarter</type>
				<accidental>sharp</accidental>
				<lyric number="1" name="verse">
					<syllabic>single</syllabic>
					<text>nach</text>
				</lyric>
			</note>
			<note>
				<pitch>
					<step>B</step>
					<octave>4</octave>
				</pitch>
				<duration>4</duration>
				<voice>1</voice>
				<type>quarter</type>
				<lyric number="1" name="verse">
					<syllabic>single</syllabic>
					<text>Ver-</text>
				</lyric>
			</note>
		</measure>
		<measure number="35">
			<note>
				<pitch>
					<step>C</step>
					<alter>1</alter>
					<octave>5</octave>
				</pitch>
				<duration>8</duration>
				<voice>1</voice>
				<type>half</type>
				<lyric number="1" name="verse">
					<syllabic>single</syllabic>
					<text>-lan-</text>
				</lyric>
			</note>
			<note>
				<grace slash="yes"/>
				<pitch>
					<step>D</step>
					<alter>1</alter>
					<octave>5</octave>
				</pitch>
				<voice>1</voice>
				<type>eighth</type>
				<accidental>sharp</accidental>
				<lyric number="1" name="verse">
					<syllabic>single</syllabic>
					<text>|</text>
				</lyric>
			</note>
			<note>
				<pitch>
					<step>C</step>
					<alter>1</alter>
					<octave>5</octave>
				</pitch>
				<duration>2</duration>
				<voice>1</voice>
				<type>eighth</type>
				<lyric number="1" name="verse">
					<syllabic>single</syllabic>
					<text>|</text>
				</lyric>
			</note>
			<note>
				<pitch>
					<step>B</step>
					<alter>1</alter>
					<octave>4</octave>
				</pitch>
				<duration>2</duration>
				<voice>1</voice>
				<type>eighth</type>
				<accidental>sharp</accidental>
				<lyric number="1" name="verse">
					<syllabic>single</syllabic>
					<text>|</text>
				</lyric>
			</note>
			<note>
				<pitch>
					<step>C</step>
					<alter>1</alter>
					<octave>5</octave>
				</pitch>
				<duration>2</duration>
				<voice>1</voice>
				<type>eighth</type>
				<lyric number="1" name="verse">
					<syllabic>single</syllabic>
					<text>|</text>
				</lyric>
			</note>
			<note>
				<pitch>
					<step>D</step>
					<alter>1</alter>
					<octave>5</octave>
				</pitch>
				<duration>2</duration>
				<voice>1</voice>
				<type>eighth</type>
				<lyric number="1" name="verse">
					<syllabic>single</syllabic>
					<text>|</text>
				</lyric>
			</note>
		</measure>
		<measure number="36">
			<note>
				<pitch>
					<step>B</step>
					<octave>4</octave>
				</pitch>
				<duration>8</duration>
				<voice>1</voice>
				<type>half</type>
				<accidental>natural</accidental>
				<lyric number="1" name="verse">
					<syllabic>single</syllabic>
					<text>-gen,}</text>
				</lyric>
			</note>
			<note>
				<rest/>
				<duration>4</duration>
				<voice>1</voice>
				<type>quarter</type>
			</note>
			<note>
				<pitch>
					<step>F</step>
					<alter>1</alter>
					<octave>4</octave>
				</pitch>
				<duration>4</duration>
				<voice>1</voice>
				<type>quarter</type>
				<lyric number="1" name="verse">
					<syllabic>single</syllabic>
					<text>{wie</text>
				</lyric>
			</note>
		</measure>
		<measure number="37">
			<note>
				<pitch>
					<step>F</step>
					<alter>1</alter>
					<octave>4</octave>
				</pitch>
				<duration>8</duration>
				<voice>1</voice>
				<type>half</type>
				<lyric number="1" name="verse">
					<syllabic>single</syllabic>
					<text>vor</text>
				</lyric>
			</note>
			<note>
				<pitch>
					<step>E</step>
					<alter>1</alter>
					<octave>4</octave>
				</pitch>
				<duration>2</duration>
				<voice>1</voice>
				<type>eighth</type>
				<accidental>sharp</accidental>
				<lyric number="1" name="verse">
					<syllabic>single</syllabic>
					<text>so</text>
				</lyric>
			</note>
			<note>
				<pitch>
					<step>F</step>
					<alter>1</alter>
					<octave>4</octave>
				</pitch>
				<duration>2</duration>
				<voice>1</voice>
				<type>eighth</type>
				<lyric number="1" name="verse">
					<syllabic>single</syllabic>
					<text>|</text>
				</lyric>
			</note>
			<note>
				<pitch>
					<step>G</step>
					<alter>1</alter>
					<octave>4</octave>
				</pitch>
				<duration>2</duration>
				<voice>1</voice>
				<type>eighth</type>
				<accidental>sharp</accidental>
				<lyric number="1" name="verse">
					<syllabic>single</syllabic>
					<text>|</text>
				</lyric>
			</note>
			<note>
				<pitch>
					<step>F</step>
					<alter>1</alter>
					<octave>4</octave>
				</pitch>
				<duration>2</duration>
				<voice>1</voice>
				<type>eighth</type>
				<lyric number="1" name="verse">
					<syllabic>single</syllabic>
					<text>|</text>
				</lyric>
			</note>
		</measure>
		<measure number="38">
			<note>
				<pitch>
					<step>D</step>
					<alter>1</alter>
					<octave>4</octave>
				</pitch>
				<duration>8</duration>
				<voice>1</voice>
				<type>half</type>
				<accidental>sharp</accidental>
				<lyric number="1" name="verse">
					<syllabic>single</syllabic>
					<text>nach,</text>
				</lyric>
			</note>
			<note>
				<pitch>
					<step>A</step>
					<alter>1</alter>
					<octave>4</octave>
				</pitch>
				<duration>4</duration>
				<voice>1</voice>
				<type>quarter</type>
				<accidental>sharp</accidental>
				<lyric number="1" name="verse">
					<syllabic>single</syllabic>
					<text>nach</text>
				</lyric>
			</note>
			<note>
				<pitch>
					<step>B</step>
					<octave>4</octave>
				</pitch>
				<duration>4</duration>
				<voice>1</voice>
				<type>quarter</type>
				<lyric number="1" name="verse">
					<syllabic>single</syllabic>
					<text>Ver-</text>
				</lyric>
			</note>
		</measure>
		<measure number="39">
			<note>
				<pitch>
					<step>C</step>
					<alter>1</alter>
					<octave>5</octave>
				</pitch>
				<duration>8</duration>
				<voice>1</voice>
				<type>half</type>
				<lyric number="1" name="verse">
					<syllabic>single</syllabic>
					<text>-lan-</text>
				</lyric>
			</note>
			<note>
				<grace slash="yes"/>
				<pitch>
					<step>D</step>
					<alter>1</alter>
					<octave>5</octave>
				</pitch>
				<voice>1</voice>
				<type>eighth</type>
				<accidental>sharp</accidental>
				<lyric number="1" name="verse">
					<syllabic>single</syllabic>
					<text>|</text>
				</lyric>
			</note>
			<note>
				<pitch>
					<step>C</step>
					<alter>1</alter>
					<octave>5</octave>
				</pitch>
				<duration>2</duration>
				<voice>1</voice>
				<type>eighth</type>
				<lyric number="1" name="verse">
					<syllabic>single</syllabic>
					<text>|</text>
				</lyric>
			</note>
			<note>
				<pitch>
					<step>B</step>
					<alter>1</alter>
					<octave>4</octave>
				</pitch>
				<duration>2</duration>
				<voice>1</voice>
				<type>eighth</type>
				<accidental>sharp</accidental>
				<lyric number="1" name="verse">
					<syllabic>single</syllabic>
					<text>|</text>
				</lyric>
			</note>
			<note>
				<pitch>
					<step>C</step>
					<alter>1</alter>
					<octave>5</octave>
				</pitch>
				<duration>2</duration>
				<voice>1</voice>
				<type>eighth</type>
				<lyric number="1" name="verse">
					<syllabic>single</syllabic>
					<text>|</text>
				</lyric>
			</note>
			<note>
				<pitch>
					<step>D</step>
					<alter>1</alter>
					<octave>5</octave>
				</pitch>
				<duration>2</duration>
				<voice>1</voice>
				<type>eighth</type>
				<lyric number="1" name="verse">
					<syllabic>single</syllabic>
					<text>|</text>
				</lyric>
			</note>
		</measure>
		<measure number="40">
			<note>
				<pitch>
					<step>B</step>
					<octave>4</octave>
				</pitch>
				<duration>8</duration>
				<voice>1</voice>
				<type>half</type>
				<accidental>natural</accidental>
				<lyric number="1" name="verse">
					<syllabic>single</syllabic>
					<text>-gen,}</text>
				</lyric>
			</note>
			<note>
				<pitch>
					<step>D</step>
					<alter>1</alter>
					<octave>5</octave>
				</pitch>
				<duration>2</duration>
				<voice>1</voice>
				<type>eighth</type>
				<accidental>sharp</accidental>
				<lyric number="1" name="verse">
					<syllabic>single</syllabic>
					<text>{wie</text>
				</lyric>
			</note>
			<note>
				<pitch>
					<step>A</step>
					<alter>1</alter>
					<octave>4</octave>
				</pitch>
				<duration>2</duration>
				<voice>1</voice>
				<type>eighth</type>
				<accidental>sharp</accidental>
				<lyric number="1" name="verse">
					<syllabic>single</syllabic>
					<text>|</text>
				</lyric>
			</note>
			<note>
				<pitch>
					<step>B</step>
					<octave>4</octave>
				</pitch>
				<duration>2</duration>
				<voice>1</voice>
				<type>eighth</type>
				<lyric number="1" name="verse">
					<syllabic>single</syllabic>
					<text>|</text>
				</lyric>
			</note>
			<note>
				<pitch>
					<step>G</step>
					<alter>1</alter>
					<octave>4</octave>
				</pitch>
				<duration>2</duration>
				<voice>1</voice>
				<type>eighth</type>
				<accidental>sharp</accidental>
				<lyric number="1" name="verse">
					<syllabic>single</syllabic>
					<text>|</text>
				</lyric>
			</note>
		</measure>
		<measure number="41">
			<note>
				<pitch>
					<step>F</step>
					<alter>1</alter>
					<octave>4</octave>
				</pitch>
				<duration>16</duration>
				<voice>1</voice>
				<type>whole</type>
				<lyric number="1" name="verse">
					<syllabic>single</syllabic>
					<text>vor</text>
				</lyric>
			</note>
		</measure>
		<measure number="42">
			<note>
				<pitch>
					<step>B</step>
					<octave>4</octave>
				</pitch>
				<duration>2</duration>
				<voice>1</voice>
				<type>eighth</type>
				<lyric number="1" name="verse">
					<syllabic>single</syllabic>
					<text>so</text>
				</lyric>
			</note>
			<note>
				<pitch>
					<step>A</step>
					<alter>1</alter>
					<octave>4</octave>
				</pitch>
				<duration>2</duration>
				<voice>1</voice>
				<type>eighth</type>
				<accidental>sharp</accidental>
				<lyric number="1" name="verse">
					<syllabic>single</syllabic>
					<text>|</text>
				</lyric>
			</note>
			<note>
				<pitch>
					<step>G</step>
					<alter>1</alter>
					<octave>4</octave>
				</pitch>
				<duration>2</duration>
				<voice>1</voice>
				<type>eighth</type>
				<accidental>sharp</accidental>
				<lyric number="1" name="verse">
					<syllabic>single</syllabic>
					<text>|</text>
				</lyric>
			</note>
			<note>
				<pitch>
					<step>F</step>
					<alter>1</alter>
					<octave>4</octave>
				</pitch>
				<duration>2</duration>
				<voice>1</voice>
				<type>eighth</type>
				<lyric number="1" name="verse">
					<syllabic>single</syllabic>
					<text>|</text>
				</lyric>
			</note>
			<note>
				<grace slash="yes"/>
				<pitch>
					<step>E</step>
					<octave>4</octave>
				</pitch>
				<voice>1</voice>
				<type>eighth</type>
				<lyric number="1" name="verse">
					<syllabic>single</syllabic>
					<text>|</text>
				</lyric>
			</note>
			<note>
				<grace slash="yes"/>
				<pitch>
					<step>F</step>
					<alter>1</alter>
					<octave>4</octave>
				</pitch>
				<voice>1</voice>
				<type>eighth</type>
				<lyric number="1" name="verse">
					<syllabic>single</syllabic>
					<text>|</text>
				</lyric>
			</note>
			<note>
				<pitch>
					<step>E</step>
					<octave>4</octave>
				</pitch>
				<duration>2</duration>
				<voice>1</voice>
				<type>eighth</type>
				<lyric number="1" name="verse">
					<syllabic>single</syllabic>
					<text>|</text>
				</lyric>
			</note>
			<note>
				<pitch>
					<step>D</step>
					<alter>1</alter>
					<octave>4</octave>
				</pitch>
				<duration>2</duration>
				<voice>1</voice>
				<type>eighth</type>
				<accidental>sharp</accidental>
				<lyric number="1" name="verse">
					<syllabic>single</syllabic>
					<text>|</text>
				</lyric>
			</note>
			<note>
				<pitch>
					<step>E</step>
					<octave>4</octave>
				</pitch>
				<duration>2</duration>
				<voice>1</voice>
				<type>eighth</type>
				<lyric number="1" name="verse">
					<syllabic>single</syllabic>
					<text>|</text>
				</lyric>
			</note>
			<note>
				<pitch>
					<step>C</step>
					<alter>1</alter>
					<octave>4</octave>
				</pitch>
				<duration>2</duration>
				<voice>1</voice>
				<type>eighth</type>
				<lyric number="1" name="verse">
					<syllabic>single</syllabic>
					<text>|</text>
				</lyric>
			</note>
		</measure>
		<measure number="43">
			<note>
				<pitch>
					<step>B</step>
					<octave>3</octave>
				</pitch>
				<duration>16</duration>
				<tie type="start"/>
				<voice>1</voice>
				<type>whole</type>
				<notations>
					<tied type="start"/>
				</notations>
				<lyric number="1" name="verse">
					<syllabic>single</syllabic>
					<text>nach.</text>
				</lyric>
			</note>
		</measure>
		<measure number="44">
			<note>
				<pitch>
					<step>B</step>
					<octave>3</octave>
				</pitch>
				<duration>8</duration>
				<tie type="stop"/>
				<voice>1</voice>
				<type>half</type>
				<notations>
					<tied type="stop"/>
				</notations>
				<lyric number="1" name="verse">
					<syllabic>single</syllabic>
					<text>|}</text>
				</lyric>
			</note>
			<note>
				<rest/>
				<duration>8</duration>
				<voice>1</voice>
				<type>half</type>
			</note>
		</measure>
		<measure number="45">
			<note>
				<rest/>
				<duration>16</duration>
				<voice>1</voice>
				<type>whole</type>
			</note>
		</measure>
		<measure number="46">
			<note>
				<rest/>
				<duration>16</duration>
				<voice>1</voice>
				<type>whole</type>
			</note>
		</measure>
		<measure number="47">
			<note>
				<rest/>
				<duration>16</duration>
				<voice>1</voice>
				<type>whole</type>
			</note>
		</measure>
		<measure number="48">
			<note>
				<rest/>
				<duration>16</duration>
				<voice>1</voice>
				<type>whole</type>
			</note>
		</measure>
		<measure number="49">
			<note>
				<rest/>
				<duration>8</duration>
				<voice>1</voice>
				<type>half</type>
			</note>
			<note>
				<rest/>
				<duration>4</duration>
				<voice>1</voice>
				<type>quarter</type>
			</note>
			<note>
				<pitch>
					<step>F</step>
					<alter>1</alter>
					<octave>4</octave>
				</pitch>
				<duration>4</duration>
				<voice>1</voice>
				<type>quarter</type>
				<lyric number="1" name="verse">
					<syllabic>single</syllabic>
					<text>{Sind</text>
				</lyric>
			</note>
		</measure>
		<measure number="50">
			<note>
				<pitch>
					<step>B</step>
					<octave>4</octave>
				</pitch>
				<duration>6</duration>
				<voice>1</voice>
				<type>quarter</type>
				<dot/>
				<lyric number="1" name="verse">
					<syllabic>single</syllabic>
					<text>al-</text>
				</lyric>
			</note>
			<note>
				<pitch>
					<step>B</step>
					<octave>4</octave>
				</pitch>
				<duration>2</duration>
				<voice>1</voice>
				<type>eighth</type>
				<lyric number="1" name="verse">
					<syllabic>single</syllabic>
					<text>-le</text>
				</lyric>
			</note>
			<note>
				<pitch>
					<step>A</step>
					<octave>4</octave>
				</pitch>
				<duration>4</duration>
				<voice>1</voice>
				<type>quarter</type>
				<lyric number="1" name="verse">
					<syllabic>single</syllabic>
					<text>Freu-</text>
				</lyric>
			</note>
			<note>
				<pitch>
					<step>F</step>
					<alter>1</alter>
					<octave>4</octave>
				</pitch>
				<duration>4</duration>
				<voice>1</voice>
				<type>quarter</type>
				<lyric number="1" name="verse">
					<syllabic>single</syllabic>
					<text>-den-</text>
				</lyric>
			</note>
		</measure>
		<measure number="51">
			<note>
				<pitch>
					<step>G</step>
					<octave>4</octave>
				</pitch>
				<duration>8</duration>
				<voice>1</voice>
				<type>half</type>
				<lyric number="1" name="verse">
					<syllabic>single</syllabic>
					<text>-stro2-</text>
				</lyric>
			</note>
			<note>
				<pitch>
					<step>D</step>
					<octave>4</octave>
				</pitch>
				<duration>4</duration>
				<voice>1</voice>
				<type>quarter</type>
				<lyric number="1" name="verse">
					<syllabic>single</syllabic>
					<text>-me</text>
				</lyric>
			</note>
			<note>
				<pitch>
					<step>B</step>
					<octave>3</octave>
				</pitch>
				<duration>2</duration>
				<voice>1</voice>
				<type>eighth</type>
				<lyric number="1" name="verse">
					<syllabic>single</syllabic>
					<text>der</text>
				</lyric>
			</note>
			<note>
				<pitch>
					<step>C</step>
					<alter>1</alter>
					<octave>4</octave>
				</pitch>
				<duration>2</duration>
				<voice>1</voice>
				<type>eighth</type>
				<lyric number="1" name="verse">
					<syllabic>single</syllabic>
					<text>|</text>
				</lyric>
			</note>
		</measure>
		<measure number="52">
			<note>
				<pitch>
					<step>D</step>
					<octave>4</octave>
				</pitch>
				<duration>8</duration>
				<voice>1</voice>
				<type>half</type>
				<lyric number="1" name="verse">
					<syllabic>single</syllabic>
					<text>Welt</text>
				</lyric>
			</note>
			<note>
				<pitch>
					<step>E</step>
					<octave>4</octave>
				</pitch>
				<duration>8</duration>
				<voice>1</voice>
				<type>half</type>
				<lyric number="1" name="verse">
					<syllabic>single</syllabic>
					<text>ver-</text>
				</lyric>
			</note>
		</measure>
		<measure number="53">
			<note>
				<pitch>
					<step>F</step>
					<alter>1</alter>
					<octave>4</octave>
				</pitch>
				<duration>8</duration>
				<voice>1</voice>
				<type>half</type>
				<lyric number="1" name="verse">
					<syllabic>single</syllabic>
					<text>-siegt?}</text>
				</lyric>
			</note>
			<note>
				<rest/>
				<duration>4</duration>
				<voice>1</voice>
				<type>quarter</type>
			</note>
			<note>
				<pitch>
					<step>F</step>
					<alter>1</alter>
					<octave>4</octave>
				</pitch>
				<duration>4</duration>
				<voice>1</voice>
				<type>quarter</type>
				<lyric number="1" name="verse">
					<syllabic>single</syllabic>
					<text>{Noch</text>
				</lyric>
			</note>
		</measure>
		<measure number="54">
			<note>
				<pitch>
					<step>B</step>
					<octave>4</octave>
				</pitch>
				<duration>6</duration>
				<voice>1</voice>
				<type>quarter</type>
				<dot/>
				<lyric number="1" name="verse">
					<syllabic>single</syllabic>
					<text>fliesst</text>
				</lyric>
			</note>
			<note>
				<pitch>
					<step>B</step>
					<octave>4</octave>
				</pitch>
				<duration>2</duration>
				<voice>1</voice>
				<type>eighth</type>
				<lyric number="1" name="verse">
					<syllabic>single</syllabic>
					<text>mir</text>
				</lyric>
			</note>
			<note>
				<pitch>
					<step>A</step>
					<alter>1</alter>
					<octave>4</octave>
				</pitch>
				<duration>4</duration>
				<voice>1</voice>
				<type>quarter</type>
				<accidental>sharp</accidental>
				<lyric number="1" name="verse">
					<syllabic>single</syllabic>
					<text>durch</text>
				</lyric>
			</note>
			<note>
				<pitch>
					<step>G</step>
					<alter>1</alter>
					<octave>4</octave>
				</pitch>
				<duration>4</duration>
				<voice>1</voice>
				<type>quarter</type>
				<accidental>sharp</accidental>
				<lyric number="1" name="verse">
					<syllabic>single</syllabic>
					<text>den</text>
				</lyric>
			</note>
		</measure>
		<measure number="55">
			<note>
				<pitch>
					<step>F</step>
					<alter>1</alter>
					<octave>4</octave>
				</pitch>
				<duration>4</duration>
				<voice>1</voice>
				<type>quarter</type>
				<lyric number="1" name="verse">
					<syllabic>single</syllabic>
					<text>Bu-</text>
				</lyric>
			</note>
			<note>
				<pitch>
					<step>G</step>
					<alter>1</alter>
					<octave>4</octave>
				</pitch>
				<duration>2</duration>
				<voice>1</voice>
				<type>eighth</type>
				<accidental>sharp</accidental>
				<lyric number="1" name="verse">
					<syllabic>single</syllabic>
					<text>|</text>
				</lyric>
			</note>
			<note>
				<pitch>
					<step>A</step>
					<alter>1</alter>
					<octave>4</octave>
				</pitch>
				<duration>2</duration>
				<voice>1</voice>
				<type>eighth</type>
				<accidental>sharp</accidental>
				<lyric number="1" name="verse">
					<syllabic>single</syllabic>
					<text>|</text>
				</lyric>
			</note>
			<note>
				<pitch>
					<step>B</step>
					<octave>4</octave>
				</pitch>
				<duration>4</duration>
				<voice>1</voice>
				<type>quarter</type>
				<lyric number="1" name="verse">
					<syllabic>single</syllabic>
					<text>-sen</text>
				</lyric>
			</note>
			<note>
				<pitch>
					<step>C</step>
					<alter>1</alter>
					<octave>5</octave>
				</pitch>
				<duration>4</duration>
				<voice>1</voice>
				<type>quarter</type>
				<lyric number="1" name="verse">
					<syllabic>single</syllabic>
					<text>ein</text>
				</lyric>
			</note>
		</measure>
		<measure number="56">
			<note>
				<pitch>
					<step>D</step>
					<alter>1</alter>
					<octave>5</octave>
				</pitch>
				<duration>12</duration>
				<voice>1</voice>
				<type>half</type>
				<dot/>
				<accidental>sharp</accidental>
				<lyric number="1" name="verse">
					<syllabic>single</syllabic>
					<text>stil-</text>
				</lyric>
			</note>
			<note>
				<pitch>
					<step>C</step>
					<alter>1</alter>
					<octave>5</octave>
				</pitch>
				<duration>4</duration>
				<voice>1</voice>
				<type>quarter</type>
				<lyric number="1" name="verse">
					<syllabic>single</syllabic>
					<text>-ler</text>
				</lyric>
			</note>
		</measure>
		<measure number="57">
			<note>
				<pitch>
					<step>B</step>
					<octave>4</octave>
				</pitch>
				<duration>12</duration>
				<voice>1</voice>
				<type>half</type>
				<dot/>
				<lyric number="1" name="verse">
					<syllabic>single</syllabic>
					<text>Bach.}</text>
				</lyric>
			</note>
			<note>
				<pitch>
					<step>F</step>
					<alter>1</alter>
					<octave>4</octave>
				</pitch>
				<duration>4</duration>
				<voice>1</voice>
				<type>quarter</type>
				<lyric number="1" name="verse">
					<syllabic>single</syllabic>
					<text>{Sind</text>
				</lyric>
			</note>
		</measure>
		<measure number="58">
			<note>
				<pitch>
					<step>B</step>
					<octave>4</octave>
				</pitch>
				<duration>6</duration>
				<voice>1</voice>
				<type>quarter</type>
				<dot/>
				<lyric number="1" name="verse">
					<syllabic>single</syllabic>
					<text>al-</text>
				</lyric>
			</note>
			<note>
				<pitch>
					<step>B</step>
					<octave>4</octave>
				</pitch>
				<duration>2</duration>
				<voice>1</voice>
				<type>eighth</type>
				<lyric number="1" name="verse">
					<syllabic>single</syllabic>
					<text>-le</text>
				</lyric>
			</note>
			<note>
				<pitch>
					<step>A</step>
					<octave>4</octave>
				</pitch>
				<duration>4</duration>
				<voice>1</voice>
				<type>quarter</type>
				<lyric number="1" name="verse">
					<syllabic>single</syllabic>
					<text>Nach-</text>
				</lyric>
			</note>
			<note>
				<pitch>
					<step>F</step>
					<alter>1</alter>
					<octave>4</octave>
				</pitch>
				<duration>4</duration>
				<voice>1</voice>
				<type>quarter</type>
				<lyric number="1" name="verse">
					<syllabic>single</syllabic>
					<text>-ti-</text>
				</lyric>
			</note>
		</measure>
		<measure number="59">
			<note>
				<pitch>
					<step>G</step>
					<octave>4</octave>
				</pitch>
				<duration>8</duration>
				<voice>1</voice>
				<type>half</type>
				<lyric number="1" name="verse">
					<syllabic>single</syllabic>
					<text>-gal-</text>
				</lyric>
			</note>
			<note>
				<pitch>
					<step>D</step>
					<octave>4</octave>
				</pitch>
				<duration>4</duration>
				<voice>1</voice>
				<type>quarter</type>
				<lyric number="1" name="verse">
					<syllabic>single</syllabic>
					<text>-len</text>
				</lyric>
			</note>
			<note>
				<pitch>
					<step>B</step>
					<octave>3</octave>
				</pitch>
				<duration>2</duration>
				<voice>1</voice>
				<type>eighth</type>
				<lyric number="1" name="verse">
					<syllabic>single</syllabic>
					<text>der</text>
				</lyric>
			</note>
			<note>
				<pitch>
					<step>C</step>
					<alter>1</alter>
					<octave>4</octave>
				</pitch>
				<duration>2</duration>
				<voice>1</voice>
				<type>eighth</type>
				<lyric number="1" name="verse">
					<syllabic>single</syllabic>
					<text>|</text>
				</lyric>
			</note>
		</measure>
		<measure number="60">
			<note>
				<pitch>
					<step>D</step>
					<octave>4</octave>
				</pitch>
				<duration>8</duration>
				<voice>1</voice>
				<type>half</type>
				<lyric number="1" name="verse">
					<syllabic>single</syllabic>
					<text>Flur</text>
				</lyric>
			</note>
			<note>
				<pitch>
					<step>E</step>
					<octave>4</octave>
				</pitch>
				<duration>8</duration>
				<voice>1</voice>
				<type>half</type>
				<lyric number="1" name="verse">
					<syllabic>single</syllabic>
					<text>ver-</text>
				</lyric>
			</note>
		</measure>
		<measure number="61">
			<note>
				<pitch>
					<step>F</step>
					<alter>1</alter>
					<octave>4</octave>
				</pitch>
				<duration>8</duration>
				<voice>1</voice>
				<type>half</type>
				<lyric number="1" name="verse">
					<syllabic>single</syllabic>
					<text>-stummt?}</text>
				</lyric>
			</note>
			<note>
				<rest/>
				<duration>4</duration>
				<voice>1</voice>
				<type>quarter</type>
			</note>
			<note>
				<pitch>
					<step>F</step>
					<alter>1</alter>
					<octave>4</octave>
				</pitch>
				<duration>4</duration>
				<voice>1</voice>
				<type>quarter</type>
				<lyric number="1" name="verse">
					<syllabic>single</syllabic>
					<text>{Noch</text>
				</lyric>
			</note>
		</measure>
		<measure number="62">
			<note>
				<pitch>
					<step>B</step>
					<octave>4</octave>
				</pitch>
				<duration>6</duration>
				<voice>1</voice>
				<type>quarter</type>
				<dot/>
				<lyric number="1" name="verse">
					<syllabic>single</syllabic>
					<text>ist</text>
				</lyric>
			</note>
			<note>
				<pitch>
					<step>B</step>
					<octave>4</octave>
				</pitch>
				<duration>2</duration>
				<voice>1</voice>
				<type>eighth</type>
				<lyric number="1" name="verse">
					<syllabic>single</syllabic>
					<text>bei</text>
				</lyric>
			</note>
			<note>
				<pitch>
					<step>A</step>
					<alter>1</alter>
					<octave>4</octave>
				</pitch>
				<duration>4</duration>
				<voice>1</voice>
				<type>quarter</type>
				<accidental>sharp</accidental>
				<lyric number="1" name="verse">
					<syllabic>single</syllabic>
					<text>mir</text>
				</lyric>
			</note>
			<note>
				<pitch>
					<step>G</step>
					<alter>1</alter>
					<octave>4</octave>
				</pitch>
				<duration>4</duration>
				<voice>1</voice>
				<type>quarter</type>
				<accidental>sharp</accidental>
				<lyric number="1" name="verse">
					<syllabic>single</syllabic>
					<text>im</text>
				</lyric>
			</note>
		</measure>
		<measure number="63">
			<note>
				<pitch>
					<step>F</step>
					<alter>1</alter>
					<octave>4</octave>
				</pitch>
				<duration>4</duration>
				<voice>1</voice>
				<type>quarter</type>
				<lyric number="1" name="verse">
					<syllabic>single</syllabic>
					<text>stil-</text>
				</lyric>
			</note>
			<note>
				<pitch>
					<step>G</step>
					<alter>1</alter>
					<octave>4</octave>
				</pitch>
				<duration>2</duration>
				<voice>1</voice>
				<type>eighth</type>
				<accidental>sharp</accidental>
				<lyric number="1" name="verse">
					<syllabic>single</syllabic>
					<text>|</text>
				</lyric>
			</note>
			<note>
				<pitch>
					<step>A</step>
					<alter>1</alter>
					<octave>4</octave>
				</pitch>
				<duration>2</duration>
				<voice>1</voice>
				<type>eighth</type>
				<accidental>sharp</accidental>
				<lyric number="1" name="verse">
					<syllabic>single</syllabic>
					<text>|</text>
				</lyric>
			</note>
			<note>
				<pitch>
					<step>B</step>
					<octave>4</octave>
				</pitch>
				<duration>4</duration>
				<voice>1</voice>
				<type>quarter</type>
				<lyric number="1" name="verse">
					<syllabic>single</syllabic>
					<text>-len</text>
				</lyric>
			</note>
			<note>
				<pitch>
					<step>C</step>
					<alter>1</alter>
					<octave>5</octave>
				</pitch>
				<duration>4</duration>
				<voice>1</voice>
				<type>quarter</type>
				<lyric number="1" name="verse">
					<syllabic>single</syllabic>
					<text>hier</text>
				</lyric>
			</note>
		</measure>
		<measure number="64">
			<note>
				<pitch>
					<step>D</step>
					<alter>1</alter>
					<octave>5</octave>
				</pitch>
				<duration>12</duration>
				<voice>1</voice>
				<type>half</type>
				<dot/>
				<accidental>sharp</accidental>
				<lyric number="1" name="verse">
					<syllabic>single</syllabic>
					<text>ei-</text>
				</lyric>
			</note>
			<note>
				<pitch>
					<step>C</step>
					<alter>1</alter>
					<octave>5</octave>
				</pitch>
				<duration>4</duration>
				<voice>1</voice>
				<type>quarter</type>
				<lyric number="1" name="verse">
					<syllabic>single</syllabic>
					<text>-ne</text>
				</lyric>
			</note>
		</measure>
		<measure number="65">
			<note>
				<pitch>
					<step>B</step>
					<octave>4</octave>
				</pitch>
				<duration>12</duration>
				<voice>1</voice>
				<type>half</type>
				<dot/>
				<lyric number="1" name="verse">
					<syllabic>single</syllabic>
					<text>wach.}</text>
				</lyric>
			</note>
			<note>
				<pitch>
					<step>B</step>
					<octave>4</octave>
				</pitch>
				<duration>2</duration>
				<voice>1</voice>
				<type>eighth</type>
				<lyric number="1" name="verse">
					<syllabic>single</syllabic>
					<text>{Sie</text>
				</lyric>
			</note>
			<note>
				<pitch>
					<step>D</step>
					<octave>5</octave>
				</pitch>
				<duration>2</duration>
				<voice>1</voice>
				<type>eighth</type>
				<accidental>natural</accidental>
				<lyric number="1" name="verse">
					<syllabic>single</syllabic>
					<text>|</text>
				</lyric>
			</note>
		</measure>
		<measure number="66">
			<note>
				<pitch>
					<step>C</step>
					<alter>1</alter>
					<octave>5</octave>
				</pitch>
				<duration>4</duration>
				<voice>1</voice>
				<type>quarter</type>
				<lyric number="1" name="verse">
					<syllabic>single</syllabic>
					<text>sin-</text>
				</lyric>
			</note>
			<note>
				<pitch>
					<step>F</step>
					<alter>1</alter>
					<octave>4</octave>
				</pitch>
				<duration>4</duration>
				<voice>1</voice>
				<type>quarter</type>
				<lyric number="1" name="verse">
					<syllabic>single</syllabic>
					<text>-get:</text>
				</lyric>
			</note>
			<note>
				<pitch>
					<step>F</step>
					<alter>1</alter>
					<octave>4</octave>
				</pitch>
				<duration>4</duration>
				<voice>1</voice>
				<type>quarter</type>
				<lyric number="1" name="verse">
					<syllabic>single</syllabic>
					<text>Herr</text>
				</lyric>
			</note>
			<note>
				<pitch>
					<step>G</step>
					<octave>4</octave>
				</pitch>
				<duration>2</duration>
				<voice>1</voice>
				<type>eighth</type>
				<lyric number="1" name="verse">
					<syllabic>single</syllabic>
					<text>des</text>
				</lyric>
			</note>
			<note>
				<pitch>
					<step>B</step>
					<octave>4</octave>
				</pitch>
				<duration>2</duration>
				<voice>1</voice>
				<type>eighth</type>
				<lyric number="1" name="verse">
					<syllabic>single</syllabic>
					<text>|</text>
				</lyric>
			</note>
		</measure>
		<measure number="67">
			<note>
				<pitch>
					<step>A</step>
					<octave>4</octave>
				</pitch>
				<duration>8</duration>
				<voice>1</voice>
				<type>half</type>
				<lyric number="1" name="verse">
					<syllabic>single</syllabic>
					<text>Hau-</text>
				</lyric>
			</note>
			<note>
				<pitch>
					<step>D</step>
					<octave>4</octave>
				</pitch>
				<duration>4</duration>
				<voice>1</voice>
				<type>quarter</type>
				<lyric number="1" name="verse">
					<syllabic>single</syllabic>
					<text>-ses!}</text>
				</lyric>
			</note>
			<note>
				<pitch>
					<step>B</step>
					<octave>4</octave>
				</pitch>
				<duration>2</duration>
				<voice>1</voice>
				<type>eighth</type>
				<lyric number="1" name="verse">
					<syllabic>single</syllabic>
					<text>{ver-</text>
				</lyric>
			</note>
			<note>
				<pitch>
					<step>D</step>
					<octave>5</octave>
				</pitch>
				<duration>2</duration>
				<voice>1</voice>
				<type>eighth</type>
				<lyric number="1" name="verse">
					<syllabic>single</syllabic>
					<text>|</text>
				</lyric>
			</note>
		</measure>
		<measure number="68">
			<note>
				<pitch>
					<step>C</step>
					<alter>1</alter>
					<octave>5</octave>
				</pitch>
				<duration>4</duration>
				<voice>1</voice>
				<type>quarter</type>
				<lyric number="1" name="verse">
					<syllabic>single</syllabic>
					<text>-schleuss</text>
				</lyric>
			</note>
			<note>
				<pitch>
					<step>F</step>
					<alter>1</alter>
					<octave>4</octave>
				</pitch>
				<duration>4</duration>
				<voice>1</voice>
				<type>quarter</type>
				<lyric number="1" name="verse">
					<syllabic>single</syllabic>
					<text>dein</text>
				</lyric>
			</note>
			<note>
				<pitch>
					<step>F</step>
					<alter>1</alter>
					<octave>4</octave>
				</pitch>
				<duration>4</duration>
				<voice>1</voice>
				<type>quarter</type>
				<lyric number="1" name="verse">
					<syllabic>single</syllabic>
					<text>Tor,</text>
				</lyric>
			</note>
			<note>
				<pitch>
					<step>G</step>
					<octave>4</octave>
				</pitch>
				<duration>2</duration>
				<voice>1</voice>
				<type>eighth</type>
				<lyric number="1" name="verse">
					<syllabic>single</syllabic>
					<text>dass</text>
				</lyric>
			</note>
			<note>
				<pitch>
					<step>B</step>
					<octave>4</octave>
				</pitch>
				<duration>2</duration>
				<voice>1</voice>
				<type>eighth</type>
				<lyric number="1" name="verse">
					<syllabic>single</syllabic>
					<text>|</text>
				</lyric>
			</note>
		</measure>
		<measure number="69">
			<note>
				<pitch>
					<step>A</step>
					<octave>4</octave>
				</pitch>
				<duration>4</duration>
				<voice>1</voice>
				<type>quarter</type>
				<lyric number="1" name="verse">
					<syllabic>single</syllabic>
					<text>nicht</text>
				</lyric>
			</note>
			<note>
				<pitch>
					<step>D</step>
					<octave>4</octave>
				</pitch>
				<duration>4</duration>
				<voice>1</voice>
				<type>quarter</type>
				<lyric number="1" name="verse">
					<syllabic>single</syllabic>
					<text>die</text>
				</lyric>
			</note>
			<note>
				<pitch>
					<step>D</step>
					<octave>4</octave>
				</pitch>
				<duration>4</duration>
				<voice>1</voice>
				<type>quarter</type>
				<lyric number="1" name="verse">
					<syllabic>single</syllabic>
					<text>Welt,}</text>
				</lyric>
			</note>
			<note>
				<pitch>
					<step>E</step>
					<octave>4</octave>
				</pitch>
				<duration>2</duration>
				<voice>1</voice>
				<type>eighth</type>
				<lyric number="1" name="verse">
					<syllabic>single</syllabic>
					<text>{die</text>
				</lyric>
			</note>
			<note>
				<pitch>
					<step>G</step>
					<octave>4</octave>
				</pitch>
				<duration>2</duration>
				<voice>1</voice>
				<type>eighth</type>
				<lyric number="1" name="verse">
					<syllabic>single</syllabic>
					<text>|</text>
				</lyric>
			</note>
		</measure>
		<measure number="70">
			<note>
				<pitch>
					<step>F</step>
					<alter>1</alter>
					<octave>4</octave>
				</pitch>
				<duration>4</duration>
				<voice>1</voice>
				<type>quarter</type>
				<lyric number="1" name="verse">
					<syllabic>single</syllabic>
					<text>kal-</text>
				</lyric>
			</note>
			<note>
				<pitch>
					<step>E</step>
					<octave>4</octave>
				</pitch>
				<duration>3</duration>
				<voice>1</voice>
				<type>eighth</type>
				<dot/>
				<lyric number="1" name="verse">
					<syllabic>single</syllabic>
					<text>-te,</text>
				</lyric>
			</note>
			<note>
				<pitch>
					<step>D</step>
					<octave>4</octave>
				</pitch>
				<duration>1</duration>
				<voice>1</voice>
				<type>16th</type>
				<lyric number="1" name="verse">
					<syllabic>single</syllabic>
					<text>dring'</text>
				</lyric>
			</note>
			<note>
				<pitch>
					<step>C</step>
					<alter>1</alter>
					<octave>4</octave>
				</pitch>
				<duration>4</duration>
				<voice>1</voice>
				<type>quarter</type>
				<lyric number="1" name="verse">
					<syllabic>single</syllabic>
					<text>ins</text>
				</lyric>
			</note>
			<note>
				<pitch>
					<step>B</step>
					<octave>3</octave>
				</pitch>
				<duration>4</duration>
				<voice>1</voice>
				<type>quarter</type>
				<lyric number="1" name="verse">
					<syllabic>single</syllabic>
					<text>Ge-</text>
				</lyric>
			</note>
		</measure>
		<measure number="71">
			<note>
				<pitch>
					<step>F</step>
					<alter>1</alter>
					<octave>4</octave>
				</pitch>
				<duration>16</duration>
				<voice>1</voice>
				<type>whole</type>
				<lyric number="1" name="verse">
					<syllabic>single</syllabic>
					<text>-mach.}</text>
				</lyric>
			</note>
		</measure>
		<measure number="72">
			<note>
				<rest/>
				<duration>16</duration>
				<voice>1</voice>
				<type>whole</type>
			</note>
		</measure>
		<measure number="73">
			<note>
				<rest/>
				<duration>8</duration>
				<voice>1</voice>
				<type>half</type>
			</note>
			<note>
				<rest/>
				<duration>4</duration>
				<voice>1</voice>
				<type>quarter</type>
			</note>
			<note>
				<pitch>
					<step>F</step>
					<alter>1</alter>
					<octave>4</octave>
				</pitch>
				<duration>4</duration>
				<voice>1</voice>
				<type>quarter</type>
				<lyric number="1" name="verse">
					<syllabic>single</syllabic>
					<text>{Schleuss</text>
				</lyric>
			</note>
		</measure>
		<measure number="74">
			<note>
				<pitch>
					<step>G</step>
					<octave>4</octave>
				</pitch>
				<duration>6</duration>
				<voice>1</voice>
				<type>quarter</type>
				<dot/>
				<lyric number="1" name="verse">
					<syllabic>single</syllabic>
					<text>aus</text>
				</lyric>
			</note>
			<note>
				<pitch>
					<step>G</step>
					<octave>4</octave>
				</pitch>
				<duration>2</duration>
				<voice>1</voice>
				<type>eighth</type>
				<lyric number="1" name="verse">
					<syllabic>single</syllabic>
					<text>den</text>
				</lyric>
			</note>
			<note>
				<pitch>
					<step>G</step>
					<octave>4</octave>
				</pitch>
				<duration>4</duration>
				<voice>1</voice>
				<type>quarter</type>
				<lyric number="1" name="verse">
					<syllabic>single</syllabic>
					<text>rau-</text>
				</lyric>
			</note>
			<note>
				<pitch>
					<step>G</step>
					<octave>4</octave>
				</pitch>
				<duration>4</duration>
				<voice>1</voice>
				<type>quarter</type>
				<lyric number="1" name="verse">
					<syllabic>single</syllabic>
					<text>-hen</text>
				</lyric>
			</note>
		</measure>
		<measure number="75">
			<note>
				<pitch>
					<step>G</step>
					<alter>1</alter>
					<octave>4</octave>
				</pitch>
				<duration>8</duration>
				<voice>1</voice>
				<type>half</type>
				<accidental>sharp</accidental>
				<lyric number="1" name="verse">
					<syllabic>single</syllabic>
					<text>O-</text>
				</lyric>
			</note>
			<note>
				<pitch>
					<step>A</step>
					<octave>4</octave>
				</pitch>
				<duration>4</duration>
				<voice>1</voice>
				<type>quarter</type>
				<lyric number="1" name="verse">
					<syllabic>single</syllabic>
					<text>-dem</text>
				</lyric>
			</note>
			<note>
				<pitch>
					<step>A</step>
					<octave>4</octave>
				</pitch>
				<duration>4</duration>
				<voice>1</voice>
				<type>quarter</type>
				<lyric number="1" name="verse">
					<syllabic>single</syllabic>
					<text>der</text>
				</lyric>
			</note>
		</measure>
		<measure number="76">
			<note>
				<grace slash="yes"/>
				<pitch>
					<step>B</step>
					<octave>4</octave>
				</pitch>
				<voice>1</voice>
				<type>eighth</type>
				<lyric number="1" name="verse">
					<syllabic>single</syllabic>
					<text>Wirk-</text>
				</lyric>
			</note>
			<note>
				<pitch>
					<step>A</step>
					<alter>1</alter>
					<octave>4</octave>
				</pitch>
				<duration>6</duration>
				<voice>1</voice>
				<type>quarter</type>
				<dot/>
				<accidental>sharp</accidental>
				<lyric number="1" name="verse">
					<syllabic>single</syllabic>
					<text>|</text>
				</lyric>
			</note>
			<note>
				<pitch>
					<step>A</step>
					<alter>1</alter>
					<octave>4</octave>
				</pitch>
				<duration>2</duration>
				<voice>1</voice>
				<type>eighth</type>
				<lyric number="1" name="verse">
					<syllabic>single</syllabic>
					<text>-lich-</text>
				</lyric>
			</note>
			<note>
				<pitch>
					<step>A</step>
					<alter>1</alter>
					<octave>4</octave>
				</pitch>
				<duration>8</duration>
				<voice>1</voice>
				<type>half</type>
				<lyric number="1" name="verse">
					<syllabic>single</syllabic>
					<text>-keit,}</text>
				</lyric>
			</note>
		</measure>
		<measure number="77">
			<note>
				<rest/>
				<duration>8</duration>
				<voice>1</voice>
				<type>half</type>
			</note>
			<note>
				<rest/>
				<duration>4</duration>
				<voice>1</voice>
				<type>quarter</type>
			</note>
			<note>
				<pitch>
					<step>F</step>
					<alter>1</alter>
					<octave>4</octave>
				</pitch>
				<duration>4</duration>
				<voice>1</voice>
				<type>quarter</type>
				<lyric number="1" name="verse">
					<syllabic>single</syllabic>
					<text>{und</text>
				</lyric>
			</note>
		</measure>
		<measure number="78">
			<note>
				<pitch>
					<step>B</step>
					<octave>4</octave>
				</pitch>
				<duration>12</duration>
				<voice>1</voice>
				<type>half</type>
				<dot/>
				<lyric number="1" name="verse">
					<syllabic>single</syllabic>
					<text>nur</text>
				</lyric>
			</note>
			<note>
				<pitch>
					<step>B</step>
					<octave>4</octave>
				</pitch>
				<duration>4</duration>
				<voice>1</voice>
				<type>quarter</type>
				<lyric number="1" name="verse">
					<syllabic>single</syllabic>
					<text>dem</text>
				</lyric>
			</note>
		</measure>
		<measure number="79">
			<note>
				<pitch>
					<step>F</step>
					<alter>1</alter>
					<octave>4</octave>
				</pitch>
				<duration>12</duration>
				<voice>1</voice>
				<type>half</type>
				<dot/>
				<lyric number="1" name="verse">
					<syllabic>single</syllabic>
					<text>Duft</text>
				</lyric>
			</note>
			<note>
				<pitch>
					<step>F</step>
					<alter>1</alter>
					<octave>4</octave>
				</pitch>
				<duration>4</duration>
				<voice>1</voice>
				<type>quarter</type>
				<lyric number="1" name="verse">
					<syllabic>single</syllabic>
					<text>der</text>
				</lyric>
			</note>
		</measure>
		<measure number="80">
			<note>
				<grace slash="yes"/>
				<pitch>
					<step>E</step>
					<octave>4</octave>
				</pitch>
				<voice>1</voice>
				<type>eighth</type>
				<lyric number="1" name="verse">
					<syllabic>single</syllabic>
					<text>Tra2u-</text>
				</lyric>
			</note>
			<note>
				<pitch>
					<step>D</step>
					<alter>1</alter>
					<octave>4</octave>
				</pitch>
				<duration>8</duration>
				<voice>1</voice>
				<type>half</type>
				<accidental>sharp</accidental>
				<lyric number="1" name="verse">
					<syllabic>single</syllabic>
					<text>|</text>
				</lyric>
			</note>
			<note>
				<pitch>
					<step>D</step>
					<alter>1</alter>
					<octave>4</octave>
				</pitch>
				<duration>8</duration>
				<voice>1</voice>
				<type>half</type>
				<lyric number="1" name="verse">
					<syllabic>single</syllabic>
					<text>-me,}</text>
				</lyric>
			</note>
		</measure>
		<measure number="81">
			<note>
				<rest/>
				<duration>4</duration>
				<voice>1</voice>
				<type>quarter</type>
			</note>
			<note>
				<pitch>
					<step>D</step>
					<alter>1</alter>
					<octave>4</octave>
				</pitch>
				<duration>4</duration>
				<voice>1</voice>
				<type>quarter</type>
				<accidental>sharp</accidental>
				<lyric number="1" name="verse">
					<syllabic>single</syllabic>
					<text>{und</text>
				</lyric>
			</note>
			<note>
				<pitch>
					<step>D</step>
					<alter>1</alter>
					<octave>4</octave>
				</pitch>
				<duration>8</duration>
				<tie type="start"/>
				<voice>1</voice>
				<type>half</type>
				<notations>
					<tied type="start"/>
				</notations>
				<lyric number="1" name="verse">
					<syllabic>single</syllabic>
					<text>nur</text>
				</lyric>
			</note>
		</measure>
		<measure number="82">
			<note>
				<pitch>
					<step>D</step>
					<alter>1</alter>
					<octave>4</octave>
				</pitch>
				<duration>4</duration>
				<tie type="stop"/>
				<voice>1</voice>
				<type>quarter</type>
				<accidental>sharp</accidental>
				<notations>
					<tied type="stop"/>
				</notations>
				<lyric number="1" name="verse">
					<syllabic>single</syllabic>
					<text>|</text>
				</lyric>
			</note>
			<note>
				<pitch>
					<step>G</step>
					<alter>1</alter>
					<octave>4</octave>
				</pitch>
				<duration>4</duration>
				<voice>1</voice>
				<type>quarter</type>
				<accidental>sharp</accidental>
				<lyric number="1" name="verse">
					<syllabic>single</syllabic>
					<text>dem</text>
				</lyric>
			</note>
			<note>
				<pitch>
					<step>A</step>
					<alter>1</alter>
					<octave>4</octave>
				</pitch>
				<duration>4</duration>
				<voice>1</voice>
				<type>quarter</type>
				<accidental>sharp</accidental>
				<lyric number="1" name="verse">
					<syllabic>single</syllabic>
					<text>Duft</text>
				</lyric>
			</note>
			<note>
				<pitch>
					<step>B</step>
					<octave>4</octave>
				</pitch>
				<duration>4</duration>
				<voice>1</voice>
				<type>quarter</type>
				<lyric number="1" name="verse">
					<syllabic>single</syllabic>
					<text>der</text>
				</lyric>
			</note>
		</measure>
		<measure number="83">
			<note>
				<pitch>
					<step>C</step>
					<alter>1</alter>
					<octave>5</octave>
				</pitch>
				<duration>8</duration>
				<voice>1</voice>
				<type>half</type>
				<lyric number="1" name="verse">
					<syllabic>single</syllabic>
					<text>Tra2u-</text>
				</lyric>
			</note>
			<note>
				<grace slash="yes"/>
				<pitch>
					<step>D</step>
					<alter>1</alter>
					<octave>5</octave>
				</pitch>
				<voice>1</voice>
				<type>eighth</type>
				<accidental>sharp</accidental>
				<lyric number="1" name="verse">
					<syllabic>single</syllabic>
					<text>|</text>
				</lyric>
			</note>
			<note>
				<pitch>
					<step>C</step>
					<alter>1</alter>
					<octave>5</octave>
				</pitch>
				<duration>2</duration>
				<voice>1</voice>
				<type>eighth</type>
				<lyric number="1" name="verse">
					<syllabic>single</syllabic>
					<text>|</text>
				</lyric>
			</note>
			<note>
				<pitch>
					<step>B</step>
					<alter>1</alter>
					<octave>4</octave>
				</pitch>
				<duration>2</duration>
				<voice>1</voice>
				<type>eighth</type>
				<accidental>sharp</accidental>
				<lyric number="1" name="verse">
					<syllabic>single</syllabic>
					<text>|</text>
				</lyric>
			</note>
			<note>
				<pitch>
					<step>C</step>
					<alter>1</alter>
					<octave>5</octave>
				</pitch>
				<duration>2</duration>
				<voice>1</voice>
				<type>eighth</type>
				<lyric number="1" name="verse">
					<syllabic>single</syllabic>
					<text>|</text>
				</lyric>
			</note>
			<note>
				<pitch>
					<step>D</step>
					<alter>1</alter>
					<octave>5</octave>
				</pitch>
				<duration>2</duration>
				<voice>1</voice>
				<type>eighth</type>
				<lyric number="1" name="verse">
					<syllabic>single</syllabic>
					<text>|</text>
				</lyric>
			</note>
		</measure>
		<measure number="84">
			<note>
				<pitch>
					<step>B</step>
					<octave>4</octave>
				</pitch>
				<duration>8</duration>
				<voice>1</voice>
				<type>half</type>
				<accidental>natural</accidental>
				<lyric number="1" name="verse">
					<syllabic>single</syllabic>
					<text>-me}</text>
				</lyric>
			</note>
			<note>
				<rest/>
				<duration>4</duration>
				<voice>1</voice>
				<type>quarter</type>
			</note>
			<note>
				<pitch>
					<step>F</step>
					<alter>1</alter>
					<octave>4</octave>
				</pitch>
				<duration>4</duration>
				<voice>1</voice>
				<type>quarter</type>
				<lyric number="1" name="verse">
					<syllabic>single</syllabic>
					<text>{gib</text>
				</lyric>
			</note>
		</measure>
		<measure number="85">
			<note>
				<pitch>
					<step>F</step>
					<alter>1</alter>
					<octave>4</octave>
				</pitch>
				<duration>8</duration>
				<voice>1</voice>
				<type>half</type>
				<lyric number="1" name="verse">
					<syllabic>single</syllabic>
					<text>Dach</text>
				</lyric>
			</note>
			<note>
				<pitch>
					<step>E</step>
					<alter>1</alter>
					<octave>4</octave>
				</pitch>
				<duration>2</duration>
				<voice>1</voice>
				<type>eighth</type>
				<accidental>sharp</accidental>
				<lyric number="1" name="verse">
					<syllabic>single</syllabic>
					<text>und</text>
				</lyric>
			</note>
			<note>
				<pitch>
					<step>F</step>
					<alter>1</alter>
					<octave>4</octave>
				</pitch>
				<duration>2</duration>
				<voice>1</voice>
				<type>eighth</type>
				<lyric number="1" name="verse">
					<syllabic>single</syllabic>
					<text>|</text>
				</lyric>
			</note>
			<note>
				<pitch>
					<step>G</step>
					<alter>1</alter>
					<octave>4</octave>
				</pitch>
				<duration>2</duration>
				<voice>1</voice>
				<type>eighth</type>
				<accidental>sharp</accidental>
				<lyric number="1" name="verse">
					<syllabic>single</syllabic>
					<text>|</text>
				</lyric>
			</note>
			<note>
				<pitch>
					<step>F</step>
					<alter>1</alter>
					<octave>4</octave>
				</pitch>
				<duration>2</duration>
				<voice>1</voice>
				<type>eighth</type>
				<lyric number="1" name="verse">
					<syllabic>single</syllabic>
					<text>|</text>
				</lyric>
			</note>
		</measure>
		<measure number="86">
			<note>
				<pitch>
					<step>D</step>
					<alter>1</alter>
					<octave>4</octave>
				</pitch>
				<duration>6</duration>
				<voice>1</voice>
				<type>quarter</type>
				<dot/>
				<accidental>sharp</accidental>
				<lyric number="1" name="verse">
					<syllabic>single</syllabic>
					<text>Fach,</text>
				</lyric>
			</note>
			<note>
				<pitch>
					<step>F</step>
					<alter>1</alter>
					<octave>4</octave>
				</pitch>
				<duration>2</duration>
				<voice>1</voice>
				<type>eighth</type>
				<lyric number="1" name="verse">
					<syllabic>single</syllabic>
					<text>dem</text>
				</lyric>
			</note>
			<note>
				<pitch>
					<step>A</step>
					<alter>1</alter>
					<octave>4</octave>
				</pitch>
				<duration>4</duration>
				<voice>1</voice>
				<type>quarter</type>
				<accidental>sharp</accidental>
				<lyric number="1" name="verse">
					<syllabic>single</syllabic>
					<text>Duft</text>
				</lyric>
			</note>
			<note>
				<pitch>
					<step>B</step>
					<octave>4</octave>
				</pitch>
				<duration>4</duration>
				<voice>1</voice>
				<type>quarter</type>
				<lyric number="1" name="verse">
					<syllabic>single</syllabic>
					<text>der</text>
				</lyric>
			</note>
		</measure>
		<measure number="87">
			<note>
				<pitch>
					<step>C</step>
					<alter>1</alter>
					<octave>5</octave>
				</pitch>
				<duration>8</duration>
				<voice>1</voice>
				<type>half</type>
				<lyric number="1" name="verse">
					<syllabic>single</syllabic>
					<text>Tra2u-</text>
				</lyric>
			</note>
			<note>
				<grace slash="yes"/>
				<pitch>
					<step>D</step>
					<alter>1</alter>
					<octave>5</octave>
				</pitch>
				<voice>1</voice>
				<type>eighth</type>
				<accidental>sharp</accidental>
				<lyric number="1" name="verse">
					<syllabic>single</syllabic>
					<text>|</text>
				</lyric>
			</note>
			<note>
				<pitch>
					<step>C</step>
					<alter>1</alter>
					<octave>5</octave>
				</pitch>
				<duration>2</duration>
				<voice>1</voice>
				<type>eighth</type>
				<lyric number="1" name="verse">
					<syllabic>single</syllabic>
					<text>|</text>
				</lyric>
			</note>
			<note>
				<pitch>
					<step>B</step>
					<alter>1</alter>
					<octave>4</octave>
				</pitch>
				<duration>2</duration>
				<voice>1</voice>
				<type>eighth</type>
				<accidental>sharp</accidental>
				<lyric number="1" name="verse">
					<syllabic>single</syllabic>
					<text>|</text>
				</lyric>
			</note>
			<note>
				<pitch>
					<step>C</step>
					<alter>1</alter>
					<octave>5</octave>
				</pitch>
				<duration>2</duration>
				<voice>1</voice>
				<type>eighth</type>
				<lyric number="1" name="verse">
					<syllabic>single</syllabic>
					<text>|</text>
				</lyric>
			</note>
			<note>
				<pitch>
					<step>D</step>
					<alter>1</alter>
					<octave>5</octave>
				</pitch>
				<duration>2</duration>
				<voice>1</voice>
				<type>eighth</type>
				<lyric number="1" name="verse">
					<syllabic>single</syllabic>
					<text>|</text>
				</lyric>
			</note>
		</measure>
		<measure number="88">
			<note>
				<pitch>
					<step>B</step>
					<octave>4</octave>
				</pitch>
				<duration>8</duration>
				<voice>1</voice>
				<type>half</type>
				<accidental>natural</accidental>
				<lyric number="1" name="verse">
					<syllabic>single</syllabic>
					<text>-me}</text>
				</lyric>
			</note>
			<note>
				<pitch>
					<step>D</step>
					<alter>1</alter>
					<octave>5</octave>
				</pitch>
				<duration>2</duration>
				<voice>1</voice>
				<type>eighth</type>
				<accidental>sharp</accidental>
				<lyric number="1" name="verse">
					<syllabic>single</syllabic>
					<text>{gib-</text>
				</lyric>
			</note>
			<note>
				<pitch>
					<step>A</step>
					<alter>1</alter>
					<octave>4</octave>
				</pitch>
				<duration>2</duration>
				<voice>1</voice>
				<type>eighth</type>
				<accidental>sharp</accidental>
				<lyric number="1" name="verse">
					<syllabic>single</syllabic>
					<text>|</text>
				</lyric>
			</note>
			<note>
				<pitch>
					<step>B</step>
					<octave>4</octave>
				</pitch>
				<duration>2</duration>
				<voice>1</voice>
				<type>eighth</type>
				<lyric number="1" name="verse">
					<syllabic>single</syllabic>
					<text>|</text>
				</lyric>
			</note>
			<note>
				<pitch>
					<step>G</step>
					<alter>1</alter>
					<octave>4</octave>
				</pitch>
				<duration>2</duration>
				<voice>1</voice>
				<type>eighth</type>
				<accidental>sharp</accidental>
				<lyric number="1" name="verse">
					<syllabic>single</syllabic>
					<text>|</text>
				</lyric>
			</note>
		</measure>
		<measure number="89">
			<note>
				<pitch>
					<step>F</step>
					<alter>1</alter>
					<octave>4</octave>
				</pitch>
				<duration>16</duration>
				<voice>1</voice>
				<type>whole</type>
				<lyric number="1" name="verse">
					<syllabic>single</syllabic>
					<text>Dach</text>
				</lyric>
			</note>
		</measure>
		<measure number="90">
			<note>
				<pitch>
					<step>B</step>
					<octave>4</octave>
				</pitch>
				<duration>2</duration>
				<voice>1</voice>
				<type>eighth</type>
				<lyric number="1" name="verse">
					<syllabic>single</syllabic>
					<text>und</text>
				</lyric>
			</note>
			<note>
				<pitch>
					<step>A</step>
					<alter>1</alter>
					<octave>4</octave>
				</pitch>
				<duration>2</duration>
				<voice>1</voice>
				<type>eighth</type>
				<accidental>sharp</accidental>
				<lyric number="1" name="verse">
					<syllabic>single</syllabic>
					<text>|</text>
				</lyric>
			</note>
			<note>
				<pitch>
					<step>G</step>
					<alter>1</alter>
					<octave>4</octave>
				</pitch>
				<duration>2</duration>
				<voice>1</voice>
				<type>eighth</type>
				<accidental>sharp</accidental>
				<lyric number="1" name="verse">
					<syllabic>single</syllabic>
					<text>|</text>
				</lyric>
			</note>
			<note>
				<pitch>
					<step>F</step>
					<alter>1</alter>
					<octave>4</octave>
				</pitch>
				<duration>2</duration>
				<voice>1</voice>
				<type>eighth</type>
				<lyric number="1" name="verse">
					<syllabic>single</syllabic>
					<text>|</text>
				</lyric>
			</note>
			<note>
				<grace slash="yes"/>
				<pitch>
					<step>E</step>
					<octave>4</octave>
				</pitch>
				<voice>1</voice>
				<type>eighth</type>
				<lyric number="1" name="verse">
					<syllabic>single</syllabic>
					<text>|</text>
				</lyric>
			</note>
			<note>
				<grace slash="yes"/>
				<pitch>
					<step>F</step>
					<alter>1</alter>
					<octave>4</octave>
				</pitch>
				<voice>1</voice>
				<type>eighth</type>
				<lyric number="1" name="verse">
					<syllabic>single</syllabic>
					<text>|</text>
				</lyric>
			</note>
			<note>
				<pitch>
					<step>E</step>
					<octave>4</octave>
				</pitch>
				<duration>2</duration>
				<voice>1</voice>
				<type>eighth</type>
				<lyric number="1" name="verse">
					<syllabic>single</syllabic>
					<text>|</text>
				</lyric>
			</note>
			<note>
				<pitch>
					<step>D</step>
					<alter>1</alter>
					<octave>4</octave>
				</pitch>
				<duration>2</duration>
				<voice>1</voice>
				<type>eighth</type>
				<accidental>sharp</accidental>
				<lyric number="1" name="verse">
					<syllabic>single</syllabic>
					<text>|</text>
				</lyric>
			</note>
			<note>
				<pitch>
					<step>E</step>
					<octave>4</octave>
				</pitch>
				<duration>2</duration>
				<voice>1</voice>
				<type>eighth</type>
				<lyric number="1" name="verse">
					<syllabic>single</syllabic>
					<text>|</text>
				</lyric>
			</note>
			<note>
				<pitch>
					<step>C</step>
					<alter>1</alter>
					<octave>4</octave>
				</pitch>
				<duration>2</duration>
				<voice>1</voice>
				<type>eighth</type>
				<lyric number="1" name="verse">
					<syllabic>single</syllabic>
					<text>|</text>
				</lyric>
			</note>
		</measure>
		<measure number="91">
			<note>
				<pitch>
					<step>B</step>
					<octave>3</octave>
				</pitch>
				<duration>16</duration>
				<tie type="start"/>
				<voice>1</voice>
				<type>whole</type>
				<notations>
					<tied type="start"/>
				</notations>
				<lyric number="1" name="verse">
					<syllabic>single</syllabic>
					<text>Fach.</text>
				</lyric>
			</note>
		</measure>
		<measure number="92">
			<note>
				<pitch>
					<step>B</step>
					<octave>3</octave>
				</pitch>
				<duration>8</duration>
				<tie type="stop"/>
				<voice>1</voice>
				<type>half</type>
				<notations>
					<tied type="stop"/>
				</notations>
				<lyric number="1" name="verse">
					<syllabic>single</syllabic>
					<text>|}</text>
				</lyric>
			</note>
			<note>
				<rest/>
				<duration>8</duration>
				<voice>1</voice>
				<type>half</type>
			</note>
		</measure>
	</part>
</score-partwise>
