<?xml version="1.0" encoding="UTF-8"?>
<!DOCTYPE score-partwise PUBLIC "-//Recordare//DTD MusicXML 2.0 Partwise//EN" "http://www.musicxml.org/dtds/partwise.dtd">
<!-- INFO key="COM" value="Hugo Wolf" -->
<!-- INFO key="CNT" value="Deutscher" -->
<!-- INFO key="TXO" value="Deutsche " -->
<!-- INFO key="OTL" value="Frech und Froh I" -->
<!-- INFO key="ODT" value="1888/11/14" -->
<!-- INFO key="ONM" value="No. 16" -->
<!-- INFO key="LYR" value="Johann Wolfgang von Goethe" -->
<!-- INFO key="ENC" value="Brian Bice" -->
<!-- INFO key="YOR" value="45 Songs on Poems of Goethe and Eichendorff, Dover Publications, 1995" -->
<!-- GCOMMENT value="NB: Vocal melody and text only encoded." -->
<score-partwise version="2.0">
	<part-list>
		<score-part id="P1">
			<part-name></part-name>
		</score-part>
	</part-list>

	<part id="P1">
		<measure number="1">
			<attributes>
				<divisions>2</divisions>
			</attributes>
			<attributes>
				<clef>
					<sign>G</sign>
					<line>2</line>
				</clef>
			</attributes>
			<attributes>
				<key>
					<fifths>-1</fifths>
				</key>
			</attributes>
			<attributes>
				<time>
					<beats>4</beats>
					<beat-type>4</beat-type>
				</time>
			</attributes>
			<note>
				<rest/>
				<duration>4</duration>
				<voice>1</voice>
				<type>half</type>
			</note>
			<note>
				<rest/>
				<duration>2</duration>
				<voice>1</voice>
				<type>quarter</type>
			</note>
			<note>
				<rest/>
				<duration>1</duration>
				<voice>1</voice>
				<type>eighth</type>
			</note>
			<note>
				<pitch>
					<step>D</step>
					<octave>5</octave>
				</pitch>
				<duration>1</duration>
				<voice>1</voice>
				<type>eighth</type>
				<lyric number="1" name="verse">
					<syllabic>single</syllabic>
					<text>{Mit</text>
				</lyric>
			</note>
		</measure>
		<measure number="2">
			<note>
				<pitch>
					<step>G</step>
					<octave>4</octave>
				</pitch>
				<duration>1</duration>
				<voice>1</voice>
				<type>eighth</type>
				<lyric number="1" name="verse">
					<syllabic>single</syllabic>
					<text>Ma2d-</text>
				</lyric>
			</note>
			<note>
				<pitch>
					<step>G</step>
					<octave>4</octave>
				</pitch>
				<duration>1</duration>
				<voice>1</voice>
				<type>eighth</type>
				<lyric number="1" name="verse">
					<syllabic>single</syllabic>
					<text>-chen</text>
				</lyric>
			</note>
			<note>
				<pitch>
					<step>G</step>
					<octave>4</octave>
				</pitch>
				<duration>1</duration>
				<voice>1</voice>
				<type>eighth</type>
				<lyric number="1" name="verse">
					<syllabic>single</syllabic>
					<text>sich</text>
				</lyric>
			</note>
			<note>
				<pitch>
					<step>C</step>
					<octave>5</octave>
				</pitch>
				<duration>1</duration>
				<voice>1</voice>
				<type>eighth</type>
				<lyric number="1" name="verse">
					<syllabic>single</syllabic>
					<text>ver-</text>
				</lyric>
			</note>
			<note>
				<pitch>
					<step>C</step>
					<octave>5</octave>
				</pitch>
				<duration>1</duration>
				<voice>1</voice>
				<type>eighth</type>
				<lyric number="1" name="verse">
					<syllabic>single</syllabic>
					<text>-tra-</text>
				</lyric>
			</note>
			<note>
				<pitch>
					<step>A</step>
					<octave>4</octave>
				</pitch>
				<duration>1</duration>
				<voice>1</voice>
				<type>eighth</type>
				<lyric number="1" name="verse">
					<syllabic>single</syllabic>
					<text>|</text>
				</lyric>
			</note>
			<note>
				<pitch>
					<step>G</step>
					<octave>4</octave>
				</pitch>
				<duration>2</duration>
				<voice>1</voice>
				<type>quarter</type>
				<lyric number="1" name="verse">
					<syllabic>single</syllabic>
					<text>-gen,</text>
				</lyric>
			</note>
		</measure>
		<measure number="3">
			<note>
				<rest/>
				<duration>2</duration>
				<voice>1</voice>
				<type>quarter</type>
			</note>
			<note>
				<rest/>
				<duration>1</duration>
				<voice>1</voice>
				<type>eighth</type>
			</note>
			<note>
				<pitch>
					<step>C</step>
					<octave>5</octave>
				</pitch>
				<duration>1</duration>
				<voice>1</voice>
				<type>eighth</type>
				<lyric number="1" name="verse">
					<syllabic>single</syllabic>
					<text>mit</text>
				</lyric>
			</note>
			<note>
				<pitch>
					<step>F</step>
					<octave>5</octave>
				</pitch>
				<duration>4</duration>
				<tie type="start"/>
				<voice>1</voice>
				<type>half</type>
				<notations>
					<tied type="start"/>
				</notations>
				<lyric number="1" name="verse">
					<syllabic>single</syllabic>
					<text>Ma2n-</text>
				</lyric>
			</note>
		</measure>
		<measure number="4">
			<note>
				<pitch>
					<step>F</step>
					<octave>5</octave>
				</pitch>
				<duration>1</duration>
				<tie type="stop"/>
				<voice>1</voice>
				<type>eighth</type>
				<notations>
					<tied type="stop"/>
				</notations>
				<lyric number="1" name="verse">
					<syllabic>single</syllabic>
					<text>|</text>
				</lyric>
			</note>
			<note>
				<pitch>
					<step>D</step>
					<octave>5</octave>
				</pitch>
				<duration>1</duration>
				<voice>1</voice>
				<type>eighth</type>
				<lyric number="1" name="verse">
					<syllabic>single</syllabic>
					<text>-nern</text>
				</lyric>
			</note>
			<note>
				<pitch>
					<step>B</step>
					<octave>4</octave>
				</pitch>
				<duration>1</duration>
				<voice>1</voice>
				<type>eighth</type>
				<accidental>natural</accidental>
				<lyric number="1" name="verse">
					<syllabic>single</syllabic>
					<text>rum-</text>
				</lyric>
			</note>
			<note>
				<pitch>
					<step>E</step>
					<octave>5</octave>
				</pitch>
				<duration>1</duration>
				<voice>1</voice>
				<type>eighth</type>
				<lyric number="1" name="verse">
					<syllabic>single</syllabic>
					<text>-ge-</text>
				</lyric>
			</note>
			<note>
				<pitch>
					<step>E</step>
					<octave>5</octave>
				</pitch>
				<duration>2</duration>
				<voice>1</voice>
				<type>quarter</type>
				<lyric number="1" name="verse">
					<syllabic>single</syllabic>
					<text>-schla-</text>
				</lyric>
			</note>
			<note>
				<pitch>
					<step>A</step>
					<octave>4</octave>
				</pitch>
				<duration>2</duration>
				<voice>1</voice>
				<type>quarter</type>
				<lyric number="1" name="verse">
					<syllabic>single</syllabic>
					<text>-gen,}</text>
				</lyric>
			</note>
		</measure>
		<measure number="5">
			<note>
				<rest/>
				<duration>2</duration>
				<voice>1</voice>
				<type>quarter</type>
			</note>
			<note>
				<pitch>
					<step>D</step>
					<octave>5</octave>
				</pitch>
				<duration>2</duration>
				<voice>1</voice>
				<type>quarter</type>
				<lyric number="1" name="verse">
					<syllabic>single</syllabic>
					<text>{und</text>
				</lyric>
			</note>
			<note>
				<pitch>
					<step>G</step>
					<octave>4</octave>
				</pitch>
				<duration>3</duration>
				<voice>1</voice>
				<type>quarter</type>
				<dot/>
				<lyric number="1" name="verse">
					<syllabic>single</syllabic>
					<text>mehr</text>
				</lyric>
			</note>
			<note>
				<pitch>
					<step>G</step>
					<octave>4</octave>
				</pitch>
				<duration>1</duration>
				<voice>1</voice>
				<type>eighth</type>
				<lyric number="1" name="verse">
					<syllabic>single</syllabic>
					<text>Kre-</text>
				</lyric>
			</note>
		</measure>
		<measure number="6">
			<note>
				<pitch>
					<step>D</step>
					<octave>5</octave>
				</pitch>
				<duration>2</duration>
				<voice>1</voice>
				<type>quarter</type>
				<lyric number="1" name="verse">
					<syllabic>single</syllabic>
					<text>-dit</text>
				</lyric>
			</note>
			<note>
				<pitch>
					<step>D</step>
					<octave>5</octave>
				</pitch>
				<duration>2</duration>
				<voice>1</voice>
				<type>quarter</type>
				<lyric number="1" name="verse">
					<syllabic>single</syllabic>
					<text>als</text>
				</lyric>
			</note>
			<note>
				<pitch>
					<step>F</step>
					<octave>5</octave>
				</pitch>
				<duration>4</duration>
				<voice>1</voice>
				<type>half</type>
				<lyric number="1" name="verse">
					<syllabic>single</syllabic>
					<text>Geld:</text>
				</lyric>
			</note>
		</measure>
		<measure number="7">
			<note>
				<rest/>
				<duration>2</duration>
				<voice>1</voice>
				<type>quarter</type>
			</note>
			<note>
				<pitch>
					<step>F</step>
					<octave>5</octave>
				</pitch>
				<duration>4</duration>
				<voice>1</voice>
				<type>half</type>
				<lyric number="1" name="verse">
					<syllabic>single</syllabic>
					<text>so</text>
				</lyric>
			</note>
			<note>
				<pitch>
					<step>F</step>
					<octave>5</octave>
				</pitch>
				<duration>2</duration>
				<tie type="start"/>
				<voice>1</voice>
				<type>quarter</type>
				<notations>
					<tied type="start"/>
				</notations>
				<lyric number="1" name="verse">
					<syllabic>single</syllabic>
					<text>kommt</text>
				</lyric>
			</note>
		</measure>
		<measure number="8">
			<note>
				<pitch>
					<step>F</step>
					<octave>5</octave>
				</pitch>
				<duration>1</duration>
				<tie type="stop"/>
				<voice>1</voice>
				<type>eighth</type>
				<notations>
					<tied type="stop"/>
				</notations>
				<lyric number="1" name="verse">
					<syllabic>single</syllabic>
					<text>|</text>
				</lyric>
			</note>
			<note>
				<pitch>
					<step>E</step>
					<octave>5</octave>
				</pitch>
				<duration>1</duration>
				<voice>1</voice>
				<type>eighth</type>
				<lyric number="1" name="verse">
					<syllabic>single</syllabic>
					<text>man</text>
				</lyric>
			</note>
			<note>
				<pitch>
					<step>D</step>
					<octave>5</octave>
				</pitch>
				<duration>1</duration>
				<voice>1</voice>
				<type>eighth</type>
				<lyric number="1" name="verse">
					<syllabic>single</syllabic>
					<text>durch</text>
				</lyric>
			</note>
			<note>
				<pitch>
					<step>E</step>
					<octave>5</octave>
				</pitch>
				<duration>1</duration>
				<voice>1</voice>
				<type>eighth</type>
				<lyric number="1" name="verse">
					<syllabic>single</syllabic>
					<text>die</text>
				</lyric>
			</note>
			<note>
				<pitch>
					<step>F</step>
					<octave>5</octave>
				</pitch>
				<duration>2</duration>
				<voice>1</voice>
				<type>quarter</type>
				<lyric number="1" name="verse">
					<syllabic>single</syllabic>
					<text>Welt.}</text>
				</lyric>
			</note>
			<note>
				<rest/>
				<duration>2</duration>
				<voice>1</voice>
				<type>quarter</type>
			</note>
		</measure>
		<measure number="9">
			<note>
				<rest/>
				<duration>2</duration>
				<voice>1</voice>
				<type>quarter</type>
			</note>
			<note>
				<rest/>
				<duration>1</duration>
				<voice>1</voice>
				<type>eighth</type>
			</note>
			<note>
				<pitch>
					<step>E</step>
					<octave>4</octave>
				</pitch>
				<duration>1</duration>
				<voice>1</voice>
				<type>eighth</type>
				<lyric number="1" name="verse">
					<syllabic>single</syllabic>
					<text>{Mit</text>
				</lyric>
			</note>
			<note>
				<pitch>
					<step>A</step>
					<octave>4</octave>
				</pitch>
				<duration>4</duration>
				<voice>1</voice>
				<type>half</type>
				<lyric number="1" name="verse">
					<syllabic>single</syllabic>
					<text>vie-</text>
				</lyric>
			</note>
		</measure>
		<measure number="10">
			<note>
				<pitch>
					<step>G</step>
					<alter>1</alter>
					<octave>4</octave>
				</pitch>
				<duration>1</duration>
				<voice>1</voice>
				<type>eighth</type>
				<accidental>sharp</accidental>
				<lyric number="1" name="verse">
					<syllabic>single</syllabic>
					<text>|</text>
				</lyric>
			</note>
			<note>
				<pitch>
					<step>A</step>
					<octave>4</octave>
				</pitch>
				<duration>1</duration>
				<voice>1</voice>
				<type>eighth</type>
				<lyric number="1" name="verse">
					<syllabic>single</syllabic>
					<text>-lem</text>
				</lyric>
			</note>
			<note>
				<pitch>
					<step>B</step>
					<octave>4</octave>
				</pitch>
				<duration>1</duration>
				<voice>1</voice>
				<type>eighth</type>
				<accidental>natural</accidental>
				<lyric number="1" name="verse">
					<syllabic>single</syllabic>
					<text>la2sst</text>
				</lyric>
			</note>
			<note>
				<pitch>
					<step>D</step>
					<octave>5</octave>
				</pitch>
				<duration>1</duration>
				<voice>1</voice>
				<type>eighth</type>
				<lyric number="1" name="verse">
					<syllabic>single</syllabic>
					<text>sich</text>
				</lyric>
			</note>
			<note>
				<pitch>
					<step>C</step>
					<octave>5</octave>
				</pitch>
				<duration>2</duration>
				<voice>1</voice>
				<type>quarter</type>
				<lyric number="1" name="verse">
					<syllabic>single</syllabic>
					<text>schmaus-</text>
				</lyric>
			</note>
			<note>
				<pitch>
					<step>B</step>
					<octave>4</octave>
				</pitch>
				<duration>2</duration>
				<voice>1</voice>
				<type>quarter</type>
				<accidental>natural</accidental>
				<lyric number="1" name="verse">
					<syllabic>single</syllabic>
					<text>-en,</text>
				</lyric>
			</note>
		</measure>
		<measure number="11">
			<note>
				<rest/>
				<duration>2</duration>
				<voice>1</voice>
				<type>quarter</type>
			</note>
			<note>
				<rest/>
				<duration>1</duration>
				<voice>1</voice>
				<type>eighth</type>
			</note>
			<note>
				<pitch>
					<step>A</step>
					<octave>4</octave>
				</pitch>
				<duration>1</duration>
				<voice>1</voice>
				<type>eighth</type>
				<lyric number="1" name="verse">
					<syllabic>single</syllabic>
					<text>mit</text>
				</lyric>
			</note>
			<note>
				<pitch>
					<step>D</step>
					<octave>5</octave>
				</pitch>
				<duration>4</duration>
				<tie type="start"/>
				<voice>1</voice>
				<type>half</type>
				<notations>
					<tied type="start"/>
				</notations>
				<lyric number="1" name="verse">
					<syllabic>single</syllabic>
					<text>we-</text>
				</lyric>
			</note>
		</measure>
		<measure number="12">
			<note>
				<pitch>
					<step>D</step>
					<octave>5</octave>
				</pitch>
				<duration>1</duration>
				<tie type="stop"/>
				<voice>1</voice>
				<type>eighth</type>
				<notations>
					<tied type="stop"/>
				</notations>
				<lyric number="1" name="verse">
					<syllabic>single</syllabic>
					<text>|</text>
				</lyric>
			</note>
			<note>
				<pitch>
					<step>C</step>
					<octave>5</octave>
				</pitch>
				<duration>1</duration>
				<voice>1</voice>
				<type>eighth</type>
				<lyric number="1" name="verse">
					<syllabic>single</syllabic>
					<text>-nig</text>
				</lyric>
			</note>
			<note>
				<pitch>
					<step>B</step>
					<octave>4</octave>
				</pitch>
				<duration>1</duration>
				<voice>1</voice>
				<type>eighth</type>
				<accidental>natural</accidental>
				<lyric number="1" name="verse">
					<syllabic>single</syllabic>
					<text>la2sst</text>
				</lyric>
			</note>
			<note>
				<pitch>
					<step>A</step>
					<octave>4</octave>
				</pitch>
				<duration>1</duration>
				<voice>1</voice>
				<type>eighth</type>
				<lyric number="1" name="verse">
					<syllabic>single</syllabic>
					<text>sich</text>
				</lyric>
			</note>
			<note>
				<pitch>
					<step>C</step>
					<octave>5</octave>
				</pitch>
				<duration>2</duration>
				<voice>1</voice>
				<type>quarter</type>
				<lyric number="1" name="verse">
					<syllabic>single</syllabic>
					<text>hau-</text>
				</lyric>
			</note>
			<note>
				<pitch>
					<step>B</step>
					<octave>4</octave>
				</pitch>
				<duration>2</duration>
				<voice>1</voice>
				<type>quarter</type>
				<accidental>natural</accidental>
				<lyric number="1" name="verse">
					<syllabic>single</syllabic>
					<text>-sen;}</text>
				</lyric>
			</note>
		</measure>
		<measure number="13">
			<note>
				<rest/>
				<duration>2</duration>
				<voice>1</voice>
				<type>quarter</type>
			</note>
			<note>
				<pitch>
					<step>B</step>
					<octave>4</octave>
				</pitch>
				<duration>2</duration>
				<voice>1</voice>
				<type>quarter</type>
				<accidental>natural</accidental>
				<lyric number="1" name="verse">
					<syllabic>single</syllabic>
					<text>{dass</text>
				</lyric>
			</note>
			<note>
				<pitch>
					<step>B</step>
					<octave>4</octave>
				</pitch>
				<duration>3</duration>
				<voice>1</voice>
				<type>quarter</type>
				<dot/>
				<accidental>natural</accidental>
				<lyric number="1" name="verse">
					<syllabic>single</syllabic>
					<text>we-</text>
				</lyric>
			</note>
			<note>
				<pitch>
					<step>E</step>
					<octave>5</octave>
				</pitch>
				<duration>1</duration>
				<voice>1</voice>
				<type>eighth</type>
				<lyric number="1" name="verse">
					<syllabic>single</syllabic>
					<text>-nig</text>
				</lyric>
			</note>
		</measure>
		<measure number="14">
			<note>
				<pitch>
					<step>F</step>
					<octave>5</octave>
				</pitch>
				<duration>2</duration>
				<voice>1</voice>
				<type>quarter</type>
				<lyric number="1" name="verse">
					<syllabic>single</syllabic>
					<text>vie-</text>
				</lyric>
			</note>
			<note>
				<pitch>
					<step>F</step>
					<octave>5</octave>
				</pitch>
				<duration>2</duration>
				<voice>1</voice>
				<type>quarter</type>
				<lyric number="1" name="verse">
					<syllabic>single</syllabic>
					<text>-les</text>
				</lyric>
			</note>
			<note>
				<pitch>
					<step>B</step>
					<octave>4</octave>
				</pitch>
				<duration>4</duration>
				<voice>1</voice>
				<type>half</type>
				<accidental>natural</accidental>
				<lyric number="1" name="verse">
					<syllabic>single</syllabic>
					<text>sei,</text>
				</lyric>
			</note>
		</measure>
		<measure number="15">
			<note>
				<rest/>
				<duration>2</duration>
				<voice>1</voice>
				<type>quarter</type>
			</note>
			<note>
				<pitch>
					<step>F</step>
					<alter>1</alter>
					<octave>5</octave>
				</pitch>
				<duration>2</duration>
				<tie type="start"/>
				<voice>1</voice>
				<type>quarter</type>
				<accidental>sharp</accidental>
				<notations>
					<tied type="start"/>
				</notations>
				<lyric number="1" name="verse">
					<syllabic>single</syllabic>
					<text>schafft</text>
				</lyric>
			</note>
			<note>
				<pitch>
					<step>F</step>
					<alter>1</alter>
					<octave>5</octave>
				</pitch>
				<duration>1</duration>
				<tie type="stop"/>
				<voice>1</voice>
				<type>eighth</type>
				<notations>
					<tied type="stop"/>
				</notations>
				<lyric number="1" name="verse">
					<syllabic>single</syllabic>
					<text>|</text>
				</lyric>
			</note>
			<note>
				<pitch>
					<step>E</step>
					<octave>5</octave>
				</pitch>
				<duration>1</duration>
				<voice>1</voice>
				<type>eighth</type>
				<lyric number="1" name="verse">
					<syllabic>single</syllabic>
					<text>|</text>
				</lyric>
			</note>
			<note>
				<pitch>
					<step>C</step>
					<alter>1</alter>
					<octave>5</octave>
				</pitch>
				<duration>1</duration>
				<voice>1</voice>
				<type>eighth</type>
				<accidental>sharp</accidental>
				<lyric number="1" name="verse">
					<syllabic>single</syllabic>
					<text>nur</text>
				</lyric>
			</note>
			<note>
				<pitch>
					<step>A</step>
					<octave>4</octave>
				</pitch>
				<duration>1</duration>
				<voice>1</voice>
				<type>eighth</type>
				<lyric number="1" name="verse">
					<syllabic>single</syllabic>
					<text>die</text>
				</lyric>
			</note>
		</measure>
		<measure number="16">
			<note>
				<pitch>
					<step>F</step>
					<alter>1</alter>
					<octave>4</octave>
				</pitch>
				<duration>1</duration>
				<voice>1</voice>
				<type>eighth</type>
				<accidental>sharp</accidental>
				<lyric number="1" name="verse">
					<syllabic>single</syllabic>
					<text>Lust</text>
				</lyric>
			</note>
			<note>
				<pitch>
					<step>C</step>
					<alter>1</alter>
					<octave>5</octave>
				</pitch>
				<duration>2</duration>
				<voice>1</voice>
				<type>quarter</type>
				<accidental>sharp</accidental>
				<lyric number="1" name="verse">
					<syllabic>single</syllabic>
					<text>|</text>
				</lyric>
			</note>
			<note>
				<pitch>
					<step>B</step>
					<octave>4</octave>
				</pitch>
				<duration>1</duration>
				<voice>1</voice>
				<type>eighth</type>
				<accidental>natural</accidental>
				<lyric number="1" name="verse">
					<syllabic>single</syllabic>
					<text>her-</text>
				</lyric>
			</note>
			<note>
				<pitch>
					<step>A</step>
					<octave>4</octave>
				</pitch>
				<duration>2</duration>
				<voice>1</voice>
				<type>quarter</type>
				<lyric number="1" name="verse">
					<syllabic>single</syllabic>
					<text>-bei.}</text>
				</lyric>
			</note>
			<note>
				<rest/>
				<duration>2</duration>
				<voice>1</voice>
				<type>quarter</type>
			</note>
		</measure>
		<measure number="17">
			<note>
				<rest/>
				<duration>4</duration>
				<voice>1</voice>
				<type>half</type>
			</note>
			<note>
				<rest/>
				<duration>2</duration>
				<voice>1</voice>
				<type>quarter</type>
			</note>
			<note>
				<rest/>
				<duration>1</duration>
				<voice>1</voice>
				<type>eighth</type>
			</note>
			<note>
				<pitch>
					<step>D</step>
					<octave>5</octave>
				</pitch>
				<duration>1</duration>
				<voice>1</voice>
				<type>eighth</type>
				<lyric number="1" name="verse">
					<syllabic>single</syllabic>
					<text>{Will</text>
				</lyric>
			</note>
		</measure>
		<measure number="18">
			<note>
				<pitch>
					<step>D</step>
					<octave>5</octave>
				</pitch>
				<duration>1</duration>
				<voice>1</voice>
				<type>eighth</type>
				<lyric number="1" name="verse">
					<syllabic>single</syllabic>
					<text>sie</text>
				</lyric>
			</note>
			<note>
				<pitch>
					<step>G</step>
					<octave>5</octave>
				</pitch>
				<duration>1</duration>
				<voice>1</voice>
				<type>eighth</type>
				<lyric number="1" name="verse">
					<syllabic>single</syllabic>
					<text>sich</text>
				</lyric>
			</note>
			<note>
				<pitch>
					<step>G</step>
					<octave>5</octave>
				</pitch>
				<duration>1</duration>
				<voice>1</voice>
				<type>eighth</type>
				<lyric number="1" name="verse">
					<syllabic>single</syllabic>
					<text>night</text>
				</lyric>
			</note>
			<note>
				<pitch>
					<step>C</step>
					<octave>5</octave>
				</pitch>
				<duration>1</duration>
				<voice>1</voice>
				<type>eighth</type>
				<lyric number="1" name="verse">
					<syllabic>single</syllabic>
					<text>be-</text>
				</lyric>
			</note>
			<note>
				<pitch>
					<step>C</step>
					<octave>5</octave>
				</pitch>
				<duration>1</duration>
				<voice>1</voice>
				<type>eighth</type>
				<lyric number="1" name="verse">
					<syllabic>single</syllabic>
					<text>-que-</text>
				</lyric>
			</note>
			<note>
				<pitch>
					<step>A</step>
					<octave>4</octave>
				</pitch>
				<duration>1</duration>
				<voice>1</voice>
				<type>eighth</type>
				<lyric number="1" name="verse">
					<syllabic>single</syllabic>
					<text>|</text>
				</lyric>
			</note>
			<note>
				<pitch>
					<step>G</step>
					<octave>4</octave>
				</pitch>
				<duration>2</duration>
				<voice>1</voice>
				<type>quarter</type>
				<lyric number="1" name="verse">
					<syllabic>single</syllabic>
					<text>-men,</text>
				</lyric>
			</note>
		</measure>
		<measure number="19">
			<note>
				<rest/>
				<duration>1</duration>
				<voice>1</voice>
				<type>eighth</type>
			</note>
			<note>
				<pitch>
					<step>C</step>
					<octave>5</octave>
				</pitch>
				<duration>1</duration>
				<voice>1</voice>
				<type>eighth</type>
				<lyric number="1" name="verse">
					<syllabic>single</syllabic>
					<text>so</text>
				</lyric>
			</note>
			<note>
				<pitch>
					<step>F</step>
					<octave>5</octave>
				</pitch>
				<duration>2</duration>
				<tie type="start"/>
				<voice>1</voice>
				<type>quarter</type>
				<notations>
					<tied type="start"/>
				</notations>
				<lyric number="1" name="verse">
					<syllabic>single</syllabic>
					<text>mu2sst</text>
				</lyric>
			</note>
			<note>
				<pitch>
					<step>F</step>
					<octave>5</octave>
				</pitch>
				<duration>1</duration>
				<tie type="stop"/>
				<voice>1</voice>
				<type>eighth</type>
				<notations>
					<tied type="stop"/>
				</notations>
				<lyric number="1" name="verse">
					<syllabic>single</syllabic>
					<text>|</text>
				</lyric>
			</note>
			<note>
				<pitch>
					<step>F</step>
					<octave>5</octave>
				</pitch>
				<duration>1</duration>
				<voice>1</voice>
				<type>eighth</type>
				<lyric number="1" name="verse">
					<syllabic>single</syllabic>
					<text>ihrs</text>
				</lyric>
			</note>
			<note>
				<pitch>
					<step>F</step>
					<octave>5</octave>
				</pitch>
				<duration>2</duration>
				<tie type="start"/>
				<voice>1</voice>
				<type>quarter</type>
				<notations>
					<tied type="start"/>
				</notations>
				<lyric number="1" name="verse">
					<syllabic>single</syllabic>
					<text>e-</text>
				</lyric>
			</note>
		</measure>
		<measure number="20">
			<note>
				<pitch>
					<step>F</step>
					<octave>5</octave>
				</pitch>
				<duration>1</duration>
				<tie type="stop"/>
				<voice>1</voice>
				<type>eighth</type>
				<notations>
					<tied type="stop"/>
				</notations>
				<lyric number="1" name="verse">
					<syllabic>single</syllabic>
					<text>|</text>
				</lyric>
			</note>
			<note>
				<pitch>
					<step>D</step>
					<octave>5</octave>
				</pitch>
				<duration>1</duration>
				<voice>1</voice>
				<type>eighth</type>
				<lyric number="1" name="verse">
					<syllabic>single</syllabic>
					<text>|</text>
				</lyric>
			</note>
			<note>
				<pitch>
					<step>B</step>
					<octave>4</octave>
				</pitch>
				<duration>1</duration>
				<voice>1</voice>
				<type>eighth</type>
				<accidental>natural</accidental>
				<lyric number="1" name="verse">
					<syllabic>single</syllabic>
					<text>-ben</text>
				</lyric>
			</note>
			<note>
				<pitch>
					<step>E</step>
					<octave>5</octave>
				</pitch>
				<duration>1</duration>
				<voice>1</voice>
				<type>eighth</type>
				<lyric number="1" name="verse">
					<syllabic>single</syllabic>
					<text>|</text>
				</lyric>
			</note>
			<note>
				<pitch>
					<step>E</step>
					<octave>5</octave>
				</pitch>
				<duration>2</duration>
				<voice>1</voice>
				<type>quarter</type>
				<lyric number="1" name="verse">
					<syllabic>single</syllabic>
					<text>neh-</text>
				</lyric>
			</note>
			<note>
				<pitch>
					<step>A</step>
					<octave>4</octave>
				</pitch>
				<duration>2</duration>
				<voice>1</voice>
				<type>quarter</type>
				<lyric number="1" name="verse">
					<syllabic>single</syllabic>
					<text>-men.}</text>
				</lyric>
			</note>
		</measure>
		<measure number="21">
			<note>
				<rest/>
				<duration>4</duration>
				<voice>1</voice>
				<type>half</type>
			</note>
			<note>
				<pitch>
					<step>A</step>
					<octave>4</octave>
				</pitch>
				<duration>2</duration>
				<voice>1</voice>
				<type>quarter</type>
				<lyric number="1" name="verse">
					<syllabic>single</syllabic>
					<text>{Will</text>
				</lyric>
			</note>
			<note>
				<pitch>
					<step>A</step>
					<octave>4</octave>
				</pitch>
				<duration>1</duration>
				<voice>1</voice>
				<type>eighth</type>
				<lyric number="1" name="verse">
					<syllabic>single</syllabic>
					<text>ei-</text>
				</lyric>
			</note>
			<note>
				<pitch>
					<step>A</step>
					<octave>4</octave>
				</pitch>
				<duration>1</duration>
				<voice>1</voice>
				<type>eighth</type>
				<lyric number="1" name="verse">
					<syllabic>single</syllabic>
					<text>-ner</text>
				</lyric>
			</note>
		</measure>
		<measure number="22">
			<note>
				<pitch>
					<step>B</step>
					<alter>-1</alter>
					<octave>4</octave>
				</pitch>
				<duration>2</duration>
				<voice>1</voice>
				<type>quarter</type>
				<lyric number="1" name="verse">
					<syllabic>single</syllabic>
					<text>nicht</text>
				</lyric>
			</note>
			<note>
				<pitch>
					<step>B</step>
					<alter>-1</alter>
					<octave>4</octave>
				</pitch>
				<duration>2</duration>
				<voice>1</voice>
				<type>quarter</type>
				<lyric number="1" name="verse">
					<syllabic>single</syllabic>
					<text>vom</text>
				</lyric>
			</note>
			<note>
				<pitch>
					<step>E</step>
					<octave>5</octave>
				</pitch>
				<duration>4</duration>
				<voice>1</voice>
				<type>half</type>
				<lyric number="1" name="verse">
					<syllabic>single</syllabic>
					<text>Ort,</text>
				</lyric>
			</note>
		</measure>
		<measure number="23">
			<note>
				<rest/>
				<duration>4</duration>
				<voice>1</voice>
				<type>half</type>
			</note>
			<note>
				<pitch>
					<step>F</step>
					<octave>5</octave>
				</pitch>
				<duration>4</duration>
				<voice>1</voice>
				<type>half</type>
				<lyric number="1" name="verse">
					<syllabic>single</syllabic>
					<text>so</text>
				</lyric>
			</note>
		</measure>
		<measure number="24">
			<note>
				<pitch>
					<step>F</step>
					<octave>5</octave>
				</pitch>
				<duration>1</duration>
				<voice>1</voice>
				<type>eighth</type>
				<lyric number="1" name="verse">
					<syllabic>single</syllabic>
					<text>jagt</text>
				</lyric>
			</note>
			<note>
				<pitch>
					<step>E</step>
					<octave>5</octave>
				</pitch>
				<duration>1</duration>
				<voice>1</voice>
				<type>eighth</type>
				<lyric number="1" name="verse">
					<syllabic>single</syllabic>
					<text>ihn</text>
				</lyric>
			</note>
			<note>
				<pitch>
					<step>D</step>
					<octave>5</octave>
				</pitch>
				<duration>1</duration>
				<voice>1</voice>
				<type>eighth</type>
				<lyric number="1" name="verse">
					<syllabic>single</syllabic>
					<text>gra-</text>
				</lyric>
			</note>
			<note>
				<pitch>
					<step>E</step>
					<octave>5</octave>
				</pitch>
				<duration>1</duration>
				<voice>1</voice>
				<type>eighth</type>
				<lyric number="1" name="verse">
					<syllabic>single</syllabic>
					<text>-de</text>
				</lyric>
			</note>
			<note>
				<pitch>
					<step>F</step>
					<octave>5</octave>
				</pitch>
				<duration>2</duration>
				<voice>1</voice>
				<type>quarter</type>
				<lyric number="1" name="verse">
					<syllabic>single</syllabic>
					<text>fort.}</text>
				</lyric>
			</note>
			<note>
				<rest/>
				<duration>2</duration>
				<voice>1</voice>
				<type>quarter</type>
			</note>
		</measure>
		<measure number="25">
			<note>
				<rest/>
				<duration>2</duration>
				<voice>1</voice>
				<type>quarter</type>
			</note>
			<note>
				<pitch>
					<step>D</step>
					<octave>5</octave>
				</pitch>
				<duration>4</duration>
				<voice>1</voice>
				<type>half</type>
				<lyric number="1" name="verse">
					<syllabic>single</syllabic>
					<text>{Lasst</text>
				</lyric>
			</note>
			<note>
				<pitch>
					<step>D</step>
					<octave>5</octave>
				</pitch>
				<duration>2</duration>
				<tie type="start"/>
				<voice>1</voice>
				<type>quarter</type>
				<notations>
					<tied type="start"/>
				</notations>
				<lyric number="1" name="verse">
					<syllabic>single</syllabic>
					<text>al-</text>
				</lyric>
			</note>
		</measure>
		<measure number="26">
			<note>
				<pitch>
					<step>D</step>
					<octave>5</octave>
				</pitch>
				<duration>1</duration>
				<tie type="stop"/>
				<voice>1</voice>
				<type>eighth</type>
				<notations>
					<tied type="stop"/>
				</notations>
				<lyric number="1" name="verse">
					<syllabic>single</syllabic>
					<text>|</text>
				</lyric>
			</note>
			<note>
				<pitch>
					<step>C</step>
					<octave>5</octave>
				</pitch>
				<duration>1</duration>
				<voice>1</voice>
				<type>eighth</type>
				<lyric number="1" name="verse">
					<syllabic>single</syllabic>
					<text>-le</text>
				</lyric>
			</note>
			<note>
				<pitch>
					<step>B</step>
					<octave>4</octave>
				</pitch>
				<duration>1</duration>
				<voice>1</voice>
				<type>eighth</type>
				<accidental>natural</accidental>
				<lyric number="1" name="verse">
					<syllabic>single</syllabic>
					<text>nur</text>
				</lyric>
			</note>
			<note>
				<pitch>
					<step>A</step>
					<octave>4</octave>
				</pitch>
				<duration>1</duration>
				<voice>1</voice>
				<type>eighth</type>
				<lyric number="1" name="verse">
					<syllabic>single</syllabic>
					<text>miss-</text>
				</lyric>
			</note>
			<note>
				<pitch>
					<step>A</step>
					<octave>4</octave>
				</pitch>
				<duration>2</duration>
				<voice>1</voice>
				<type>quarter</type>
				<lyric number="1" name="verse">
					<syllabic>single</syllabic>
					<text>-go2n-</text>
				</lyric>
			</note>
			<note>
				<pitch>
					<step>G</step>
					<alter>1</alter>
					<octave>4</octave>
				</pitch>
				<duration>2</duration>
				<voice>1</voice>
				<type>quarter</type>
				<accidental>sharp</accidental>
				<lyric number="1" name="verse">
					<syllabic>single</syllabic>
					<text>-nen,</text>
				</lyric>
			</note>
		</measure>
		<measure number="27">
			<note>
				<rest/>
				<duration>2</duration>
				<voice>1</voice>
				<type>quarter</type>
			</note>
			<note>
				<pitch>
					<step>B</step>
					<alter>-1</alter>
					<octave>4</octave>
				</pitch>
				<duration>2</duration>
				<tie type="start"/>
				<voice>1</voice>
				<type>quarter</type>
				<accidental>flat</accidental>
				<notations>
					<tied type="start"/>
				</notations>
				<lyric number="1" name="verse">
					<syllabic>single</syllabic>
					<text>was</text>
				</lyric>
			</note>
			<note>
				<pitch>
					<step>B</step>
					<alter>-1</alter>
					<octave>4</octave>
				</pitch>
				<duration>1</duration>
				<tie type="stop"/>
				<voice>1</voice>
				<type>eighth</type>
				<notations>
					<tied type="stop"/>
				</notations>
				<lyric number="1" name="verse">
					<syllabic>single</syllabic>
					<text>|</text>
				</lyric>
			</note>
			<note>
				<pitch>
					<step>B</step>
					<alter>-1</alter>
					<octave>4</octave>
				</pitch>
				<duration>2</duration>
				<voice>1</voice>
				<type>quarter</type>
				<lyric number="1" name="verse">
					<syllabic>single</syllabic>
					<text>sie</text>
				</lyric>
			</note>
			<note>
				<pitch>
					<step>B</step>
					<alter>-1</alter>
					<octave>4</octave>
				</pitch>
				<duration>1</duration>
				<voice>1</voice>
				<type>eighth</type>
				<lyric number="1" name="verse">
					<syllabic>single</syllabic>
					<text>nicht</text>
				</lyric>
			</note>
		</measure>
		<measure number="28">
			<note>
				<pitch>
					<step>G</step>
					<octave>5</octave>
				</pitch>
				<duration>3</duration>
				<voice>1</voice>
				<type>quarter</type>
				<dot/>
				<lyric number="1" name="verse">
					<syllabic>single</syllabic>
					<text>neh-</text>
				</lyric>
			</note>
			<note>
				<pitch>
					<step>F</step>
					<octave>5</octave>
				</pitch>
				<duration>1</duration>
				<voice>1</voice>
				<type>eighth</type>
				<lyric number="1" name="verse">
					<syllabic>single</syllabic>
					<text>-men</text>
				</lyric>
			</note>
			<note>
				<pitch>
					<step>F</step>
					<octave>5</octave>
				</pitch>
				<duration>2</duration>
				<voice>1</voice>
				<type>quarter</type>
				<lyric number="1" name="verse">
					<syllabic>single</syllabic>
					<text>ko2n-</text>
				</lyric>
			</note>
			<note>
				<pitch>
					<step>E</step>
					<octave>5</octave>
				</pitch>
				<duration>2</duration>
				<voice>1</voice>
				<type>quarter</type>
				<lyric number="1" name="verse">
					<syllabic>single</syllabic>
					<text>-nen,}</text>
				</lyric>
			</note>
		</measure>
		<measure number="29">
			<note>
				<rest/>
				<duration>2</duration>
				<voice>1</voice>
				<type>quarter</type>
			</note>
			<note>
				<pitch>
					<step>C</step>
					<octave>5</octave>
				</pitch>
				<duration>2</duration>
				<voice>1</voice>
				<type>quarter</type>
				<lyric number="1" name="verse">
					<syllabic>single</syllabic>
					<text>{und</text>
				</lyric>
			</note>
			<note>
				<pitch>
					<step>C</step>
					<octave>5</octave>
				</pitch>
				<duration>3</duration>
				<voice>1</voice>
				<type>quarter</type>
				<dot/>
				<lyric number="1" name="verse">
					<syllabic>single</syllabic>
					<text>seid</text>
				</lyric>
			</note>
			<note>
				<pitch>
					<step>C</step>
					<octave>5</octave>
				</pitch>
				<duration>1</duration>
				<voice>1</voice>
				<type>eighth</type>
				<lyric number="1" name="verse">
					<syllabic>single</syllabic>
					<text>von</text>
				</lyric>
			</note>
		</measure>
		<measure number="30">
			<note>
				<pitch>
					<step>D</step>
					<octave>5</octave>
				</pitch>
				<duration>2</duration>
				<voice>1</voice>
				<type>quarter</type>
				<lyric number="1" name="verse">
					<syllabic>single</syllabic>
					<text>Her-</text>
				</lyric>
			</note>
			<note>
				<pitch>
					<step>D</step>
					<alter>1</alter>
					<octave>5</octave>
				</pitch>
				<duration>2</duration>
				<voice>1</voice>
				<type>quarter</type>
				<accidental>sharp</accidental>
				<lyric number="1" name="verse">
					<syllabic>single</syllabic>
					<text>-zen</text>
				</lyric>
			</note>
			<note>
				<pitch>
					<step>E</step>
					<octave>5</octave>
				</pitch>
				<duration>4</duration>
				<voice>1</voice>
				<type>half</type>
				<lyric number="1" name="verse">
					<syllabic>single</syllabic>
					<text>froh;</text>
				</lyric>
			</note>
		</measure>
		<measure number="31">
			<note>
				<rest/>
				<duration>2</duration>
				<voice>1</voice>
				<type>quarter</type>
			</note>
			<note>
				<pitch>
					<step>F</step>
					<alter>1</alter>
					<octave>5</octave>
				</pitch>
				<duration>4</duration>
				<voice>1</voice>
				<type>half</type>
				<accidental>sharp</accidental>
				<lyric number="1" name="verse">
					<syllabic>single</syllabic>
					<text>das</text>
				</lyric>
			</note>
			<note>
				<pitch>
					<step>E</step>
					<octave>5</octave>
				</pitch>
				<duration>1</duration>
				<voice>1</voice>
				<type>eighth</type>
				<lyric number="1" name="verse">
					<syllabic>single</syllabic>
					<text>ist</text>
				</lyric>
			</note>
			<note>
				<pitch>
					<step>C</step>
					<alter>1</alter>
					<octave>5</octave>
				</pitch>
				<duration>1</duration>
				<voice>1</voice>
				<type>eighth</type>
				<accidental>sharp</accidental>
				<lyric number="1" name="verse">
					<syllabic>single</syllabic>
					<text>das</text>
				</lyric>
			</note>
		</measure>
		<measure number="32">
			<note>
				<pitch>
					<step>F</step>
					<alter>1</alter>
					<octave>4</octave>
				</pitch>
				<duration>2</duration>
				<voice>1</voice>
				<type>quarter</type>
				<accidental>sharp</accidental>
				<lyric number="1" name="verse">
					<syllabic>single</syllabic>
					<text>A</text>
				</lyric>
			</note>
			<note>
				<pitch>
					<step>G</step>
					<alter>1</alter>
					<octave>4</octave>
				</pitch>
				<duration>2</duration>
				<voice>1</voice>
				<type>quarter</type>
				<accidental>sharp</accidental>
				<lyric number="1" name="verse">
					<syllabic>single</syllabic>
					<text>und</text>
				</lyric>
			</note>
			<note>
				<pitch>
					<step>A</step>
					<octave>4</octave>
				</pitch>
				<duration>2</duration>
				<voice>1</voice>
				<type>quarter</type>
				<lyric number="1" name="verse">
					<syllabic>single</syllabic>
					<text>O.}</text>
				</lyric>
			</note>
			<note>
				<rest/>
				<duration>2</duration>
				<voice>1</voice>
				<type>quarter</type>
			</note>
		</measure>
		<measure number="33">
			<note>
				<rest/>
				<duration>1</duration>
				<voice>1</voice>
				<type>eighth</type>
			</note>
			<note>
				<pitch>
					<step>C</step>
					<octave>5</octave>
				</pitch>
				<duration>1</duration>
				<voice>1</voice>
				<type>eighth</type>
				<lyric number="1" name="verse">
					<syllabic>single</syllabic>
					<text>{So</text>
				</lyric>
			</note>
			<note>
				<pitch>
					<step>C</step>
					<octave>5</octave>
				</pitch>
				<duration>2</duration>
				<tie type="start"/>
				<voice>1</voice>
				<type>quarter</type>
				<notations>
					<tied type="start"/>
				</notations>
				<lyric number="1" name="verse">
					<syllabic>single</syllabic>
					<text>fah-</text>
				</lyric>
			</note>
			<note>
				<pitch>
					<step>C</step>
					<octave>5</octave>
				</pitch>
				<duration>1</duration>
				<tie type="stop"/>
				<voice>1</voice>
				<type>eighth</type>
				<notations>
					<tied type="stop"/>
				</notations>
				<lyric number="1" name="verse">
					<syllabic>single</syllabic>
					<text>|</text>
				</lyric>
			</note>
			<note>
				<pitch>
					<step>C</step>
					<octave>5</octave>
				</pitch>
				<duration>1</duration>
				<voice>1</voice>
				<type>eighth</type>
				<lyric number="1" name="verse">
					<syllabic>single</syllabic>
					<text>-ret</text>
				</lyric>
			</note>
			<note>
				<pitch>
					<step>C</step>
					<octave>5</octave>
				</pitch>
				<duration>2</duration>
				<tie type="start"/>
				<voice>1</voice>
				<type>quarter</type>
				<notations>
					<tied type="start"/>
				</notations>
				<lyric number="1" name="verse">
					<syllabic>single</syllabic>
					<text>fort</text>
				</lyric>
			</note>
		</measure>
		<measure number="34">
			<note>
				<pitch>
					<step>C</step>
					<octave>5</octave>
				</pitch>
				<duration>3</duration>
				<tie type="stop"/>
				<voice>1</voice>
				<type>quarter</type>
				<dot/>
				<notations>
					<tied type="stop"/>
				</notations>
				<lyric number="1" name="verse">
					<syllabic>single</syllabic>
					<text>|</text>
				</lyric>
			</note>
			<note>
				<pitch>
					<step>C</step>
					<octave>5</octave>
				</pitch>
				<duration>1</duration>
				<voice>1</voice>
				<type>eighth</type>
				<lyric number="1" name="verse">
					<syllabic>single</syllabic>
					<text>zu</text>
				</lyric>
			</note>
			<note>
				<pitch>
					<step>D</step>
					<octave>5</octave>
				</pitch>
				<duration>2</duration>
				<voice>1</voice>
				<type>quarter</type>
				<lyric number="1" name="verse">
					<syllabic>single</syllabic>
					<text>dich-</text>
				</lyric>
			</note>
			<note>
				<pitch>
					<step>C</step>
					<octave>5</octave>
				</pitch>
				<duration>2</duration>
				<voice>1</voice>
				<type>quarter</type>
				<lyric number="1" name="verse">
					<syllabic>single</syllabic>
					<text>-ten,</text>
				</lyric>
			</note>
		</measure>
		<measure number="35">
			<note>
				<rest/>
				<duration>2</duration>
				<voice>1</voice>
				<type>quarter</type>
			</note>
			<note>
				<pitch>
					<step>C</step>
					<octave>5</octave>
				</pitch>
				<duration>4</duration>
				<voice>1</voice>
				<type>half</type>
				<lyric number="1" name="verse">
					<syllabic>single</syllabic>
					<text>euch</text>
				</lyric>
			</note>
			<note>
				<pitch>
					<step>C</step>
					<octave>5</octave>
				</pitch>
				<duration>1</duration>
				<voice>1</voice>
				<type>eighth</type>
				<lyric number="1" name="verse">
					<syllabic>single</syllabic>
					<text>nach</text>
				</lyric>
			</note>
			<note>
				<pitch>
					<step>C</step>
					<octave>5</octave>
				</pitch>
				<duration>1</duration>
				<voice>1</voice>
				<type>eighth</type>
				<lyric number="1" name="verse">
					<syllabic>single</syllabic>
					<text>der</text>
				</lyric>
			</note>
		</measure>
		<measure number="36">
			<note>
				<pitch>
					<step>F</step>
					<octave>5</octave>
				</pitch>
				<duration>3</duration>
				<voice>1</voice>
				<type>quarter</type>
				<dot/>
				<lyric number="1" name="verse">
					<syllabic>single</syllabic>
					<text>Welt</text>
				</lyric>
			</note>
			<note>
				<pitch>
					<step>E</step>
					<octave>5</octave>
				</pitch>
				<duration>1</duration>
				<voice>1</voice>
				<type>eighth</type>
				<lyric number="1" name="verse">
					<syllabic>single</syllabic>
					<text>zu</text>
				</lyric>
			</note>
			<note>
				<pitch>
					<step>E</step>
					<octave>5</octave>
				</pitch>
				<duration>2</duration>
				<voice>1</voice>
				<type>quarter</type>
				<lyric number="1" name="verse">
					<syllabic>single</syllabic>
					<text>rich-</text>
				</lyric>
			</note>
			<note>
				<pitch>
					<step>A</step>
					<octave>4</octave>
				</pitch>
				<duration>2</duration>
				<voice>1</voice>
				<type>quarter</type>
				<lyric number="1" name="verse">
					<syllabic>single</syllabic>
					<text>-ten.}</text>
				</lyric>
			</note>
		</measure>
		<measure number="37">
			<note>
				<rest/>
				<duration>2</duration>
				<voice>1</voice>
				<type>quarter</type>
			</note>
			<note>
				<pitch>
					<step>D</step>
					<octave>5</octave>
				</pitch>
				<duration>2</duration>
				<voice>1</voice>
				<type>quarter</type>
				<lyric number="1" name="verse">
					<syllabic>single</syllabic>
					<text>{Be-</text>
				</lyric>
			</note>
			<note>
				<pitch>
					<step>G</step>
					<octave>4</octave>
				</pitch>
				<duration>3</duration>
				<voice>1</voice>
				<type>quarter</type>
				<dot/>
				<lyric number="1" name="verse">
					<syllabic>single</syllabic>
					<text>-denkt</text>
				</lyric>
			</note>
			<note>
				<pitch>
					<step>G</step>
					<octave>4</octave>
				</pitch>
				<duration>1</duration>
				<voice>1</voice>
				<type>eighth</type>
				<lyric number="1" name="verse">
					<syllabic>single</syllabic>
					<text>in</text>
				</lyric>
			</note>
		</measure>
		<measure number="38">
			<note>
				<pitch>
					<step>D</step>
					<octave>5</octave>
				</pitch>
				<duration>2</duration>
				<voice>1</voice>
				<type>quarter</type>
				<lyric number="1" name="verse">
					<syllabic>single</syllabic>
					<text>Wohl</text>
				</lyric>
			</note>
			<note>
				<pitch>
					<step>D</step>
					<octave>5</octave>
				</pitch>
				<duration>2</duration>
				<voice>1</voice>
				<type>quarter</type>
				<lyric number="1" name="verse">
					<syllabic>single</syllabic>
					<text>und</text>
				</lyric>
			</note>
			<note>
				<pitch>
					<step>E</step>
					<octave>5</octave>
				</pitch>
				<duration>4</duration>
				<tie type="start"/>
				<voice>1</voice>
				<type>half</type>
				<notations>
					<tied type="start"/>
				</notations>
				<lyric number="1" name="verse">
					<syllabic>single</syllabic>
					<text>Weh</text>
				</lyric>
			</note>
		</measure>
		<measure number="39">
			<note>
				<pitch>
					<step>E</step>
					<octave>5</octave>
				</pitch>
				<duration>2</duration>
				<tie type="stop"/>
				<voice>1</voice>
				<type>quarter</type>
				<notations>
					<tied type="stop"/>
				</notations>
				<lyric number="1" name="verse">
					<syllabic>single</syllabic>
					<text>|</text>
				</lyric>
			</note>
			<note>
				<pitch>
					<step>E</step>
					<octave>5</octave>
				</pitch>
				<duration>2</duration>
				<voice>1</voice>
				<type>quarter</type>
				<lyric number="1" name="verse">
					<syllabic>single</syllabic>
					<text>dies</text>
				</lyric>
			</note>
			<note>
				<pitch>
					<step>F</step>
					<octave>4</octave>
				</pitch>
				<duration>1</duration>
				<voice>1</voice>
				<type>eighth</type>
				<lyric number="1" name="verse">
					<syllabic>single</syllabic>
					<text>gold-</text>
				</lyric>
			</note>
			<note>
				<pitch>
					<step>G</step>
					<octave>4</octave>
				</pitch>
				<duration>1</duration>
				<voice>1</voice>
				<type>eighth</type>
				<lyric number="1" name="verse">
					<syllabic>single</syllabic>
					<text>|</text>
				</lyric>
			</note>
			<note>
				<pitch>
					<step>F</step>
					<octave>4</octave>
				</pitch>
				<duration>1</duration>
				<voice>1</voice>
				<type>eighth</type>
				<lyric number="1" name="verse">
					<syllabic>single</syllabic>
					<text>-ne</text>
				</lyric>
			</note>
			<note>
				<pitch>
					<step>G</step>
					<octave>4</octave>
				</pitch>
				<duration>1</duration>
				<voice>1</voice>
				<type>eighth</type>
				<lyric number="1" name="verse">
					<syllabic>single</syllabic>
					<text>|</text>
				</lyric>
			</note>
		</measure>
		<measure number="40">
			<note>
				<pitch>
					<step>A</step>
					<octave>4</octave>
				</pitch>
				<duration>2</duration>
				<voice>1</voice>
				<type>quarter</type>
				<lyric number="1" name="verse">
					<syllabic>single</syllabic>
					<text>A</text>
				</lyric>
			</note>
			<note>
				<pitch>
					<step>B</step>
					<octave>4</octave>
				</pitch>
				<duration>2</duration>
				<voice>1</voice>
				<type>quarter</type>
				<accidental>natural</accidental>
				<lyric number="1" name="verse">
					<syllabic>single</syllabic>
					<text>B</text>
				</lyric>
			</note>
			<note>
				<pitch>
					<step>C</step>
					<octave>5</octave>
				</pitch>
				<duration>4</duration>
				<voice>1</voice>
				<type>half</type>
				<lyric number="1" name="verse">
					<syllabic>single</syllabic>
					<text>C,}</text>
				</lyric>
			</note>
		</measure>
		<measure number="41">
			<note>
				<rest/>
				<duration>2</duration>
				<voice>1</voice>
				<type>quarter</type>
			</note>
			<note>
				<pitch>
					<step>E</step>
					<alter>-1</alter>
					<octave>5</octave>
				</pitch>
				<duration>2</duration>
				<voice>1</voice>
				<type>quarter</type>
				<accidental>flat</accidental>
				<lyric number="1" name="verse">
					<syllabic>single</syllabic>
					<text>{dies</text>
				</lyric>
			</note>
			<note>
				<pitch>
					<step>D</step>
					<octave>5</octave>
				</pitch>
				<duration>1</duration>
				<voice>1</voice>
				<type>eighth</type>
				<lyric number="1" name="verse">
					<syllabic>single</syllabic>
					<text>gold-</text>
				</lyric>
			</note>
			<note>
				<pitch>
					<step>F</step>
					<octave>5</octave>
				</pitch>
				<duration>1</duration>
				<voice>1</voice>
				<type>eighth</type>
				<lyric number="1" name="verse">
					<syllabic>single</syllabic>
					<text>|</text>
				</lyric>
			</note>
			<note>
				<pitch>
					<step>E</step>
					<octave>5</octave>
				</pitch>
				<duration>1</duration>
				<voice>1</voice>
				<type>eighth</type>
				<accidental>natural</accidental>
				<lyric number="1" name="verse">
					<syllabic>single</syllabic>
					<text>-ne</text>
				</lyric>
			</note>
			<note>
				<pitch>
					<step>D</step>
					<octave>5</octave>
				</pitch>
				<duration>1</duration>
				<voice>1</voice>
				<type>eighth</type>
				<lyric number="1" name="verse">
					<syllabic>single</syllabic>
					<text>|</text>
				</lyric>
			</note>
		</measure>
		<measure number="42">
			<note>
				<pitch>
					<step>C</step>
					<octave>5</octave>
				</pitch>
				<duration>2</duration>
				<voice>1</voice>
				<type>quarter</type>
				<lyric number="1" name="verse">
					<syllabic>single</syllabic>
					<text>A</text>
				</lyric>
			</note>
			<note>
				<pitch>
					<step>E</step>
					<octave>5</octave>
				</pitch>
				<duration>2</duration>
				<voice>1</voice>
				<type>quarter</type>
				<lyric number="1" name="verse">
					<syllabic>single</syllabic>
					<text>B</text>
				</lyric>
			</note>
			<note>
				<pitch>
					<step>F</step>
					<octave>5</octave>
				</pitch>
				<duration>2</duration>
				<voice>1</voice>
				<type>quarter</type>
				<lyric number="1" name="verse">
					<syllabic>single</syllabic>
					<text>C.}</text>
				</lyric>
			</note>
			<note>
				<rest/>
				<duration>2</duration>
				<voice>1</voice>
				<type>quarter</type>
			</note>
		</measure>
	</part>
</score-partwise>
