<?xml version="1.0" encoding="UTF-8"?>
<!DOCTYPE score-partwise PUBLIC "-//Recordare//DTD MusicXML 2.0 Partwise//EN" "http://www.musicxml.org/dtds/partwise.dtd">
<!-- INFO key="COM" value="Emmanuel Chabrier" -->
<!-- INFO key="CNT" value="Francais" -->
<!-- INFO key="TXO" value="Francais" -->
<!-- INFO key="OTL" value=""Credo d'amour"" -->
<!-- INFO key="LYR" value="Silvestre" -->
<!-- INFO key="OPR" value="" -->
<!-- INFO key="OPS" value=" " -->
<!-- INFO key="ONM" value=" " -->
<!-- INFO key="ENC" value="Emily Thomas" -->
<!-- INFO key="YOR" value="CD Sheet Music French Art Songs, The Ultimate Collection" -->
<!-- INFO key="YOR" value="CD Sheet Music, LLC 2003" -->
<!-- INFO key="ODT" value="1883/" -->
<!-- GCOMMENT value="NB: Vocal melody and text encoded." -->
<score-partwise version="2.0">
	<part-list>
		<score-part id="P1">
			<part-name></part-name>
		</score-part>
	</part-list>

	<part id="P1">
		<measure number="1">
			<attributes>
				<divisions>12</divisions>
			</attributes>
			<attributes>
				<clef>
					<sign>G</sign>
					<line>2</line>
				</clef>
			</attributes>
			<attributes>
				<key>
					<fifths>-2</fifths>
				</key>
			</attributes>
			<attributes>
				<time>
					<beats>3</beats>
					<beat-type>4</beat-type>
				</time>
			</attributes>
			<note>
				<rest/>
				<duration>36</duration>
				<voice>1</voice>
				<type>half</type>
				<dot/>
			</note>
		</measure>
		<measure number="2">
			<note>
				<rest/>
				<duration>36</duration>
				<voice>1</voice>
				<type>half</type>
				<dot/>
			</note>
		</measure>
		<measure number="3">
			<note>
				<rest/>
				<duration>36</duration>
				<voice>1</voice>
				<type>half</type>
				<dot/>
			</note>
		</measure>
		<measure number="4">
			<note>
				<rest/>
				<duration>36</duration>
				<voice>1</voice>
				<type>half</type>
				<dot/>
			</note>
		</measure>
		<measure number="5">
			<note>
				<rest/>
				<duration>12</duration>
				<voice>1</voice>
				<type>quarter</type>
			</note>
			<note>
				<rest/>
				<duration>12</duration>
				<voice>1</voice>
				<type>quarter</type>
			</note>
			<note>
				<pitch>
					<step>B</step>
					<alter>-1</alter>
					<octave>4</octave>
				</pitch>
				<duration>12</duration>
				<voice>1</voice>
				<type>quarter</type>
				<lyric number="1" name="verse">
					<syllabic>single</syllabic>
					<text>{Je</text>
				</lyric>
			</note>
		</measure>
		<measure number="6">
			<note>
				<pitch>
					<step>C</step>
					<octave>5</octave>
				</pitch>
				<duration>36</duration>
				<tie type="start"/>
				<voice>1</voice>
				<type>half</type>
				<dot/>
				<notations>
					<tied type="start"/>
				</notations>
				<lyric number="1" name="verse">
					<syllabic>single</syllabic>
					<text>crois</text>
				</lyric>
			</note>
		</measure>
		<measure number="7">
			<note>
				<pitch>
					<step>C</step>
					<octave>5</octave>
				</pitch>
				<duration>6</duration>
				<tie type="stop"/>
				<voice>1</voice>
				<type>eighth</type>
				<notations>
					<tied type="stop"/>
				</notations>
				<lyric number="1" name="verse">
					<syllabic>single</syllabic>
					<text>|</text>
				</lyric>
			</note>
			<note>
				<pitch>
					<step>B</step>
					<alter>-1</alter>
					<octave>4</octave>
				</pitch>
				<duration>6</duration>
				<voice>1</voice>
				<type>eighth</type>
				<lyric number="1" name="verse">
					<syllabic>single</syllabic>
					<text>aux</text>
				</lyric>
			</note>
			<note>
				<pitch>
					<step>A</step>
					<alter>-1</alter>
					<octave>4</octave>
				</pitch>
				<duration>6</duration>
				<voice>1</voice>
				<type>eighth</type>
				<accidental>flat</accidental>
				<lyric number="1" name="verse">
					<syllabic>single</syllabic>
					<text>cho-</text>
				</lyric>
			</note>
			<note>
				<pitch>
					<step>C</step>
					<octave>5</octave>
				</pitch>
				<duration>6</duration>
				<voice>1</voice>
				<type>eighth</type>
				<lyric number="1" name="verse">
					<syllabic>single</syllabic>
					<text>-ses</text>
				</lyric>
			</note>
			<note>
				<pitch>
					<step>B</step>
					<alter>-1</alter>
					<octave>4</octave>
				</pitch>
				<duration>6</duration>
				<voice>1</voice>
				<type>eighth</type>
				<lyric number="1" name="verse">
					<syllabic>single</syllabic>
					<text>e/-</text>
				</lyric>
			</note>
			<note>
				<pitch>
					<step>A</step>
					<alter>-1</alter>
					<octave>4</octave>
				</pitch>
				<duration>6</duration>
				<voice>1</voice>
				<type>eighth</type>
				<lyric number="1" name="verse">
					<syllabic>single</syllabic>
					<text>-ter-</text>
				</lyric>
			</note>
		</measure>
		<measure number="8">
			<note>
				<pitch>
					<step>G</step>
					<octave>4</octave>
				</pitch>
				<duration>6</duration>
				<voice>1</voice>
				<type>eighth</type>
				<lyric number="1" name="verse">
					<syllabic>single</syllabic>
					<text>-nel-</text>
				</lyric>
			</note>
			<note>
				<pitch>
					<step>A</step>
					<alter>-1</alter>
					<octave>4</octave>
				</pitch>
				<duration>6</duration>
				<voice>1</voice>
				<type>eighth</type>
				<accidental>flat</accidental>
				<lyric number="1" name="verse">
					<syllabic>single</syllabic>
					<text>|</text>
				</lyric>
			</note>
			<note>
				<pitch>
					<step>B</step>
					<alter>-1</alter>
					<octave>4</octave>
				</pitch>
				<duration>6</duration>
				<voice>1</voice>
				<type>eighth</type>
				<lyric number="1" name="verse">
					<syllabic>single</syllabic>
					<text>-les</text>
				</lyric>
			</note>
			<note>
				<pitch>
					<step>E</step>
					<alter>-1</alter>
					<octave>4</octave>
				</pitch>
				<duration>6</duration>
				<voice>1</voice>
				<type>eighth</type>
				<lyric number="1" name="verse">
					<syllabic>single</syllabic>
					<text>De</text>
				</lyric>
			</note>
			<note>
				<pitch>
					<step>F</step>
					<octave>4</octave>
				</pitch>
				<duration>6</duration>
				<voice>1</voice>
				<type>eighth</type>
				<lyric number="1" name="verse">
					<syllabic>single</syllabic>
					<text>la</text>
				</lyric>
			</note>
			<note>
				<pitch>
					<step>G</step>
					<octave>4</octave>
				</pitch>
				<duration>6</duration>
				<voice>1</voice>
				<type>eighth</type>
				<lyric number="1" name="verse">
					<syllabic>single</syllabic>
					<text>lu-</text>
				</lyric>
			</note>
		</measure>
		<measure number="9">
			<note>
				<pitch>
					<step>B</step>
					<alter>-1</alter>
					<octave>4</octave>
				</pitch>
				<duration>6</duration>
				<voice>1</voice>
				<type>eighth</type>
				<lyric number="1" name="verse">
					<syllabic>single</syllabic>
					<text>-mie/re</text>
				</lyric>
			</note>
			<note>
				<pitch>
					<step>E</step>
					<alter>-1</alter>
					<octave>5</octave>
				</pitch>
				<duration>6</duration>
				<voice>1</voice>
				<type>eighth</type>
				<lyric number="1" name="verse">
					<syllabic>single</syllabic>
					<text>et</text>
				</lyric>
			</note>
			<note>
				<pitch>
					<step>E</step>
					<alter>-1</alter>
					<octave>5</octave>
				</pitch>
				<duration>12</duration>
				<voice>1</voice>
				<type>quarter</type>
				<lyric number="1" name="verse">
					<syllabic>single</syllabic>
					<text>de</text>
				</lyric>
			</note>
			<note>
				<pitch>
					<step>D</step>
					<octave>5</octave>
				</pitch>
				<duration>6</duration>
				<voice>1</voice>
				<type>eighth</type>
				<lyric number="1" name="verse">
					<syllabic>single</syllabic>
					<text>l'a-</text>
				</lyric>
			</note>
			<note>
				<pitch>
					<step>C</step>
					<octave>5</octave>
				</pitch>
				<duration>6</duration>
				<voice>1</voice>
				<type>eighth</type>
				<lyric number="1" name="verse">
					<syllabic>single</syllabic>
					<text>|</text>
				</lyric>
			</note>
		</measure>
		<measure number="10">
			<note>
				<pitch>
					<step>D</step>
					<octave>5</octave>
				</pitch>
				<duration>24</duration>
				<tie type="start"/>
				<voice>1</voice>
				<type>half</type>
				<notations>
					<tied type="start"/>
				</notations>
				<lyric number="1" name="verse">
					<syllabic>single</syllabic>
					<text>-mour!</text>
				</lyric>
			</note>
			<note>
				<pitch>
					<step>D</step>
					<octave>5</octave>
				</pitch>
				<duration>6</duration>
				<tie type="stop"/>
				<voice>1</voice>
				<type>eighth</type>
				<notations>
					<tied type="stop"/>
				</notations>
				<lyric number="1" name="verse">
					<syllabic>single</syllabic>
					<text>|}</text>
				</lyric>
			</note>
			<note>
				<pitch>
					<step>D</step>
					<octave>4</octave>
				</pitch>
				<duration>6</duration>
				<voice>1</voice>
				<type>eighth</type>
				<lyric number="1" name="verse">
					<syllabic>single</syllabic>
					<text>{Car</text>
				</lyric>
			</note>
		</measure>
		<measure number="11">
			<note>
				<pitch>
					<step>F</step>
					<octave>4</octave>
				</pitch>
				<duration>6</duration>
				<voice>1</voice>
				<type>eighth</type>
				<lyric number="1" name="verse">
					<syllabic>single</syllabic>
					<text>la</text>
				</lyric>
			</note>
			<note>
				<pitch>
					<step>A</step>
					<octave>4</octave>
				</pitch>
				<duration>6</duration>
				<voice>1</voice>
				<type>eighth</type>
				<lyric number="1" name="verse">
					<syllabic>single</syllabic>
					<text>beau-</text>
				</lyric>
			</note>
			<note>
				<pitch>
					<step>G</step>
					<octave>4</octave>
				</pitch>
				<duration>12</duration>
				<tie type="start"/>
				<voice>1</voice>
				<type>quarter</type>
				<notations>
					<tied type="start"/>
				</notations>
				<lyric number="1" name="verse">
					<syllabic>single</syllabic>
					<text>-te/</text>
				</lyric>
			</note>
			<note>
				<pitch>
					<step>G</step>
					<octave>4</octave>
				</pitch>
				<duration>6</duration>
				<tie type="stop"/>
				<voice>1</voice>
				<type>eighth</type>
				<notations>
					<tied type="stop"/>
				</notations>
				<lyric number="1" name="verse">
					<syllabic>single</syllabic>
					<text>|</text>
				</lyric>
			</note>
			<note>
				<pitch>
					<step>E</step>
					<alter>-1</alter>
					<octave>4</octave>
				</pitch>
				<duration>6</duration>
				<voice>1</voice>
				<type>eighth</type>
				<lyric number="1" name="verse">
					<syllabic>single</syllabic>
					<text>com-</text>
				</lyric>
			</note>
		</measure>
		<measure number="12">
			<note>
				<pitch>
					<step>G</step>
					<octave>4</octave>
				</pitch>
				<duration>6</duration>
				<voice>1</voice>
				<type>eighth</type>
				<lyric number="1" name="verse">
					<syllabic>single</syllabic>
					<text>-me</text>
				</lyric>
			</note>
			<note>
				<pitch>
					<step>B</step>
					<alter>-1</alter>
					<octave>4</octave>
				</pitch>
				<duration>6</duration>
				<voice>1</voice>
				<type>eighth</type>
				<lyric number="1" name="verse">
					<syllabic>single</syllabic>
					<text>le</text>
				</lyric>
			</note>
			<note>
				<pitch>
					<step>A</step>
					<octave>4</octave>
				</pitch>
				<duration>6</duration>
				<voice>1</voice>
				<type>eighth</type>
				<lyric number="1" name="verse">
					<syllabic>single</syllabic>
					<text>jour,}</text>
				</lyric>
			</note>
			<note>
				<pitch>
					<step>A</step>
					<octave>4</octave>
				</pitch>
				<duration>6</duration>
				<voice>1</voice>
				<type>eighth</type>
				<lyric number="1" name="verse">
					<syllabic>single</syllabic>
					<text>{Al-</text>
				</lyric>
			</note>
			<note>
				<pitch>
					<step>D</step>
					<octave>5</octave>
				</pitch>
				<duration>12</duration>
				<tie type="start"/>
				<voice>1</voice>
				<type>quarter</type>
				<notations>
					<tied type="start"/>
				</notations>
				<lyric number="1" name="verse">
					<syllabic>single</syllabic>
					<text>-lu-</text>
				</lyric>
			</note>
		</measure>
		<measure number="13">
			<note>
				<pitch>
					<step>D</step>
					<octave>5</octave>
				</pitch>
				<duration>6</duration>
				<tie type="stop"/>
				<voice>1</voice>
				<type>eighth</type>
				<notations>
					<tied type="stop"/>
				</notations>
				<lyric number="1" name="verse">
					<syllabic>single</syllabic>
					<text>-me</text>
				</lyric>
			</note>
			<note>
				<pitch>
					<step>A</step>
					<octave>4</octave>
				</pitch>
				<duration>6</duration>
				<voice>1</voice>
				<type>eighth</type>
				<lyric number="1" name="verse">
					<syllabic>single</syllabic>
					<text>un</text>
				</lyric>
			</note>
			<note>
				<pitch>
					<step>C</step>
					<octave>5</octave>
				</pitch>
				<duration>18</duration>
				<voice>1</voice>
				<type>quarter</type>
				<dot/>
				<lyric number="1" name="verse">
					<syllabic>single</syllabic>
					<text>feu</text>
				</lyric>
			</note>
			<note>
				<pitch>
					<step>B</step>
					<alter>-1</alter>
					<octave>4</octave>
				</pitch>
				<duration>6</duration>
				<voice>1</voice>
				<type>eighth</type>
				<lyric number="1" name="verse">
					<syllabic>single</syllabic>
					<text>dans</text>
				</lyric>
			</note>
		</measure>
		<measure number="14">
			<note>
				<pitch>
					<step>A</step>
					<octave>4</octave>
				</pitch>
				<duration>6</duration>
				<voice>1</voice>
				<type>eighth</type>
				<lyric number="1" name="verse">
					<syllabic>single</syllabic>
					<text>les</text>
				</lyric>
			</note>
			<note>
				<pitch>
					<step>D</step>
					<octave>4</octave>
				</pitch>
				<duration>6</duration>
				<voice>1</voice>
				<type>eighth</type>
				<lyric number="1" name="verse">
					<syllabic>single</syllabic>
					<text>pru-</text>
				</lyric>
			</note>
			<note>
				<pitch>
					<step>G</step>
					<octave>4</octave>
				</pitch>
				<duration>18</duration>
				<voice>1</voice>
				<type>quarter</type>
				<dot/>
				<lyric number="1" name="verse">
					<syllabic>single</syllabic>
					<text>-nel-</text>
				</lyric>
			</note>
			<note>
				<pitch>
					<step>F</step>
					<alter>1</alter>
					<octave>4</octave>
				</pitch>
				<duration>3</duration>
				<voice>1</voice>
				<type>16th</type>
				<accidental>sharp</accidental>
				<lyric number="1" name="verse">
					<syllabic>single</syllabic>
					<text>|</text>
				</lyric>
			</note>
			<note>
				<pitch>
					<step>E</step>
					<octave>4</octave>
				</pitch>
				<duration>3</duration>
				<voice>1</voice>
				<type>16th</type>
				<accidental>natural</accidental>
				<lyric number="1" name="verse">
					<syllabic>single</syllabic>
					<text>|</text>
				</lyric>
			</note>
		</measure>
		<measure number="15">
			<note>
				<pitch>
					<step>D</step>
					<octave>4</octave>
				</pitch>
				<duration>12</duration>
				<tie type="start"/>
				<voice>1</voice>
				<type>quarter</type>
				<notations>
					<tied type="start"/>
				</notations>
				<lyric number="1" name="verse">
					<syllabic>single</syllabic>
					<text>-les!</text>
				</lyric>
			</note>
			<note>
				<pitch>
					<step>D</step>
					<octave>4</octave>
				</pitch>
				<duration>6</duration>
				<tie type="stop"/>
				<voice>1</voice>
				<type>eighth</type>
				<notations>
					<tied type="stop"/>
				</notations>
				<lyric number="1" name="verse">
					<syllabic>single</syllabic>
					<text>|}</text>
				</lyric>
			</note>
			<note>
				<rest/>
				<duration>6</duration>
				<voice>1</voice>
				<type>eighth</type>
			</note>
			<note>
				<pitch>
					<step>F</step>
					<octave>4</octave>
				</pitch>
				<duration>9</duration>
				<voice>1</voice>
				<type>eighth</type>
				<dot/>
				<accidental>natural</accidental>
				<lyric number="1" name="verse">
					<syllabic>single</syllabic>
					<text>{Car</text>
				</lyric>
			</note>
			<note>
				<pitch>
					<step>F</step>
					<alter>1</alter>
					<octave>4</octave>
				</pitch>
				<duration>3</duration>
				<voice>1</voice>
				<type>16th</type>
				<accidental>sharp</accidental>
				<lyric number="1" name="verse">
					<syllabic>single</syllabic>
					<text>les</text>
				</lyric>
			</note>
		</measure>
		<measure number="16">
			<note>
				<pitch>
					<step>F</step>
					<alter>1</alter>
					<octave>4</octave>
				</pitch>
				<duration>12</duration>
				<voice>1</voice>
				<type>quarter</type>
				<accidental>sharp</accidental>
				<lyric number="1" name="verse">
					<syllabic>single</syllabic>
					<text>fem-</text>
				</lyric>
			</note>
			<note>
				<pitch>
					<step>G</step>
					<octave>4</octave>
				</pitch>
				<duration>4</duration>
				<voice>1</voice>
				<type>eighth</type>
				<time-modification>
					<actual-notes>3</actual-notes>
					<normal-notes>2</normal-notes>
				</time-modification>
				<lyric number="1" name="verse">
					<syllabic>single</syllabic>
					<text>-mes</text>
				</lyric>
			</note>
			<note>
				<rest/>
				<duration>4</duration>
				<voice>1</voice>
				<type>eighth</type>
				<time-modification>
					<actual-notes>3</actual-notes>
					<normal-notes>2</normal-notes>
				</time-modification>
			</note>
			<note>
				<pitch>
					<step>C</step>
					<octave>4</octave>
				</pitch>
				<duration>4</duration>
				<voice>1</voice>
				<type>eighth</type>
				<time-modification>
					<actual-notes>3</actual-notes>
					<normal-notes>2</normal-notes>
				</time-modification>
				<lyric number="1" name="verse">
					<syllabic>single</syllabic>
					<text>por-</text>
				</lyric>
			</note>
			<note>
				<pitch>
					<step>E</step>
					<alter>-1</alter>
					<octave>4</octave>
				</pitch>
				<duration>4</duration>
				<voice>1</voice>
				<type>eighth</type>
				<time-modification>
					<actual-notes>3</actual-notes>
					<normal-notes>2</normal-notes>
				</time-modification>
				<lyric number="1" name="verse">
					<syllabic>single</syllabic>
					<text>-tent</text>
				</lyric>
			</note>
			<note>
				<pitch>
					<step>G</step>
					<octave>4</octave>
				</pitch>
				<duration>4</duration>
				<voice>1</voice>
				<type>eighth</type>
				<time-modification>
					<actual-notes>3</actual-notes>
					<normal-notes>2</normal-notes>
				</time-modification>
				<lyric number="1" name="verse">
					<syllabic>single</syllabic>
					<text>|</text>
				</lyric>
			</note>
			<note>
				<pitch>
					<step>B</step>
					<alter>-1</alter>
					<octave>4</octave>
				</pitch>
				<duration>4</duration>
				<voice>1</voice>
				<type>eighth</type>
				<time-modification>
					<actual-notes>3</actual-notes>
					<normal-notes>2</normal-notes>
				</time-modification>
				<lyric number="1" name="verse">
					<syllabic>single</syllabic>
					<text>en</text>
				</lyric>
			</note>
		</measure>
		<measure number="17">
			<note>
				<pitch>
					<step>E</step>
					<alter>-1</alter>
					<octave>5</octave>
				</pitch>
				<duration>12</duration>
				<voice>1</voice>
				<type>quarter</type>
				<lyric number="1" name="verse">
					<syllabic>single</syllabic>
					<text>el-</text>
				</lyric>
			</note>
			<note>
				<pitch>
					<step>A</step>
					<octave>4</octave>
				</pitch>
				<duration>12</duration>
				<voice>1</voice>
				<type>quarter</type>
				<lyric number="1" name="verse">
					<syllabic>single</syllabic>
					<text>-les</text>
				</lyric>
			</note>
			<note>
				<pitch>
					<step>A</step>
					<octave>4</octave>
				</pitch>
				<duration>6</duration>
				<voice>1</voice>
				<type>eighth</type>
				<lyric number="1" name="verse">
					<syllabic>single</syllabic>
					<text>L'ombre</text>
				</lyric>
			</note>
			<note>
				<pitch>
					<step>G</step>
					<octave>4</octave>
				</pitch>
				<duration>6</duration>
				<voice>1</voice>
				<type>eighth</type>
				<lyric number="1" name="verse">
					<syllabic>single</syllabic>
					<text>et</text>
				</lyric>
			</note>
		</measure>
		<measure number="18">
			<note>
				<pitch>
					<step>G</step>
					<octave>4</octave>
				</pitch>
				<duration>6</duration>
				<voice>1</voice>
				<type>eighth</type>
				<lyric number="1" name="verse">
					<syllabic>single</syllabic>
					<text>la</text>
				</lyric>
			</note>
			<note>
				<pitch>
					<step>F</step>
					<octave>4</octave>
				</pitch>
				<duration>6</duration>
				<voice>1</voice>
				<type>eighth</type>
				<lyric number="1" name="verse">
					<syllabic>single</syllabic>
					<text>clar-</text>
				</lyric>
			</note>
			<note>
				<pitch>
					<step>B</step>
					<alter>-1</alter>
					<octave>4</octave>
				</pitch>
				<duration>12</duration>
				<voice>1</voice>
				<type>quarter</type>
				<lyric number="1" name="verse">
					<syllabic>single</syllabic>
					<text>-te/</text>
				</lyric>
			</note>
			<note>
				<pitch>
					<step>G</step>
					<octave>4</octave>
				</pitch>
				<duration>4</duration>
				<voice>1</voice>
				<type>eighth</type>
				<time-modification>
					<actual-notes>3</actual-notes>
					<normal-notes>2</normal-notes>
				</time-modification>
				<lyric number="1" name="verse">
					<syllabic>single</syllabic>
					<text>tour</text>
				</lyric>
			</note>
			<note>
				<pitch>
					<step>A</step>
					<octave>4</octave>
				</pitch>
				<duration>4</duration>
				<voice>1</voice>
				<type>eighth</type>
				<time-modification>
					<actual-notes>3</actual-notes>
					<normal-notes>2</normal-notes>
				</time-modification>
				<lyric number="1" name="verse">
					<syllabic>single</syllabic>
					<text>|</text>
				</lyric>
			</note>
			<note>
				<pitch>
					<step>B</step>
					<alter>-1</alter>
					<octave>4</octave>
				</pitch>
				<duration>4</duration>
				<voice>1</voice>
				<type>eighth</type>
				<time-modification>
					<actual-notes>3</actual-notes>
					<normal-notes>2</normal-notes>
				</time-modification>
				<lyric number="1" name="verse">
					<syllabic>single</syllabic>
					<text>a\</text>
				</lyric>
			</note>
		</measure>
		<measure number="19">
			<note>
				<pitch>
					<step>C</step>
					<octave>5</octave>
				</pitch>
				<duration>36</duration>
				<voice>1</voice>
				<type>half</type>
				<dot/>
				<lyric number="1" name="verse">
					<syllabic>single</syllabic>
					<text>tour!}</text>
				</lyric>
			</note>
		</measure>
		<measure number="20">
			<note>
				<pitch>
					<step>B</step>
					<alter>-1</alter>
					<octave>4</octave>
				</pitch>
				<duration>12</duration>
				<voice>1</voice>
				<type>quarter</type>
				<lyric number="1" name="verse">
					<syllabic>single</syllabic>
					<text>{Je</text>
				</lyric>
			</note>
			<note>
				<pitch>
					<step>F</step>
					<octave>5</octave>
				</pitch>
				<duration>24</duration>
				<tie type="start"/>
				<voice>1</voice>
				<type>half</type>
				<notations>
					<tied type="start"/>
				</notations>
				<lyric number="1" name="verse">
					<syllabic>single</syllabic>
					<text>crois</text>
				</lyric>
			</note>
		</measure>
		<measure number="21">
			<note>
				<pitch>
					<step>F</step>
					<octave>5</octave>
				</pitch>
				<duration>6</duration>
				<tie type="stop"/>
				<voice>1</voice>
				<type>eighth</type>
				<notations>
					<tied type="stop"/>
				</notations>
				<lyric number="1" name="verse">
					<syllabic>single</syllabic>
					<text>|</text>
				</lyric>
			</note>
			<note>
				<pitch>
					<step>E</step>
					<alter>-1</alter>
					<octave>5</octave>
				</pitch>
				<duration>6</duration>
				<voice>1</voice>
				<type>eighth</type>
				<lyric number="1" name="verse">
					<syllabic>single</syllabic>
					<text>aux</text>
				</lyric>
			</note>
			<note>
				<pitch>
					<step>D</step>
					<octave>5</octave>
				</pitch>
				<duration>6</duration>
				<voice>1</voice>
				<type>eighth</type>
				<lyric number="1" name="verse">
					<syllabic>single</syllabic>
					<text>chos-</text>
				</lyric>
			</note>
			<note>
				<pitch>
					<step>C</step>
					<octave>5</octave>
				</pitch>
				<duration>6</duration>
				<voice>1</voice>
				<type>eighth</type>
				<lyric number="1" name="verse">
					<syllabic>single</syllabic>
					<text>-es</text>
				</lyric>
			</note>
			<note>
				<pitch>
					<step>E</step>
					<alter>-1</alter>
					<octave>5</octave>
				</pitch>
				<duration>6</duration>
				<voice>1</voice>
				<type>eighth</type>
				<lyric number="1" name="verse">
					<syllabic>single</syllabic>
					<text>e/-</text>
				</lyric>
			</note>
			<note>
				<pitch>
					<step>D</step>
					<octave>5</octave>
				</pitch>
				<duration>6</duration>
				<voice>1</voice>
				<type>eighth</type>
				<lyric number="1" name="verse">
					<syllabic>single</syllabic>
					<text>-ter-</text>
				</lyric>
			</note>
		</measure>
		<measure number="22">
			<note>
				<pitch>
					<step>C</step>
					<octave>5</octave>
				</pitch>
				<duration>6</duration>
				<voice>1</voice>
				<type>eighth</type>
				<lyric number="1" name="verse">
					<syllabic>single</syllabic>
					<text>-nel-</text>
				</lyric>
			</note>
			<note>
				<pitch>
					<step>B</step>
					<alter>-1</alter>
					<octave>4</octave>
				</pitch>
				<duration>6</duration>
				<voice>1</voice>
				<type>eighth</type>
				<lyric number="1" name="verse">
					<syllabic>single</syllabic>
					<text>|</text>
				</lyric>
			</note>
			<note>
				<pitch>
					<step>A</step>
					<octave>4</octave>
				</pitch>
				<duration>6</duration>
				<voice>1</voice>
				<type>eighth</type>
				<lyric number="1" name="verse">
					<syllabic>single</syllabic>
					<text>-les</text>
				</lyric>
			</note>
			<note>
				<pitch>
					<step>G</step>
					<octave>4</octave>
				</pitch>
				<duration>6</duration>
				<voice>1</voice>
				<type>eighth</type>
				<lyric number="1" name="verse">
					<syllabic>single</syllabic>
					<text>De</text>
				</lyric>
			</note>
			<note>
				<pitch>
					<step>C</step>
					<octave>5</octave>
				</pitch>
				<duration>6</duration>
				<voice>1</voice>
				<type>eighth</type>
				<lyric number="1" name="verse">
					<syllabic>single</syllabic>
					<text>la</text>
				</lyric>
			</note>
			<note>
				<pitch>
					<step>B</step>
					<alter>-1</alter>
					<octave>4</octave>
				</pitch>
				<duration>6</duration>
				<voice>1</voice>
				<type>eighth</type>
				<lyric number="1" name="verse">
					<syllabic>single</syllabic>
					<text>lum-</text>
				</lyric>
			</note>
		</measure>
		<measure number="23">
			<note>
				<pitch>
					<step>A</step>
					<octave>4</octave>
				</pitch>
				<duration>6</duration>
				<voice>1</voice>
				<type>eighth</type>
				<lyric number="1" name="verse">
					<syllabic>single</syllabic>
					<text>-ie\re</text>
				</lyric>
			</note>
			<note>
				<pitch>
					<step>G</step>
					<octave>4</octave>
				</pitch>
				<duration>6</duration>
				<voice>1</voice>
				<type>eighth</type>
				<lyric number="1" name="verse">
					<syllabic>single</syllabic>
					<text>et</text>
				</lyric>
			</note>
			<note>
				<pitch>
					<step>G</step>
					<octave>4</octave>
				</pitch>
				<duration>18</duration>
				<voice>1</voice>
				<type>quarter</type>
				<dot/>
				<lyric number="1" name="verse">
					<syllabic>single</syllabic>
					<text>de</text>
				</lyric>
			</note>
			<note>
				<pitch>
					<step>F</step>
					<octave>4</octave>
				</pitch>
				<duration>6</duration>
				<voice>1</voice>
				<type>eighth</type>
				<lyric number="1" name="verse">
					<syllabic>single</syllabic>
					<text>l'a-</text>
				</lyric>
			</note>
		</measure>
		<measure number="24">
			<note>
				<pitch>
					<step>B</step>
					<alter>-1</alter>
					<octave>4</octave>
				</pitch>
				<duration>36</duration>
				<voice>1</voice>
				<type>half</type>
				<dot/>
				<lyric number="1" name="verse">
					<syllabic>single</syllabic>
					<text>-mour!}</text>
				</lyric>
			</note>
		</measure>
	</part>
</score-partwise>
