<?xml version="1.0" encoding="UTF-8"?>
<!DOCTYPE score-partwise PUBLIC "-//Recordare//DTD MusicXML 2.0 Partwise//EN" "http://www.musicxml.org/dtds/partwise.dtd">
<!-- INFO key="COM" value="Ce/cile Chaminade" -->
<!-- INFO key="CNT" value="Francais" -->
<!-- INFO key="TXO" value="Francais" -->
<!-- INFO key="OTL" value=""Amour d'automne"" -->
<!-- INFO key="LYR" value="Silvestre, Armand" -->
<!-- INFO key="ENC" value="Amanda Harris" -->
<!-- INFO key="YOR" value="Album of Songs, Volume 1" -->
<!-- INFO key="YOR" value="Da Capo Press" -->
<!-- INFO key="ODT" value="1889/" -->
<!-- GCOMMENT value="NB: Vocal melody and text encoded" -->
<score-partwise version="2.0">
	<part-list>
		<score-part id="P1">
			<part-name></part-name>
		</score-part>
	</part-list>

	<part id="P1">
		<measure number="1">
			<attributes>
				<divisions>12</divisions>
			</attributes>
			<attributes>
				<clef>
					<sign>G</sign>
					<line>2</line>
				</clef>
			</attributes>
			<attributes>
				<key>
					<fifths>-3</fifths>
				</key>
			</attributes>
			<attributes>
				<time>
					<beats>2</beats>
					<beat-type>4</beat-type>
				</time>
			</attributes>
			<note>
				<rest/>
				<duration>12</duration>
				<voice>1</voice>
				<type>quarter</type>
			</note>
			<note>
				<pitch>
					<step>E</step>
					<alter>-1</alter>
					<octave>4</octave>
				</pitch>
				<duration>6</duration>
				<voice>1</voice>
				<type>eighth</type>
				<lyric number="1" name="verse">
					<syllabic>single</syllabic>
					<text>{L'a^pre</text>
				</lyric>
			</note>
			<note>
				<pitch>
					<step>B</step>
					<alter>-1</alter>
					<octave>4</octave>
				</pitch>
				<duration>6</duration>
				<voice>1</voice>
				<type>eighth</type>
				<lyric number="1" name="verse">
					<syllabic>single</syllabic>
					<text>hi-</text>
				</lyric>
			</note>
		</measure>
		<measure number="2">
			<note>
				<pitch>
					<step>B</step>
					<alter>-1</alter>
					<octave>4</octave>
				</pitch>
				<duration>12</duration>
				<voice>1</voice>
				<type>quarter</type>
				<lyric number="1" name="verse">
					<syllabic>single</syllabic>
					<text>-ver</text>
				</lyric>
			</note>
			<note>
				<pitch>
					<step>A</step>
					<alter>-1</alter>
					<octave>4</octave>
				</pitch>
				<duration>3</duration>
				<voice>1</voice>
				<type>16th</type>
				<lyric number="1" name="verse">
					<syllabic>single</syllabic>
					<text>a</text>
				</lyric>
			</note>
			<note>
				<pitch>
					<step>G</step>
					<octave>4</octave>
				</pitch>
				<duration>3</duration>
				<voice>1</voice>
				<type>16th</type>
				<lyric number="1" name="verse">
					<syllabic>single</syllabic>
					<text>pas-</text>
				</lyric>
			</note>
			<note>
				<pitch>
					<step>A</step>
					<alter>-1</alter>
					<octave>4</octave>
				</pitch>
				<duration>3</duration>
				<voice>1</voice>
				<type>16th</type>
				<lyric number="1" name="verse">
					<syllabic>single</syllabic>
					<text>-se/</text>
				</lyric>
			</note>
			<note>
				<pitch>
					<step>C</step>
					<octave>5</octave>
				</pitch>
				<duration>3</duration>
				<voice>1</voice>
				<type>16th</type>
				<lyric number="1" name="verse">
					<syllabic>single</syllabic>
					<text>sur</text>
				</lyric>
			</note>
		</measure>
		<measure number="3">
			<note>
				<pitch>
					<step>B</step>
					<alter>-1</alter>
					<octave>4</octave>
				</pitch>
				<duration>12</duration>
				<tie type="start"/>
				<voice>1</voice>
				<type>quarter</type>
				<notations>
					<tied type="start"/>
				</notations>
				<lyric number="1" name="verse">
					<syllabic>single</syllabic>
					<text>nous</text>
				</lyric>
			</note>
			<note>
				<pitch>
					<step>B</step>
					<alter>-1</alter>
					<octave>4</octave>
				</pitch>
				<duration>3</duration>
				<tie type="stop"/>
				<voice>1</voice>
				<type>16th</type>
				<notations>
					<tied type="stop"/>
				</notations>
				<lyric number="1" name="verse">
					<syllabic>single</syllabic>
					<text>|</text>
				</lyric>
			</note>
			<note>
				<pitch>
					<step>E</step>
					<alter>-1</alter>
					<octave>4</octave>
				</pitch>
				<duration>3</duration>
				<voice>1</voice>
				<type>16th</type>
				<lyric number="1" name="verse">
					<syllabic>single</syllabic>
					<text>Sans</text>
				</lyric>
			</note>
			<note>
				<pitch>
					<step>G</step>
					<octave>4</octave>
				</pitch>
				<duration>3</duration>
				<voice>1</voice>
				<type>16th</type>
				<lyric number="1" name="verse">
					<syllabic>single</syllabic>
					<text>tou-</text>
				</lyric>
			</note>
			<note>
				<pitch>
					<step>B</step>
					<alter>-1</alter>
					<octave>4</octave>
				</pitch>
				<duration>3</duration>
				<voice>1</voice>
				<type>16th</type>
				<lyric number="1" name="verse">
					<syllabic>single</syllabic>
					<text>|</text>
				</lyric>
			</note>
		</measure>
		<measure number="4">
			<note>
				<pitch>
					<step>A</step>
					<alter>-1</alter>
					<octave>4</octave>
				</pitch>
				<duration>6</duration>
				<voice>1</voice>
				<type>eighth</type>
				<lyric number="1" name="verse">
					<syllabic>single</syllabic>
					<text>-cher</text>
				</lyric>
			</note>
			<note>
				<pitch>
					<step>G</step>
					<octave>4</octave>
				</pitch>
				<duration>6</duration>
				<voice>1</voice>
				<type>eighth</type>
				<lyric number="1" name="verse">
					<syllabic>single</syllabic>
					<text>a\</text>
				</lyric>
			</note>
			<note>
				<pitch>
					<step>F</step>
					<octave>4</octave>
				</pitch>
				<duration>6</duration>
				<voice>1</voice>
				<type>eighth</type>
				<lyric number="1" name="verse">
					<syllabic>single</syllabic>
					<text>no-</text>
				</lyric>
			</note>
			<note>
				<pitch>
					<step>A</step>
					<alter>-1</alter>
					<octave>4</octave>
				</pitch>
				<duration>3</duration>
				<voice>1</voice>
				<type>16th</type>
				<lyric number="1" name="verse">
					<syllabic>single</syllabic>
					<text>-tre</text>
				</lyric>
			</note>
			<note>
				<pitch>
					<step>A</step>
					<alter>-1</alter>
					<octave>4</octave>
				</pitch>
				<duration>3</duration>
				<voice>1</voice>
				<type>16th</type>
				<lyric number="1" name="verse">
					<syllabic>single</syllabic>
					<text>ten-</text>
				</lyric>
			</note>
		</measure>
		<measure number="5">
			<note>
				<pitch>
					<step>G</step>
					<octave>4</octave>
				</pitch>
				<duration>2</duration>
				<voice>1</voice>
				<type>16th</type>
				<time-modification>
					<actual-notes>3</actual-notes>
					<normal-notes>2</normal-notes>
				</time-modification>
				<lyric number="1" name="verse">
					<syllabic>single</syllabic>
					<text>-dres-</text>
				</lyric>
			</note>
			<note>
				<pitch>
					<step>A</step>
					<alter>-1</alter>
					<octave>4</octave>
				</pitch>
				<duration>2</duration>
				<voice>1</voice>
				<type>16th</type>
				<time-modification>
					<actual-notes>3</actual-notes>
					<normal-notes>2</normal-notes>
				</time-modification>
				<lyric number="1" name="verse">
					<syllabic>single</syllabic>
					<text>|</text>
				</lyric>
			</note>
			<note>
				<pitch>
					<step>G</step>
					<octave>4</octave>
				</pitch>
				<duration>2</duration>
				<voice>1</voice>
				<type>16th</type>
				<time-modification>
					<actual-notes>3</actual-notes>
					<normal-notes>2</normal-notes>
				</time-modification>
				<lyric number="1" name="verse">
					<syllabic>single</syllabic>
					<text>|</text>
				</lyric>
			</note>
			<note>
				<pitch>
					<step>F</step>
					<octave>4</octave>
				</pitch>
				<duration>2</duration>
				<voice>1</voice>
				<type>16th</type>
				<time-modification>
					<actual-notes>3</actual-notes>
					<normal-notes>2</normal-notes>
				</time-modification>
				<lyric number="1" name="verse">
					<syllabic>single</syllabic>
					<text>|</text>
				</lyric>
			</note>
			<note>
				<pitch>
					<step>G</step>
					<octave>4</octave>
				</pitch>
				<duration>2</duration>
				<voice>1</voice>
				<type>16th</type>
				<time-modification>
					<actual-notes>3</actual-notes>
					<normal-notes>2</normal-notes>
				</time-modification>
				<lyric number="1" name="verse">
					<syllabic>single</syllabic>
					<text>|</text>
				</lyric>
			</note>
			<note>
				<pitch>
					<step>F</step>
					<octave>4</octave>
				</pitch>
				<duration>2</duration>
				<voice>1</voice>
				<type>16th</type>
				<time-modification>
					<actual-notes>3</actual-notes>
					<normal-notes>2</normal-notes>
				</time-modification>
				<lyric number="1" name="verse">
					<syllabic>single</syllabic>
					<text>|</text>
				</lyric>
			</note>
			<note>
				<pitch>
					<step>E</step>
					<alter>-1</alter>
					<octave>4</octave>
				</pitch>
				<duration>12</duration>
				<voice>1</voice>
				<type>quarter</type>
				<lyric number="1" name="verse">
					<syllabic>single</syllabic>
					<text>-se.}</text>
				</lyric>
			</note>
		</measure>
		<measure number="6">
			<note>
				<rest/>
				<duration>12</duration>
				<voice>1</voice>
				<type>quarter</type>
			</note>
			<note>
				<pitch>
					<step>E</step>
					<alter>-1</alter>
					<octave>4</octave>
				</pitch>
				<duration>6</duration>
				<voice>1</voice>
				<type>eighth</type>
				<lyric number="1" name="verse">
					<syllabic>single</syllabic>
					<text>{L'an</text>
				</lyric>
			</note>
			<note>
				<pitch>
					<step>B</step>
					<alter>-1</alter>
					<octave>4</octave>
				</pitch>
				<duration>6</duration>
				<voice>1</voice>
				<type>eighth</type>
				<lyric number="1" name="verse">
					<syllabic>single</syllabic>
					<text>nou-</text>
				</lyric>
			</note>
		</measure>
		<measure number="7">
			<note>
				<pitch>
					<step>B</step>
					<alter>-1</alter>
					<octave>4</octave>
				</pitch>
				<duration>12</duration>
				<voice>1</voice>
				<type>quarter</type>
				<lyric number="1" name="verse">
					<syllabic>single</syllabic>
					<text>-veau</text>
				</lyric>
			</note>
			<note>
				<pitch>
					<step>A</step>
					<alter>-1</alter>
					<octave>4</octave>
				</pitch>
				<duration>3</duration>
				<voice>1</voice>
				<type>16th</type>
				<lyric number="1" name="verse">
					<syllabic>single</syllabic>
					<text>vers</text>
				</lyric>
			</note>
			<note>
				<pitch>
					<step>G</step>
					<octave>4</octave>
				</pitch>
				<duration>3</duration>
				<voice>1</voice>
				<type>16th</type>
				<lyric number="1" name="verse">
					<syllabic>single</syllabic>
					<text>A-</text>
				</lyric>
			</note>
			<note>
				<pitch>
					<step>A</step>
					<alter>-1</alter>
					<octave>4</octave>
				</pitch>
				<duration>3</duration>
				<voice>1</voice>
				<type>16th</type>
				<lyric number="1" name="verse">
					<syllabic>single</syllabic>
					<text>-vril</text>
				</lyric>
			</note>
			<note>
				<pitch>
					<step>C</step>
					<octave>5</octave>
				</pitch>
				<duration>3</duration>
				<voice>1</voice>
				<type>16th</type>
				<lyric number="1" name="verse">
					<syllabic>single</syllabic>
					<text>s'em-</text>
				</lyric>
			</note>
		</measure>
		<measure number="8">
			<note>
				<pitch>
					<step>B</step>
					<alter>-1</alter>
					<octave>4</octave>
				</pitch>
				<duration>18</duration>
				<voice>1</voice>
				<type>quarter</type>
				<dot/>
				<lyric number="1" name="verse">
					<syllabic>single</syllabic>
					<text>-pres-</text>
				</lyric>
			</note>
			<note>
				<pitch>
					<step>C</step>
					<octave>5</octave>
				</pitch>
				<duration>6</duration>
				<voice>1</voice>
				<type>eighth</type>
				<lyric number="1" name="verse">
					<syllabic>single</syllabic>
					<text>-se Et</text>
				</lyric>
			</note>
		</measure>
		<measure number="9">
			<note>
				<pitch>
					<step>D</step>
					<alter>-1</alter>
					<octave>5</octave>
				</pitch>
				<duration>3</duration>
				<voice>1</voice>
				<type>16th</type>
				<accidental>flat</accidental>
				<lyric number="1" name="verse">
					<syllabic>single</syllabic>
					<text>me</text>
				</lyric>
			</note>
			<note>
				<pitch>
					<step>B</step>
					<alter>-1</alter>
					<octave>4</octave>
				</pitch>
				<duration>3</duration>
				<voice>1</voice>
				<type>16th</type>
				<lyric number="1" name="verse">
					<syllabic>single</syllabic>
					<text>re-</text>
				</lyric>
			</note>
			<note>
				<pitch>
					<step>G</step>
					<alter>-1</alter>
					<octave>4</octave>
				</pitch>
				<duration>3</duration>
				<voice>1</voice>
				<type>16th</type>
				<accidental>flat</accidental>
				<lyric number="1" name="verse">
					<syllabic>single</syllabic>
					<text>-trou-</text>
				</lyric>
			</note>
			<note>
				<pitch>
					<step>D</step>
					<alter>-1</alter>
					<octave>4</octave>
				</pitch>
				<duration>3</duration>
				<voice>1</voice>
				<type>16th</type>
				<lyric number="1" name="verse">
					<syllabic>single</syllabic>
					<text>-ve a\</text>
				</lyric>
			</note>
			<note>
				<pitch>
					<step>E</step>
					<alter>-1</alter>
					<octave>4</octave>
				</pitch>
				<duration>6</duration>
				<voice>1</voice>
				<type>eighth</type>
				<lyric number="1" name="verse">
					<syllabic>single</syllabic>
					<text>vos</text>
				</lyric>
			</note>
			<note>
				<pitch>
					<step>A</step>
					<alter>-1</alter>
					<octave>4</octave>
				</pitch>
				<duration>2</duration>
				<voice>1</voice>
				<type>16th</type>
				<time-modification>
					<actual-notes>3</actual-notes>
					<normal-notes>2</normal-notes>
				</time-modification>
				<lyric number="1" name="verse">
					<syllabic>single</syllabic>
					<text>ge-</text>
				</lyric>
			</note>
			<note>
				<pitch>
					<step>B</step>
					<alter>-1</alter>
					<octave>4</octave>
				</pitch>
				<duration>2</duration>
				<voice>1</voice>
				<type>16th</type>
				<time-modification>
					<actual-notes>3</actual-notes>
					<normal-notes>2</normal-notes>
				</time-modification>
				<lyric number="1" name="verse">
					<syllabic>single</syllabic>
					<text>|</text>
				</lyric>
			</note>
			<note>
				<pitch>
					<step>A</step>
					<alter>-1</alter>
					<octave>4</octave>
				</pitch>
				<duration>2</duration>
				<voice>1</voice>
				<type>16th</type>
				<time-modification>
					<actual-notes>3</actual-notes>
					<normal-notes>2</normal-notes>
				</time-modification>
				<lyric number="1" name="verse">
					<syllabic>single</syllabic>
					<text>|</text>
				</lyric>
			</note>
		</measure>
		<measure number="10">
			<note>
				<pitch>
					<step>G</step>
					<alter>-1</alter>
					<octave>4</octave>
				</pitch>
				<duration>12</duration>
				<voice>1</voice>
				<type>quarter</type>
				<accidental>flat</accidental>
				<lyric number="1" name="verse">
					<syllabic>single</syllabic>
					<text>-noux.}</text>
				</lyric>
			</note>
			<note>
				<rest/>
				<duration>12</duration>
				<voice>1</voice>
				<type>quarter</type>
			</note>
		</measure>
		<measure number="11">
			<note>
				<rest/>
				<duration>12</duration>
				<voice>1</voice>
				<type>quarter</type>
			</note>
			<note>
				<rest/>
				<duration>6</duration>
				<voice>1</voice>
				<type>eighth</type>
			</note>
			<note>
				<pitch>
					<step>B</step>
					<alter>-1</alter>
					<octave>3</octave>
				</pitch>
				<duration>6</duration>
				<voice>1</voice>
				<type>eighth</type>
				<lyric number="1" name="verse">
					<syllabic>single</syllabic>
					<text>{Que</text>
				</lyric>
			</note>
		</measure>
		<measure number="12">
			<note>
				<pitch>
					<step>C</step>
					<octave>5</octave>
				</pitch>
				<duration>6</duration>
				<voice>1</voice>
				<type>eighth</type>
				<lyric number="1" name="verse">
					<syllabic>single</syllabic>
					<text>vo-</text>
				</lyric>
			</note>
			<note>
				<pitch>
					<step>C</step>
					<octave>5</octave>
				</pitch>
				<duration>3</duration>
				<voice>1</voice>
				<type>16th</type>
				<lyric number="1" name="verse">
					<syllabic>single</syllabic>
					<text>-tre</text>
				</lyric>
			</note>
			<note>
				<pitch>
					<step>C</step>
					<octave>5</octave>
				</pitch>
				<duration>3</duration>
				<voice>1</voice>
				<type>16th</type>
				<lyric number="1" name="verse">
					<syllabic>single</syllabic>
					<text>beau-</text>
				</lyric>
			</note>
			<note>
				<pitch>
					<step>C</step>
					<octave>5</octave>
				</pitch>
				<duration>6</duration>
				<voice>1</voice>
				<type>eighth</type>
				<lyric number="1" name="verse">
					<syllabic>single</syllabic>
					<text>-te\</text>
				</lyric>
			</note>
			<note>
				<pitch>
					<step>C</step>
					<octave>5</octave>
				</pitch>
				<duration>3</duration>
				<voice>1</voice>
				<type>16th</type>
				<lyric number="1" name="verse">
					<syllabic>single</syllabic>
					<text>ne</text>
				</lyric>
			</note>
			<note>
				<pitch>
					<step>C</step>
					<octave>5</octave>
				</pitch>
				<duration>3</duration>
				<voice>1</voice>
				<type>16th</type>
				<lyric number="1" name="verse">
					<syllabic>single</syllabic>
					<text>s'e/-</text>
				</lyric>
			</note>
		</measure>
		<measure number="13">
			<note>
				<pitch>
					<step>B</step>
					<alter>-1</alter>
					<octave>3</octave>
				</pitch>
				<duration>12</duration>
				<tie type="start"/>
				<voice>1</voice>
				<type>quarter</type>
				<notations>
					<tied type="start"/>
				</notations>
				<lyric number="1" name="verse">
					<syllabic>single</syllabic>
					<text>-ton-</text>
				</lyric>
			</note>
			<note>
				<pitch>
					<step>B</step>
					<alter>-1</alter>
					<octave>3</octave>
				</pitch>
				<duration>6</duration>
				<tie type="stop"/>
				<voice>1</voice>
				<type>eighth</type>
				<notations>
					<tied type="stop"/>
				</notations>
				<lyric number="1" name="verse">
					<syllabic>single</syllabic>
					<text>-ne</text>
				</lyric>
			</note>
			<note>
				<pitch>
					<step>B</step>
					<alter>-1</alter>
					<octave>3</octave>
				</pitch>
				<duration>3</duration>
				<voice>1</voice>
				<type>16th</type>
				<lyric number="1" name="verse">
					<syllabic>single</syllabic>
					<text>Si</text>
				</lyric>
			</note>
			<note>
				<pitch>
					<step>B</step>
					<alter>-1</alter>
					<octave>3</octave>
				</pitch>
				<duration>3</duration>
				<voice>1</voice>
				<type>16th</type>
				<lyric number="1" name="verse">
					<syllabic>single</syllabic>
					<text>mes</text>
				</lyric>
			</note>
		</measure>
		<measure number="14">
			<note>
				<pitch>
					<step>C</step>
					<octave>5</octave>
				</pitch>
				<duration>6</duration>
				<voice>1</voice>
				<type>eighth</type>
				<lyric number="1" name="verse">
					<syllabic>single</syllabic>
					<text>voeux</text>
				</lyric>
			</note>
			<note>
				<pitch>
					<step>C</step>
					<octave>5</octave>
				</pitch>
				<duration>3</duration>
				<voice>1</voice>
				<type>16th</type>
				<lyric number="1" name="verse">
					<syllabic>single</syllabic>
					<text>sont</text>
				</lyric>
			</note>
			<note>
				<pitch>
					<step>C</step>
					<octave>5</octave>
				</pitch>
				<duration>3</duration>
				<voice>1</voice>
				<type>16th</type>
				<lyric number="1" name="verse">
					<syllabic>single</syllabic>
					<text>res-</text>
				</lyric>
			</note>
			<note>
				<pitch>
					<step>C</step>
					<octave>5</octave>
				</pitch>
				<duration>9</duration>
				<voice>1</voice>
				<type>eighth</type>
				<dot/>
				<lyric number="1" name="verse">
					<syllabic>single</syllabic>
					<text>-te/s</text>
				</lyric>
			</note>
			<note>
				<pitch>
					<step>C</step>
					<octave>5</octave>
				</pitch>
				<duration>3</duration>
				<voice>1</voice>
				<type>16th</type>
				<lyric number="1" name="verse">
					<syllabic>single</syllabic>
					<text>cons-</text>
				</lyric>
			</note>
		</measure>
		<measure number="15">
			<note>
				<pitch>
					<step>D</step>
					<octave>5</octave>
				</pitch>
				<duration>18</duration>
				<voice>1</voice>
				<type>quarter</type>
				<dot/>
				<lyric number="1" name="verse">
					<syllabic>single</syllabic>
					<text>-tants,}</text>
				</lyric>
			</note>
			<note>
				<pitch>
					<step>B</step>
					<alter>-1</alter>
					<octave>4</octave>
				</pitch>
				<duration>6</duration>
				<voice>1</voice>
				<type>eighth</type>
				<lyric number="1" name="verse">
					<syllabic>single</syllabic>
					<text>{Ma-</text>
				</lyric>
			</note>
		</measure>
		<measure number="16">
			<note>
				<pitch>
					<step>E</step>
					<alter>-1</alter>
					<octave>5</octave>
				</pitch>
				<duration>6</duration>
				<voice>1</voice>
				<type>eighth</type>
				<lyric number="1" name="verse">
					<syllabic>single</syllabic>
					<text>-da-</text>
				</lyric>
			</note>
			<note>
				<pitch>
					<step>B</step>
					<alter>-1</alter>
					<octave>4</octave>
				</pitch>
				<duration>6</duration>
				<voice>1</voice>
				<type>eighth</type>
				<lyric number="1" name="verse">
					<syllabic>single</syllabic>
					<text>-me,</text>
				</lyric>
			</note>
			<note>
				<pitch>
					<step>G</step>
					<octave>4</octave>
				</pitch>
				<duration>3</duration>
				<voice>1</voice>
				<type>16th</type>
				<lyric number="1" name="verse">
					<syllabic>single</syllabic>
					<text>voi-</text>
				</lyric>
			</note>
			<note>
				<pitch>
					<step>F</step>
					<octave>4</octave>
				</pitch>
				<duration>3</duration>
				<voice>1</voice>
				<type>16th</type>
				<lyric number="1" name="verse">
					<syllabic>single</syllabic>
					<text>-ci</text>
				</lyric>
			</note>
			<note>
				<pitch>
					<step>G</step>
					<octave>4</octave>
				</pitch>
				<duration>3</duration>
				<voice>1</voice>
				<type>16th</type>
				<lyric number="1" name="verse">
					<syllabic>single</syllabic>
					<text>le</text>
				</lyric>
			</note>
			<note>
				<pitch>
					<step>A</step>
					<alter>-1</alter>
					<octave>4</octave>
				</pitch>
				<duration>3</duration>
				<voice>1</voice>
				<type>16th</type>
				<lyric number="1" name="verse">
					<syllabic>single</syllabic>
					<text>prin-</text>
				</lyric>
			</note>
		</measure>
		<measure number="17">
			<note>
				<pitch>
					<step>B</step>
					<alter>-1</alter>
					<octave>4</octave>
				</pitch>
				<duration>12</duration>
				<tie type="start"/>
				<voice>1</voice>
				<type>quarter</type>
				<notations>
					<tied type="start"/>
				</notations>
				<lyric number="1" name="verse">
					<syllabic>single</syllabic>
					<text>-temps,</text>
				</lyric>
			</note>
			<note>
				<pitch>
					<step>B</step>
					<alter>-1</alter>
					<octave>4</octave>
				</pitch>
				<duration>3</duration>
				<tie type="stop"/>
				<voice>1</voice>
				<type>16th</type>
				<notations>
					<tied type="stop"/>
				</notations>
				<lyric number="1" name="verse">
					<syllabic>single</syllabic>
					<text>|</text>
				</lyric>
			</note>
			<note>
				<pitch>
					<step>B</step>
					<alter>-1</alter>
					<octave>4</octave>
				</pitch>
				<duration>3</duration>
				<voice>1</voice>
				<type>16th</type>
				<lyric number="1" name="verse">
					<syllabic>single</syllabic>
					<text>Nous</text>
				</lyric>
			</note>
			<note>
				<pitch>
					<step>A</step>
					<alter>-1</alter>
					<octave>4</octave>
				</pitch>
				<duration>3</duration>
				<voice>1</voice>
				<type>16th</type>
				<lyric number="1" name="verse">
					<syllabic>single</syllabic>
					<text>nous</text>
				</lyric>
			</note>
			<note>
				<pitch>
					<step>G</step>
					<octave>4</octave>
				</pitch>
				<duration>3</duration>
				<voice>1</voice>
				<type>16th</type>
				<lyric number="1" name="verse">
					<syllabic>single</syllabic>
					<text>ai-</text>
				</lyric>
			</note>
		</measure>
		<measure number="18">
			<note>
				<pitch>
					<step>C</step>
					<octave>5</octave>
				</pitch>
				<duration>3</duration>
				<voice>1</voice>
				<type>16th</type>
				<lyric number="1" name="verse">
					<syllabic>single</syllabic>
					<text>-ma^-</text>
				</lyric>
			</note>
			<note>
				<pitch>
					<step>A</step>
					<alter>-1</alter>
					<octave>4</octave>
				</pitch>
				<duration>3</duration>
				<voice>1</voice>
				<type>16th</type>
				<lyric number="1" name="verse">
					<syllabic>single</syllabic>
					<text>-mes</text>
				</lyric>
			</note>
			<note>
				<pitch>
					<step>G</step>
					<octave>4</octave>
				</pitch>
				<duration>3</duration>
				<voice>1</voice>
				<type>16th</type>
				<lyric number="1" name="verse">
					<syllabic>single</syllabic>
					<text>en</text>
				</lyric>
			</note>
			<note>
				<pitch>
					<step>F</step>
					<octave>4</octave>
				</pitch>
				<duration>3</duration>
				<voice>1</voice>
				<type>16th</type>
				<lyric number="1" name="verse">
					<syllabic>single</syllabic>
					<text>au-</text>
				</lyric>
			</note>
			<note>
				<pitch>
					<step>D</step>
					<octave>5</octave>
				</pitch>
				<duration>12</duration>
				<voice>1</voice>
				<type>quarter</type>
				<lyric number="1" name="verse">
					<syllabic>single</syllabic>
					<text>-tom-</text>
				</lyric>
			</note>
		</measure>
		<measure number="19">
			<note>
				<pitch>
					<step>E</step>
					<alter>-1</alter>
					<octave>5</octave>
				</pitch>
				<duration>12</duration>
				<voice>1</voice>
				<type>quarter</type>
				<lyric number="1" name="verse">
					<syllabic>single</syllabic>
					<text>-ne.}</text>
				</lyric>
			</note>
			<note>
				<rest/>
				<duration>12</duration>
				<voice>1</voice>
				<type>quarter</type>
			</note>
		</measure>
		<measure number="20">
			<note>
				<rest/>
				<duration>12</duration>
				<voice>1</voice>
				<type>quarter</type>
			</note>
			<note>
				<pitch>
					<step>E</step>
					<alter>-1</alter>
					<octave>4</octave>
				</pitch>
				<duration>6</duration>
				<voice>1</voice>
				<type>eighth</type>
				<lyric number="1" name="verse">
					<syllabic>single</syllabic>
					<text>{Les</text>
				</lyric>
			</note>
			<note>
				<pitch>
					<step>B</step>
					<alter>-1</alter>
					<octave>4</octave>
				</pitch>
				<duration>6</duration>
				<voice>1</voice>
				<type>eighth</type>
				<lyric number="1" name="verse">
					<syllabic>single</syllabic>
					<text>ro-</text>
				</lyric>
			</note>
		</measure>
		<measure number="21">
			<note>
				<pitch>
					<step>B</step>
					<alter>-1</alter>
					<octave>4</octave>
				</pitch>
				<duration>12</duration>
				<voice>1</voice>
				<type>quarter</type>
				<lyric number="1" name="verse">
					<syllabic>single</syllabic>
					<text>-siers</text>
				</lyric>
			</note>
			<note>
				<pitch>
					<step>A</step>
					<alter>-1</alter>
					<octave>4</octave>
				</pitch>
				<duration>3</duration>
				<voice>1</voice>
				<type>16th</type>
				<lyric number="1" name="verse">
					<syllabic>single</syllabic>
					<text>n'av-</text>
				</lyric>
			</note>
			<note>
				<pitch>
					<step>G</step>
					<octave>4</octave>
				</pitch>
				<duration>3</duration>
				<voice>1</voice>
				<type>16th</type>
				<lyric number="1" name="verse">
					<syllabic>single</syllabic>
					<text>-aient</text>
				</lyric>
			</note>
			<note>
				<pitch>
					<step>A</step>
					<alter>-1</alter>
					<octave>4</octave>
				</pitch>
				<duration>3</duration>
				<voice>1</voice>
				<type>16th</type>
				<lyric number="1" name="verse">
					<syllabic>single</syllabic>
					<text>plus</text>
				</lyric>
			</note>
			<note>
				<pitch>
					<step>C</step>
					<octave>5</octave>
				</pitch>
				<duration>3</duration>
				<voice>1</voice>
				<type>16th</type>
				<lyric number="1" name="verse">
					<syllabic>single</syllabic>
					<text>de</text>
				</lyric>
			</note>
		</measure>
		<measure number="22">
			<note>
				<pitch>
					<step>B</step>
					<alter>-1</alter>
					<octave>4</octave>
				</pitch>
				<duration>12</duration>
				<tie type="start"/>
				<voice>1</voice>
				<type>quarter</type>
				<notations>
					<tied type="start"/>
				</notations>
				<lyric number="1" name="verse">
					<syllabic>single</syllabic>
					<text>fleurs</text>
				</lyric>
			</note>
			<note>
				<pitch>
					<step>B</step>
					<alter>-1</alter>
					<octave>4</octave>
				</pitch>
				<duration>3</duration>
				<tie type="stop"/>
				<voice>1</voice>
				<type>16th</type>
				<notations>
					<tied type="stop"/>
				</notations>
				<lyric number="1" name="verse">
					<syllabic>single</syllabic>
					<text>|</text>
				</lyric>
			</note>
			<note>
				<pitch>
					<step>E</step>
					<alter>-1</alter>
					<octave>4</octave>
				</pitch>
				<duration>3</duration>
				<voice>1</voice>
				<type>16th</type>
				<lyric number="1" name="verse">
					<syllabic>single</syllabic>
					<text>Et</text>
				</lyric>
			</note>
			<note>
				<pitch>
					<step>G</step>
					<octave>4</octave>
				</pitch>
				<duration>3</duration>
				<voice>1</voice>
				<type>16th</type>
				<lyric number="1" name="verse">
					<syllabic>single</syllabic>
					<text>les</text>
				</lyric>
			</note>
			<note>
				<pitch>
					<step>B</step>
					<alter>-1</alter>
					<octave>4</octave>
				</pitch>
				<duration>3</duration>
				<voice>1</voice>
				<type>16th</type>
				<lyric number="1" name="verse">
					<syllabic>single</syllabic>
					<text>|</text>
				</lyric>
			</note>
		</measure>
		<measure number="23">
			<note>
				<pitch>
					<step>A</step>
					<alter>-1</alter>
					<octave>4</octave>
				</pitch>
				<duration>6</duration>
				<voice>1</voice>
				<type>eighth</type>
				<lyric number="1" name="verse">
					<syllabic>single</syllabic>
					<text>soirs</text>
				</lyric>
			</note>
			<note>
				<pitch>
					<step>G</step>
					<octave>4</octave>
				</pitch>
				<duration>6</duration>
				<voice>1</voice>
				<type>eighth</type>
				<lyric number="1" name="verse">
					<syllabic>single</syllabic>
					<text>ha^-</text>
				</lyric>
			</note>
			<note>
				<pitch>
					<step>F</step>
					<octave>4</octave>
				</pitch>
				<duration>6</duration>
				<voice>1</voice>
				<type>eighth</type>
				<lyric number="1" name="verse">
					<syllabic>single</syllabic>
					<text>-taient</text>
				</lyric>
			</note>
			<note>
				<pitch>
					<step>A</step>
					<alter>-1</alter>
					<octave>4</octave>
				</pitch>
				<duration>3</duration>
				<voice>1</voice>
				<type>16th</type>
				<lyric number="1" name="verse">
					<syllabic>single</syllabic>
					<text>leur</text>
				</lyric>
			</note>
			<note>
				<pitch>
					<step>A</step>
					<alter>-1</alter>
					<octave>4</octave>
				</pitch>
				<duration>3</duration>
				<voice>1</voice>
				<type>16th</type>
				<lyric number="1" name="verse">
					<syllabic>single</syllabic>
					<text>ve-</text>
				</lyric>
			</note>
		</measure>
		<measure number="24">
			<note>
				<pitch>
					<step>G</step>
					<octave>4</octave>
				</pitch>
				<duration>2</duration>
				<voice>1</voice>
				<type>16th</type>
				<time-modification>
					<actual-notes>3</actual-notes>
					<normal-notes>2</normal-notes>
				</time-modification>
				<lyric number="1" name="verse">
					<syllabic>single</syllabic>
					<text>-nu-</text>
				</lyric>
			</note>
			<note>
				<pitch>
					<step>A</step>
					<alter>-1</alter>
					<octave>4</octave>
				</pitch>
				<duration>2</duration>
				<voice>1</voice>
				<type>16th</type>
				<time-modification>
					<actual-notes>3</actual-notes>
					<normal-notes>2</normal-notes>
				</time-modification>
				<lyric number="1" name="verse">
					<syllabic>single</syllabic>
					<text>|</text>
				</lyric>
			</note>
			<note>
				<pitch>
					<step>G</step>
					<octave>4</octave>
				</pitch>
				<duration>2</duration>
				<voice>1</voice>
				<type>16th</type>
				<time-modification>
					<actual-notes>3</actual-notes>
					<normal-notes>2</normal-notes>
				</time-modification>
				<lyric number="1" name="verse">
					<syllabic>single</syllabic>
					<text>|</text>
				</lyric>
			</note>
			<note>
				<pitch>
					<step>F</step>
					<octave>4</octave>
				</pitch>
				<duration>2</duration>
				<voice>1</voice>
				<type>16th</type>
				<time-modification>
					<actual-notes>3</actual-notes>
					<normal-notes>2</normal-notes>
				</time-modification>
				<lyric number="1" name="verse">
					<syllabic>single</syllabic>
					<text>|</text>
				</lyric>
			</note>
			<note>
				<pitch>
					<step>G</step>
					<octave>4</octave>
				</pitch>
				<duration>2</duration>
				<voice>1</voice>
				<type>16th</type>
				<time-modification>
					<actual-notes>3</actual-notes>
					<normal-notes>2</normal-notes>
				</time-modification>
				<lyric number="1" name="verse">
					<syllabic>single</syllabic>
					<text>|</text>
				</lyric>
			</note>
			<note>
				<pitch>
					<step>F</step>
					<octave>4</octave>
				</pitch>
				<duration>2</duration>
				<voice>1</voice>
				<type>16th</type>
				<time-modification>
					<actual-notes>3</actual-notes>
					<normal-notes>2</normal-notes>
				</time-modification>
				<lyric number="1" name="verse">
					<syllabic>single</syllabic>
					<text>|</text>
				</lyric>
			</note>
			<note>
				<pitch>
					<step>E</step>
					<alter>-1</alter>
					<octave>4</octave>
				</pitch>
				<duration>12</duration>
				<voice>1</voice>
				<type>quarter</type>
				<lyric number="1" name="verse">
					<syllabic>single</syllabic>
					<text>-e.}</text>
				</lyric>
			</note>
		</measure>
		<measure number="25">
			<note>
				<rest/>
				<duration>12</duration>
				<voice>1</voice>
				<type>quarter</type>
			</note>
			<note>
				<pitch>
					<step>E</step>
					<alter>-1</alter>
					<octave>4</octave>
				</pitch>
				<duration>6</duration>
				<voice>1</voice>
				<type>eighth</type>
				<lyric number="1" name="verse">
					<syllabic>single</syllabic>
					<text>{Les</text>
				</lyric>
			</note>
			<note>
				<pitch>
					<step>E</step>
					<alter>-1</alter>
					<octave>4</octave>
				</pitch>
				<duration>3</duration>
				<voice>1</voice>
				<type>16th</type>
				<lyric number="1" name="verse">
					<syllabic>single</syllabic>
					<text>hi-</text>
				</lyric>
			</note>
			<note>
				<pitch>
					<step>B</step>
					<alter>-1</alter>
					<octave>4</octave>
				</pitch>
				<duration>3</duration>
				<voice>1</voice>
				<type>16th</type>
				<lyric number="1" name="verse">
					<syllabic>single</syllabic>
					<text>-ron-</text>
				</lyric>
			</note>
		</measure>
		<measure number="26">
			<note>
				<pitch>
					<step>B</step>
					<alter>-1</alter>
					<octave>4</octave>
				</pitch>
				<duration>6</duration>
				<voice>1</voice>
				<type>eighth</type>
				<lyric number="1" name="verse">
					<syllabic>single</syllabic>
					<text>-del-</text>
				</lyric>
			</note>
			<note>
				<pitch>
					<step>B</step>
					<alter>-1</alter>
					<octave>4</octave>
				</pitch>
				<duration>6</duration>
				<voice>1</voice>
				<type>eighth</type>
				<lyric number="1" name="verse">
					<syllabic>single</syllabic>
					<text>-les</text>
				</lyric>
			</note>
			<note>
				<pitch>
					<step>A</step>
					<alter>-1</alter>
					<octave>4</octave>
				</pitch>
				<duration>3</duration>
				<voice>1</voice>
				<type>16th</type>
				<lyric number="1" name="verse">
					<syllabic>single</syllabic>
					<text>sous</text>
				</lyric>
			</note>
			<note>
				<pitch>
					<step>G</step>
					<octave>4</octave>
				</pitch>
				<duration>3</duration>
				<voice>1</voice>
				<type>16th</type>
				<lyric number="1" name="verse">
					<syllabic>single</syllabic>
					<text>|</text>
				</lyric>
			</note>
			<note>
				<pitch>
					<step>A</step>
					<alter>-1</alter>
					<octave>4</octave>
				</pitch>
				<duration>3</duration>
				<voice>1</voice>
				<type>16th</type>
				<lyric number="1" name="verse">
					<syllabic>single</syllabic>
					<text>la</text>
				</lyric>
			</note>
			<note>
				<pitch>
					<step>C</step>
					<octave>5</octave>
				</pitch>
				<duration>3</duration>
				<voice>1</voice>
				<type>16th</type>
				<lyric number="1" name="verse">
					<syllabic>single</syllabic>
					<text>|</text>
				</lyric>
			</note>
		</measure>
		<measure number="27">
			<note>
				<pitch>
					<step>B</step>
					<alter>-1</alter>
					<octave>4</octave>
				</pitch>
				<duration>12</duration>
				<voice>1</voice>
				<type>quarter</type>
				<lyric number="1" name="verse">
					<syllabic>single</syllabic>
					<text>nu-</text>
				</lyric>
			</note>
			<note>
				<pitch>
					<step>B</step>
					<alter>-1</alter>
					<octave>4</octave>
				</pitch>
				<duration>6</duration>
				<voice>1</voice>
				<type>eighth</type>
				<lyric number="1" name="verse">
					<syllabic>single</syllabic>
					<text>-e</text>
				</lyric>
			</note>
			<note>
				<pitch>
					<step>C</step>
					<octave>5</octave>
				</pitch>
				<duration>3</duration>
				<voice>1</voice>
				<type>16th</type>
				<lyric number="1" name="verse">
					<syllabic>single</syllabic>
					<text>S'en-</text>
				</lyric>
			</note>
			<note>
				<pitch>
					<step>C</step>
					<octave>5</octave>
				</pitch>
				<duration>3</duration>
				<voice>1</voice>
				<type>16th</type>
				<lyric number="1" name="verse">
					<syllabic>single</syllabic>
					<text>-fuy-</text>
				</lyric>
			</note>
		</measure>
		<measure number="28">
			<note>
				<pitch>
					<step>D</step>
					<alter>-1</alter>
					<octave>5</octave>
				</pitch>
				<duration>3</duration>
				<voice>1</voice>
				<type>16th</type>
				<accidental>flat</accidental>
				<lyric number="1" name="verse">
					<syllabic>single</syllabic>
					<text>-aient</text>
				</lyric>
			</note>
			<note>
				<pitch>
					<step>B</step>
					<alter>-1</alter>
					<octave>4</octave>
				</pitch>
				<duration>3</duration>
				<voice>1</voice>
				<type>16th</type>
				<lyric number="1" name="verse">
					<syllabic>single</syllabic>
					<text>|</text>
				</lyric>
			</note>
			<note>
				<pitch>
					<step>G</step>
					<alter>-1</alter>
					<octave>4</octave>
				</pitch>
				<duration>3</duration>
				<voice>1</voice>
				<type>16th</type>
				<accidental>flat</accidental>
				<lyric number="1" name="verse">
					<syllabic>single</syllabic>
					<text>vers</text>
				</lyric>
			</note>
			<note>
				<pitch>
					<step>D</step>
					<alter>-1</alter>
					<octave>4</octave>
				</pitch>
				<duration>3</duration>
				<voice>1</voice>
				<type>16th</type>
				<lyric number="1" name="verse">
					<syllabic>single</syllabic>
					<text>des</text>
				</lyric>
			</note>
			<note>
				<pitch>
					<step>E</step>
					<alter>-1</alter>
					<octave>4</octave>
				</pitch>
				<duration>6</duration>
				<voice>1</voice>
				<type>eighth</type>
				<lyric number="1" name="verse">
					<syllabic>single</syllabic>
					<text>cieux</text>
				</lyric>
			</note>
			<note>
				<pitch>
					<step>A</step>
					<alter>-1</alter>
					<octave>4</octave>
				</pitch>
				<duration>2</duration>
				<voice>1</voice>
				<type>16th</type>
				<time-modification>
					<actual-notes>3</actual-notes>
					<normal-notes>2</normal-notes>
				</time-modification>
				<lyric number="1" name="verse">
					<syllabic>single</syllabic>
					<text>meil-</text>
				</lyric>
			</note>
			<note>
				<pitch>
					<step>B</step>
					<alter>-1</alter>
					<octave>4</octave>
				</pitch>
				<duration>2</duration>
				<voice>1</voice>
				<type>16th</type>
				<time-modification>
					<actual-notes>3</actual-notes>
					<normal-notes>2</normal-notes>
				</time-modification>
				<lyric number="1" name="verse">
					<syllabic>single</syllabic>
					<text>|</text>
				</lyric>
			</note>
			<note>
				<pitch>
					<step>A</step>
					<alter>-1</alter>
					<octave>4</octave>
				</pitch>
				<duration>2</duration>
				<voice>1</voice>
				<type>16th</type>
				<time-modification>
					<actual-notes>3</actual-notes>
					<normal-notes>2</normal-notes>
				</time-modification>
				<lyric number="1" name="verse">
					<syllabic>single</syllabic>
					<text>|</text>
				</lyric>
			</note>
		</measure>
		<measure number="29">
			<note>
				<pitch>
					<step>G</step>
					<alter>-1</alter>
					<octave>4</octave>
				</pitch>
				<duration>12</duration>
				<voice>1</voice>
				<type>quarter</type>
				<accidental>flat</accidental>
				<lyric number="1" name="verse">
					<syllabic>single</syllabic>
					<text>-leurs.}</text>
				</lyric>
			</note>
			<note>
				<rest/>
				<duration>12</duration>
				<voice>1</voice>
				<type>quarter</type>
			</note>
		</measure>
		<measure number="30">
			<note>
				<rest/>
				<duration>12</duration>
				<voice>1</voice>
				<type>quarter</type>
			</note>
			<note>
				<rest/>
				<duration>3</duration>
				<voice>1</voice>
				<type>16th</type>
			</note>
			<note>
				<pitch>
					<step>B</step>
					<alter>-1</alter>
					<octave>3</octave>
				</pitch>
				<duration>3</duration>
				<voice>1</voice>
				<type>16th</type>
				<lyric number="1" name="verse">
					<syllabic>single</syllabic>
					<text>{Les</text>
				</lyric>
			</note>
			<note>
				<pitch>
					<step>B</step>
					<alter>-1</alter>
					<octave>3</octave>
				</pitch>
				<duration>3</duration>
				<voice>1</voice>
				<type>16th</type>
				<lyric number="1" name="verse">
					<syllabic>single</syllabic>
					<text>vi-</text>
				</lyric>
			</note>
			<note>
				<pitch>
					<step>B</step>
					<alter>-1</alter>
					<octave>3</octave>
				</pitch>
				<duration>3</duration>
				<voice>1</voice>
				<type>16th</type>
				<lyric number="1" name="verse">
					<syllabic>single</syllabic>
					<text>-gne-</text>
				</lyric>
			</note>
		</measure>
		<measure number="31">
			<note>
				<pitch>
					<step>C</step>
					<octave>5</octave>
				</pitch>
				<duration>9</duration>
				<voice>1</voice>
				<type>eighth</type>
				<dot/>
				<lyric number="1" name="verse">
					<syllabic>single</syllabic>
					<text>-rons</text>
				</lyric>
			</note>
			<note>
				<pitch>
					<step>C</step>
					<octave>5</octave>
				</pitch>
				<duration>3</duration>
				<voice>1</voice>
				<type>16th</type>
				<lyric number="1" name="verse">
					<syllabic>single</syllabic>
					<text>fe^t-</text>
				</lyric>
			</note>
			<note>
				<pitch>
					<step>C</step>
					<octave>5</octave>
				</pitch>
				<duration>9</duration>
				<voice>1</voice>
				<type>eighth</type>
				<dot/>
				<lyric number="1" name="verse">
					<syllabic>single</syllabic>
					<text>-aient</text>
				</lyric>
			</note>
			<note>
				<pitch>
					<step>C</step>
					<octave>5</octave>
				</pitch>
				<duration>3</duration>
				<voice>1</voice>
				<type>16th</type>
				<lyric number="1" name="verse">
					<syllabic>single</syllabic>
					<text>la</text>
				</lyric>
			</note>
		</measure>
		<measure number="32">
			<note>
				<pitch>
					<step>B</step>
					<alter>-1</alter>
					<octave>3</octave>
				</pitch>
				<duration>12</duration>
				<voice>1</voice>
				<type>quarter</type>
				<lyric number="1" name="verse">
					<syllabic>single</syllabic>
					<text>ton-</text>
				</lyric>
			</note>
			<note>
				<pitch>
					<step>B</step>
					<alter>-1</alter>
					<octave>3</octave>
				</pitch>
				<duration>6</duration>
				<voice>1</voice>
				<type>eighth</type>
				<lyric number="1" name="verse">
					<syllabic>single</syllabic>
					<text>-ne</text>
				</lyric>
			</note>
			<note>
				<pitch>
					<step>B</step>
					<alter>-1</alter>
					<octave>3</octave>
				</pitch>
				<duration>3</duration>
				<voice>1</voice>
				<type>16th</type>
				<lyric number="1" name="verse">
					<syllabic>single</syllabic>
					<text>Et</text>
				</lyric>
			</note>
			<note>
				<pitch>
					<step>B</step>
					<alter>-1</alter>
					<octave>3</octave>
				</pitch>
				<duration>3</duration>
				<voice>1</voice>
				<type>16th</type>
				<lyric number="1" name="verse">
					<syllabic>single</syllabic>
					<text>nos</text>
				</lyric>
			</note>
		</measure>
		<measure number="33">
			<note>
				<pitch>
					<step>C</step>
					<octave>5</octave>
				</pitch>
				<duration>9</duration>
				<voice>1</voice>
				<type>eighth</type>
				<dot/>
				<lyric number="1" name="verse">
					<syllabic>single</syllabic>
					<text>coeurs</text>
				</lyric>
			</note>
			<note>
				<pitch>
					<step>C</step>
					<octave>5</octave>
				</pitch>
				<duration>3</duration>
				<voice>1</voice>
				<type>16th</type>
				<lyric number="1" name="verse">
					<syllabic>single</syllabic>
					<text>e/-</text>
				</lyric>
			</note>
			<note>
				<pitch>
					<step>C</step>
					<octave>5</octave>
				</pitch>
				<duration>6</duration>
				<voice>1</voice>
				<type>eighth</type>
				<lyric number="1" name="verse">
					<syllabic>single</syllabic>
					<text>-taient</text>
				</lyric>
			</note>
			<note>
				<pitch>
					<step>C</step>
					<octave>5</octave>
				</pitch>
				<duration>3</duration>
				<voice>1</voice>
				<type>16th</type>
				<lyric number="1" name="verse">
					<syllabic>single</syllabic>
					<text>pal-</text>
				</lyric>
			</note>
			<note>
				<pitch>
					<step>C</step>
					<octave>5</octave>
				</pitch>
				<duration>3</duration>
				<voice>1</voice>
				<type>16th</type>
				<lyric number="1" name="verse">
					<syllabic>single</syllabic>
					<text>-pi-</text>
				</lyric>
			</note>
		</measure>
		<measure number="34">
			<note>
				<pitch>
					<step>D</step>
					<octave>5</octave>
				</pitch>
				<duration>18</duration>
				<voice>1</voice>
				<type>quarter</type>
				<dot/>
				<lyric number="1" name="verse">
					<syllabic>single</syllabic>
					<text>-tants.}</text>
				</lyric>
			</note>
			<note>
				<pitch>
					<step>B</step>
					<alter>-1</alter>
					<octave>4</octave>
				</pitch>
				<duration>6</duration>
				<voice>1</voice>
				<type>eighth</type>
				<lyric number="1" name="verse">
					<syllabic>single</syllabic>
					<text>{Ma-</text>
				</lyric>
			</note>
		</measure>
		<measure number="35">
			<note>
				<pitch>
					<step>E</step>
					<alter>-1</alter>
					<octave>5</octave>
				</pitch>
				<duration>6</duration>
				<voice>1</voice>
				<type>eighth</type>
				<lyric number="1" name="verse">
					<syllabic>single</syllabic>
					<text>-da-</text>
				</lyric>
			</note>
			<note>
				<pitch>
					<step>B</step>
					<alter>-1</alter>
					<octave>4</octave>
				</pitch>
				<duration>6</duration>
				<voice>1</voice>
				<type>eighth</type>
				<lyric number="1" name="verse">
					<syllabic>single</syllabic>
					<text>-me,</text>
				</lyric>
			</note>
			<note>
				<pitch>
					<step>G</step>
					<octave>4</octave>
				</pitch>
				<duration>3</duration>
				<voice>1</voice>
				<type>16th</type>
				<lyric number="1" name="verse">
					<syllabic>single</syllabic>
					<text>voi-</text>
				</lyric>
			</note>
			<note>
				<pitch>
					<step>F</step>
					<octave>4</octave>
				</pitch>
				<duration>3</duration>
				<voice>1</voice>
				<type>16th</type>
				<lyric number="1" name="verse">
					<syllabic>single</syllabic>
					<text>-ci</text>
				</lyric>
			</note>
			<note>
				<pitch>
					<step>G</step>
					<octave>4</octave>
				</pitch>
				<duration>3</duration>
				<voice>1</voice>
				<type>16th</type>
				<lyric number="1" name="verse">
					<syllabic>single</syllabic>
					<text>le</text>
				</lyric>
			</note>
			<note>
				<pitch>
					<step>A</step>
					<alter>-1</alter>
					<octave>4</octave>
				</pitch>
				<duration>3</duration>
				<voice>1</voice>
				<type>16th</type>
				<lyric number="1" name="verse">
					<syllabic>single</syllabic>
					<text>prin-</text>
				</lyric>
			</note>
		</measure>
		<measure number="36">
			<note>
				<pitch>
					<step>B</step>
					<alter>-1</alter>
					<octave>4</octave>
				</pitch>
				<duration>12</duration>
				<tie type="start"/>
				<voice>1</voice>
				<type>quarter</type>
				<notations>
					<tied type="start"/>
				</notations>
				<lyric number="1" name="verse">
					<syllabic>single</syllabic>
					<text>-temps</text>
				</lyric>
			</note>
			<note>
				<pitch>
					<step>B</step>
					<alter>-1</alter>
					<octave>4</octave>
				</pitch>
				<duration>3</duration>
				<tie type="stop"/>
				<voice>1</voice>
				<type>16th</type>
				<notations>
					<tied type="stop"/>
				</notations>
				<lyric number="1" name="verse">
					<syllabic>single</syllabic>
					<text>|</text>
				</lyric>
			</note>
			<note>
				<pitch>
					<step>B</step>
					<alter>-1</alter>
					<octave>4</octave>
				</pitch>
				<duration>3</duration>
				<voice>1</voice>
				<type>16th</type>
				<lyric number="1" name="verse">
					<syllabic>single</syllabic>
					<text>M'ai-</text>
				</lyric>
			</note>
			<note>
				<pitch>
					<step>A</step>
					<alter>-1</alter>
					<octave>4</octave>
				</pitch>
				<duration>3</duration>
				<voice>1</voice>
				<type>16th</type>
				<lyric number="1" name="verse">
					<syllabic>single</syllabic>
					<text>-me-</text>
				</lyric>
			</note>
			<note>
				<pitch>
					<step>G</step>
					<octave>4</octave>
				</pitch>
				<duration>3</duration>
				<voice>1</voice>
				<type>16th</type>
				<lyric number="1" name="verse">
					<syllabic>single</syllabic>
					<text>-rez-</text>
				</lyric>
			</note>
		</measure>
		<measure number="37">
			<note>
				<pitch>
					<step>C</step>
					<octave>5</octave>
				</pitch>
				<duration>3</duration>
				<voice>1</voice>
				<type>16th</type>
				<lyric number="1" name="verse">
					<syllabic>single</syllabic>
					<text>-vous</text>
				</lyric>
			</note>
			<note>
				<pitch>
					<step>A</step>
					<alter>-1</alter>
					<octave>4</octave>
				</pitch>
				<duration>3</duration>
				<voice>1</voice>
				<type>16th</type>
				<lyric number="1" name="verse">
					<syllabic>single</syllabic>
					<text>com-</text>
				</lyric>
			</note>
			<note>
				<pitch>
					<step>G</step>
					<octave>4</octave>
				</pitch>
				<duration>3</duration>
				<voice>1</voice>
				<type>16th</type>
				<lyric number="1" name="verse">
					<syllabic>single</syllabic>
					<text>me en</text>
				</lyric>
			</note>
			<note>
				<pitch>
					<step>F</step>
					<octave>4</octave>
				</pitch>
				<duration>3</duration>
				<voice>1</voice>
				<type>16th</type>
				<lyric number="1" name="verse">
					<syllabic>single</syllabic>
					<text>au-</text>
				</lyric>
			</note>
			<note>
				<pitch>
					<step>D</step>
					<octave>5</octave>
				</pitch>
				<duration>12</duration>
				<voice>1</voice>
				<type>quarter</type>
				<lyric number="1" name="verse">
					<syllabic>single</syllabic>
					<text>-tom-</text>
				</lyric>
			</note>
		</measure>
		<measure number="38">
			<note>
				<pitch>
					<step>E</step>
					<alter>-1</alter>
					<octave>5</octave>
				</pitch>
				<duration>12</duration>
				<voice>1</voice>
				<type>quarter</type>
				<lyric number="1" name="verse">
					<syllabic>single</syllabic>
					<text>-ne?}</text>
				</lyric>
			</note>
			<note>
				<rest/>
				<duration>12</duration>
				<voice>1</voice>
				<type>quarter</type>
			</note>
		</measure>
		<measure number="39">
			<note>
				<rest/>
				<duration>12</duration>
				<voice>1</voice>
				<type>quarter</type>
			</note>
			<note>
				<rest/>
				<duration>3</duration>
				<voice>1</voice>
				<type>16th</type>
			</note>
			<note>
				<pitch>
					<step>E</step>
					<alter>-1</alter>
					<octave>4</octave>
				</pitch>
				<duration>3</duration>
				<voice>1</voice>
				<type>16th</type>
				<lyric number="1" name="verse">
					<syllabic>single</syllabic>
					<text>{Sur</text>
				</lyric>
			</note>
			<note>
				<pitch>
					<step>E</step>
					<alter>-1</alter>
					<octave>4</octave>
				</pitch>
				<duration>3</duration>
				<voice>1</voice>
				<type>16th</type>
				<lyric number="1" name="verse">
					<syllabic>single</syllabic>
					<text>les</text>
				</lyric>
			</note>
			<note>
				<pitch>
					<step>B</step>
					<alter>-1</alter>
					<octave>4</octave>
				</pitch>
				<duration>3</duration>
				<voice>1</voice>
				<type>16th</type>
				<lyric number="1" name="verse">
					<syllabic>single</syllabic>
					<text>ro-</text>
				</lyric>
			</note>
		</measure>
		<measure number="40">
			<note>
				<pitch>
					<step>B</step>
					<alter>-1</alter>
					<octave>4</octave>
				</pitch>
				<duration>12</duration>
				<voice>1</voice>
				<type>quarter</type>
				<lyric number="1" name="verse">
					<syllabic>single</syllabic>
					<text>siers</text>
				</lyric>
			</note>
			<note>
				<pitch>
					<step>A</step>
					<alter>-1</alter>
					<octave>4</octave>
				</pitch>
				<duration>3</duration>
				<voice>1</voice>
				<type>16th</type>
				<lyric number="1" name="verse">
					<syllabic>single</syllabic>
					<text>de</text>
				</lyric>
			</note>
			<note>
				<pitch>
					<step>G</step>
					<alter>-1</alter>
					<octave>4</octave>
				</pitch>
				<duration>3</duration>
				<voice>1</voice>
				<type>16th</type>
				<accidental>flat</accidental>
				<lyric number="1" name="verse">
					<syllabic>single</syllabic>
					<text>|</text>
				</lyric>
			</note>
			<note>
				<pitch>
					<step>A</step>
					<alter>-1</alter>
					<octave>4</octave>
				</pitch>
				<duration>3</duration>
				<voice>1</voice>
				<type>16th</type>
				<lyric number="1" name="verse">
					<syllabic>single</syllabic>
					<text>nei-</text>
				</lyric>
			</note>
			<note>
				<pitch>
					<step>C</step>
					<octave>5</octave>
				</pitch>
				<duration>3</duration>
				<voice>1</voice>
				<type>16th</type>
				<lyric number="1" name="verse">
					<syllabic>single</syllabic>
					<text>-ge</text>
				</lyric>
			</note>
		</measure>
		<measure number="41">
			<note>
				<pitch>
					<step>B</step>
					<alter>-1</alter>
					<octave>4</octave>
				</pitch>
				<duration>12</duration>
				<tie type="start"/>
				<voice>1</voice>
				<type>quarter</type>
				<notations>
					<tied type="start"/>
				</notations>
				<lyric number="1" name="verse">
					<syllabic>single</syllabic>
					<text>las</text>
				</lyric>
			</note>
			<note>
				<pitch>
					<step>B</step>
					<alter>-1</alter>
					<octave>4</octave>
				</pitch>
				<duration>3</duration>
				<tie type="stop"/>
				<voice>1</voice>
				<type>16th</type>
				<notations>
					<tied type="stop"/>
				</notations>
				<lyric number="1" name="verse">
					<syllabic>single</syllabic>
					<text>|</text>
				</lyric>
			</note>
			<note>
				<pitch>
					<step>E</step>
					<alter>-1</alter>
					<octave>4</octave>
				</pitch>
				<duration>3</duration>
				<voice>1</voice>
				<type>16th</type>
				<lyric number="1" name="verse">
					<syllabic>single</syllabic>
					<text>Re-</text>
				</lyric>
			</note>
			<note>
				<pitch>
					<step>G</step>
					<octave>4</octave>
				</pitch>
				<duration>3</duration>
				<voice>1</voice>
				<type>16th</type>
				<accidental>natural</accidental>
				<lyric number="1" name="verse">
					<syllabic>single</syllabic>
					<text>|</text>
				</lyric>
			</note>
			<note>
				<pitch>
					<step>B</step>
					<alter>-1</alter>
					<octave>4</octave>
				</pitch>
				<duration>3</duration>
				<voice>1</voice>
				<type>16th</type>
				<lyric number="1" name="verse">
					<syllabic>single</syllabic>
					<text>|</text>
				</lyric>
			</note>
		</measure>
		<measure number="42">
			<note>
				<pitch>
					<step>A</step>
					<alter>-1</alter>
					<octave>4</octave>
				</pitch>
				<duration>6</duration>
				<voice>1</voice>
				<type>eighth</type>
				<lyric number="1" name="verse">
					<syllabic>single</syllabic>
					<text>-nai^t</text>
				</lyric>
			</note>
			<note>
				<pitch>
					<step>G</step>
					<octave>4</octave>
				</pitch>
				<duration>3</duration>
				<voice>1</voice>
				<type>16th</type>
				<lyric number="1" name="verse">
					<syllabic>single</syllabic>
					<text>la</text>
				</lyric>
			</note>
			<note>
				<pitch>
					<step>G</step>
					<octave>4</octave>
				</pitch>
				<duration>3</duration>
				<voice>1</voice>
				<type>16th</type>
				<lyric number="1" name="verse">
					<syllabic>single</syllabic>
					<text>par-</text>
				</lyric>
			</note>
			<note>
				<pitch>
					<step>F</step>
					<octave>4</octave>
				</pitch>
				<duration>6</duration>
				<voice>1</voice>
				<type>eighth</type>
				<lyric number="1" name="verse">
					<syllabic>single</syllabic>
					<text>-ru-</text>
				</lyric>
			</note>
			<note>
				<pitch>
					<step>A</step>
					<alter>-1</alter>
					<octave>4</octave>
				</pitch>
				<duration>3</duration>
				<voice>1</voice>
				<type>16th</type>
				<lyric number="1" name="verse">
					<syllabic>single</syllabic>
					<text>-re</text>
				</lyric>
			</note>
			<note>
				<pitch>
					<step>A</step>
					<alter>-1</alter>
					<octave>4</octave>
				</pitch>
				<duration>3</duration>
				<voice>1</voice>
				<type>16th</type>
				<lyric number="1" name="verse">
					<syllabic>single</syllabic>
					<text>des</text>
				</lyric>
			</note>
		</measure>
		<measure number="43">
			<note>
				<pitch>
					<step>G</step>
					<octave>4</octave>
				</pitch>
				<duration>2</duration>
				<voice>1</voice>
				<type>16th</type>
				<time-modification>
					<actual-notes>3</actual-notes>
					<normal-notes>2</normal-notes>
				</time-modification>
				<lyric number="1" name="verse">
					<syllabic>single</syllabic>
					<text>ro-</text>
				</lyric>
			</note>
			<note>
				<pitch>
					<step>A</step>
					<alter>-1</alter>
					<octave>4</octave>
				</pitch>
				<duration>2</duration>
				<voice>1</voice>
				<type>16th</type>
				<time-modification>
					<actual-notes>3</actual-notes>
					<normal-notes>2</normal-notes>
				</time-modification>
				<lyric number="1" name="verse">
					<syllabic>single</syllabic>
					<text>|</text>
				</lyric>
			</note>
			<note>
				<pitch>
					<step>G</step>
					<octave>4</octave>
				</pitch>
				<duration>2</duration>
				<voice>1</voice>
				<type>16th</type>
				<time-modification>
					<actual-notes>3</actual-notes>
					<normal-notes>2</normal-notes>
				</time-modification>
				<lyric number="1" name="verse">
					<syllabic>single</syllabic>
					<text>|</text>
				</lyric>
			</note>
			<note>
				<pitch>
					<step>F</step>
					<octave>4</octave>
				</pitch>
				<duration>2</duration>
				<voice>1</voice>
				<type>16th</type>
				<time-modification>
					<actual-notes>3</actual-notes>
					<normal-notes>2</normal-notes>
				</time-modification>
				<lyric number="1" name="verse">
					<syllabic>single</syllabic>
					<text>|</text>
				</lyric>
			</note>
			<note>
				<pitch>
					<step>G</step>
					<octave>4</octave>
				</pitch>
				<duration>2</duration>
				<voice>1</voice>
				<type>16th</type>
				<time-modification>
					<actual-notes>3</actual-notes>
					<normal-notes>2</normal-notes>
				</time-modification>
				<lyric number="1" name="verse">
					<syllabic>single</syllabic>
					<text>|</text>
				</lyric>
			</note>
			<note>
				<pitch>
					<step>F</step>
					<octave>4</octave>
				</pitch>
				<duration>2</duration>
				<voice>1</voice>
				<type>16th</type>
				<time-modification>
					<actual-notes>3</actual-notes>
					<normal-notes>2</normal-notes>
				</time-modification>
				<lyric number="1" name="verse">
					<syllabic>single</syllabic>
					<text>|</text>
				</lyric>
			</note>
			<note>
				<pitch>
					<step>E</step>
					<alter>-1</alter>
					<octave>4</octave>
				</pitch>
				<duration>12</duration>
				<voice>1</voice>
				<type>quarter</type>
				<lyric number="1" name="verse">
					<syllabic>single</syllabic>
					<text>-ses.}</text>
				</lyric>
			</note>
		</measure>
		<measure number="44">
			<note>
				<rest/>
				<duration>12</duration>
				<voice>1</voice>
				<type>quarter</type>
			</note>
			<note>
				<rest/>
				<duration>3</duration>
				<voice>1</voice>
				<type>16th</type>
			</note>
			<note>
				<pitch>
					<step>E</step>
					<alter>-1</alter>
					<octave>4</octave>
				</pitch>
				<duration>3</duration>
				<voice>1</voice>
				<type>16th</type>
				<lyric number="1" name="verse">
					<syllabic>single</syllabic>
					<text>{Le</text>
				</lyric>
			</note>
			<note>
				<pitch>
					<step>E</step>
					<alter>-1</alter>
					<octave>4</octave>
				</pitch>
				<duration>3</duration>
				<voice>1</voice>
				<type>16th</type>
				<lyric number="1" name="verse">
					<syllabic>single</syllabic>
					<text>glas</text>
				</lyric>
			</note>
			<note>
				<pitch>
					<step>B</step>
					<alter>-1</alter>
					<octave>4</octave>
				</pitch>
				<duration>3</duration>
				<voice>1</voice>
				<type>16th</type>
				<lyric number="1" name="verse">
					<syllabic>single</syllabic>
					<text>joy-</text>
				</lyric>
			</note>
		</measure>
		<measure number="45">
			<note>
				<pitch>
					<step>B</step>
					<alter>-1</alter>
					<octave>4</octave>
				</pitch>
				<duration>12</duration>
				<voice>1</voice>
				<type>quarter</type>
				<lyric number="1" name="verse">
					<syllabic>single</syllabic>
					<text>-eux</text>
				</lyric>
			</note>
			<note>
				<pitch>
					<step>A</step>
					<alter>-1</alter>
					<octave>4</octave>
				</pitch>
				<duration>3</duration>
				<voice>1</voice>
				<type>16th</type>
				<lyric number="1" name="verse">
					<syllabic>single</syllabic>
					<text>des</text>
				</lyric>
			</note>
			<note>
				<pitch>
					<step>G</step>
					<octave>4</octave>
				</pitch>
				<duration>3</duration>
				<voice>1</voice>
				<type>16th</type>
				<lyric number="1" name="verse">
					<syllabic>single</syllabic>
					<text>|</text>
				</lyric>
			</note>
			<note>
				<pitch>
					<step>A</step>
					<alter>-1</alter>
					<octave>4</octave>
				</pitch>
				<duration>3</duration>
				<voice>1</voice>
				<type>16th</type>
				<lyric number="1" name="verse">
					<syllabic>single</syllabic>
					<text>temps</text>
				</lyric>
			</note>
			<note>
				<pitch>
					<step>C</step>
					<octave>5</octave>
				</pitch>
				<duration>3</duration>
				<voice>1</voice>
				<type>16th</type>
				<lyric number="1" name="verse">
					<syllabic>single</syllabic>
					<text>mo-</text>
				</lyric>
			</note>
		</measure>
		<measure number="46">
			<note>
				<pitch>
					<step>B</step>
					<alter>-1</alter>
					<octave>4</octave>
				</pitch>
				<duration>12</duration>
				<voice>1</voice>
				<type>quarter</type>
				<lyric number="1" name="verse">
					<syllabic>single</syllabic>
					<text>-ro-</text>
				</lyric>
			</note>
			<note>
				<pitch>
					<step>B</step>
					<alter>-1</alter>
					<octave>4</octave>
				</pitch>
				<duration>6</duration>
				<voice>1</voice>
				<type>eighth</type>
				<lyric number="1" name="verse">
					<syllabic>single</syllabic>
					<text>-ses</text>
				</lyric>
			</note>
			<note>
				<pitch>
					<step>C</step>
					<octave>5</octave>
				</pitch>
				<duration>6</duration>
				<voice>1</voice>
				<type>eighth</type>
				<lyric number="1" name="verse">
					<syllabic>single</syllabic>
					<text>Sonne</text>
				</lyric>
			</note>
		</measure>
		<measure number="47">
			<note>
				<pitch>
					<step>D</step>
					<alter>-1</alter>
					<octave>5</octave>
				</pitch>
				<duration>3</duration>
				<voice>1</voice>
				<type>16th</type>
				<accidental>flat</accidental>
				<lyric number="1" name="verse">
					<syllabic>single</syllabic>
					<text>aux</text>
				</lyric>
			</note>
			<note>
				<pitch>
					<step>B</step>
					<alter>-1</alter>
					<octave>4</octave>
				</pitch>
				<duration>3</duration>
				<voice>1</voice>
				<type>16th</type>
				<lyric number="1" name="verse">
					<syllabic>single</syllabic>
					<text>clo-</text>
				</lyric>
			</note>
			<note>
				<pitch>
					<step>G</step>
					<alter>-1</alter>
					<octave>4</octave>
				</pitch>
				<duration>3</duration>
				<voice>1</voice>
				<type>16th</type>
				<accidental>flat</accidental>
				<lyric number="1" name="verse">
					<syllabic>single</syllabic>
					<text>-chet-</text>
				</lyric>
			</note>
			<note>
				<pitch>
					<step>D</step>
					<alter>-1</alter>
					<octave>4</octave>
				</pitch>
				<duration>3</duration>
				<voice>1</voice>
				<type>16th</type>
				<lyric number="1" name="verse">
					<syllabic>single</syllabic>
					<text>-tes</text>
				</lyric>
			</note>
			<note>
				<pitch>
					<step>E</step>
					<alter>-1</alter>
					<octave>4</octave>
				</pitch>
				<duration>6</duration>
				<voice>1</voice>
				<type>eighth</type>
				<lyric number="1" name="verse">
					<syllabic>single</syllabic>
					<text>des</text>
				</lyric>
			</note>
			<note>
				<pitch>
					<step>A</step>
					<alter>-1</alter>
					<octave>4</octave>
				</pitch>
				<duration>2</duration>
				<voice>1</voice>
				<type>16th</type>
				<time-modification>
					<actual-notes>3</actual-notes>
					<normal-notes>2</normal-notes>
				</time-modification>
				<lyric number="1" name="verse">
					<syllabic>single</syllabic>
					<text>li-</text>
				</lyric>
			</note>
			<note>
				<pitch>
					<step>B</step>
					<alter>-1</alter>
					<octave>4</octave>
				</pitch>
				<duration>2</duration>
				<voice>1</voice>
				<type>16th</type>
				<time-modification>
					<actual-notes>3</actual-notes>
					<normal-notes>2</normal-notes>
				</time-modification>
				<lyric number="1" name="verse">
					<syllabic>single</syllabic>
					<text>|</text>
				</lyric>
			</note>
			<note>
				<pitch>
					<step>A</step>
					<alter>-1</alter>
					<octave>4</octave>
				</pitch>
				<duration>2</duration>
				<voice>1</voice>
				<type>16th</type>
				<time-modification>
					<actual-notes>3</actual-notes>
					<normal-notes>2</normal-notes>
				</time-modification>
				<lyric number="1" name="verse">
					<syllabic>single</syllabic>
					<text>|</text>
				</lyric>
			</note>
		</measure>
		<measure number="48">
			<note>
				<pitch>
					<step>G</step>
					<alter>-1</alter>
					<octave>4</octave>
				</pitch>
				<duration>12</duration>
				<voice>1</voice>
				<type>quarter</type>
				<accidental>flat</accidental>
				<lyric number="1" name="verse">
					<syllabic>single</syllabic>
					<text>-las.}</text>
				</lyric>
			</note>
			<note>
				<rest/>
				<duration>12</duration>
				<voice>1</voice>
				<type>quarter</type>
			</note>
		</measure>
		<measure number="49">
			<note>
				<rest/>
				<duration>12</duration>
				<voice>1</voice>
				<type>quarter</type>
			</note>
			<note>
				<rest/>
				<duration>6</duration>
				<voice>1</voice>
				<type>eighth</type>
			</note>
			<note>
				<pitch>
					<step>B</step>
					<alter>-1</alter>
					<octave>3</octave>
				</pitch>
				<duration>6</duration>
				<voice>1</voice>
				<type>eighth</type>
				<lyric number="1" name="verse">
					<syllabic>single</syllabic>
					<text>{Au</text>
				</lyric>
			</note>
		</measure>
		<measure number="50">
			<note>
				<pitch>
					<step>C</step>
					<octave>5</octave>
				</pitch>
				<duration>6</duration>
				<voice>1</voice>
				<type>eighth</type>
				<lyric number="1" name="verse">
					<syllabic>single</syllabic>
					<text>lieu</text>
				</lyric>
			</note>
			<note>
				<pitch>
					<step>C</step>
					<octave>5</octave>
				</pitch>
				<duration>3</duration>
				<voice>1</voice>
				<type>16th</type>
				<lyric number="1" name="verse">
					<syllabic>single</syllabic>
					<text>d'un</text>
				</lyric>
			</note>
			<note>
				<pitch>
					<step>C</step>
					<octave>5</octave>
				</pitch>
				<duration>3</duration>
				<voice>1</voice>
				<type>16th</type>
				<lyric number="1" name="verse">
					<syllabic>single</syllabic>
					<text>ha-</text>
				</lyric>
			</note>
			<note>
				<pitch>
					<step>C</step>
					<octave>5</octave>
				</pitch>
				<duration>6</duration>
				<voice>1</voice>
				<type>eighth</type>
				<lyric number="1" name="verse">
					<syllabic>single</syllabic>
					<text>-bit</text>
				</lyric>
			</note>
			<note>
				<pitch>
					<step>C</step>
					<octave>5</octave>
				</pitch>
				<duration>3</duration>
				<voice>1</voice>
				<type>16th</type>
				<lyric number="1" name="verse">
					<syllabic>single</syllabic>
					<text>mo-</text>
				</lyric>
			</note>
			<note>
				<pitch>
					<step>C</step>
					<octave>5</octave>
				</pitch>
				<duration>3</duration>
				<voice>1</voice>
				<type>16th</type>
				<lyric number="1" name="verse">
					<syllabic>single</syllabic>
					<text>-no-</text>
				</lyric>
			</note>
		</measure>
		<measure number="51">
			<note>
				<pitch>
					<step>B</step>
					<alter>-1</alter>
					<octave>3</octave>
				</pitch>
				<duration>12</duration>
				<tie type="start"/>
				<voice>1</voice>
				<type>quarter</type>
				<notations>
					<tied type="start"/>
				</notations>
				<lyric number="1" name="verse">
					<syllabic>single</syllabic>
					<text>-to-</text>
				</lyric>
			</note>
			<note>
				<pitch>
					<step>B</step>
					<alter>-1</alter>
					<octave>3</octave>
				</pitch>
				<duration>6</duration>
				<tie type="stop"/>
				<voice>1</voice>
				<type>eighth</type>
				<notations>
					<tied type="stop"/>
				</notations>
				<lyric number="1" name="verse">
					<syllabic>single</syllabic>
					<text>-ne</text>
				</lyric>
			</note>
			<note>
				<pitch>
					<step>B</step>
					<alter>-1</alter>
					<octave>3</octave>
				</pitch>
				<duration>6</duration>
				<voice>1</voice>
				<type>eighth</type>
				<lyric number="1" name="verse">
					<syllabic>single</syllabic>
					<text>Le</text>
				</lyric>
			</note>
		</measure>
		<measure number="52">
			<note>
				<pitch>
					<step>C</step>
					<octave>5</octave>
				</pitch>
				<duration>9</duration>
				<voice>1</voice>
				<type>eighth</type>
				<dot/>
				<lyric number="1" name="verse">
					<syllabic>single</syllabic>
					<text>ciel</text>
				</lyric>
			</note>
			<note>
				<pitch>
					<step>C</step>
					<octave>5</octave>
				</pitch>
				<duration>3</duration>
				<voice>1</voice>
				<type>16th</type>
				<lyric number="1" name="verse">
					<syllabic>single</syllabic>
					<text>en</text>
				</lyric>
			</note>
			<note>
				<pitch>
					<step>C</step>
					<octave>5</octave>
				</pitch>
				<duration>3</duration>
				<voice>1</voice>
				<type>16th</type>
				<lyric number="1" name="verse">
					<syllabic>single</syllabic>
					<text>por-</text>
				</lyric>
			</note>
			<note>
				<pitch>
					<step>C</step>
					<octave>5</octave>
				</pitch>
				<duration>3</duration>
				<voice>1</voice>
				<type>16th</type>
				<lyric number="1" name="verse">
					<syllabic>single</syllabic>
					<text>-te</text>
				</lyric>
			</note>
			<note>
				<pitch>
					<step>C</step>
					<octave>5</octave>
				</pitch>
				<duration>3</duration>
				<voice>1</voice>
				<type>16th</type>
				<lyric number="1" name="verse">
					<syllabic>single</syllabic>
					<text>d'e/-</text>
				</lyric>
			</note>
			<note>
				<pitch>
					<step>C</step>
					<octave>5</octave>
				</pitch>
				<duration>3</duration>
				<voice>1</voice>
				<type>16th</type>
				<lyric number="1" name="verse">
					<syllabic>single</syllabic>
					<text>-cla-</text>
				</lyric>
			</note>
		</measure>
		<measure number="53">
			<note>
				<pitch>
					<step>D</step>
					<octave>5</octave>
				</pitch>
				<duration>18</duration>
				<voice>1</voice>
				<type>quarter</type>
				<dot/>
				<lyric number="1" name="verse">
					<syllabic>single</syllabic>
					<text>-tants.}</text>
				</lyric>
			</note>
			<note>
				<pitch>
					<step>B</step>
					<alter>-1</alter>
					<octave>4</octave>
				</pitch>
				<duration>6</duration>
				<voice>1</voice>
				<type>eighth</type>
				<lyric number="1" name="verse">
					<syllabic>single</syllabic>
					<text>{Ma-</text>
				</lyric>
			</note>
		</measure>
		<measure number="54">
			<note>
				<pitch>
					<step>E</step>
					<alter>-1</alter>
					<octave>5</octave>
				</pitch>
				<duration>6</duration>
				<voice>1</voice>
				<type>eighth</type>
				<lyric number="1" name="verse">
					<syllabic>single</syllabic>
					<text>-da-</text>
				</lyric>
			</note>
			<note>
				<pitch>
					<step>B</step>
					<alter>-1</alter>
					<octave>4</octave>
				</pitch>
				<duration>6</duration>
				<voice>1</voice>
				<type>eighth</type>
				<lyric number="1" name="verse">
					<syllabic>single</syllabic>
					<text>-me,</text>
				</lyric>
			</note>
			<note>
				<pitch>
					<step>G</step>
					<octave>4</octave>
				</pitch>
				<duration>3</duration>
				<voice>1</voice>
				<type>16th</type>
				<lyric number="1" name="verse">
					<syllabic>single</syllabic>
					<text>voi-</text>
				</lyric>
			</note>
			<note>
				<pitch>
					<step>F</step>
					<octave>4</octave>
				</pitch>
				<duration>3</duration>
				<voice>1</voice>
				<type>16th</type>
				<lyric number="1" name="verse">
					<syllabic>single</syllabic>
					<text>-ci</text>
				</lyric>
			</note>
			<note>
				<pitch>
					<step>G</step>
					<octave>4</octave>
				</pitch>
				<duration>3</duration>
				<voice>1</voice>
				<type>16th</type>
				<lyric number="1" name="verse">
					<syllabic>single</syllabic>
					<text>le</text>
				</lyric>
			</note>
			<note>
				<pitch>
					<step>A</step>
					<alter>-1</alter>
					<octave>4</octave>
				</pitch>
				<duration>3</duration>
				<voice>1</voice>
				<type>16th</type>
				<lyric number="1" name="verse">
					<syllabic>single</syllabic>
					<text>prin-</text>
				</lyric>
			</note>
		</measure>
		<measure number="55">
			<note>
				<pitch>
					<step>B</step>
					<alter>-1</alter>
					<octave>4</octave>
				</pitch>
				<duration>12</duration>
				<tie type="start"/>
				<voice>1</voice>
				<type>quarter</type>
				<notations>
					<tied type="start"/>
				</notations>
				<lyric number="1" name="verse">
					<syllabic>single</syllabic>
					<text>-temps,</text>
				</lyric>
			</note>
			<note>
				<pitch>
					<step>B</step>
					<alter>-1</alter>
					<octave>4</octave>
				</pitch>
				<duration>3</duration>
				<tie type="stop"/>
				<voice>1</voice>
				<type>16th</type>
				<notations>
					<tied type="stop"/>
				</notations>
				<lyric number="1" name="verse">
					<syllabic>single</syllabic>
					<text>|</text>
				</lyric>
			</note>
			<note>
				<pitch>
					<step>B</step>
					<alter>-1</alter>
					<octave>4</octave>
				</pitch>
				<duration>3</duration>
				<voice>1</voice>
				<type>16th</type>
				<lyric number="1" name="verse">
					<syllabic>single</syllabic>
					<text>Ai-</text>
				</lyric>
			</note>
			<note>
				<pitch>
					<step>A</step>
					<alter>-1</alter>
					<octave>4</octave>
				</pitch>
				<duration>3</duration>
				<voice>1</voice>
				<type>16th</type>
				<lyric number="1" name="verse">
					<syllabic>single</syllabic>
					<text>mons</text>
				</lyric>
			</note>
			<note>
				<pitch>
					<step>G</step>
					<octave>4</octave>
				</pitch>
				<duration>3</duration>
				<voice>1</voice>
				<type>16th</type>
				<lyric number="1" name="verse">
					<syllabic>single</syllabic>
					<text>nous</text>
				</lyric>
			</note>
		</measure>
		<measure number="56">
			<note>
				<pitch>
					<step>C</step>
					<octave>5</octave>
				</pitch>
				<duration>3</duration>
				<voice>1</voice>
				<type>16th</type>
				<lyric number="1" name="verse">
					<syllabic>single</syllabic>
					<text>donc</text>
				</lyric>
			</note>
			<note>
				<pitch>
					<step>A</step>
					<alter>-1</alter>
					<octave>4</octave>
				</pitch>
				<duration>3</duration>
				<voice>1</voice>
				<type>16th</type>
				<lyric number="1" name="verse">
					<syllabic>single</syllabic>
					<text>plus</text>
				</lyric>
			</note>
			<note>
				<pitch>
					<step>G</step>
					<octave>4</octave>
				</pitch>
				<duration>3</duration>
				<voice>1</voice>
				<type>16th</type>
				<lyric number="1" name="verse">
					<syllabic>single</syllabic>
					<text>qu'en</text>
				</lyric>
			</note>
			<note>
				<pitch>
					<step>F</step>
					<octave>4</octave>
				</pitch>
				<duration>3</duration>
				<voice>1</voice>
				<type>16th</type>
				<lyric number="1" name="verse">
					<syllabic>single</syllabic>
					<text>au-</text>
				</lyric>
			</note>
			<note>
				<pitch>
					<step>D</step>
					<octave>5</octave>
				</pitch>
				<duration>12</duration>
				<voice>1</voice>
				<type>quarter</type>
				<lyric number="1" name="verse">
					<syllabic>single</syllabic>
					<text>-tom-</text>
				</lyric>
			</note>
		</measure>
		<measure number="57">
			<note>
				<pitch>
					<step>E</step>
					<alter>-1</alter>
					<octave>5</octave>
				</pitch>
				<duration>12</duration>
				<voice>1</voice>
				<type>quarter</type>
				<lyric number="1" name="verse">
					<syllabic>single</syllabic>
					<text>-ne.}</text>
				</lyric>
			</note>
			<note>
				<rest/>
				<duration>12</duration>
				<voice>1</voice>
				<type>quarter</type>
			</note>
		</measure>
	</part>
</score-partwise>
