<?xml version="1.0" encoding="UTF-8"?>
<!DOCTYPE score-partwise PUBLIC "-//Recordare//DTD MusicXML 2.0 Partwise//EN" "http://www.musicxml.org/dtds/partwise.dtd">
<!-- INFO key="COM" value="Victor Masse/" -->
<!-- INFO key="TXO" value="Francais" -->
<!-- INFO key="OTL" value="Eho!" -->
<!-- INFO key="LYR" value="(Poe/sie Populaire)" -->
<!-- INFO key="ONM" value="No. 7" -->
<!-- INFO key="ENC" value="Jacob Pegg" -->
<!-- INFO key="YOR" value="Romantic French Song 1830-1870 -David Tunley, ed.," -->
<!-- INFO key="YOR" value="New York: Garland Publishing, Inc., 1995, Vol. 4" -->
<!-- INFO key="ODT" value="1874/" -->
<!-- GCOMMENT value="NB: Vocal melody and text only encoded." -->
<!-- GCOMMENT value="NB: First instance of melodic material only encoded." -->
<score-partwise version="2.0">
	<part-list>
		<score-part id="P1">
			<part-name></part-name>
		</score-part>
	</part-list>

	<part id="P1">
		<measure number="1">
			<attributes>
				<divisions>4</divisions>
			</attributes>
			<attributes>
				<key>
					<fifths>-3</fifths>
				</key>
			</attributes>
			<attributes>
				<time>
					<beats>6</beats>
					<beat-type>8</beat-type>
				</time>
			</attributes>
			<note>
				<pitch>
					<step>C</step>
					<octave>5</octave>
				</pitch>
				<duration>4</duration>
				<voice>1</voice>
				<type>quarter</type>
				<lyric number="1" name="verse">
					<syllabic>single</syllabic>
					<text>{Tant</text>
				</lyric>
			</note>
			<note>
				<pitch>
					<step>D</step>
					<octave>5</octave>
				</pitch>
				<duration>2</duration>
				<voice>1</voice>
				<type>eighth</type>
				<lyric number="1" name="verse">
					<syllabic>single</syllabic>
					<text>qu'aux</text>
				</lyric>
			</note>
			<note>
				<pitch>
					<step>E</step>
					<alter>-1</alter>
					<octave>5</octave>
				</pitch>
				<duration>2</duration>
				<voice>1</voice>
				<type>eighth</type>
				<lyric number="1" name="verse">
					<syllabic>single</syllabic>
					<text>bords</text>
				</lyric>
			</note>
			<note>
				<pitch>
					<step>D</step>
					<octave>5</octave>
				</pitch>
				<duration>2</duration>
				<voice>1</voice>
				<type>eighth</type>
				<lyric number="1" name="verse">
					<syllabic>single</syllabic>
					<text>des</text>
				</lyric>
			</note>
			<note>
				<pitch>
					<step>C</step>
					<octave>5</octave>
				</pitch>
				<duration>2</duration>
				<voice>1</voice>
				<type>eighth</type>
				<lyric number="1" name="verse">
					<syllabic>single</syllabic>
					<text>fon-</text>
				</lyric>
			</note>
		</measure>
		<measure number="2">
			<note>
				<pitch>
					<step>A</step>
					<alter>-1</alter>
					<octave>4</octave>
				</pitch>
				<duration>3</duration>
				<voice>1</voice>
				<type>eighth</type>
				<dot/>
				<lyric number="1" name="verse">
					<syllabic>single</syllabic>
					<text>-tai-</text>
				</lyric>
			</note>
			<note>
				<pitch>
					<step>B</step>
					<alter>-1</alter>
					<octave>4</octave>
				</pitch>
				<duration>1</duration>
				<voice>1</voice>
				<type>16th</type>
				<lyric number="1" name="verse">
					<syllabic>single</syllabic>
					<text>|</text>
				</lyric>
			</note>
			<note>
				<pitch>
					<step>C</step>
					<octave>5</octave>
				</pitch>
				<duration>1</duration>
				<voice>1</voice>
				<type>16th</type>
				<lyric number="1" name="verse">
					<syllabic>single</syllabic>
					<text>|</text>
				</lyric>
			</note>
			<note>
				<pitch>
					<step>B</step>
					<alter>-1</alter>
					<octave>4</octave>
				</pitch>
				<duration>1</duration>
				<voice>1</voice>
				<type>16th</type>
				<lyric number="1" name="verse">
					<syllabic>single</syllabic>
					<text>|</text>
				</lyric>
			</note>
			<note>
				<pitch>
					<step>A</step>
					<alter>-1</alter>
					<octave>4</octave>
				</pitch>
				<duration>3</duration>
				<voice>1</voice>
				<type>eighth</type>
				<dot/>
				<lyric number="1" name="verse">
					<syllabic>single</syllabic>
					<text>|</text>
				</lyric>
			</note>
			<note>
				<pitch>
					<step>B</step>
					<alter>-1</alter>
					<octave>4</octave>
				</pitch>
				<duration>1</duration>
				<voice>1</voice>
				<type>16th</type>
				<lyric number="1" name="verse">
					<syllabic>single</syllabic>
					<text>|</text>
				</lyric>
			</note>
			<note>
				<pitch>
					<step>C</step>
					<octave>5</octave>
				</pitch>
				<duration>1</duration>
				<voice>1</voice>
				<type>16th</type>
				<lyric number="1" name="verse">
					<syllabic>single</syllabic>
					<text>|</text>
				</lyric>
			</note>
			<note>
				<pitch>
					<step>A</step>
					<alter>-1</alter>
					<octave>4</octave>
				</pitch>
				<duration>1</duration>
				<voice>1</voice>
				<type>16th</type>
				<lyric number="1" name="verse">
					<syllabic>single</syllabic>
					<text>|</text>
				</lyric>
			</note>
		</measure>
		<measure number="3">
			<note>
				<pitch>
					<step>G</step>
					<octave>4</octave>
				</pitch>
				<duration>4</duration>
				<voice>1</voice>
				<type>quarter</type>
				<lyric number="1" name="verse">
					<syllabic>single</syllabic>
					<text>-nes}</text>
				</lyric>
			</note>
			<note>
				<rest/>
				<duration>2</duration>
				<voice>1</voice>
				<type>eighth</type>
			</note>
			<note>
				<pitch>
					<step>F</step>
					<octave>4</octave>
				</pitch>
				<duration>2</duration>
				<voice>1</voice>
				<type>eighth</type>
				<lyric number="1" name="verse">
					<syllabic>single</syllabic>
					<text>{Ou\</text>
				</lyric>
			</note>
			<note>
				<pitch>
					<step>G</step>
					<octave>4</octave>
				</pitch>
				<duration>2</duration>
				<voice>1</voice>
				<type>eighth</type>
				<lyric number="1" name="verse">
					<syllabic>single</syllabic>
					<text>|</text>
				</lyric>
			</note>
			<note>
				<pitch>
					<step>A</step>
					<alter>-1</alter>
					<octave>4</octave>
				</pitch>
				<duration>2</duration>
				<voice>1</voice>
				<type>eighth</type>
				<lyric number="1" name="verse">
					<syllabic>single</syllabic>
					<text>|</text>
				</lyric>
			</note>
		</measure>
		<measure number="4">
			<note>
				<pitch>
					<step>G</step>
					<octave>4</octave>
				</pitch>
				<duration>2</duration>
				<voice>1</voice>
				<type>eighth</type>
				<lyric number="1" name="verse">
					<syllabic>single</syllabic>
					<text>dans</text>
				</lyric>
			</note>
			<note>
				<pitch>
					<step>F</step>
					<octave>4</octave>
				</pitch>
				<duration>2</duration>
				<voice>1</voice>
				<type>eighth</type>
				<lyric number="1" name="verse">
					<syllabic>single</syllabic>
					<text>|</text>
				</lyric>
			</note>
			<note>
				<pitch>
					<step>E</step>
					<alter>-1</alter>
					<octave>4</octave>
				</pitch>
				<duration>2</duration>
				<voice>1</voice>
				<type>eighth</type>
				<lyric number="1" name="verse">
					<syllabic>single</syllabic>
					<text>les</text>
				</lyric>
			</note>
			<note>
				<pitch>
					<step>D</step>
					<octave>4</octave>
				</pitch>
				<duration>1</duration>
				<voice>1</voice>
				<type>16th</type>
				<lyric number="1" name="verse">
					<syllabic>single</syllabic>
					<text>frais</text>
				</lyric>
			</note>
			<note>
				<pitch>
					<step>E</step>
					<alter>-1</alter>
					<octave>4</octave>
				</pitch>
				<duration>1</duration>
				<voice>1</voice>
				<type>16th</type>
				<lyric number="1" name="verse">
					<syllabic>single</syllabic>
					<text>|</text>
				</lyric>
			</note>
			<note>
				<pitch>
					<step>F</step>
					<octave>4</octave>
				</pitch>
				<duration>2</duration>
				<voice>1</voice>
				<type>eighth</type>
				<lyric number="1" name="verse">
					<syllabic>single</syllabic>
					<text>|</text>
				</lyric>
			</note>
			<note>
				<pitch>
					<step>G</step>
					<octave>4</octave>
				</pitch>
				<duration>2</duration>
				<voice>1</voice>
				<type>eighth</type>
				<lyric number="1" name="verse">
					<syllabic>single</syllabic>
					<text>ruis-</text>
				</lyric>
			</note>
		</measure>
		<measure number="5">
			<note>
				<pitch>
					<step>G</step>
					<octave>4</octave>
				</pitch>
				<duration>2</duration>
				<voice>1</voice>
				<type>eighth</type>
				<lyric number="1" name="verse">
					<syllabic>single</syllabic>
					<text>-seaux</text>
				</lyric>
			</note>
			<note>
				<pitch>
					<step>C</step>
					<octave>4</octave>
				</pitch>
				<duration>4</duration>
				<tie type="start"/>
				<voice>1</voice>
				<type>quarter</type>
				<notations>
					<tied type="start"/>
				</notations>
				<lyric number="1" name="verse">
					<syllabic>single</syllabic>
					<text>|</text>
				</lyric>
			</note>
			<note>
				<pitch>
					<step>C</step>
					<octave>4</octave>
				</pitch>
				<duration>4</duration>
				<tie type="stop"/>
				<voice>1</voice>
				<type>quarter</type>
				<notations>
					<tied type="stop"/>
				</notations>
				<lyric number="1" name="verse">
					<syllabic>single</syllabic>
					<text>|}</text>
				</lyric>
			</note>
			<note>
				<rest/>
				<duration>2</duration>
				<voice>1</voice>
				<type>eighth</type>
			</note>
		</measure>
		<measure number="6">
			<note>
				<pitch>
					<step>F</step>
					<octave>4</octave>
				</pitch>
				<duration>4</duration>
				<voice>1</voice>
				<type>quarter</type>
				<lyric number="1" name="verse">
					<syllabic>single</syllabic>
					<text>{Les</text>
				</lyric>
			</note>
			<note>
				<pitch>
					<step>G</step>
					<octave>4</octave>
				</pitch>
				<duration>2</duration>
				<voice>1</voice>
				<type>eighth</type>
				<lyric number="1" name="verse">
					<syllabic>single</syllabic>
					<text>mou-</text>
				</lyric>
			</note>
			<note>
				<pitch>
					<step>A</step>
					<alter>-1</alter>
					<octave>4</octave>
				</pitch>
				<duration>2</duration>
				<voice>1</voice>
				<type>eighth</type>
				<lyric number="1" name="verse">
					<syllabic>single</syllabic>
					<text>-tons</text>
				</lyric>
			</note>
			<note>
				<pitch>
					<step>B</step>
					<alter>-1</alter>
					<octave>4</octave>
				</pitch>
				<duration>2</duration>
				<voice>1</voice>
				<type>eighth</type>
				<lyric number="1" name="verse">
					<syllabic>single</syllabic>
					<text>baign'-</text>
				</lyric>
			</note>
			<note>
				<pitch>
					<step>C</step>
					<octave>5</octave>
				</pitch>
				<duration>2</duration>
				<voice>1</voice>
				<type>eighth</type>
				<lyric number="1" name="verse">
					<syllabic>single</syllabic>
					<text>-leur</text>
				</lyric>
			</note>
		</measure>
		<measure number="7">
			<note>
				<pitch>
					<step>B</step>
					<alter>-1</alter>
					<octave>4</octave>
				</pitch>
				<duration>3</duration>
				<voice>1</voice>
				<type>eighth</type>
				<dot/>
				<lyric number="1" name="verse">
					<syllabic>single</syllabic>
					<text>lai-</text>
				</lyric>
			</note>
			<note>
				<pitch>
					<step>A</step>
					<alter>-1</alter>
					<octave>4</octave>
				</pitch>
				<duration>1</duration>
				<voice>1</voice>
				<type>16th</type>
				<lyric number="1" name="verse">
					<syllabic>single</syllabic>
					<text>|</text>
				</lyric>
			</note>
			<note>
				<pitch>
					<step>G</step>
					<octave>4</octave>
				</pitch>
				<duration>1</duration>
				<voice>1</voice>
				<type>16th</type>
				<lyric number="1" name="verse">
					<syllabic>single</syllabic>
					<text>|</text>
				</lyric>
			</note>
			<note>
				<pitch>
					<step>A</step>
					<alter>-1</alter>
					<octave>4</octave>
				</pitch>
				<duration>1</duration>
				<voice>1</voice>
				<type>16th</type>
				<lyric number="1" name="verse">
					<syllabic>single</syllabic>
					<text>|</text>
				</lyric>
			</note>
			<note>
				<pitch>
					<step>B</step>
					<alter>-1</alter>
					<octave>4</octave>
				</pitch>
				<duration>3</duration>
				<voice>1</voice>
				<type>eighth</type>
				<dot/>
				<lyric number="1" name="verse">
					<syllabic>single</syllabic>
					<text>|</text>
				</lyric>
			</note>
			<note>
				<pitch>
					<step>C</step>
					<octave>5</octave>
				</pitch>
				<duration>1</duration>
				<voice>1</voice>
				<type>16th</type>
				<lyric number="1" name="verse">
					<syllabic>single</syllabic>
					<text>|</text>
				</lyric>
			</note>
			<note>
				<pitch>
					<step>D</step>
					<octave>5</octave>
				</pitch>
				<duration>1</duration>
				<voice>1</voice>
				<type>16th</type>
				<lyric number="1" name="verse">
					<syllabic>single</syllabic>
					<text>|</text>
				</lyric>
			</note>
			<note>
				<pitch>
					<step>E</step>
					<alter>-1</alter>
					<octave>5</octave>
				</pitch>
				<duration>1</duration>
				<voice>1</voice>
				<type>16th</type>
				<lyric number="1" name="verse">
					<syllabic>single</syllabic>
					<text>|</text>
				</lyric>
			</note>
		</measure>
		<measure number="8">
			<note>
				<pitch>
					<step>B</step>
					<alter>-1</alter>
					<octave>4</octave>
				</pitch>
				<duration>4</duration>
				<voice>1</voice>
				<type>quarter</type>
				<lyric number="1" name="verse">
					<syllabic>single</syllabic>
					<text>-nes}</text>
				</lyric>
			</note>
			<note>
				<rest/>
				<duration>2</duration>
				<voice>1</voice>
				<type>eighth</type>
			</note>
			<note>
				<pitch>
					<step>A</step>
					<alter>-1</alter>
					<octave>4</octave>
				</pitch>
				<duration>2</duration>
				<voice>1</voice>
				<type>eighth</type>
				<lyric number="1" name="verse">
					<syllabic>single</syllabic>
					<text>{Et</text>
				</lyric>
			</note>
			<note>
				<pitch>
					<step>G</step>
					<octave>4</octave>
				</pitch>
				<duration>2</duration>
				<voice>1</voice>
				<type>eighth</type>
				<lyric number="1" name="verse">
					<syllabic>single</syllabic>
					<text>|</text>
				</lyric>
			</note>
			<note>
				<pitch>
					<step>F</step>
					<octave>4</octave>
				</pitch>
				<duration>2</duration>
				<voice>1</voice>
				<type>eighth</type>
				<lyric number="1" name="verse">
					<syllabic>single</syllabic>
					<text>|</text>
				</lyric>
			</note>
		</measure>
		<measure number="9">
			<note>
				<pitch>
					<step>E</step>
					<alter>-1</alter>
					<octave>4</octave>
				</pitch>
				<duration>2</duration>
				<voice>1</voice>
				<type>eighth</type>
				<lyric number="1" name="verse">
					<syllabic>single</syllabic>
					<text>dan-</text>
				</lyric>
			</note>
			<note>
				<pitch>
					<step>D</step>
					<octave>4</octave>
				</pitch>
				<duration>2</duration>
				<voice>1</voice>
				<type>eighth</type>
				<lyric number="1" name="verse">
					<syllabic>single</syllabic>
					<text>|</text>
				</lyric>
			</note>
			<note>
				<pitch>
					<step>C</step>
					<octave>4</octave>
				</pitch>
				<duration>2</duration>
				<voice>1</voice>
				<type>eighth</type>
				<lyric number="1" name="verse">
					<syllabic>single</syllabic>
					<text>-sent</text>
				</lyric>
			</note>
			<note>
				<pitch>
					<step>E</step>
					<alter>-1</alter>
					<octave>4</octave>
				</pitch>
				<duration>4</duration>
				<voice>1</voice>
				<type>quarter</type>
				<lyric number="1" name="verse">
					<syllabic>single</syllabic>
					<text>au</text>
				</lyric>
			</note>
			<note>
				<pitch>
					<step>F</step>
					<octave>4</octave>
				</pitch>
				<duration>2</duration>
				<voice>1</voice>
				<type>eighth</type>
				<lyric number="1" name="verse">
					<syllabic>single</syllabic>
					<text>pre/-</text>
				</lyric>
			</note>
		</measure>
		<measure number="10">
			<note>
				<pitch>
					<step>G</step>
					<octave>4</octave>
				</pitch>
				<duration>2</duration>
				<voice>1</voice>
				<type>eighth</type>
				<lyric number="1" name="verse">
					<syllabic>single</syllabic>
					<text>-au,</text>
				</lyric>
			</note>
			<note>
				<rest/>
				<duration>2</duration>
				<voice>1</voice>
				<type>eighth</type>
			</note>
			<note>
				<pitch>
					<step>E</step>
					<octave>5</octave>
				</pitch>
				<duration>2</duration>
				<voice>1</voice>
				<type>eighth</type>
				<accidental>natural</accidental>
				<lyric number="1" name="verse">
					<syllabic>single</syllabic>
					<text>E-</text>
				</lyric>
			</note>
			<note>
				<pitch>
					<step>C</step>
					<octave>5</octave>
				</pitch>
				<duration>6</duration>
				<tie type="start"/>
				<voice>1</voice>
				<type>quarter</type>
				<dot/>
				<notations>
					<tied type="start"/>
				</notations>
				<lyric number="1" name="verse">
					<syllabic>single</syllabic>
					<text>-ho!</text>
				</lyric>
			</note>
		</measure>
		<measure number="11">
			<note>
				<pitch>
					<step>C</step>
					<octave>5</octave>
				</pitch>
				<duration>2</duration>
				<tie type="stop"/>
				<voice>1</voice>
				<type>eighth</type>
				<notations>
					<tied type="stop"/>
				</notations>
				<lyric number="1" name="verse">
					<syllabic>single</syllabic>
					<text>|}</text>
				</lyric>
			</note>
			<note>
				<pitch>
					<step>A</step>
					<octave>4</octave>
				</pitch>
				<duration>2</duration>
				<voice>1</voice>
				<type>eighth</type>
				<accidental>natural</accidental>
				<lyric number="1" name="verse">
					<syllabic>single</syllabic>
					<text>{Les</text>
				</lyric>
			</note>
			<note>
				<pitch>
					<step>A</step>
					<octave>4</octave>
				</pitch>
				<duration>2</duration>
				<voice>1</voice>
				<type>eighth</type>
				<accidental>natural</accidental>
				<lyric number="1" name="verse">
					<syllabic>single</syllabic>
					<text>ag-</text>
				</lyric>
			</note>
			<note>
				<pitch>
					<step>A</step>
					<octave>4</octave>
				</pitch>
				<duration>2</duration>
				<voice>1</voice>
				<type>eighth</type>
				<accidental>natural</accidental>
				<lyric number="1" name="verse">
					<syllabic>single</syllabic>
					<text>-neaux</text>
				</lyric>
			</note>
			<note>
				<grace slash="yes"/>
				<pitch>
					<step>C</step>
					<octave>5</octave>
				</pitch>
				<voice>1</voice>
				<type>eighth</type>
				<lyric number="1" name="verse">
					<syllabic>single</syllabic>
					<text>vont</text>
				</lyric>
			</note>
			<note>
				<pitch>
					<step>B</step>
					<octave>4</octave>
				</pitch>
				<duration>2</duration>
				<voice>1</voice>
				<type>eighth</type>
				<accidental>natural</accidental>
				<lyric number="1" name="verse">
					<syllabic>single</syllabic>
					<text>|</text>
				</lyric>
			</note>
			<note>
				<pitch>
					<step>A</step>
					<octave>4</octave>
				</pitch>
				<duration>2</duration>
				<voice>1</voice>
				<type>eighth</type>
				<accidental>natural</accidental>
				<lyric number="1" name="verse">
					<syllabic>single</syllabic>
					<text>aux</text>
				</lyric>
			</note>
		</measure>
		<measure number="12">
			<note>
				<pitch>
					<step>A</step>
					<octave>4</octave>
				</pitch>
				<duration>2</duration>
				<voice>1</voice>
				<type>eighth</type>
				<accidental>natural</accidental>
				<lyric number="1" name="verse">
					<syllabic>single</syllabic>
					<text>plai-</text>
				</lyric>
			</note>
			<note>
				<pitch>
					<step>G</step>
					<octave>4</octave>
				</pitch>
				<duration>2</duration>
				<voice>1</voice>
				<type>eighth</type>
				<lyric number="1" name="verse">
					<syllabic>single</syllabic>
					<text>-nes,</text>
				</lyric>
			</note>
			<note>
				<pitch>
					<step>E</step>
					<alter>-1</alter>
					<octave>5</octave>
				</pitch>
				<duration>2</duration>
				<voice>1</voice>
				<type>eighth</type>
				<lyric number="1" name="verse">
					<syllabic>single</syllabic>
					<text>E-</text>
				</lyric>
			</note>
			<note>
				<pitch>
					<step>C</step>
					<octave>5</octave>
				</pitch>
				<duration>6</duration>
				<tie type="start"/>
				<voice>1</voice>
				<type>quarter</type>
				<dot/>
				<notations>
					<tied type="start"/>
				</notations>
				<lyric number="1" name="verse">
					<syllabic>single</syllabic>
					<text>-ho!</text>
				</lyric>
			</note>
		</measure>
		<measure number="13">
			<note>
				<pitch>
					<step>C</step>
					<octave>5</octave>
				</pitch>
				<duration>2</duration>
				<tie type="stop"/>
				<voice>1</voice>
				<type>eighth</type>
				<notations>
					<tied type="stop"/>
				</notations>
				<lyric number="1" name="verse">
					<syllabic>single</syllabic>
					<text>|}</text>
				</lyric>
			</note>
			<note>
				<pitch>
					<step>A</step>
					<alter>-1</alter>
					<octave>4</octave>
				</pitch>
				<duration>2</duration>
				<voice>1</voice>
				<type>eighth</type>
				<accidental>flat</accidental>
				<lyric number="1" name="verse">
					<syllabic>single</syllabic>
					<text>{Et</text>
				</lyric>
			</note>
			<note>
				<pitch>
					<step>A</step>
					<alter>-1</alter>
					<octave>4</octave>
				</pitch>
				<duration>2</duration>
				<voice>1</voice>
				<type>eighth</type>
				<lyric number="1" name="verse">
					<syllabic>single</syllabic>
					<text>les</text>
				</lyric>
			</note>
			<note>
				<pitch>
					<step>A</step>
					<alter>-1</alter>
					<octave>4</octave>
				</pitch>
				<duration>2</duration>
				<voice>1</voice>
				<type>eighth</type>
				<lyric number="1" name="verse">
					<syllabic>single</syllabic>
					<text>loups</text>
				</lyric>
			</note>
			<note>
				<grace slash="yes"/>
				<pitch>
					<step>C</step>
					<octave>5</octave>
				</pitch>
				<voice>1</voice>
				<type>eighth</type>
				<lyric number="1" name="verse">
					<syllabic>single</syllabic>
					<text>sont</text>
				</lyric>
			</note>
			<note>
				<pitch>
					<step>B</step>
					<alter>-1</alter>
					<octave>4</octave>
				</pitch>
				<duration>2</duration>
				<voice>1</voice>
				<type>eighth</type>
				<lyric number="1" name="verse">
					<syllabic>single</syllabic>
					<text>|</text>
				</lyric>
			</note>
			<note>
				<pitch>
					<step>A</step>
					<alter>-1</alter>
					<octave>4</octave>
				</pitch>
				<duration>2</duration>
				<voice>1</voice>
				<type>eighth</type>
				<lyric number="1" name="verse">
					<syllabic>single</syllabic>
					<text>aux</text>
				</lyric>
			</note>
		</measure>
		<measure number="14">
			<note>
				<pitch>
					<step>G</step>
					<octave>4</octave>
				</pitch>
				<duration>4</duration>
				<voice>1</voice>
				<type>quarter</type>
				<lyric number="1" name="verse">
					<syllabic>single</syllabic>
					<text>bois,}</text>
				</lyric>
			</note>
			<note>
				<rest/>
				<duration>2</duration>
				<voice>1</voice>
				<type>eighth</type>
			</note>
			<note>
				<pitch>
					<step>F</step>
					<octave>4</octave>
				</pitch>
				<duration>2</duration>
				<voice>1</voice>
				<type>eighth</type>
				<lyric number="1" name="verse">
					<syllabic>single</syllabic>
					<text>{Et</text>
				</lyric>
			</note>
			<note>
				<pitch>
					<step>G</step>
					<octave>4</octave>
				</pitch>
				<duration>2</duration>
				<voice>1</voice>
				<type>eighth</type>
				<lyric number="1" name="verse">
					<syllabic>single</syllabic>
					<text>|</text>
				</lyric>
			</note>
			<note>
				<pitch>
					<step>A</step>
					<alter>-1</alter>
					<octave>4</octave>
				</pitch>
				<duration>2</duration>
				<voice>1</voice>
				<type>eighth</type>
				<lyric number="1" name="verse">
					<syllabic>single</syllabic>
					<text>les</text>
				</lyric>
			</note>
		</measure>
		<measure number="15">
			<note>
				<pitch>
					<step>G</step>
					<octave>4</octave>
				</pitch>
				<duration>2</duration>
				<voice>1</voice>
				<type>eighth</type>
				<lyric number="1" name="verse">
					<syllabic>single</syllabic>
					<text>loups</text>
				</lyric>
			</note>
			<note>
				<pitch>
					<step>F</step>
					<octave>4</octave>
				</pitch>
				<duration>2</duration>
				<voice>1</voice>
				<type>eighth</type>
				<lyric number="1" name="verse">
					<syllabic>single</syllabic>
					<text>|</text>
				</lyric>
			</note>
			<note>
				<pitch>
					<step>E</step>
					<alter>-1</alter>
					<octave>4</octave>
				</pitch>
				<duration>2</duration>
				<voice>1</voice>
				<type>eighth</type>
				<lyric number="1" name="verse">
					<syllabic>single</syllabic>
					<text>|</text>
				</lyric>
			</note>
			<note>
				<pitch>
					<step>F</step>
					<octave>4</octave>
				</pitch>
				<duration>2</duration>
				<voice>1</voice>
				<type>eighth</type>
				<lyric number="1" name="verse">
					<syllabic>single</syllabic>
					<text>sont</text>
				</lyric>
			</note>
			<note>
				<grace slash="yes"/>
				<pitch>
					<step>G</step>
					<octave>4</octave>
				</pitch>
				<voice>1</voice>
				<type>16th</type>
				<lyric number="1" name="verse">
					<syllabic>single</syllabic>
					<text>|</text>
				</lyric>
			</note>
			<note>
				<grace slash="yes"/>
				<pitch>
					<step>F</step>
					<octave>4</octave>
				</pitch>
				<voice>1</voice>
				<type>16th</type>
				<lyric number="1" name="verse">
					<syllabic>single</syllabic>
					<text>|</text>
				</lyric>
			</note>
			<note>
				<pitch>
					<step>E</step>
					<alter>-1</alter>
					<octave>4</octave>
				</pitch>
				<duration>2</duration>
				<voice>1</voice>
				<type>eighth</type>
				<lyric number="1" name="verse">
					<syllabic>single</syllabic>
					<text>|</text>
				</lyric>
			</note>
			<note>
				<pitch>
					<step>D</step>
					<octave>4</octave>
				</pitch>
				<duration>2</duration>
				<voice>1</voice>
				<type>eighth</type>
				<lyric number="1" name="verse">
					<syllabic>single</syllabic>
					<text>aux</text>
				</lyric>
			</note>
		</measure>
		<measure number="16">
			<note>
				<pitch>
					<step>C</step>
					<octave>4</octave>
				</pitch>
				<duration>4</duration>
				<voice>1</voice>
				<type>quarter</type>
				<lyric number="1" name="verse">
					<syllabic>single</syllabic>
					<text>bois,</text>
				</lyric>
			</note>
			<note>
				<pitch>
					<step>C</step>
					<octave>5</octave>
				</pitch>
				<duration>2</duration>
				<voice>1</voice>
				<type>eighth</type>
				<lyric number="1" name="verse">
					<syllabic>single</syllabic>
					<text>E-</text>
				</lyric>
			</note>
			<note>
				<pitch>
					<step>G</step>
					<octave>4</octave>
				</pitch>
				<duration>6</duration>
				<tie type="start"/>
				<voice>1</voice>
				<type>quarter</type>
				<dot/>
				<notations>
					<tied type="start"/>
				</notations>
				<lyric number="1" name="verse">
					<syllabic>single</syllabic>
					<text>-ho!</text>
				</lyric>
			</note>
		</measure>
		<measure number="17">
			<note>
				<pitch>
					<step>G</step>
					<octave>4</octave>
				</pitch>
				<duration>2</duration>
				<tie type="stop"/>
				<voice>1</voice>
				<type>eighth</type>
				<notations>
					<tied type="stop"/>
				</notations>
				<lyric number="1" name="verse">
					<syllabic>single</syllabic>
					<text>|}</text>
				</lyric>
			</note>
			<note>
				<pitch>
					<step>C</step>
					<octave>4</octave>
				</pitch>
				<duration>2</duration>
				<voice>1</voice>
				<type>eighth</type>
				<lyric number="1" name="verse">
					<syllabic>single</syllabic>
					<text>{Et</text>
				</lyric>
			</note>
			<note>
				<pitch>
					<step>C</step>
					<octave>4</octave>
				</pitch>
				<duration>2</duration>
				<voice>1</voice>
				<type>eighth</type>
				<lyric number="1" name="verse">
					<syllabic>single</syllabic>
					<text>les</text>
				</lyric>
			</note>
			<note>
				<pitch>
					<step>C</step>
					<octave>4</octave>
				</pitch>
				<duration>2</duration>
				<voice>1</voice>
				<type>eighth</type>
				<lyric number="1" name="verse">
					<syllabic>single</syllabic>
					<text>loups</text>
				</lyric>
			</note>
			<note>
				<pitch>
					<step>D</step>
					<octave>4</octave>
				</pitch>
				<duration>2</duration>
				<voice>1</voice>
				<type>eighth</type>
				<lyric number="1" name="verse">
					<syllabic>single</syllabic>
					<text>sont</text>
				</lyric>
			</note>
			<note>
				<pitch>
					<step>E</step>
					<alter>-1</alter>
					<octave>4</octave>
				</pitch>
				<duration>2</duration>
				<voice>1</voice>
				<type>eighth</type>
				<lyric number="1" name="verse">
					<syllabic>single</syllabic>
					<text>aux</text>
				</lyric>
			</note>
		</measure>
		<measure number="18">
			<note>
				<pitch>
					<step>C</step>
					<octave>4</octave>
				</pitch>
				<duration>2</duration>
				<voice>1</voice>
				<type>eighth</type>
				<lyric number="1" name="verse">
					<syllabic>single</syllabic>
					<text>bois,</text>
				</lyric>
			</note>
			<note>
				<rest/>
				<duration>2</duration>
				<voice>1</voice>
				<type>eighth</type>
			</note>
			<note>
				<pitch>
					<step>G</step>
					<octave>5</octave>
				</pitch>
				<duration>2</duration>
				<voice>1</voice>
				<type>eighth</type>
				<lyric number="1" name="verse">
					<syllabic>single</syllabic>
					<text>E-</text>
				</lyric>
			</note>
			<note>
				<pitch>
					<step>E</step>
					<alter>-1</alter>
					<octave>5</octave>
				</pitch>
				<duration>6</duration>
				<tie type="start"/>
				<voice>1</voice>
				<type>quarter</type>
				<dot/>
				<notations>
					<tied type="start"/>
				</notations>
				<lyric number="1" name="verse">
					<syllabic>single</syllabic>
					<text>ho!</text>
				</lyric>
			</note>
		</measure>
		<measure number="19">
			<note>
				<pitch>
					<step>E</step>
					<alter>-1</alter>
					<octave>5</octave>
				</pitch>
				<duration>12</duration>
				<tie type="stop"/>
				<tie type="start"/>
				<voice>1</voice>
				<type>half</type>
				<dot/>
				<notations>
					<tied type="stop"/>
					<tied type="start"/>
				</notations>
				<lyric number="1" name="verse">
					<syllabic>single</syllabic>
					<text>|</text>
				</lyric>
			</note>
		</measure>
		<measure number="20">
			<note>
				<pitch>
					<step>E</step>
					<alter>-1</alter>
					<octave>5</octave>
				</pitch>
				<duration>4</duration>
				<tie type="stop"/>
				<voice>1</voice>
				<type>quarter</type>
				<notations>
					<tied type="stop"/>
				</notations>
				<lyric number="1" name="verse">
					<syllabic>single</syllabic>
					<text>|}</text>
				</lyric>
			</note>
			<note>
				<rest/>
				<duration>2</duration>
				<voice>1</voice>
				<type>eighth</type>
				<notations>
					<fermata type="upright"/>
				</notations>
			</note>
			<note>
				<pitch>
					<step>D</step>
					<octave>4</octave>
				</pitch>
				<duration>2</duration>
				<voice>1</voice>
				<type>eighth</type>
				<lyric number="1" name="verse">
					<syllabic>single</syllabic>
					<text>{Et</text>
				</lyric>
			</note>
			<note>
				<pitch>
					<step>F</step>
					<octave>4</octave>
				</pitch>
				<duration>2</duration>
				<voice>1</voice>
				<type>eighth</type>
				<lyric number="1" name="verse">
					<syllabic>single</syllabic>
					<text>|</text>
				</lyric>
			</note>
			<note>
				<pitch>
					<step>A</step>
					<alter>-1</alter>
					<octave>4</octave>
				</pitch>
				<duration>2</duration>
				<voice>1</voice>
				<type>eighth</type>
				<lyric number="1" name="verse">
					<syllabic>single</syllabic>
					<text>les</text>
				</lyric>
			</note>
		</measure>
		<measure number="21">
			<note>
				<pitch>
					<step>G</step>
					<octave>4</octave>
				</pitch>
				<duration>2</duration>
				<voice>1</voice>
				<type>eighth</type>
				<lyric number="1" name="verse">
					<syllabic>single</syllabic>
					<text>loups</text>
				</lyric>
			</note>
			<note>
				<pitch>
					<step>C</step>
					<octave>5</octave>
				</pitch>
				<duration>2</duration>
				<voice>1</voice>
				<type>eighth</type>
				<lyric number="1" name="verse">
					<syllabic>single</syllabic>
					<text>|</text>
				</lyric>
			</note>
			<note>
				<pitch>
					<step>E</step>
					<alter>-1</alter>
					<octave>5</octave>
				</pitch>
				<duration>2</duration>
				<voice>1</voice>
				<type>eighth</type>
				<lyric number="1" name="verse">
					<syllabic>single</syllabic>
					<text>|</text>
				</lyric>
			</note>
			<note>
				<pitch>
					<step>C</step>
					<octave>4</octave>
				</pitch>
				<duration>2</duration>
				<voice>1</voice>
				<type>eighth</type>
				<lyric number="1" name="verse">
					<syllabic>single</syllabic>
					<text>sont</text>
				</lyric>
			</note>
			<note>
				<pitch>
					<step>D</step>
					<octave>4</octave>
				</pitch>
				<duration>3</duration>
				<voice>1</voice>
				<type>eighth</type>
				<dot/>
				<lyric number="1" name="verse">
					<syllabic>single</syllabic>
					<text>|</text>
				</lyric>
			</note>
			<note>
				<pitch>
					<step>E</step>
					<alter>-1</alter>
					<octave>4</octave>
				</pitch>
				<duration>1</duration>
				<voice>1</voice>
				<type>16th</type>
				<lyric number="1" name="verse">
					<syllabic>single</syllabic>
					<text>aux</text>
				</lyric>
			</note>
		</measure>
		<measure number="22">
			<note>
				<pitch>
					<step>C</step>
					<octave>4</octave>
				</pitch>
				<duration>4</duration>
				<voice>1</voice>
				<type>quarter</type>
				<lyric number="1" name="verse">
					<syllabic>single</syllabic>
					<text>bois.}</text>
				</lyric>
			</note>
			<note>
				<rest/>
				<duration>2</duration>
				<voice>1</voice>
				<type>eighth</type>
			</note>
			<note>
				<rest/>
				<duration>4</duration>
				<voice>1</voice>
				<type>quarter</type>
			</note>
			<note>
				<rest/>
				<duration>2</duration>
				<voice>1</voice>
				<type>eighth</type>
			</note>
		</measure>
		<measure number="23">
			<note>
				<pitch>
					<step>A</step>
					<alter>-1</alter>
					<octave>4</octave>
				</pitch>
				<duration>2</duration>
				<voice>1</voice>
				<type>eighth</type>
				<lyric number="1" name="verse">
					<syllabic>single</syllabic>
					<text>{T'es</text>
				</lyric>
			</note>
			<note>
				<pitch>
					<step>B</step>
					<alter>-1</alter>
					<octave>4</octave>
				</pitch>
				<duration>2</duration>
				<voice>1</voice>
				<type>eighth</type>
				<lyric number="1" name="verse">
					<syllabic>single</syllabic>
					<text>mon</text>
				</lyric>
			</note>
			<note>
				<pitch>
					<step>C</step>
					<octave>5</octave>
				</pitch>
				<duration>2</duration>
				<voice>1</voice>
				<type>eighth</type>
				<lyric number="1" name="verse">
					<syllabic>single</syllabic>
					<text>ag-</text>
				</lyric>
			</note>
			<note>
				<pitch>
					<step>E</step>
					<alter>-1</alter>
					<octave>5</octave>
				</pitch>
				<duration>4</duration>
				<voice>1</voice>
				<type>quarter</type>
				<lyric number="1" name="verse">
					<syllabic>single</syllabic>
					<text>-neau</text>
				</lyric>
			</note>
			<note>
				<rest/>
				<duration>1</duration>
				<voice>1</voice>
				<type>16th</type>
			</note>
			<note>
				<pitch>
					<step>C</step>
					<octave>5</octave>
				</pitch>
				<duration>1</duration>
				<voice>1</voice>
				<type>16th</type>
				<lyric number="1" name="verse">
					<syllabic>single</syllabic>
					<text>ma</text>
				</lyric>
			</note>
		</measure>
		<measure number="24">
			<note>
				<pitch>
					<step>E</step>
					<alter>-1</alter>
					<octave>4</octave>
				</pitch>
				<duration>6</duration>
				<voice>1</voice>
				<type>quarter</type>
				<dot/>
				<lyric number="1" name="verse">
					<syllabic>single</syllabic>
					<text>rei-</text>
				</lyric>
			</note>
			<note>
				<pitch>
					<step>B</step>
					<alter>-1</alter>
					<octave>4</octave>
				</pitch>
				<duration>4</duration>
				<voice>1</voice>
				<type>quarter</type>
				<lyric number="1" name="verse">
					<syllabic>single</syllabic>
					<text>-ne}</text>
				</lyric>
			</note>
			<note>
				<rest/>
				<duration>2</duration>
				<voice>1</voice>
				<type>eighth</type>
			</note>
		</measure>
		<measure number="25">
			<note>
				<pitch>
					<step>A</step>
					<alter>-1</alter>
					<octave>4</octave>
				</pitch>
				<duration>4</duration>
				<voice>1</voice>
				<type>quarter</type>
				<lyric number="1" name="verse">
					<syllabic>single</syllabic>
					<text>{Les</text>
				</lyric>
			</note>
			<note>
				<pitch>
					<step>G</step>
					<octave>4</octave>
				</pitch>
				<duration>2</duration>
				<voice>1</voice>
				<type>eighth</type>
				<lyric number="1" name="verse">
					<syllabic>single</syllabic>
					<text>grand's</text>
				</lyric>
			</note>
			<note>
				<pitch>
					<step>F</step>
					<octave>4</octave>
				</pitch>
				<duration>4</duration>
				<voice>1</voice>
				<type>quarter</type>
				<lyric number="1" name="verse">
					<syllabic>single</syllabic>
					<text>vill's</text>
				</lyric>
			</note>
			<note>
				<pitch>
					<step>G</step>
					<octave>4</octave>
				</pitch>
				<duration>1</duration>
				<voice>1</voice>
				<type>16th</type>
				<lyric number="1" name="verse">
					<syllabic>single</syllabic>
					<text>c'est</text>
				</lyric>
			</note>
			<note>
				<pitch>
					<step>A</step>
					<alter>-1</alter>
					<octave>4</octave>
				</pitch>
				<duration>1</duration>
				<voice>1</voice>
				<type>16th</type>
				<lyric number="1" name="verse">
					<syllabic>single</syllabic>
					<text>les</text>
				</lyric>
			</note>
		</measure>
		<measure number="26">
			<note>
				<pitch>
					<step>D</step>
					<alter>-1</alter>
					<octave>5</octave>
				</pitch>
				<duration>6</duration>
				<tie type="start"/>
				<voice>1</voice>
				<type>quarter</type>
				<dot/>
				<accidental>flat</accidental>
				<notations>
					<tied type="start"/>
				</notations>
				<lyric number="1" name="verse">
					<syllabic>single</syllabic>
					<text>bois</text>
				</lyric>
			</note>
			<note>
				<pitch>
					<step>D</step>
					<alter>-1</alter>
					<octave>5</octave>
				</pitch>
				<duration>4</duration>
				<tie type="stop"/>
				<voice>1</voice>
				<type>quarter</type>
				<notations>
					<tied type="stop"/>
				</notations>
				<lyric number="1" name="verse">
					<syllabic>single</syllabic>
					<text>|}</text>
				</lyric>
			</note>
			<note>
				<rest/>
				<duration>2</duration>
				<voice>1</voice>
				<type>eighth</type>
			</note>
		</measure>
		<measure number="27">
			<note>
				<pitch>
					<step>B</step>
					<alter>-1</alter>
					<octave>4</octave>
				</pitch>
				<duration>4</duration>
				<voice>1</voice>
				<type>quarter</type>
				<lyric number="1" name="verse">
					<syllabic>single</syllabic>
					<text>{Par</text>
				</lyric>
			</note>
			<note>
				<pitch>
					<step>C</step>
					<octave>5</octave>
				</pitch>
				<duration>2</duration>
				<voice>1</voice>
				<type>eighth</type>
				<lyric number="1" name="verse">
					<syllabic>single</syllabic>
					<text>ain-</text>
				</lyric>
			</note>
			<note>
				<pitch>
					<step>B</step>
					<alter>-1</alter>
					<octave>4</octave>
				</pitch>
				<duration>2</duration>
				<voice>1</voice>
				<type>eighth</type>
				<lyric number="1" name="verse">
					<syllabic>single</syllabic>
					<text>-si</text>
				</lyric>
			</note>
			<note>
				<pitch>
					<step>G</step>
					<octave>4</octave>
				</pitch>
				<duration>3</duration>
				<voice>1</voice>
				<type>eighth</type>
				<dot/>
				<lyric number="1" name="verse">
					<syllabic>single</syllabic>
					<text>Ma-</text>
				</lyric>
			</note>
			<note>
				<pitch>
					<step>F</step>
					<octave>4</octave>
				</pitch>
				<duration>1</duration>
				<voice>1</voice>
				<type>16th</type>
				<lyric number="1" name="verse">
					<syllabic>single</syllabic>
					<text>-de-</text>
				</lyric>
			</note>
		</measure>
		<measure number="28">
			<note>
				<pitch>
					<step>F</step>
					<octave>4</octave>
				</pitch>
				<duration>6</duration>
				<voice>1</voice>
				<type>quarter</type>
				<dot/>
				<lyric number="1" name="verse">
					<syllabic>single</syllabic>
					<text>-lei-</text>
				</lyric>
			</note>
			<note>
				<pitch>
					<step>E</step>
					<alter>-1</alter>
					<octave>4</octave>
				</pitch>
				<duration>4</duration>
				<voice>1</voice>
				<type>quarter</type>
				<lyric number="1" name="verse">
					<syllabic>single</syllabic>
					<text>-ne}</text>
				</lyric>
			</note>
			<note>
				<rest/>
				<duration>2</duration>
				<voice>1</voice>
				<type>eighth</type>
			</note>
		</measure>
		<measure number="29">
			<note>
				<pitch>
					<step>B</step>
					<alter>-1</alter>
					<octave>4</octave>
				</pitch>
				<duration>4</duration>
				<voice>1</voice>
				<type>quarter</type>
				<lyric number="1" name="verse">
					<syllabic>single</syllabic>
					<text>{T'en</text>
				</lyric>
			</note>
			<note>
				<pitch>
					<step>C</step>
					<octave>5</octave>
				</pitch>
				<duration>2</duration>
				<voice>1</voice>
				<type>eighth</type>
				<lyric number="1" name="verse">
					<syllabic>single</syllabic>
					<text>va</text>
				</lyric>
			</note>
			<note>
				<pitch>
					<step>D</step>
					<alter>-1</alter>
					<octave>5</octave>
				</pitch>
				<duration>2</duration>
				<voice>1</voice>
				<type>eighth</type>
				<accidental>flat</accidental>
				<lyric number="1" name="verse">
					<syllabic>single</syllabic>
					<text>pas</text>
				</lyric>
			</note>
			<note>
				<pitch>
					<step>B</step>
					<alter>-1</alter>
					<octave>4</octave>
				</pitch>
				<duration>3</duration>
				<voice>1</voice>
				<type>eighth</type>
				<dot/>
				<lyric number="1" name="verse">
					<syllabic>single</syllabic>
					<text>loin</text>
				</lyric>
			</note>
			<note>
				<pitch>
					<step>F</step>
					<octave>5</octave>
				</pitch>
				<duration>1</duration>
				<voice>1</voice>
				<type>16th</type>
				<lyric number="1" name="verse">
					<syllabic>single</syllabic>
					<text>de</text>
				</lyric>
			</note>
		</measure>
		<measure number="30">
			<note>
				<pitch>
					<step>F</step>
					<octave>5</octave>
				</pitch>
				<duration>6</duration>
				<voice>1</voice>
				<type>quarter</type>
				<dot/>
				<lyric number="1" name="verse">
					<syllabic>single</syllabic>
					<text>moi.</text>
				</lyric>
			</note>
			<note>
				<pitch>
					<step>B</step>
					<alter>-1</alter>
					<octave>4</octave>
				</pitch>
				<duration>4</duration>
				<voice>1</voice>
				<type>quarter</type>
				<lyric number="1" name="verse">
					<syllabic>single</syllabic>
					<text>|}</text>
				</lyric>
			</note>
			<note>
				<rest/>
				<duration>2</duration>
				<voice>1</voice>
				<type>eighth</type>
			</note>
		</measure>
		<measure number="31">
			<note>
				<pitch>
					<step>A</step>
					<alter>-1</alter>
					<octave>4</octave>
				</pitch>
				<duration>4</duration>
				<voice>1</voice>
				<type>quarter</type>
				<lyric number="1" name="verse">
					<syllabic>single</syllabic>
					<text>{T'en</text>
				</lyric>
			</note>
			<note>
				<pitch>
					<step>B</step>
					<alter>-1</alter>
					<octave>4</octave>
				</pitch>
				<duration>2</duration>
				<voice>1</voice>
				<type>eighth</type>
				<lyric number="1" name="verse">
					<syllabic>single</syllabic>
					<text>va</text>
				</lyric>
			</note>
			<note>
				<pitch>
					<step>C</step>
					<octave>5</octave>
				</pitch>
				<duration>2</duration>
				<voice>1</voice>
				<type>eighth</type>
				<lyric number="1" name="verse">
					<syllabic>single</syllabic>
					<text>pas</text>
				</lyric>
			</note>
			<note>
				<pitch>
					<step>A</step>
					<alter>-1</alter>
					<octave>4</octave>
				</pitch>
				<duration>3</duration>
				<voice>1</voice>
				<type>eighth</type>
				<dot/>
				<lyric number="1" name="verse">
					<syllabic>single</syllabic>
					<text>loin</text>
				</lyric>
			</note>
			<note>
				<pitch>
					<step>E</step>
					<alter>-1</alter>
					<octave>5</octave>
				</pitch>
				<duration>1</duration>
				<voice>1</voice>
				<type>16th</type>
				<lyric number="1" name="verse">
					<syllabic>single</syllabic>
					<text>de</text>
				</lyric>
			</note>
		</measure>
		<measure number="32">
			<note>
				<pitch>
					<step>E</step>
					<alter>-1</alter>
					<octave>5</octave>
				</pitch>
				<duration>6</duration>
				<voice>1</voice>
				<type>quarter</type>
				<dot/>
				<lyric number="1" name="verse">
					<syllabic>single</syllabic>
					<text>moi.</text>
				</lyric>
			</note>
			<note>
				<pitch>
					<step>A</step>
					<alter>-1</alter>
					<octave>4</octave>
				</pitch>
				<duration>4</duration>
				<voice>1</voice>
				<type>quarter</type>
				<lyric number="1" name="verse">
					<syllabic>single</syllabic>
					<text>|}</text>
				</lyric>
			</note>
			<note>
				<rest/>
				<duration>2</duration>
				<voice>1</voice>
				<type>eighth</type>
			</note>
		</measure>
		<measure number="33">
			<note>
				<rest/>
				<duration>4</duration>
				<voice>1</voice>
				<type>quarter</type>
			</note>
			<note>
				<rest/>
				<duration>2</duration>
				<voice>1</voice>
				<type>eighth</type>
			</note>
			<note>
				<pitch>
					<step>C</step>
					<octave>5</octave>
				</pitch>
				<duration>4</duration>
				<voice>1</voice>
				<type>quarter</type>
				<lyric number="1" name="verse">
					<syllabic>single</syllabic>
					<text>{Ma-</text>
				</lyric>
			</note>
			<note>
				<pitch>
					<step>A</step>
					<alter>-1</alter>
					<octave>4</octave>
				</pitch>
				<duration>2</duration>
				<voice>1</voice>
				<type>eighth</type>
				<lyric number="1" name="verse">
					<syllabic>single</syllabic>
					<text>-de-</text>
				</lyric>
			</note>
		</measure>
		<measure number="34">
			<note>
				<pitch>
					<step>G</step>
					<octave>4</octave>
				</pitch>
				<duration>6</duration>
				<voice>1</voice>
				<type>quarter</type>
				<dot/>
				<lyric number="1" name="verse">
					<syllabic>single</syllabic>
					<text>-lei-</text>
				</lyric>
			</note>
			<note>
				<pitch>
					<step>F</step>
					<octave>4</octave>
				</pitch>
				<duration>6</duration>
				<voice>1</voice>
				<type>quarter</type>
				<dot/>
				<lyric number="1" name="verse">
					<syllabic>single</syllabic>
					<text>-ne}</text>
				</lyric>
			</note>
		</measure>
		<measure number="35">
			<note>
				<rest/>
				<duration>2</duration>
				<voice>1</voice>
				<type>eighth</type>
			</note>
			<note>
				<pitch>
					<step>B</step>
					<alter>-1</alter>
					<octave>4</octave>
				</pitch>
				<duration>2</duration>
				<voice>1</voice>
				<type>eighth</type>
				<lyric number="1" name="verse">
					<syllabic>single</syllabic>
					<text>{T'en</text>
				</lyric>
			</note>
			<note>
				<pitch>
					<step>B</step>
					<alter>-1</alter>
					<octave>4</octave>
				</pitch>
				<duration>2</duration>
				<voice>1</voice>
				<type>eighth</type>
				<lyric number="1" name="verse">
					<syllabic>single</syllabic>
					<text>vas</text>
				</lyric>
			</note>
			<note>
				<grace slash="yes"/>
				<pitch>
					<step>B</step>
					<alter>-1</alter>
					<octave>4</octave>
				</pitch>
				<voice>1</voice>
				<type>breve</type>
				<lyric number="1" name="verse">
					<syllabic>single</syllabic>
					<text>pas</text>
				</lyric>
			</note>
			<note>
				<grace slash="yes"/>
				<pitch>
					<step>C</step>
					<octave>5</octave>
				</pitch>
				<voice>1</voice>
				<type>16th</type>
				<lyric number="1" name="verse">
					<syllabic>single</syllabic>
					<text>|</text>
				</lyric>
			</note>
			<note>
				<pitch>
					<step>B</step>
					<alter>-1</alter>
					<octave>4</octave>
				</pitch>
				<duration>2</duration>
				<voice>1</voice>
				<type>eighth</type>
				<lyric number="1" name="verse">
					<syllabic>single</syllabic>
					<text>|</text>
				</lyric>
			</note>
			<note>
				<pitch>
					<step>A</step>
					<alter>-1</alter>
					<octave>4</octave>
				</pitch>
				<duration>3</duration>
				<voice>1</voice>
				<type>eighth</type>
				<dot/>
				<lyric number="1" name="verse">
					<syllabic>single</syllabic>
					<text>loin</text>
				</lyric>
			</note>
			<note>
				<pitch>
					<step>B</step>
					<alter>-1</alter>
					<octave>4</octave>
				</pitch>
				<duration>1</duration>
				<voice>1</voice>
				<type>16th</type>
				<lyric number="1" name="verse">
					<syllabic>single</syllabic>
					<text>de</text>
				</lyric>
			</note>
		</measure>
		<measure number="36">
			<note>
				<pitch>
					<step>C</step>
					<octave>5</octave>
				</pitch>
				<duration>4</duration>
				<voice>1</voice>
				<type>quarter</type>
				<lyric number="1" name="verse">
					<syllabic>single</syllabic>
					<text>moi.}</text>
				</lyric>
			</note>
			<note>
				<rest/>
				<duration>2</duration>
				<voice>1</voice>
				<type>eighth</type>
			</note>
			<note>
				<rest/>
				<duration>6</duration>
				<voice>1</voice>
				<type>quarter</type>
				<dot/>
			</note>
		</measure>
	</part>
</score-partwise>
